  0
SECTION
  2
HEADER
  9
$ACADVER
  1
AC1027
  9
$ACADMAINTVER
 70
     8
  9
$DWGCODEPAGE
  3
ANSI_1250
  9
$REQUIREDVERSIONS
160
                 0
  9
$INSBASE
 10
0.0
 20
0.0
 30
0.0
  9
$EXTMIN
 10
1.000000000000000E+20
 20
1.000000000000000E+20
 30
1.000000000000000E+20
  9
$EXTMAX
 10
-1.000000000000000E+20
 20
-1.000000000000000E+20
 30
-1.000000000000000E+20
  9
$LIMMIN
 10
-27.80000028
 20
-1.05000044
  9
$LIMMAX
 10
117.18742374
 20
56.31666664
  9
$ORTHOMODE
 70
     0
  9
$REGENMODE
 70
     1
  9
$FILLMODE
 70
     1
  9
$QTEXTMODE
 70
     0
  9
$MIRRTEXT
 70
     1
  9
$LTSCALE
 40
1.0
  9
$ATTMODE
 70
     1
  9
$TEXTSIZE
 40
2.5
  9
$TRACEWID
 40
1.0
  9
$TEXTSTYLE
  7
Standard
  9
$CLAYER
  8
0
  9
$CELTYPE
  6
ByLayer
  9
$CECOLOR
 62
   256
  9
$CELTSCALE
 40
1.0
  9
$DISPSILH
 70
     0
  9
$DIMSCALE
 40
1.0
  9
$DIMASZ
 40
2.5
  9
$DIMEXO
 40
0.625
  9
$DIMDLI
 40
3.75
  9
$DIMRND
 40
0.0
  9
$DIMDLE
 40
0.0
  9
$DIMEXE
 40
1.25
  9
$DIMTP
 40
0.0
  9
$DIMTM
 40
0.0
  9
$DIMTXT
 40
2.5
  9
$DIMCEN
 40
2.5
  9
$DIMTSZ
 40
0.0
  9
$DIMTOL
 70
     0
  9
$DIMLIM
 70
     0
  9
$DIMTIH
 70
     0
  9
$DIMTOH
 70
     0
  9
$DIMSE1
 70
     0
  9
$DIMSE2
 70
     0
  9
$DIMTAD
 70
     1
  9
$DIMZIN
 70
     8
  9
$DIMBLK
  1

  9
$DIMASO
 70
     1
  9
$DIMSHO
 70
     1
  9
$DIMPOST
  1

  9
$DIMAPOST
  1

  9
$DIMALT
 70
     0
  9
$DIMALTD
 70
     3
  9
$DIMALTF
 40
0.03937007874016
  9
$DIMLFAC
 40
1.0
  9
$DIMTOFL
 70
     1
  9
$DIMTVP
 40
0.0
  9
$DIMTIX
 70
     0
  9
$DIMSOXD
 70
     0
  9
$DIMSAH
 70
     0
  9
$DIMBLK1
  1

  9
$DIMBLK2
  1

  9
$DIMSTYLE
  2
ISO-25
  9
$DIMCLRD
 70
     0
  9
$DIMCLRE
 70
     0
  9
$DIMCLRT
 70
     0
  9
$DIMTFAC
 40
1.0
  9
$DIMGAP
 40
0.625
  9
$DIMJUST
 70
     0
  9
$DIMSD1
 70
     0
  9
$DIMSD2
 70
     0
  9
$DIMTOLJ
 70
     0
  9
$DIMTZIN
 70
     8
  9
$DIMALTZ
 70
     0
  9
$DIMALTTZ
 70
     0
  9
$DIMUPT
 70
     0
  9
$DIMDEC
 70
     2
  9
$DIMTDEC
 70
     2
  9
$DIMALTU
 70
     2
  9
$DIMALTTD
 70
     3
  9
$DIMTXSTY
  7
Standard
  9
$DIMAUNIT
 70
     0
  9
$DIMADEC
 70
     0
  9
$DIMALTRND
 40
0.0
  9
$DIMAZIN
 70
     0
  9
$DIMDSEP
 70
    44
  9
$DIMATFIT
 70
     3
  9
$DIMFRAC
 70
     0
  9
$DIMLDRBLK
  1

  9
$DIMLUNIT
 70
     2
  9
$DIMLWD
 70
    -2
  9
$DIMLWE
 70
    -2
  9
$DIMTMOVE
 70
     0
  9
$DIMFXL
 40
1.0
  9
$DIMFXLON
 70
     0
  9
$DIMJOGANG
 40
0.7853981633974483
  9
$DIMTFILL
 70
     0
  9
$DIMTFILLCLR
 70
     0
  9
$DIMARCSYM
 70
     0
  9
$DIMLTYPE
  6

  9
$DIMLTEX1
  6

  9
$DIMLTEX2
  6

  9
$DIMTXTDIRECTION
 70
     0
  9
$LUNITS
 70
     2
  9
$LUPREC
 70
     4
  9
$SKETCHINC
 40
1.0
  9
$FILLETRAD
 40
10.0
  9
$AUNITS
 70
     0
  9
$AUPREC
 70
     0
  9
$MENU
  1
.
  9
$ELEVATION
 40
0.0
  9
$PELEVATION
 40
0.0
  9
$THICKNESS
 40
0.0
  9
$LIMCHECK
 70
     0
  9
$CHAMFERA
 40
0.0
  9
$CHAMFERB
 40
0.0
  9
$CHAMFERC
 40
0.0
  9
$CHAMFERD
 40
0.0
  9
$SKPOLY
 70
     0
  9
$TDCREATE
 40
2459765.39475765
  9
$TDUCREATE
 40
2459765.311424317
  9
$TDUPDATE
 40
2459765.394759722
  9
$TDUUPDATE
 40
2459765.311426389
  9
$TDINDWG
 40
0.0000000116
  9
$TDUSRTIMER
 40
0.0000000116
  9
$USRTIMER
 70
     1
  9
$ANGBASE
 50
0.0
  9
$ANGDIR
 70
     0
  9
$PDMODE
 70
     0
  9
$PDSIZE
 40
0.0
  9
$PLINEWID
 40
0.0
  9
$SPLFRAME
 70
     0
  9
$SPLINETYPE
 70
     6
  9
$SPLINESEGS
 70
     8
  9
$HANDSEED
  5
22A
  9
$SURFTAB1
 70
     6
  9
$SURFTAB2
 70
     6
  9
$SURFTYPE
 70
     6
  9
$SURFU
 70
     6
  9
$SURFV
 70
     6
  9
$UCSBASE
  2

  9
$UCSNAME
  2

  9
$UCSORG
 10
0.0
 20
0.0
 30
0.0
  9
$UCSXDIR
 10
1.0
 20
0.0
 30
0.0
  9
$UCSYDIR
 10
0.0
 20
1.0
 30
0.0
  9
$UCSORTHOREF
  2

  9
$UCSORTHOVIEW
 70
     0
  9
$UCSORGTOP
 10
0.0
 20
0.0
 30
0.0
  9
$UCSORGBOTTOM
 10
0.0
 20
0.0
 30
0.0
  9
$UCSORGLEFT
 10
0.0
 20
0.0
 30
0.0
  9
$UCSORGRIGHT
 10
0.0
 20
0.0
 30
0.0
  9
$UCSORGFRONT
 10
0.0
 20
0.0
 30
0.0
  9
$UCSORGBACK
 10
0.0
 20
0.0
 30
0.0
  9
$PUCSBASE
  2

  9
$PUCSNAME
  2

  9
$PUCSORG
 10
0.0
 20
0.0
 30
0.0
  9
$PUCSXDIR
 10
1.0
 20
0.0
 30
0.0
  9
$PUCSYDIR
 10
0.0
 20
1.0
 30
0.0
  9
$PUCSORTHOREF
  2

  9
$PUCSORTHOVIEW
 70
     0
  9
$PUCSORGTOP
 10
0.0
 20
0.0
 30
0.0
  9
$PUCSORGBOTTOM
 10
0.0
 20
0.0
 30
0.0
  9
$PUCSORGLEFT
 10
0.0
 20
0.0
 30
0.0
  9
$PUCSORGRIGHT
 10
0.0
 20
0.0
 30
0.0
  9
$PUCSORGFRONT
 10
0.0
 20
0.0
 30
0.0
  9
$PUCSORGBACK
 10
0.0
 20
0.0
 30
0.0
  9
$USERI1
 70
     0
  9
$USERI2
 70
     0
  9
$USERI3
 70
     0
  9
$USERI4
 70
     0
  9
$USERI5
 70
     0
  9
$USERR1
 40
0.0
  9
$USERR2
 40
0.0
  9
$USERR3
 40
0.0
  9
$USERR4
 40
0.0
  9
$USERR5
 40
0.0
  9
$WORLDVIEW
 70
     1
  9
$SHADEDGE
 70
     3
  9
$SHADEDIF
 70
    70
  9
$TILEMODE
 70
     1
  9
$MAXACTVP
 70
    64
  9
$PINSBASE
 10
0.0
 20
0.0
 30
0.0
  9
$PLIMCHECK
 70
     0
  9
$PEXTMIN
 10
1.000000000000000E+20
 20
1.000000000000000E+20
 30
1.000000000000000E+20
  9
$PEXTMAX
 10
-1.000000000000000E+20
 20
-1.000000000000000E+20
 30
-1.000000000000000E+20
  9
$PLIMMIN
 10
0.0
 20
0.0
  9
$PLIMMAX
 10
420.0
 20
297.0
  9
$UNITMODE
 70
     0
  9
$VISRETAIN
 70
     1
  9
$PLINEGEN
 70
     0
  9
$PSLTSCALE
 70
     1
  9
$TREEDEPTH
 70
  3020
  9
$CMLSTYLE
  2
Standard
  9
$CMLJUST
 70
     0
  9
$CMLSCALE
 40
20.0
  9
$PROXYGRAPHICS
 70
     1
  9
$MEASUREMENT
 70
     1
  9
$CELWEIGHT
370
    -1
  9
$ENDCAPS
280
     0
  9
$JOINSTYLE
280
     0
  9
$LWDISPLAY
290
     0
  9
$INSUNITS
 70
     4
  9
$HYPERLINKBASE
  1

  9
$STYLESHEET
  1

  9
$XEDIT
290
     1
  9
$CEPSNTYPE
380
     0
  9
$PSTYLEMODE
290
     1
  9
$FINGERPRINTGUID
  2
{203B9DB1-8B18-4D15-A30A-8D0D00E11D02}
  9
$VERSIONGUID
  2
{FAEB1C32-E019-11D5-929B-00C0DF256EC4}
  9
$EXTNAMES
290
     1
  9
$PSVPSCALE
 40
0.0
  9
$OLESTARTUP
290
     0
  9
$SORTENTS
280
   127
  9
$INDEXCTL
280
     0
  9
$HIDETEXT
280
     1
  9
$XCLIPFRAME
280
     2
  9
$HALOGAP
280
     0
  9
$OBSCOLOR
 70
   257
  9
$OBSLTYPE
280
     0
  9
$INTERSECTIONDISPLAY
280
     0
  9
$INTERSECTIONCOLOR
 70
   257
  9
$DIMASSOC
280
     2
  9
$PROJECTNAME
  1

  9
$CAMERADISPLAY
290
     0
  9
$LENSLENGTH
 40
50.0
  9
$CAMERAHEIGHT
 40
0.0
  9
$STEPSPERSEC
 40
2.0
  9
$STEPSIZE
 40
6.0
  9
$3DDWFPREC
 40
2.0
  9
$PSOLWIDTH
 40
5.0
  9
$PSOLHEIGHT
 40
80.0
  9
$LOFTANG1
 40
1.570796326794897
  9
$LOFTANG2
 40
1.570796326794897
  9
$LOFTMAG1
 40
0.0
  9
$LOFTMAG2
 40
0.0
  9
$LOFTPARAM
 70
     7
  9
$LOFTNORMALS
280
     1
  9
$LATITUDE
 40
37.795
  9
$LONGITUDE
 40
-122.394
  9
$NORTHDIRECTION
 40
0.0
  9
$TIMEZONE
 70
 -8000
  9
$LIGHTGLYPHDISPLAY
280
     1
  9
$TILEMODELIGHTSYNCH
280
     1
  9
$CMATERIAL
347
44
  9
$SOLIDHIST
280
     0
  9
$SHOWHIST
280
     1
  9
$DWFFRAME
280
     2
  9
$DGNFRAME
280
     2
  9
$REALWORLDSCALE
290
     1
  9
$INTERFERECOLOR
 62
   256
  9
$CSHADOW
280
     0
  9
$SHADOWPLANELOCATION
 40
0.0
  0
ENDSEC
  0
SECTION
  2
CLASSES
  0
CLASS
  1
ACDBDICTIONARYWDFLT
  2
AcDbDictionaryWithDefault
  3
ObjectDBX Classes
 90
        0
 91
        4
280
     0
281
     0
  0
CLASS
  1
VISUALSTYLE
  2
AcDbVisualStyle
  3
ObjectDBX Classes
 90
     4095
 91
        4
280
     0
281
     0
  0
CLASS
  1
MATERIAL
  2
AcDbMaterial
  3
ObjectDBX Classes
 90
     1153
 91
        4
280
     0
281
     0
  0
CLASS
  1
SCALE
  2
AcDbScale
  3
ObjectDBX Classes
 90
     1153
 91
        4
280
     0
281
     0
  0
CLASS
  1
TABLESTYLE
  2
AcDbTableStyle
  3
ObjectDBX Classes
 90
     4095
 91
        4
280
     0
281
     0
  0
CLASS
  1
MLEADERSTYLE
  2
AcDbMLeaderStyle
  3
ACDB_MLEADERSTYLE_CLASS
 90
     4095
 91
        4
280
     0
281
     0
  0
CLASS
  1
SUN
  2
AcDbSun
  3
SCENEOE
 90
     1153
 91
        4
280
     0
281
     0
  0
CLASS
  1
DICTIONARYVAR
  2
AcDbDictionaryVar
  3
ObjectDBX Classes
 90
        0
 91
        4
280
     0
281
     0
  0
CLASS
  1
CELLSTYLEMAP
  2
AcDbCellStyleMap
  3
ObjectDBX Classes
 90
     1152
 91
        4
280
     0
281
     0
  0
ENDSEC
  0
SECTION
  2
TABLES
  0
TABLE
  2
VPORT
  5
8
330
0
100
AcDbSymbolTable
 70
     1
  0
VPORT
  5
29
330
8
100
AcDbSymbolTableRecord
100
AcDbViewportTableRecord
  2
*Active
 70
     0
 10
0.0
 20
0.0
 11
1.0
 21
1.0
 12
344.1869158878504
 22
148.5
 13
0.0
 23
0.0
 14
10.0
 24
10.0
 15
10.0
 25
10.0
 16
0.0
 26
0.0
 36
1.0
 17
0.0
 27
0.0
 37
0.0
 40
297.0
 41
1.972972972850329
 42
50.0
 43
0.0
 44
0.0
 50
0.0
 51
0.0
 71
     0
 72
   100
 73
     1
 74
     3
 75
     0
 76
     0
 77
     0
 78
     0
281
     0
 65
     1
110
0.0
120
0.0
130
0.0
111
1.0
121
0.0
131
0.0
112
0.0
122
1.0
132
0.0
 79
     0
146
0.0
 60
     3
 61
     5
292
     1
282
     1
141
0.0
142
0.0
 63
   250
361
6D
  0
ENDTAB
  0
TABLE
  2
LTYPE
  5
5
330
0
100
AcDbSymbolTable
 70
     1
  0
LTYPE
  5
14
330
5
100
AcDbSymbolTableRecord
100
AcDbLinetypeTableRecord
  2
ByBlock
 70
     0
  3

 72
    65
 73
     0
 40
0.0
  0
LTYPE
  5
15
330
5
100
AcDbSymbolTableRecord
100
AcDbLinetypeTableRecord
  2
ByLayer
 70
     0
  3

 72
    65
 73
     0
 40
0.0
  0
LTYPE
  5
16
330
5
100
AcDbSymbolTableRecord
100
AcDbLinetypeTableRecord
  2
Continuous
 70
     0
  3
Solid line
 72
    65
 73
     0
 40
0.0
  0
ENDTAB
  0
TABLE
  2
LAYER
  5
2
330
0
100
AcDbSymbolTable
 70
     8
  0
LAYER
  5
10
330
2
100
AcDbSymbolTableRecord
100
AcDbLayerTableRecord
  2
0
 70
     0
 62
     7
  6
Continuous
370
    -3
390
F
347
46
348
0
  0
LAYER
  5
6E
330
2
100
AcDbSymbolTableRecord
100
AcDbLayerTableRecord
  2
Mechanical1
 70
     0
 62
     6
  6
Continuous
370
    -3
390
F
347
46
348
0
  0
LAYER
  5
6F
330
2
100
AcDbSymbolTableRecord
100
AcDbLayerTableRecord
  2
Mechanical20
 70
     0
 62
    56
  6
Continuous
370
    -3
390
F
347
46
348
0
  0
LAYER
  5
70
330
2
100
AcDbSymbolTableRecord
100
AcDbLayerTableRecord
  2
Mechanical10
 70
     0
 62
    56
  6
Continuous
370
    -3
390
F
347
46
348
0
  0
LAYER
  5
71
330
2
100
AcDbSymbolTableRecord
100
AcDbLayerTableRecord
  2
Mechanical19
 70
     0
 62
    56
  6
Continuous
370
    -3
390
F
347
46
348
0
  0
LAYER
  5
72
330
2
100
AcDbSymbolTableRecord
100
AcDbLayerTableRecord
  2
BottomOverlay
 70
     0
 62
    54
  6
Continuous
370
    -3
390
F
347
46
348
0
  0
LAYER
  5
73
330
2
100
AcDbSymbolTableRecord
100
AcDbLayerTableRecord
  2
MultiLayer
 70
     0
 62
     9
  6
Continuous
370
    -3
390
F
347
46
348
0
  0
LAYER
  5
74
330
2
100
AcDbSymbolTableRecord
100
AcDbLayerTableRecord
  2
TopOverlay
 70
     0
 62
     2
  6
Continuous
370
    -3
390
F
347
46
348
0
  0
ENDTAB
  0
TABLE
  2
STYLE
  5
3
330
0
100
AcDbSymbolTable
 70
     4
  0
STYLE
  5
11
330
3
100
AcDbSymbolTableRecord
100
AcDbTextStyleTableRecord
  2
Standard
 70
     0
 40
0.0
 41
1.0
 50
0.0
 71
     0
 42
2.5
  3
txt
  4

  0
STYLE
  5
A0
330
3
100
AcDbSymbolTableRecord
100
AcDbTextStyleTableRecord
  2
Microsoft Sans Serif
 70
     0
 40
0.2
 41
1.0
 50
0.0
 71
     0
 42
2.5
  3

  4

1001
ACAD
1000
Microsoft Sans Serif
1071
 33554432
  0
STYLE
  5
A3
330
3
100
AcDbSymbolTableRecord
100
AcDbTextStyleTableRecord
  2
Arial Black
 70
     0
 40
0.2
 41
1.0
 50
0.0
 71
     0
 42
2.5
  3

  4

1001
ACAD
1000
Arial Black
1071
        0
  0
STYLE
  5
A5
330
3
100
AcDbSymbolTableRecord
100
AcDbTextStyleTableRecord
  2
Arial
 70
     0
 40
0.2
 41
1.0
 50
0.0
 71
     0
 42
2.5
  3

  4

1001
ACAD
1000
Arial
1071
        0
  0
ENDTAB
  0
TABLE
  2
VIEW
  5
6
330
0
100
AcDbSymbolTable
 70
     0
  0
ENDTAB
  0
TABLE
  2
UCS
  5
7
330
0
100
AcDbSymbolTable
 70
     0
  0
ENDTAB
  0
TABLE
  2
APPID
  5
9
330
0
100
AcDbSymbolTable
 70
     1
  0
APPID
  5
12
330
9
100
AcDbSymbolTableRecord
100
AcDbRegAppTableRecord
  2
ACAD
 70
     0
  0
ENDTAB
  0
TABLE
  2
DIMSTYLE
  5
A
330
0
100
AcDbSymbolTable
 70
     1
100
AcDbDimStyleTable
  0
DIMSTYLE
105
27
330
A
100
AcDbSymbolTableRecord
100
AcDbDimStyleTableRecord
  2
ISO-25
 70
     0
 41
2.5
 42
0.625
 43
3.75
 44
1.25
 73
     0
 74
     0
 77
     1
 78
     8
140
2.5
141
2.5
143
0.03937007874016
147
0.625
171
     3
172
     1
178
     0
271
     2
272
     2
274
     3
278
    44
283
     0
284
     8
340
11
  0
ENDTAB
  0
TABLE
  2
BLOCK_RECORD
  5
1
330
0
100
AcDbSymbolTable
 70
    16
  0
BLOCK_RECORD
  5
1F
330
1
100
AcDbSymbolTableRecord
100
AcDbBlockTableRecord
  2
*Model_Space
340
22
 70
     0
280
     1
281
     0
  0
BLOCK_RECORD
  5
1B
330
1
100
AcDbSymbolTableRecord
100
AcDbBlockTableRecord
  2
*Paper_Space
340
1E
 70
     0
280
     1
281
     0
  0
BLOCK_RECORD
  5
23
330
1
100
AcDbSymbolTableRecord
100
AcDbBlockTableRecord
  2
*Paper_Space0
340
26
 70
     0
280
     1
281
     0
  0
BLOCK_RECORD
  5
DA
330
1
100
AcDbSymbolTableRecord
100
AcDbBlockTableRecord
  2
SWI_SHR_1301_9319_1
340
0
102
{BLKREFS
331
11A
102
}
 70
     0
280
     1
281
     0
  0
BLOCK_RECORD
  5
11B
330
1
100
AcDbSymbolTableRecord
100
AcDbBlockTableRecord
  2
LED_BVR_VLP_400_F_2
340
0
102
{BLKREFS
331
12A
102
}
 70
     0
280
     1
281
     0
  0
BLOCK_RECORD
  5
12B
330
1
100
AcDbSymbolTableRecord
100
AcDbBlockTableRecord
  2
LED_BVR_VLP_400_F_3
340
0
102
{BLKREFS
331
13A
102
}
 70
     0
280
     1
281
     0
  0
BLOCK_RECORD
  5
13B
330
1
100
AcDbSymbolTableRecord
100
AcDbBlockTableRecord
  2
LED_0805_RED_R_4
340
0
102
{BLKREFS
331
157
102
}
 70
     0
280
     1
281
     0
  0
BLOCK_RECORD
  5
158
330
1
100
AcDbSymbolTableRecord
100
AcDbBlockTableRecord
  2
LED_0805_GRN_R_5
340
0
102
{BLKREFS
331
174
102
}
 70
     0
280
     1
281
     0
  0
BLOCK_RECORD
  5
175
330
1
100
AcDbSymbolTableRecord
100
AcDbBlockTableRecord
  2
CON_IDC_SMD_P254_2X04_B_6
340
0
102
{BLKREFS
331
1D6
102
}
 70
     0
280
     1
281
     0
  0
BLOCK_RECORD
  5
1D7
330
1
100
AcDbSymbolTableRecord
100
AcDbBlockTableRecord
  2
PCB_FID_RND_100_300_B_7
340
0
102
{BLKREFS
331
1DA
102
}
 70
     0
280
     1
281
     0
  0
BLOCK_RECORD
  5
1DB
330
1
100
AcDbSymbolTableRecord
100
AcDbBlockTableRecord
  2
PCB_FID_RND_100_300_B_8
340
0
102
{BLKREFS
331
1DE
102
}
 70
     0
280
     1
281
     0
  0
BLOCK_RECORD
  5
1DF
330
1
100
AcDbSymbolTableRecord
100
AcDbBlockTableRecord
  2
PCB_FID_RND_100_300_B_9
340
0
102
{BLKREFS
331
1E2
102
}
 70
     0
280
     1
281
     0
  0
BLOCK_RECORD
  5
1E3
330
1
100
AcDbSymbolTableRecord
100
AcDbBlockTableRecord
  2
RES_0603_R_10
340
0
102
{BLKREFS
331
1F9
102
}
 70
     0
280
     1
281
     0
  0
BLOCK_RECORD
  5
1FA
330
1
100
AcDbSymbolTableRecord
100
AcDbBlockTableRecord
  2
RES_0603_R_11
340
0
102
{BLKREFS
331
210
102
}
 70
     0
280
     1
281
     0
  0
BLOCK_RECORD
  5
211
330
1
100
AcDbSymbolTableRecord
100
AcDbBlockTableRecord
  2
PCB_FID_RND_100_300_12
340
0
102
{BLKREFS
331
214
102
}
 70
     0
280
     1
281
     0
  0
BLOCK_RECORD
  5
215
330
1
100
AcDbSymbolTableRecord
100
AcDbBlockTableRecord
  2
PCB_FID_RND_100_300_13
340
0
102
{BLKREFS
331
218
102
}
 70
     0
280
     1
281
     0
  0
BLOCK_RECORD
  5
219
330
1
100
AcDbSymbolTableRecord
100
AcDbBlockTableRecord
  2
PCB_FID_RND_100_300_14
340
0
102
{BLKREFS
331
21C
102
}
 70
     0
280
     1
281
     0
  0
BLOCK_RECORD
  5
21D
330
1
100
AcDbSymbolTableRecord
100
AcDbBlockTableRecord
  2
PCB_STACKUP_2L_A1_15
340
0
102
{BLKREFS
331
220
102
}
 70
     0
280
     1
281
     0
  0
ENDTAB
  0
ENDSEC
  0
SECTION
  2
BLOCKS
  0
BLOCK
  5
20
330
1F
100
AcDbEntity
  8
0
100
AcDbBlockBegin
  2
*Model_Space
 70
     0
 10
0.0
 20
0.0
 30
0.0
  3
*Model_Space
  1

  0
ENDBLK
  5
21
330
1F
100
AcDbEntity
  8
0
100
AcDbBlockEnd
  0
BLOCK
  5
1C
330
1B
100
AcDbEntity
 67
     1
  8
0
100
AcDbBlockBegin
  2
*Paper_Space
 70
     0
 10
0.0
 20
0.0
 30
0.0
  3
*Paper_Space
  1

  0
ENDBLK
  5
1D
330
1B
100
AcDbEntity
 67
     1
  8
0
100
AcDbBlockEnd
  0
BLOCK
  5
24
330
23
100
AcDbEntity
  8
0
100
AcDbBlockBegin
  2
*Paper_Space0
 70
     0
 10
0.0
 20
0.0
 30
0.0
  3
*Paper_Space0
  1

  0
ENDBLK
  5
25
330
23
100
AcDbEntity
  8
0
100
AcDbBlockEnd
  0
BLOCK
  5
DB
330
DA
100
AcDbEntity
  8
0
100
AcDbBlockBegin
  2
SWI_SHR_1301_9319_1
 70
     0
 10
0.0
 20
0.0
 30
0.0
  3
SWI_SHR_1301_9319_1
  1

  0
LWPOLYLINE
  5
DD
330
DA
100
AcDbEntity
  8
TopOverlay
100
AcDbPolyline
 90
        2
 70
     0
 43
0.1999996
 10
2.99999908
 20
-2.99999908
 10
-2.99999908
 20
-2.99999908
  0
LWPOLYLINE
  5
DE
330
DA
100
AcDbEntity
  8
TopOverlay
100
AcDbPolyline
 90
        2
 70
     1
 43
0.0999998
 10
2.94999918
 20
-2.99999908
 42
1.0
 10
3.04999898
 20
-2.99999908
 42
1.0
  0
LWPOLYLINE
  5
DF
330
DA
100
AcDbEntity
  8
TopOverlay
100
AcDbPolyline
 90
        2
 70
     1
 43
0.0999998
 10
-3.04999898
 20
-2.99999908
 42
1.0
 10
-2.94999918
 20
-2.99999908
 42
1.0
  0
LWPOLYLINE
  5
E0
330
DA
100
AcDbEntity
  8
TopOverlay
100
AcDbPolyline
 90
        2
 70
     0
 43
0.1999996
 10
-2.99999908
 20
2.99999908
 10
-2.99999908
 20
-2.99999908
  0
LWPOLYLINE
  5
E1
330
DA
100
AcDbEntity
  8
TopOverlay
100
AcDbPolyline
 90
        2
 70
     1
 43
0.0999998
 10
-3.04999898
 20
2.99999908
 42
1.0
 10
-2.94999918
 20
2.99999908
 42
1.0
  0
LWPOLYLINE
  5
E2
330
DA
100
AcDbEntity
  8
TopOverlay
100
AcDbPolyline
 90
        2
 70
     1
 43
0.0999998
 10
-3.04999898
 20
-2.99999908
 42
1.0
 10
-2.94999918
 20
-2.99999908
 42
1.0
  0
LWPOLYLINE
  5
E3
330
DA
100
AcDbEntity
  8
TopOverlay
100
AcDbPolyline
 90
        2
 70
     0
 43
0.1999996
 10
2.99999908
 20
2.99999908
 10
-2.99999908
 20
2.99999908
  0
LWPOLYLINE
  5
E4
330
DA
100
AcDbEntity
  8
TopOverlay
100
AcDbPolyline
 90
        2
 70
     1
 43
0.0999998
 10
2.94999918
 20
2.99999908
 42
1.0
 10
3.04999898
 20
2.99999908
 42
1.0
  0
LWPOLYLINE
  5
E5
330
DA
100
AcDbEntity
  8
TopOverlay
100
AcDbPolyline
 90
        2
 70
     1
 43
0.0999998
 10
-3.04999898
 20
2.99999908
 42
1.0
 10
-2.94999918
 20
2.99999908
 42
1.0
  0
LWPOLYLINE
  5
E6
330
DA
100
AcDbEntity
  8
TopOverlay
100
AcDbPolyline
 90
        2
 70
     0
 43
0.1999996
 10
2.99999908
 20
2.99999908
 10
2.99999908
 20
-2.99999908
  0
LWPOLYLINE
  5
E7
330
DA
100
AcDbEntity
  8
TopOverlay
100
AcDbPolyline
 90
        2
 70
     1
 43
0.0999998
 10
2.94999918
 20
2.99999908
 42
1.0
 10
3.04999898
 20
2.99999908
 42
1.0
  0
LWPOLYLINE
  5
E8
330
DA
100
AcDbEntity
  8
TopOverlay
100
AcDbPolyline
 90
        2
 70
     1
 43
0.0999998
 10
2.94999918
 20
-2.99999908
 42
1.0
 10
3.04999898
 20
-2.99999908
 42
1.0
  0
LWPOLYLINE
  5
E9
330
DA
100
AcDbEntity
  8
Mechanical19
100
AcDbPolyline
 90
        2
 70
     0
 43
0.0999998
 10
-2.99999908
 20
2.56999994
 10
-5.00000016
 20
2.56999994
  0
LWPOLYLINE
  5
EA
330
DA
100
AcDbEntity
  8
Mechanical19
100
AcDbPolyline
 90
        2
 70
     1
 43
0.0499999
 10
-3.02499776
 20
2.56999994
 42
1.0
 10
-2.9750004
 20
2.56999994
 42
1.0
  0
LWPOLYLINE
  5
EB
330
DA
100
AcDbEntity
  8
Mechanical19
100
AcDbPolyline
 90
        2
 70
     1
 43
0.0499999
 10
-5.024998839999999
 20
2.56999994
 42
1.0
 10
-4.97500148
 20
2.56999994
 42
1.0
  0
LWPOLYLINE
  5
EC
330
DA
100
AcDbEntity
  8
Mechanical19
100
AcDbPolyline
 90
        2
 70
     0
 43
0.0999998
 10
-5.00000016
 20
2.56999994
 10
-5.0000027
 20
1.93000122
  0
LWPOLYLINE
  5
ED
330
DA
100
AcDbEntity
  8
Mechanical19
100
AcDbPolyline
 90
        2
 70
     1
 43
0.0499999
 10
-5.024998839999999
 20
2.56999994
 42
1.0
 10
-4.97500148
 20
2.56999994
 42
1.0
  0
LWPOLYLINE
  5
EE
330
DA
100
AcDbEntity
  8
Mechanical19
100
AcDbPolyline
 90
        2
 70
     1
 43
0.0499999
 10
-5.02500138
 20
1.93000122
 42
1.0
 10
-4.975004019999999
 20
1.93000122
 42
1.0
  0
LWPOLYLINE
  5
EF
330
DA
100
AcDbEntity
  8
Mechanical19
100
AcDbPolyline
 90
        2
 70
     0
 43
0.0999998
 10
-2.99999908
 20
1.93000122
 10
-5.0000027
 20
1.93000122
  0
LWPOLYLINE
  5
F0
330
DA
100
AcDbEntity
  8
Mechanical19
100
AcDbPolyline
 90
        2
 70
     1
 43
0.0499999
 10
-3.02499776
 20
1.93000122
 42
1.0
 10
-2.9750004
 20
1.93000122
 42
1.0
  0
LWPOLYLINE
  5
F1
330
DA
100
AcDbEntity
  8
Mechanical19
100
AcDbPolyline
 90
        2
 70
     1
 43
0.0499999
 10
-5.02500138
 20
1.93000122
 42
1.0
 10
-4.975004019999999
 20
1.93000122
 42
1.0
  0
LWPOLYLINE
  5
F2
330
DA
100
AcDbEntity
  8
Mechanical19
100
AcDbPolyline
 90
        2
 70
     0
 43
0.0999998
 10
2.99999908
 20
-2.99999908
 10
-2.99999908
 20
-2.99999908
  0
LWPOLYLINE
  5
F3
330
DA
100
AcDbEntity
  8
Mechanical19
100
AcDbPolyline
 90
        2
 70
     1
 43
0.0499999
 10
2.9750004
 20
-2.99999908
 42
1.0
 10
3.02499776
 20
-2.99999908
 42
1.0
  0
LWPOLYLINE
  5
F4
330
DA
100
AcDbEntity
  8
Mechanical19
100
AcDbPolyline
 90
        2
 70
     1
 43
0.0499999
 10
-3.02499776
 20
-2.99999908
 42
1.0
 10
-2.9750004
 20
-2.99999908
 42
1.0
  0
LWPOLYLINE
  5
F5
330
DA
100
AcDbEntity
  8
Mechanical19
100
AcDbPolyline
 90
        2
 70
     0
 43
0.0999998
 10
2.99999908
 20
2.99999908
 10
-2.99999908
 20
2.99999908
  0
LWPOLYLINE
  5
F6
330
DA
100
AcDbEntity
  8
Mechanical19
100
AcDbPolyline
 90
        2
 70
     1
 43
0.0499999
 10
2.9750004
 20
2.99999908
 42
1.0
 10
3.02499776
 20
2.99999908
 42
1.0
  0
LWPOLYLINE
  5
F7
330
DA
100
AcDbEntity
  8
Mechanical19
100
AcDbPolyline
 90
        2
 70
     1
 43
0.0499999
 10
-3.02499776
 20
2.99999908
 42
1.0
 10
-2.9750004
 20
2.99999908
 42
1.0
  0
LWPOLYLINE
  5
F8
330
DA
100
AcDbEntity
  8
Mechanical19
100
AcDbPolyline
 90
        2
 70
     0
 43
0.0999998
 10
2.99999908
 20
2.99999908
 10
2.99999908
 20
-2.99999908
  0
LWPOLYLINE
  5
F9
330
DA
100
AcDbEntity
  8
Mechanical19
100
AcDbPolyline
 90
        2
 70
     1
 43
0.0499999
 10
2.9750004
 20
2.99999908
 42
1.0
 10
3.02499776
 20
2.99999908
 42
1.0
  0
LWPOLYLINE
  5
FA
330
DA
100
AcDbEntity
  8
Mechanical19
100
AcDbPolyline
 90
        2
 70
     1
 43
0.0499999
 10
2.9750004
 20
-2.99999908
 42
1.0
 10
3.02499776
 20
-2.99999908
 42
1.0
  0
LWPOLYLINE
  5
FB
330
DA
100
AcDbEntity
  8
Mechanical19
100
AcDbPolyline
 90
        2
 70
     0
 43
0.0999998
 10
-2.99999908
 20
2.99999908
 10
-2.99999908
 20
-2.99999908
  0
LWPOLYLINE
  5
FC
330
DA
100
AcDbEntity
  8
Mechanical19
100
AcDbPolyline
 90
        2
 70
     1
 43
0.0499999
 10
-3.02499776
 20
2.99999908
 42
1.0
 10
-2.9750004
 20
2.99999908
 42
1.0
  0
LWPOLYLINE
  5
FD
330
DA
100
AcDbEntity
  8
Mechanical19
100
AcDbPolyline
 90
        2
 70
     1
 43
0.0499999
 10
-3.02499776
 20
-2.99999908
 42
1.0
 10
-2.9750004
 20
-2.99999908
 42
1.0
  0
LWPOLYLINE
  5
FE
330
DA
100
AcDbEntity
  8
Mechanical19
100
AcDbPolyline
 90
        2
 70
     0
 43
0.0999998
 10
-2.99999908
 20
-2.56999994
 10
-5.00000016
 20
-2.56999994
  0
LWPOLYLINE
  5
FF
330
DA
100
AcDbEntity
  8
Mechanical19
100
AcDbPolyline
 90
        2
 70
     1
 43
0.0499999
 10
-3.02499776
 20
-2.56999994
 42
1.0
 10
-2.9750004
 20
-2.56999994
 42
1.0
  0
LWPOLYLINE
  5
100
330
DA
100
AcDbEntity
  8
Mechanical19
100
AcDbPolyline
 90
        2
 70
     1
 43
0.0499999
 10
-5.024998839999999
 20
-2.56999994
 42
1.0
 10
-4.97500148
 20
-2.56999994
 42
1.0
  0
LWPOLYLINE
  5
101
330
DA
100
AcDbEntity
  8
Mechanical19
100
AcDbPolyline
 90
        2
 70
     0
 43
0.0999998
 10
-5.00000016
 20
-2.56999994
 10
-5.0000027
 20
-1.93000122
  0
LWPOLYLINE
  5
102
330
DA
100
AcDbEntity
  8
Mechanical19
100
AcDbPolyline
 90
        2
 70
     1
 43
0.0499999
 10
-5.024998839999999
 20
-2.56999994
 42
1.0
 10
-4.97500148
 20
-2.56999994
 42
1.0
  0
LWPOLYLINE
  5
103
330
DA
100
AcDbEntity
  8
Mechanical19
100
AcDbPolyline
 90
        2
 70
     1
 43
0.0499999
 10
-5.02500138
 20
-1.93000122
 42
1.0
 10
-4.975004019999999
 20
-1.93000122
 42
1.0
  0
LWPOLYLINE
  5
104
330
DA
100
AcDbEntity
  8
Mechanical19
100
AcDbPolyline
 90
        2
 70
     0
 43
0.0999998
 10
-2.99999908
 20
-1.93000122
 10
-5.0000027
 20
-1.93000122
  0
LWPOLYLINE
  5
105
330
DA
100
AcDbEntity
  8
Mechanical19
100
AcDbPolyline
 90
        2
 70
     1
 43
0.0499999
 10
-3.02499776
 20
-1.93000122
 42
1.0
 10
-2.9750004
 20
-1.93000122
 42
1.0
  0
LWPOLYLINE
  5
106
330
DA
100
AcDbEntity
  8
Mechanical19
100
AcDbPolyline
 90
        2
 70
     1
 43
0.0499999
 10
-5.02500138
 20
-1.93000122
 42
1.0
 10
-4.975004019999999
 20
-1.93000122
 42
1.0
  0
LWPOLYLINE
  5
107
330
DA
100
AcDbEntity
  8
Mechanical19
100
AcDbPolyline
 90
        2
 70
     0
 43
0.0999998
 10
5.00000016
 20
2.56999994
 10
2.99999908
 20
2.56999994
  0
LWPOLYLINE
  5
108
330
DA
100
AcDbEntity
  8
Mechanical19
100
AcDbPolyline
 90
        2
 70
     1
 43
0.0499999
 10
4.97500148
 20
2.56999994
 42
1.0
 10
5.024998839999999
 20
2.56999994
 42
1.0
  0
LWPOLYLINE
  5
109
330
DA
100
AcDbEntity
  8
Mechanical19
100
AcDbPolyline
 90
        2
 70
     1
 43
0.0499999
 10
2.9750004
 20
2.56999994
 42
1.0
 10
3.02499776
 20
2.56999994
 42
1.0
  0
LWPOLYLINE
  5
10A
330
DA
100
AcDbEntity
  8
Mechanical19
100
AcDbPolyline
 90
        2
 70
     0
 43
0.0999998
 10
5.0000027
 20
1.93000122
 10
5.00000016
 20
2.56999994
  0
LWPOLYLINE
  5
10B
330
DA
100
AcDbEntity
  8
Mechanical19
100
AcDbPolyline
 90
        2
 70
     1
 43
0.0499999
 10
4.975004019999999
 20
1.93000122
 42
1.0
 10
5.02500138
 20
1.93000122
 42
1.0
  0
LWPOLYLINE
  5
10C
330
DA
100
AcDbEntity
  8
Mechanical19
100
AcDbPolyline
 90
        2
 70
     1
 43
0.0499999
 10
4.97500148
 20
2.56999994
 42
1.0
 10
5.024998839999999
 20
2.56999994
 42
1.0
  0
LWPOLYLINE
  5
10D
330
DA
100
AcDbEntity
  8
Mechanical19
100
AcDbPolyline
 90
        2
 70
     0
 43
0.0999998
 10
5.0000027
 20
1.93000122
 10
2.99999908
 20
1.93000122
  0
LWPOLYLINE
  5
10E
330
DA
100
AcDbEntity
  8
Mechanical19
100
AcDbPolyline
 90
        2
 70
     1
 43
0.0499999
 10
4.975004019999999
 20
1.93000122
 42
1.0
 10
5.02500138
 20
1.93000122
 42
1.0
  0
LWPOLYLINE
  5
10F
330
DA
100
AcDbEntity
  8
Mechanical19
100
AcDbPolyline
 90
        2
 70
     1
 43
0.0499999
 10
2.9750004
 20
1.93000122
 42
1.0
 10
3.02499776
 20
1.93000122
 42
1.0
  0
LWPOLYLINE
  5
110
330
DA
100
AcDbEntity
  8
Mechanical19
100
AcDbPolyline
 90
        2
 70
     0
 43
0.0999998
 10
5.00000016
 20
-2.56999994
 10
2.99999908
 20
-2.56999994
  0
LWPOLYLINE
  5
111
330
DA
100
AcDbEntity
  8
Mechanical19
100
AcDbPolyline
 90
        2
 70
     1
 43
0.0499999
 10
4.97500148
 20
-2.56999994
 42
1.0
 10
5.024998839999999
 20
-2.56999994
 42
1.0
  0
LWPOLYLINE
  5
112
330
DA
100
AcDbEntity
  8
Mechanical19
100
AcDbPolyline
 90
        2
 70
     1
 43
0.0499999
 10
2.9750004
 20
-2.56999994
 42
1.0
 10
3.02499776
 20
-2.56999994
 42
1.0
  0
LWPOLYLINE
  5
113
330
DA
100
AcDbEntity
  8
Mechanical19
100
AcDbPolyline
 90
        2
 70
     0
 43
0.0999998
 10
5.0000027
 20
-1.93000122
 10
5.00000016
 20
-2.56999994
  0
LWPOLYLINE
  5
114
330
DA
100
AcDbEntity
  8
Mechanical19
100
AcDbPolyline
 90
        2
 70
     1
 43
0.0499999
 10
4.975004019999999
 20
-1.93000122
 42
1.0
 10
5.02500138
 20
-1.93000122
 42
1.0
  0
LWPOLYLINE
  5
115
330
DA
100
AcDbEntity
  8
Mechanical19
100
AcDbPolyline
 90
        2
 70
     1
 43
0.0499999
 10
4.97500148
 20
-2.56999994
 42
1.0
 10
5.024998839999999
 20
-2.56999994
 42
1.0
  0
LWPOLYLINE
  5
116
330
DA
100
AcDbEntity
  8
Mechanical19
100
AcDbPolyline
 90
        2
 70
     0
 43
0.0999998
 10
5.0000027
 20
-1.93000122
 10
2.99999908
 20
-1.93000122
  0
LWPOLYLINE
  5
117
330
DA
100
AcDbEntity
  8
Mechanical19
100
AcDbPolyline
 90
        2
 70
     1
 43
0.0499999
 10
4.975004019999999
 20
-1.93000122
 42
1.0
 10
5.02500138
 20
-1.93000122
 42
1.0
  0
LWPOLYLINE
  5
118
330
DA
100
AcDbEntity
  8
Mechanical19
100
AcDbPolyline
 90
        2
 70
     1
 43
0.0499999
 10
2.9750004
 20
-1.93000122
 42
1.0
 10
3.02499776
 20
-1.93000122
 42
1.0
  0
TEXT
  5
119
330
DA
100
AcDbEntity
  8
Mechanical19
100
AcDbText
 10
-2.25000058
 20
-0.2999994
 30
0.0
 40
1.00000054
  1
SW1
100
AcDbText
  0
ENDBLK
  5
DC
330
DA
100
AcDbEntity
  8
0
100
AcDbBlockEnd
  0
BLOCK
  5
11C
330
11B
100
AcDbEntity
  8
0
100
AcDbBlockBegin
  2
LED_BVR_VLP_400_F_2
 70
     0
 10
0.0
 20
0.0
 30
0.0
  3
LED_BVR_VLP_400_F_2
  1

  0
LWPOLYLINE
  5
11E
330
11B
100
AcDbEntity
  8
TopOverlay
100
AcDbPolyline
 90
        2
 70
     0
 43
0.1999996
 10
-1.44999964
 20
-2.35000038
 10
2.35000038
 20
-2.35000038
  0
LWPOLYLINE
  5
11F
330
11B
100
AcDbEntity
  8
TopOverlay
100
AcDbPolyline
 90
        2
 70
     1
 43
0.0999998
 10
-1.49999954
 20
-2.35000038
 42
1.0
 10
-1.39999974
 20
-2.35000038
 42
1.0
  0
LWPOLYLINE
  5
120
330
11B
100
AcDbEntity
  8
TopOverlay
100
AcDbPolyline
 90
        2
 70
     1
 43
0.0999998
 10
2.30000048
 20
-2.35000038
 42
1.0
 10
2.40000028
 20
-2.35000038
 42
1.0
  0
LWPOLYLINE
  5
121
330
11B
100
AcDbEntity
  8
TopOverlay
100
AcDbPolyline
 90
        2
 70
     0
 43
0.1999996
 10
-2.35000038
 20
-1.44999964
 10
-2.35000038
 20
2.35000038
  0
LWPOLYLINE
  5
122
330
11B
100
AcDbEntity
  8
TopOverlay
100
AcDbPolyline
 90
        2
 70
     1
 43
0.0999998
 10
-2.40000028
 20
-1.44999964
 42
1.0
 10
-2.30000048
 20
-1.44999964
 42
1.0
  0
LWPOLYLINE
  5
123
330
11B
100
AcDbEntity
  8
TopOverlay
100
AcDbPolyline
 90
        2
 70
     1
 43
0.0999998
 10
-2.40000028
 20
2.35000038
 42
1.0
 10
-2.30000048
 20
2.35000038
 42
1.0
  0
LWPOLYLINE
  5
124
330
11B
100
AcDbEntity
  8
TopOverlay
100
AcDbPolyline
 90
        2
 70
     0
 43
0.1999996
 10
-2.35000038
 20
2.35000038
 10
1.44999964
 20
2.35000038
  0
LWPOLYLINE
  5
125
330
11B
100
AcDbEntity
  8
TopOverlay
100
AcDbPolyline
 90
        2
 70
     1
 43
0.0999998
 10
-2.40000028
 20
2.35000038
 42
1.0
 10
-2.30000048
 20
2.35000038
 42
1.0
  0
LWPOLYLINE
  5
126
330
11B
100
AcDbEntity
  8
TopOverlay
100
AcDbPolyline
 90
        2
 70
     1
 43
0.0999998
 10
1.39999974
 20
2.35000038
 42
1.0
 10
1.49999954
 20
2.35000038
 42
1.0
  0
LWPOLYLINE
  5
127
330
11B
100
AcDbEntity
  8
TopOverlay
100
AcDbPolyline
 90
        2
 70
     0
 43
0.1999996
 10
2.35000038
 20
-2.35000038
 10
2.35000038
 20
1.44999964
  0
LWPOLYLINE
  5
128
330
11B
100
AcDbEntity
  8
TopOverlay
100
AcDbPolyline
 90
        2
 70
     1
 43
0.0999998
 10
2.30000048
 20
-2.35000038
 42
1.0
 10
2.40000028
 20
-2.35000038
 42
1.0
  0
LWPOLYLINE
  5
129
330
11B
100
AcDbEntity
  8
TopOverlay
100
AcDbPolyline
 90
        2
 70
     1
 43
0.0999998
 10
2.30000048
 20
1.44999964
 42
1.0
 10
2.40000028
 20
1.44999964
 42
1.0
  0
ENDBLK
  5
11D
330
11B
100
AcDbEntity
  8
0
100
AcDbBlockEnd
  0
BLOCK
  5
12C
330
12B
100
AcDbEntity
  8
0
100
AcDbBlockBegin
  2
LED_BVR_VLP_400_F_3
 70
     0
 10
0.0
 20
0.0
 30
0.0
  3
LED_BVR_VLP_400_F_3
  1

  0
LWPOLYLINE
  5
12E
330
12B
100
AcDbEntity
  8
TopOverlay
100
AcDbPolyline
 90
        2
 70
     0
 43
0.1999996
 10
-1.44999964
 20
-2.35000038
 10
2.35000038
 20
-2.35000038
  0
LWPOLYLINE
  5
12F
330
12B
100
AcDbEntity
  8
TopOverlay
100
AcDbPolyline
 90
        2
 70
     1
 43
0.0999998
 10
-1.49999954
 20
-2.35000038
 42
1.0
 10
-1.39999974
 20
-2.35000038
 42
1.0
  0
LWPOLYLINE
  5
130
330
12B
100
AcDbEntity
  8
TopOverlay
100
AcDbPolyline
 90
        2
 70
     1
 43
0.0999998
 10
2.30000048
 20
-2.35000038
 42
1.0
 10
2.40000028
 20
-2.35000038
 42
1.0
  0
LWPOLYLINE
  5
131
330
12B
100
AcDbEntity
  8
TopOverlay
100
AcDbPolyline
 90
        2
 70
     0
 43
0.1999996
 10
-2.35000038
 20
-1.44999964
 10
-2.35000038
 20
2.35000038
  0
LWPOLYLINE
  5
132
330
12B
100
AcDbEntity
  8
TopOverlay
100
AcDbPolyline
 90
        2
 70
     1
 43
0.0999998
 10
-2.40000028
 20
-1.44999964
 42
1.0
 10
-2.30000048
 20
-1.44999964
 42
1.0
  0
LWPOLYLINE
  5
133
330
12B
100
AcDbEntity
  8
TopOverlay
100
AcDbPolyline
 90
        2
 70
     1
 43
0.0999998
 10
-2.40000028
 20
2.35000038
 42
1.0
 10
-2.30000048
 20
2.35000038
 42
1.0
  0
LWPOLYLINE
  5
134
330
12B
100
AcDbEntity
  8
TopOverlay
100
AcDbPolyline
 90
        2
 70
     0
 43
0.1999996
 10
-2.35000038
 20
2.35000038
 10
1.44999964
 20
2.35000038
  0
LWPOLYLINE
  5
135
330
12B
100
AcDbEntity
  8
TopOverlay
100
AcDbPolyline
 90
        2
 70
     1
 43
0.0999998
 10
-2.40000028
 20
2.35000038
 42
1.0
 10
-2.30000048
 20
2.35000038
 42
1.0
  0
LWPOLYLINE
  5
136
330
12B
100
AcDbEntity
  8
TopOverlay
100
AcDbPolyline
 90
        2
 70
     1
 43
0.0999998
 10
1.39999974
 20
2.35000038
 42
1.0
 10
1.49999954
 20
2.35000038
 42
1.0
  0
LWPOLYLINE
  5
137
330
12B
100
AcDbEntity
  8
TopOverlay
100
AcDbPolyline
 90
        2
 70
     0
 43
0.1999996
 10
2.35000038
 20
-2.35000038
 10
2.35000038
 20
1.44999964
  0
LWPOLYLINE
  5
138
330
12B
100
AcDbEntity
  8
TopOverlay
100
AcDbPolyline
 90
        2
 70
     1
 43
0.0999998
 10
2.30000048
 20
-2.35000038
 42
1.0
 10
2.40000028
 20
-2.35000038
 42
1.0
  0
LWPOLYLINE
  5
139
330
12B
100
AcDbEntity
  8
TopOverlay
100
AcDbPolyline
 90
        2
 70
     1
 43
0.0999998
 10
2.30000048
 20
1.44999964
 42
1.0
 10
2.40000028
 20
1.44999964
 42
1.0
  0
ENDBLK
  5
12D
330
12B
100
AcDbEntity
  8
0
100
AcDbBlockEnd
  0
BLOCK
  5
13C
330
13B
100
AcDbEntity
  8
0
100
AcDbBlockBegin
  2
LED_0805_RED_R_4
 70
     0
 10
0.0
 20
0.0
 30
0.0
  3
LED_0805_RED_R_4
  1

  0
LWPOLYLINE
  5
13E
330
13B
100
AcDbEntity
  8
TopOverlay
100
AcDbPolyline
 90
        2
 70
     0
 43
0.1499997
 10
-0.0999998
 20
-0.5999987999999999
 10
0.0999998
 20
-0.5999987999999999
  0
LWPOLYLINE
  5
13F
330
13B
100
AcDbEntity
  8
TopOverlay
100
AcDbPolyline
 90
        2
 70
     1
 43
0.07499858
 10
-0.13750036
 20
-0.5999987999999999
 42
1.0
 10
-0.06249924
 20
-0.5999987999999999
 42
1.0
  0
LWPOLYLINE
  5
140
330
13B
100
AcDbEntity
  8
TopOverlay
100
AcDbPolyline
 90
        2
 70
     1
 43
0.07499858
 10
0.06249924
 20
-0.5999987999999999
 42
1.0
 10
0.13750036
 20
-0.5999987999999999
 42
1.0
  0
LWPOLYLINE
  5
141
330
13B
100
AcDbEntity
  8
TopOverlay
100
AcDbPolyline
 90
        2
 70
     0
 43
0.1499997
 10
-0.0999998
 20
0.5999987999999999
 10
0.0999998
 20
0.5999987999999999
  0
LWPOLYLINE
  5
142
330
13B
100
AcDbEntity
  8
TopOverlay
100
AcDbPolyline
 90
        2
 70
     1
 43
0.07499858
 10
-0.13750036
 20
0.5999987999999999
 42
1.0
 10
-0.06249924
 20
0.5999987999999999
 42
1.0
  0
LWPOLYLINE
  5
143
330
13B
100
AcDbEntity
  8
TopOverlay
100
AcDbPolyline
 90
        2
 70
     1
 43
0.07499858
 10
0.06249924
 20
0.5999987999999999
 42
1.0
 10
0.13750036
 20
0.5999987999999999
 42
1.0
  0
LWPOLYLINE
  5
144
330
13B
100
AcDbEntity
  8
TopOverlay
100
AcDbPolyline
 90
        2
 70
     0
 43
0.2499995
 10
-1.79999894
 20
-0.3999992
 10
-1.79999894
 20
0.3999992
  0
LWPOLYLINE
  5
145
330
13B
100
AcDbEntity
  8
TopOverlay
100
AcDbPolyline
 90
        2
 70
     1
 43
0.12499848
 10
-1.86249818
 20
-0.3999992
 42
1.0
 10
-1.7374997
 20
-0.3999992
 42
1.0
  0
LWPOLYLINE
  5
146
330
13B
100
AcDbEntity
  8
TopOverlay
100
AcDbPolyline
 90
        2
 70
     1
 43
0.12499848
 10
-1.86249818
 20
0.3999992
 42
1.0
 10
-1.7374997
 20
0.3999992
 42
1.0
  0
LWPOLYLINE
  5
147
330
13B
100
AcDbEntity
  8
Mechanical19
100
AcDbPolyline
 90
        2
 70
     0
 43
0.0999998
 10
-1.00000054
 20
0.62500002
 10
1.00000054
 20
0.62500002
  0
LWPOLYLINE
  5
148
330
13B
100
AcDbEntity
  8
Mechanical19
100
AcDbPolyline
 90
        2
 70
     1
 43
0.0499999
 10
-1.02499922
 20
0.62500002
 42
1.0
 10
-0.97500186
 20
0.62500002
 42
1.0
  0
LWPOLYLINE
  5
149
330
13B
100
AcDbEntity
  8
Mechanical19
100
AcDbPolyline
 90
        2
 70
     1
 43
0.0499999
 10
0.97500186
 20
0.62500002
 42
1.0
 10
1.02499922
 20
0.62500002
 42
1.0
  0
LWPOLYLINE
  5
14A
330
13B
100
AcDbEntity
  8
Mechanical19
100
AcDbPolyline
 90
        2
 70
     0
 43
0.0999998
 10
1.00000054
 20
-0.62500002
 10
1.00000054
 20
0.62500002
  0
LWPOLYLINE
  5
14B
330
13B
100
AcDbEntity
  8
Mechanical19
100
AcDbPolyline
 90
        2
 70
     1
 43
0.0499999
 10
0.97500186
 20
-0.62500002
 42
1.0
 10
1.02499922
 20
-0.62500002
 42
1.0
  0
LWPOLYLINE
  5
14C
330
13B
100
AcDbEntity
  8
Mechanical19
100
AcDbPolyline
 90
        2
 70
     1
 43
0.0499999
 10
0.97500186
 20
0.62500002
 42
1.0
 10
1.02499922
 20
0.62500002
 42
1.0
  0
LWPOLYLINE
  5
14D
330
13B
100
AcDbEntity
  8
Mechanical19
100
AcDbPolyline
 90
        2
 70
     0
 43
0.0999998
 10
-1.00000054
 20
-0.62500002
 10
1.00000054
 20
-0.62500002
  0
LWPOLYLINE
  5
14E
330
13B
100
AcDbEntity
  8
Mechanical19
100
AcDbPolyline
 90
        2
 70
     1
 43
0.0499999
 10
-1.02499922
 20
-0.62500002
 42
1.0
 10
-0.97500186
 20
-0.62500002
 42
1.0
  0
LWPOLYLINE
  5
14F
330
13B
100
AcDbEntity
  8
Mechanical19
100
AcDbPolyline
 90
        2
 70
     1
 43
0.0499999
 10
0.97500186
 20
-0.62500002
 42
1.0
 10
1.02499922
 20
-0.62500002
 42
1.0
  0
LWPOLYLINE
  5
150
330
13B
100
AcDbEntity
  8
Mechanical19
100
AcDbPolyline
 90
        2
 70
     0
 43
0.0999998
 10
-1.00000054
 20
-0.62500002
 10
-1.00000054
 20
0.62500002
  0
LWPOLYLINE
  5
151
330
13B
100
AcDbEntity
  8
Mechanical19
100
AcDbPolyline
 90
        2
 70
     1
 43
0.0499999
 10
-1.02499922
 20
-0.62500002
 42
1.0
 10
-0.97500186
 20
-0.62500002
 42
1.0
  0
LWPOLYLINE
  5
152
330
13B
100
AcDbEntity
  8
Mechanical19
100
AcDbPolyline
 90
        2
 70
     1
 43
0.0499999
 10
-1.02499922
 20
0.62500002
 42
1.0
 10
-0.97500186
 20
0.62500002
 42
1.0
  0
LWPOLYLINE
  5
153
330
13B
100
AcDbEntity
  8
Mechanical19
100
AcDbPolyline
 90
        2
 70
     0
 43
0.2499995
 10
-1.79999894
 20
-0.3999992
 10
-1.79999894
 20
0.3999992
  0
LWPOLYLINE
  5
154
330
13B
100
AcDbEntity
  8
Mechanical19
100
AcDbPolyline
 90
        2
 70
     1
 43
0.12499848
 10
-1.86249818
 20
-0.3999992
 42
1.0
 10
-1.7374997
 20
-0.3999992
 42
1.0
  0
LWPOLYLINE
  5
155
330
13B
100
AcDbEntity
  8
Mechanical19
100
AcDbPolyline
 90
        2
 70
     1
 43
0.12499848
 10
-1.86249818
 20
0.3999992
 42
1.0
 10
-1.7374997
 20
0.3999992
 42
1.0
  0
TEXT
  5
156
330
13B
100
AcDbEntity
  8
Mechanical19
100
AcDbText
 10
-1.00000054
 20
-0.3499993
 30
0.0
 40
0.5999987999999999
  1
LED2
100
AcDbText
  0
ENDBLK
  5
13D
330
13B
100
AcDbEntity
  8
0
100
AcDbBlockEnd
  0
BLOCK
  5
159
330
158
100
AcDbEntity
  8
0
100
AcDbBlockBegin
  2
LED_0805_GRN_R_5
 70
     0
 10
0.0
 20
0.0
 30
0.0
  3
LED_0805_GRN_R_5
  1

  0
LWPOLYLINE
  5
15B
330
158
100
AcDbEntity
  8
TopOverlay
100
AcDbPolyline
 90
        2
 70
     0
 43
0.2499995
 10
-1.79999894
 20
-0.3999992
 10
-1.79999894
 20
0.3999992
  0
LWPOLYLINE
  5
15C
330
158
100
AcDbEntity
  8
TopOverlay
100
AcDbPolyline
 90
        2
 70
     1
 43
0.12499848
 10
-1.86249818
 20
-0.3999992
 42
1.0
 10
-1.7374997
 20
-0.3999992
 42
1.0
  0
LWPOLYLINE
  5
15D
330
158
100
AcDbEntity
  8
TopOverlay
100
AcDbPolyline
 90
        2
 70
     1
 43
0.12499848
 10
-1.86249818
 20
0.3999992
 42
1.0
 10
-1.7374997
 20
0.3999992
 42
1.0
  0
LWPOLYLINE
  5
15E
330
158
100
AcDbEntity
  8
TopOverlay
100
AcDbPolyline
 90
        2
 70
     0
 43
0.1499997
 10
-0.0999998
 20
0.5999987999999999
 10
0.0999998
 20
0.5999987999999999
  0
LWPOLYLINE
  5
15F
330
158
100
AcDbEntity
  8
TopOverlay
100
AcDbPolyline
 90
        2
 70
     1
 43
0.07499858
 10
-0.13750036
 20
0.5999987999999999
 42
1.0
 10
-0.06249924
 20
0.5999987999999999
 42
1.0
  0
LWPOLYLINE
  5
160
330
158
100
AcDbEntity
  8
TopOverlay
100
AcDbPolyline
 90
        2
 70
     1
 43
0.07499858
 10
0.06249924
 20
0.5999987999999999
 42
1.0
 10
0.13750036
 20
0.5999987999999999
 42
1.0
  0
LWPOLYLINE
  5
161
330
158
100
AcDbEntity
  8
TopOverlay
100
AcDbPolyline
 90
        2
 70
     0
 43
0.1499997
 10
-0.0999998
 20
-0.5999987999999999
 10
0.0999998
 20
-0.5999987999999999
  0
LWPOLYLINE
  5
162
330
158
100
AcDbEntity
  8
TopOverlay
100
AcDbPolyline
 90
        2
 70
     1
 43
0.07499858
 10
-0.13750036
 20
-0.5999987999999999
 42
1.0
 10
-0.06249924
 20
-0.5999987999999999
 42
1.0
  0
LWPOLYLINE
  5
163
330
158
100
AcDbEntity
  8
TopOverlay
100
AcDbPolyline
 90
        2
 70
     1
 43
0.07499858
 10
0.06249924
 20
-0.5999987999999999
 42
1.0
 10
0.13750036
 20
-0.5999987999999999
 42
1.0
  0
LWPOLYLINE
  5
164
330
158
100
AcDbEntity
  8
Mechanical19
100
AcDbPolyline
 90
        2
 70
     0
 43
0.2499995
 10
-1.79999894
 20
-0.3999992
 10
-1.79999894
 20
0.3999992
  0
LWPOLYLINE
  5
165
330
158
100
AcDbEntity
  8
Mechanical19
100
AcDbPolyline
 90
        2
 70
     1
 43
0.12499848
 10
-1.86249818
 20
-0.3999992
 42
1.0
 10
-1.7374997
 20
-0.3999992
 42
1.0
  0
LWPOLYLINE
  5
166
330
158
100
AcDbEntity
  8
Mechanical19
100
AcDbPolyline
 90
        2
 70
     1
 43
0.12499848
 10
-1.86249818
 20
0.3999992
 42
1.0
 10
-1.7374997
 20
0.3999992
 42
1.0
  0
LWPOLYLINE
  5
167
330
158
100
AcDbEntity
  8
Mechanical19
100
AcDbPolyline
 90
        2
 70
     0
 43
0.0999998
 10
-1.00000054
 20
-0.62500002
 10
-1.00000054
 20
0.62500002
  0
LWPOLYLINE
  5
168
330
158
100
AcDbEntity
  8
Mechanical19
100
AcDbPolyline
 90
        2
 70
     1
 43
0.0499999
 10
-1.02499922
 20
-0.62500002
 42
1.0
 10
-0.97500186
 20
-0.62500002
 42
1.0
  0
LWPOLYLINE
  5
169
330
158
100
AcDbEntity
  8
Mechanical19
100
AcDbPolyline
 90
        2
 70
     1
 43
0.0499999
 10
-1.02499922
 20
0.62500002
 42
1.0
 10
-0.97500186
 20
0.62500002
 42
1.0
  0
LWPOLYLINE
  5
16A
330
158
100
AcDbEntity
  8
Mechanical19
100
AcDbPolyline
 90
        2
 70
     0
 43
0.0999998
 10
-1.00000054
 20
-0.62500002
 10
1.00000054
 20
-0.62500002
  0
LWPOLYLINE
  5
16B
330
158
100
AcDbEntity
  8
Mechanical19
100
AcDbPolyline
 90
        2
 70
     1
 43
0.0499999
 10
-1.02499922
 20
-0.62500002
 42
1.0
 10
-0.97500186
 20
-0.62500002
 42
1.0
  0
LWPOLYLINE
  5
16C
330
158
100
AcDbEntity
  8
Mechanical19
100
AcDbPolyline
 90
        2
 70
     1
 43
0.0499999
 10
0.97500186
 20
-0.62500002
 42
1.0
 10
1.02499922
 20
-0.62500002
 42
1.0
  0
LWPOLYLINE
  5
16D
330
158
100
AcDbEntity
  8
Mechanical19
100
AcDbPolyline
 90
        2
 70
     0
 43
0.0999998
 10
1.00000054
 20
-0.62500002
 10
1.00000054
 20
0.62500002
  0
LWPOLYLINE
  5
16E
330
158
100
AcDbEntity
  8
Mechanical19
100
AcDbPolyline
 90
        2
 70
     1
 43
0.0499999
 10
0.97500186
 20
-0.62500002
 42
1.0
 10
1.02499922
 20
-0.62500002
 42
1.0
  0
LWPOLYLINE
  5
16F
330
158
100
AcDbEntity
  8
Mechanical19
100
AcDbPolyline
 90
        2
 70
     1
 43
0.0499999
 10
0.97500186
 20
0.62500002
 42
1.0
 10
1.02499922
 20
0.62500002
 42
1.0
  0
LWPOLYLINE
  5
170
330
158
100
AcDbEntity
  8
Mechanical19
100
AcDbPolyline
 90
        2
 70
     0
 43
0.0999998
 10
-1.00000054
 20
0.62500002
 10
1.00000054
 20
0.62500002
  0
LWPOLYLINE
  5
171
330
158
100
AcDbEntity
  8
Mechanical19
100
AcDbPolyline
 90
        2
 70
     1
 43
0.0499999
 10
-1.02499922
 20
0.62500002
 42
1.0
 10
-0.97500186
 20
0.62500002
 42
1.0
  0
LWPOLYLINE
  5
172
330
158
100
AcDbEntity
  8
Mechanical19
100
AcDbPolyline
 90
        2
 70
     1
 43
0.0499999
 10
0.97500186
 20
0.62500002
 42
1.0
 10
1.02499922
 20
0.62500002
 42
1.0
  0
TEXT
  5
173
330
158
100
AcDbEntity
  8
Mechanical19
100
AcDbText
 10
-1.00000054
 20
-0.3499993
 30
0.0
 40
0.5999987999999999
  1
LED1
100
AcDbText
  0
ENDBLK
  5
15A
330
158
100
AcDbEntity
  8
0
100
AcDbBlockEnd
  0
BLOCK
  5
176
330
175
100
AcDbEntity
  8
0
100
AcDbBlockBegin
  2
CON_IDC_SMD_P254_2X04_B_6
 70
     0
 10
0.0
 20
0.0
 30
0.0
  3
CON_IDC_SMD_P254_2X04_B_6
  1

  0
LWPOLYLINE
  5
178
330
175
100
AcDbEntity
  8
Mechanical20
100
AcDbPolyline
 90
        2
 70
     0
 43
0.0999998
 10
8.85000008
 20
-4.50000116
 10
-8.92999992
 20
-4.50000116
  0
LWPOLYLINE
  5
179
330
175
100
AcDbEntity
  8
Mechanical20
100
AcDbPolyline
 90
        2
 70
     1
 43
0.0499999
 10
8.8250014
 20
-4.50000116
 42
1.0
 10
8.874998759999999
 20
-4.50000116
 42
1.0
  0
LWPOLYLINE
  5
17A
330
175
100
AcDbEntity
  8
Mechanical20
100
AcDbPolyline
 90
        2
 70
     1
 43
0.0499999
 10
-8.9549986
 20
-4.50000116
 42
1.0
 10
-8.905001239999999
 20
-4.50000116
 42
1.0
  0
LWPOLYLINE
  5
17B
330
175
100
AcDbEntity
  8
Mechanical20
100
AcDbPolyline
 90
        2
 70
     0
 43
0.0999998
 10
2.06000096
 20
2.89999928
 10
-2.1400008
 20
2.89999928
  0
LWPOLYLINE
  5
17C
330
175
100
AcDbEntity
  8
Mechanical20
100
AcDbPolyline
 90
        2
 70
     1
 43
0.0499999
 10
2.03500228
 20
2.89999928
 42
1.0
 10
2.08499964
 20
2.89999928
 42
1.0
  0
LWPOLYLINE
  5
17D
330
175
100
AcDbEntity
  8
Mechanical20
100
AcDbPolyline
 90
        2
 70
     1
 43
0.0499999
 10
-2.16499948
 20
2.89999928
 42
1.0
 10
-2.11500212
 20
2.89999928
 42
1.0
  0
LWPOLYLINE
  5
17E
330
175
100
AcDbEntity
  8
Mechanical20
100
AcDbPolyline
 90
        2
 70
     0
 43
0.0999998
 10
8.85000008
 20
-4.50000116
 10
8.85000008
 20
4.50000116
  0
LWPOLYLINE
  5
17F
330
175
100
AcDbEntity
  8
Mechanical20
100
AcDbPolyline
 90
        2
 70
     1
 43
0.0499999
 10
8.8250014
 20
-4.50000116
 42
1.0
 10
8.874998759999999
 20
-4.50000116
 42
1.0
  0
LWPOLYLINE
  5
180
330
175
100
AcDbEntity
  8
Mechanical20
100
AcDbPolyline
 90
        2
 70
     1
 43
0.0499999
 10
8.8250014
 20
4.50000116
 42
1.0
 10
8.874998759999999
 20
4.50000116
 42
1.0
  0
LWPOLYLINE
  5
181
330
175
100
AcDbEntity
  8
Mechanical20
100
AcDbPolyline
 90
        2
 70
     0
 43
0.0999998
 10
2.06000096
 20
2.89999928
 10
2.06000096
 20
4.50000116
  0
LWPOLYLINE
  5
182
330
175
100
AcDbEntity
  8
Mechanical20
100
AcDbPolyline
 90
        2
 70
     1
 43
0.0499999
 10
2.03500228
 20
2.89999928
 42
1.0
 10
2.08499964
 20
2.89999928
 42
1.0
  0
LWPOLYLINE
  5
183
330
175
100
AcDbEntity
  8
Mechanical20
100
AcDbPolyline
 90
        2
 70
     1
 43
0.0499999
 10
2.03500228
 20
4.50000116
 42
1.0
 10
2.08499964
 20
4.50000116
 42
1.0
  0
LWPOLYLINE
  5
184
330
175
100
AcDbEntity
  8
Mechanical20
100
AcDbPolyline
 90
        2
 70
     0
 43
0.0999998
 10
-2.1400008
 20
2.89999928
 10
-2.1400008
 20
4.50000116
  0
LWPOLYLINE
  5
185
330
175
100
AcDbEntity
  8
Mechanical20
100
AcDbPolyline
 90
        2
 70
     1
 43
0.0499999
 10
-2.16499948
 20
2.89999928
 42
1.0
 10
-2.11500212
 20
2.89999928
 42
1.0
  0
LWPOLYLINE
  5
186
330
175
100
AcDbEntity
  8
Mechanical20
100
AcDbPolyline
 90
        2
 70
     1
 43
0.0499999
 10
-2.16499948
 20
4.50000116
 42
1.0
 10
-2.11500212
 20
4.50000116
 42
1.0
  0
LWPOLYLINE
  5
187
330
175
100
AcDbEntity
  8
Mechanical20
100
AcDbPolyline
 90
        2
 70
     0
 43
0.0999998
 10
-8.92999992
 20
-4.50000116
 10
-8.92999992
 20
4.50000116
  0
LWPOLYLINE
  5
188
330
175
100
AcDbEntity
  8
Mechanical20
100
AcDbPolyline
 90
        2
 70
     1
 43
0.0499999
 10
-8.9549986
 20
-4.50000116
 42
1.0
 10
-8.905001239999999
 20
-4.50000116
 42
1.0
  0
LWPOLYLINE
  5
189
330
175
100
AcDbEntity
  8
Mechanical20
100
AcDbPolyline
 90
        2
 70
     1
 43
0.0499999
 10
-8.9549986
 20
4.50000116
 42
1.0
 10
-8.905001239999999
 20
4.50000116
 42
1.0
  0
LWPOLYLINE
  5
18A
330
175
100
AcDbEntity
  8
Mechanical20
100
AcDbPolyline
 90
        2
 70
     0
 43
0.0999998
 10
8.85000008
 20
4.50000116
 10
-8.92999992
 20
4.50000116
  0
LWPOLYLINE
  5
18B
330
175
100
AcDbEntity
  8
Mechanical20
100
AcDbPolyline
 90
        2
 70
     1
 43
0.0499999
 10
8.8250014
 20
4.50000116
 42
1.0
 10
8.874998759999999
 20
4.50000116
 42
1.0
  0
LWPOLYLINE
  5
18C
330
175
100
AcDbEntity
  8
Mechanical20
100
AcDbPolyline
 90
        2
 70
     1
 43
0.0499999
 10
-8.9549986
 20
4.50000116
 42
1.0
 10
-8.905001239999999
 20
4.50000116
 42
1.0
  0
LWPOLYLINE
  5
18D
330
175
100
AcDbEntity
  8
BottomOverlay
100
AcDbPolyline
 90
        2
 70
     0
 43
0.2499995
 10
8.85000008
 20
-4.50000116
 10
8.85000008
 20
4.50000116
  0
LWPOLYLINE
  5
18E
330
175
100
AcDbEntity
  8
BottomOverlay
100
AcDbPolyline
 90
        2
 70
     1
 43
0.12499848
 10
8.78750084
 20
-4.50000116
 42
1.0
 10
8.91249932
 20
-4.50000116
 42
1.0
  0
LWPOLYLINE
  5
18F
330
175
100
AcDbEntity
  8
BottomOverlay
100
AcDbPolyline
 90
        2
 70
     1
 43
0.12499848
 10
8.78750084
 20
4.50000116
 42
1.0
 10
8.91249932
 20
4.50000116
 42
1.0
  0
LWPOLYLINE
  5
190
330
175
100
AcDbEntity
  8
BottomOverlay
100
AcDbPolyline
 90
        2
 70
     0
 43
0.2499995
 10
-2.4900001
 20
2.89999928
 10
-2.4900001
 20
4.50000116
  0
LWPOLYLINE
  5
191
330
175
100
AcDbEntity
  8
BottomOverlay
100
AcDbPolyline
 90
        2
 70
     1
 43
0.12499848
 10
-2.55249934
 20
2.89999928
 42
1.0
 10
-2.42750086
 20
2.89999928
 42
1.0
  0
LWPOLYLINE
  5
192
330
175
100
AcDbEntity
  8
BottomOverlay
100
AcDbPolyline
 90
        2
 70
     1
 43
0.12499848
 10
-2.55249934
 20
4.50000116
 42
1.0
 10
-2.42750086
 20
4.50000116
 42
1.0
  0
LWPOLYLINE
  5
193
330
175
100
AcDbEntity
  8
BottomOverlay
100
AcDbPolyline
 90
        2
 70
     0
 43
0.2499995
 10
-8.92999992
 20
-4.50000116
 10
-8.92999992
 20
4.50000116
  0
LWPOLYLINE
  5
194
330
175
100
AcDbEntity
  8
BottomOverlay
100
AcDbPolyline
 90
        2
 70
     1
 43
0.12499848
 10
-8.99249916
 20
-4.50000116
 42
1.0
 10
-8.86750068
 20
-4.50000116
 42
1.0
  0
LWPOLYLINE
  5
195
330
175
100
AcDbEntity
  8
BottomOverlay
100
AcDbPolyline
 90
        2
 70
     1
 43
0.12499848
 10
-8.99249916
 20
4.50000116
 42
1.0
 10
-8.86750068
 20
4.50000116
 42
1.0
  0
LWPOLYLINE
  5
196
330
175
100
AcDbEntity
  8
BottomOverlay
100
AcDbPolyline
 90
        2
 70
     0
 43
0.2499995
 10
0.32999934
 20
4.4949999
 10
-0.40999918
 20
4.4949999
  0
LWPOLYLINE
  5
197
330
175
100
AcDbEntity
  8
BottomOverlay
100
AcDbPolyline
 90
        2
 70
     1
 43
0.12499848
 10
0.2675001
 20
4.4949999
 42
1.0
 10
0.39249858
 20
4.4949999
 42
1.0
  0
LWPOLYLINE
  5
198
330
175
100
AcDbEntity
  8
BottomOverlay
100
AcDbPolyline
 90
        2
 70
     1
 43
0.12499848
 10
-0.4724984199999999
 20
4.4949999
 42
1.0
 10
-0.34749994
 20
4.4949999
 42
1.0
  0
LWPOLYLINE
  5
199
330
175
100
AcDbEntity
  8
BottomOverlay
100
AcDbPolyline
 90
        2
 70
     0
 43
0.2499995
 10
2.86999934
 20
4.4949999
 10
2.13000082
 20
4.4949999
  0
LWPOLYLINE
  5
19A
330
175
100
AcDbEntity
  8
BottomOverlay
100
AcDbPolyline
 90
        2
 70
     1
 43
0.12499848
 10
2.8075001
 20
4.4949999
 42
1.0
 10
2.93249858
 20
4.4949999
 42
1.0
  0
LWPOLYLINE
  5
19B
330
175
100
AcDbEntity
  8
BottomOverlay
100
AcDbPolyline
 90
        2
 70
     1
 43
0.12499848
 10
2.06750158
 20
4.4949999
 42
1.0
 10
2.19250006
 20
4.4949999
 42
1.0
  0
LWPOLYLINE
  5
19C
330
175
100
AcDbEntity
  8
BottomOverlay
100
AcDbPolyline
 90
        2
 70
     0
 43
0.2499995
 10
-2.21000066
 20
4.4949999
 10
-2.94999918
 20
4.4949999
  0
LWPOLYLINE
  5
19D
330
175
100
AcDbEntity
  8
BottomOverlay
100
AcDbPolyline
 90
        2
 70
     1
 43
0.12499848
 10
-2.2724999
 20
4.4949999
 42
1.0
 10
-2.14750142
 20
4.4949999
 42
1.0
  0
LWPOLYLINE
  5
19E
330
175
100
AcDbEntity
  8
BottomOverlay
100
AcDbPolyline
 90
        2
 70
     1
 43
0.12499848
 10
-3.01249842
 20
4.4949999
 42
1.0
 10
-2.88749994
 20
4.4949999
 42
1.0
  0
LWPOLYLINE
  5
19F
330
175
100
AcDbEntity
  8
BottomOverlay
100
AcDbPolyline
 90
        2
 70
     0
 43
0.2499995
 10
0.32999934
 20
4.4949999
 10
-0.40999918
 20
4.4949999
  0
LWPOLYLINE
  5
1A0
330
175
100
AcDbEntity
  8
BottomOverlay
100
AcDbPolyline
 90
        2
 70
     1
 43
0.12499848
 10
0.2675001
 20
4.4949999
 42
1.0
 10
0.39249858
 20
4.4949999
 42
1.0
  0
LWPOLYLINE
  5
1A1
330
175
100
AcDbEntity
  8
BottomOverlay
100
AcDbPolyline
 90
        2
 70
     1
 43
0.12499848
 10
-0.4724984199999999
 20
4.4949999
 42
1.0
 10
-0.34749994
 20
4.4949999
 42
1.0
  0
LWPOLYLINE
  5
1A2
330
175
100
AcDbEntity
  8
BottomOverlay
100
AcDbPolyline
 90
        2
 70
     0
 43
0.2499995
 10
2.86999934
 20
4.4949999
 10
2.13000082
 20
4.4949999
  0
LWPOLYLINE
  5
1A3
330
175
100
AcDbEntity
  8
BottomOverlay
100
AcDbPolyline
 90
        2
 70
     1
 43
0.12499848
 10
2.8075001
 20
4.4949999
 42
1.0
 10
2.93249858
 20
4.4949999
 42
1.0
  0
LWPOLYLINE
  5
1A4
330
175
100
AcDbEntity
  8
BottomOverlay
100
AcDbPolyline
 90
        2
 70
     1
 43
0.12499848
 10
2.06750158
 20
4.4949999
 42
1.0
 10
2.19250006
 20
4.4949999
 42
1.0
  0
LWPOLYLINE
  5
1A5
330
175
100
AcDbEntity
  8
BottomOverlay
100
AcDbPolyline
 90
        2
 70
     0
 43
0.2499995
 10
-2.21000066
 20
4.4949999
 10
-2.94999918
 20
4.4949999
  0
LWPOLYLINE
  5
1A6
330
175
100
AcDbEntity
  8
BottomOverlay
100
AcDbPolyline
 90
        2
 70
     1
 43
0.12499848
 10
-2.2724999
 20
4.4949999
 42
1.0
 10
-2.14750142
 20
4.4949999
 42
1.0
  0
LWPOLYLINE
  5
1A7
330
175
100
AcDbEntity
  8
BottomOverlay
100
AcDbPolyline
 90
        2
 70
     1
 43
0.12499848
 10
-3.01249842
 20
4.4949999
 42
1.0
 10
-2.88749994
 20
4.4949999
 42
1.0
  0
LWPOLYLINE
  5
1A8
330
175
100
AcDbEntity
  8
BottomOverlay
100
AcDbPolyline
 90
        2
 70
     0
 43
0.2499995
 10
4.670000819999999
 20
4.4949999
 10
8.85000008
 20
4.50000116
  0
LWPOLYLINE
  5
1A9
330
175
100
AcDbEntity
  8
BottomOverlay
100
AcDbPolyline
 90
        2
 70
     1
 43
0.12499848
 10
4.607501579999999
 20
4.4949999
 42
1.0
 10
4.73250006
 20
4.4949999
 42
1.0
  0
LWPOLYLINE
  5
1AA
330
175
100
AcDbEntity
  8
BottomOverlay
100
AcDbPolyline
 90
        2
 70
     1
 43
0.12499848
 10
8.78750084
 20
4.50000116
 42
1.0
 10
8.91249932
 20
4.50000116
 42
1.0
  0
LWPOLYLINE
  5
1AB
330
175
100
AcDbEntity
  8
BottomOverlay
100
AcDbPolyline
 90
        2
 70
     0
 43
0.2499995
 10
-4.75000066
 20
4.4949999
 10
-8.92999992
 20
4.50000116
  0
LWPOLYLINE
  5
1AC
330
175
100
AcDbEntity
  8
BottomOverlay
100
AcDbPolyline
 90
        2
 70
     1
 43
0.12499848
 10
-4.8124999
 20
4.4949999
 42
1.0
 10
-4.687501419999999
 20
4.4949999
 42
1.0
  0
LWPOLYLINE
  5
1AD
330
175
100
AcDbEntity
  8
BottomOverlay
100
AcDbPolyline
 90
        2
 70
     1
 43
0.12499848
 10
-8.99249916
 20
4.50000116
 42
1.0
 10
-8.86750068
 20
4.50000116
 42
1.0
  0
LWPOLYLINE
  5
1AE
330
175
100
AcDbEntity
  8
BottomOverlay
100
AcDbPolyline
 90
        2
 70
     0
 43
0.2499995
 10
0.32999934
 20
-4.505002419999999
 10
-0.40999918
 20
-4.505002419999999
  0
LWPOLYLINE
  5
1AF
330
175
100
AcDbEntity
  8
BottomOverlay
100
AcDbPolyline
 90
        2
 70
     1
 43
0.12499848
 10
0.2675001
 20
-4.505002419999999
 42
1.0
 10
0.39249858
 20
-4.505002419999999
 42
1.0
  0
LWPOLYLINE
  5
1B0
330
175
100
AcDbEntity
  8
BottomOverlay
100
AcDbPolyline
 90
        2
 70
     1
 43
0.12499848
 10
-0.4724984199999999
 20
-4.505002419999999
 42
1.0
 10
-0.34749994
 20
-4.505002419999999
 42
1.0
  0
LWPOLYLINE
  5
1B1
330
175
100
AcDbEntity
  8
BottomOverlay
100
AcDbPolyline
 90
        2
 70
     0
 43
0.2499995
 10
2.86999934
 20
-4.505002419999999
 10
2.13000082
 20
-4.505002419999999
  0
LWPOLYLINE
  5
1B2
330
175
100
AcDbEntity
  8
BottomOverlay
100
AcDbPolyline
 90
        2
 70
     1
 43
0.12499848
 10
2.8075001
 20
-4.505002419999999
 42
1.0
 10
2.93249858
 20
-4.505002419999999
 42
1.0
  0
LWPOLYLINE
  5
1B3
330
175
100
AcDbEntity
  8
BottomOverlay
100
AcDbPolyline
 90
        2
 70
     1
 43
0.12499848
 10
2.06750158
 20
-4.505002419999999
 42
1.0
 10
2.19250006
 20
-4.505002419999999
 42
1.0
  0
LWPOLYLINE
  5
1B4
330
175
100
AcDbEntity
  8
BottomOverlay
100
AcDbPolyline
 90
        2
 70
     0
 43
0.2499995
 10
5.40999934
 20
-4.505002419999999
 10
4.670000819999999
 20
-4.505002419999999
  0
LWPOLYLINE
  5
1B5
330
175
100
AcDbEntity
  8
BottomOverlay
100
AcDbPolyline
 90
        2
 70
     1
 43
0.12499848
 10
5.3475001
 20
-4.505002419999999
 42
1.0
 10
5.47249858
 20
-4.505002419999999
 42
1.0
  0
LWPOLYLINE
  5
1B6
330
175
100
AcDbEntity
  8
BottomOverlay
100
AcDbPolyline
 90
        2
 70
     1
 43
0.12499848
 10
4.607501579999999
 20
-4.505002419999999
 42
1.0
 10
4.73250006
 20
-4.505002419999999
 42
1.0
  0
LWPOLYLINE
  5
1B7
330
175
100
AcDbEntity
  8
BottomOverlay
100
AcDbPolyline
 90
        2
 70
     0
 43
0.2499995
 10
7.94999934
 20
-4.505002419999999
 10
7.210000819999999
 20
-4.505002419999999
  0
LWPOLYLINE
  5
1B8
330
175
100
AcDbEntity
  8
BottomOverlay
100
AcDbPolyline
 90
        2
 70
     1
 43
0.12499848
 10
7.8875001
 20
-4.505002419999999
 42
1.0
 10
8.012498579999999
 20
-4.505002419999999
 42
1.0
  0
LWPOLYLINE
  5
1B9
330
175
100
AcDbEntity
  8
BottomOverlay
100
AcDbPolyline
 90
        2
 70
     1
 43
0.12499848
 10
7.147501579999999
 20
-4.505002419999999
 42
1.0
 10
7.27250006
 20
-4.505002419999999
 42
1.0
  0
LWPOLYLINE
  5
1BA
330
175
100
AcDbEntity
  8
BottomOverlay
100
AcDbPolyline
 90
        2
 70
     0
 43
0.2499995
 10
-2.21000066
 20
-4.505002419999999
 10
-2.94999918
 20
-4.505002419999999
  0
LWPOLYLINE
  5
1BB
330
175
100
AcDbEntity
  8
BottomOverlay
100
AcDbPolyline
 90
        2
 70
     1
 43
0.12499848
 10
-2.2724999
 20
-4.505002419999999
 42
1.0
 10
-2.14750142
 20
-4.505002419999999
 42
1.0
  0
LWPOLYLINE
  5
1BC
330
175
100
AcDbEntity
  8
BottomOverlay
100
AcDbPolyline
 90
        2
 70
     1
 43
0.12499848
 10
-3.01249842
 20
-4.505002419999999
 42
1.0
 10
-2.88749994
 20
-4.505002419999999
 42
1.0
  0
LWPOLYLINE
  5
1BD
330
175
100
AcDbEntity
  8
BottomOverlay
100
AcDbPolyline
 90
        2
 70
     0
 43
0.2499995
 10
4.670000819999999
 20
-4.505002419999999
 10
8.85000008
 20
-4.50000116
  0
LWPOLYLINE
  5
1BE
330
175
100
AcDbEntity
  8
BottomOverlay
100
AcDbPolyline
 90
        2
 70
     1
 43
0.12499848
 10
4.607501579999999
 20
-4.505002419999999
 42
1.0
 10
4.73250006
 20
-4.505002419999999
 42
1.0
  0
LWPOLYLINE
  5
1BF
330
175
100
AcDbEntity
  8
BottomOverlay
100
AcDbPolyline
 90
        2
 70
     1
 43
0.12499848
 10
8.78750084
 20
-4.50000116
 42
1.0
 10
8.91249932
 20
-4.50000116
 42
1.0
  0
LWPOLYLINE
  5
1C0
330
175
100
AcDbEntity
  8
BottomOverlay
100
AcDbPolyline
 90
        2
 70
     0
 43
0.2499995
 10
-4.75000066
 20
-4.505002419999999
 10
-8.92999992
 20
-4.50000116
  0
LWPOLYLINE
  5
1C1
330
175
100
AcDbEntity
  8
BottomOverlay
100
AcDbPolyline
 90
        2
 70
     1
 43
0.12499848
 10
-4.8124999
 20
-4.505002419999999
 42
1.0
 10
-4.687501419999999
 20
-4.505002419999999
 42
1.0
  0
LWPOLYLINE
  5
1C2
330
175
100
AcDbEntity
  8
BottomOverlay
100
AcDbPolyline
 90
        2
 70
     1
 43
0.12499848
 10
-8.99249916
 20
-4.50000116
 42
1.0
 10
-8.86750068
 20
-4.50000116
 42
1.0
  0
LWPOLYLINE
  5
1C3
330
175
100
AcDbEntity
  8
BottomOverlay
100
AcDbPolyline
 90
        2
 70
     0
 43
0.2499995
 10
2.41000026
 20
2.89999928
 10
2.41000026
 20
4.50000116
  0
LWPOLYLINE
  5
1C4
330
175
100
AcDbEntity
  8
BottomOverlay
100
AcDbPolyline
 90
        2
 70
     1
 43
0.12499848
 10
2.34750102
 20
2.89999928
 42
1.0
 10
2.4724995
 20
2.89999928
 42
1.0
  0
LWPOLYLINE
  5
1C5
330
175
100
AcDbEntity
  8
BottomOverlay
100
AcDbPolyline
 90
        2
 70
     1
 43
0.12499848
 10
2.34750102
 20
4.50000116
 42
1.0
 10
2.4724995
 20
4.50000116
 42
1.0
  0
LWPOLYLINE
  5
1C6
330
175
100
AcDbEntity
  8
BottomOverlay
100
AcDbPolyline
 90
        2
 70
     0
 43
0.2499995
 10
0.32999934
 20
2.89999674
 10
-0.40999918
 20
2.89999674
  0
LWPOLYLINE
  5
1C7
330
175
100
AcDbEntity
  8
BottomOverlay
100
AcDbPolyline
 90
        2
 70
     1
 43
0.12499848
 10
0.2675001
 20
2.89999674
 42
1.0
 10
0.39249858
 20
2.89999674
 42
1.0
  0
LWPOLYLINE
  5
1C8
330
175
100
AcDbEntity
  8
BottomOverlay
100
AcDbPolyline
 90
        2
 70
     1
 43
0.12499848
 10
-0.4724984199999999
 20
2.89999674
 42
1.0
 10
-0.34749994
 20
2.89999674
 42
1.0
  0
LWPOLYLINE
  5
1C9
330
175
100
AcDbEntity
  8
BottomOverlay
100
AcDbPolyline
 90
        2
 70
     0
 43
0.2499995
 10
-2.1900007
 20
2.89999674
 10
-2.4900001
 20
2.89999928
  0
LWPOLYLINE
  5
1CA
330
175
100
AcDbEntity
  8
BottomOverlay
100
AcDbPolyline
 90
        2
 70
     1
 43
0.12499848
 10
-2.25249994
 20
2.89999674
 42
1.0
 10
-2.12750146
 20
2.89999674
 42
1.0
  0
LWPOLYLINE
  5
1CB
330
175
100
AcDbEntity
  8
BottomOverlay
100
AcDbPolyline
 90
        2
 70
     1
 43
0.12499848
 10
-2.55249934
 20
2.89999928
 42
1.0
 10
-2.42750086
 20
2.89999928
 42
1.0
  0
LWPOLYLINE
  5
1CC
330
175
100
AcDbEntity
  8
BottomOverlay
100
AcDbPolyline
 90
        2
 70
     0
 43
0.2499995
 10
2.11000086
 20
2.89999674
 10
2.41000026
 20
2.89999928
  0
LWPOLYLINE
  5
1CD
330
175
100
AcDbEntity
  8
BottomOverlay
100
AcDbPolyline
 90
        2
 70
     1
 43
0.12499848
 10
2.04750162
 20
2.89999674
 42
1.0
 10
2.1725001
 20
2.89999674
 42
1.0
  0
LWPOLYLINE
  5
1CE
330
175
100
AcDbEntity
  8
BottomOverlay
100
AcDbPolyline
 90
        2
 70
     1
 43
0.12499848
 10
2.34750102
 20
2.89999928
 42
1.0
 10
2.4724995
 20
2.89999928
 42
1.0
  0
LWPOLYLINE
  5
1CF
330
175
100
AcDbEntity
  8
Mechanical20
100
AcDbPolyline
 90
        2
 70
     1
 43
0.499999
 10
-3.62000038
 20
5.89999836
 42
1.0
 10
-4.11999938
 20
5.89999836
 42
1.0
  0
LWPOLYLINE
  5
1D0
330
175
100
AcDbEntity
  8
Mechanical20
100
AcDbPolyline
 90
        2
 70
     1
 43
0.2499995
 10
-3.74499886
 20
5.89999836
 42
1.0
 10
-3.4950019
 20
5.89999836
 42
1.0
  0
LWPOLYLINE
  5
1D1
330
175
100
AcDbEntity
  8
Mechanical20
100
AcDbPolyline
 90
        2
 70
     1
 43
0.2499995
 10
-4.24499786
 20
5.89999836
 42
1.0
 10
-3.9950009
 20
5.89999836
 42
1.0
  0
LWPOLYLINE
  5
1D2
330
175
100
AcDbEntity
  8
BottomOverlay
100
AcDbPolyline
 90
        2
 70
     1
 43
0.499999
 10
-4.90000036
 20
5.39999936
 42
1.0
 10
-5.39999936
 20
5.39999936
 42
1.0
  0
LWPOLYLINE
  5
1D3
330
175
100
AcDbEntity
  8
BottomOverlay
100
AcDbPolyline
 90
        2
 70
     1
 43
0.2499995
 10
-5.024998839999999
 20
5.39999936
 42
1.0
 10
-4.77500188
 20
5.39999936
 42
1.0
  0
LWPOLYLINE
  5
1D4
330
175
100
AcDbEntity
  8
BottomOverlay
100
AcDbPolyline
 90
        2
 70
     1
 43
0.2499995
 10
-5.52499784
 20
5.39999936
 42
1.0
 10
-5.275000879999999
 20
5.39999936
 42
1.0
  0
TEXT
  5
1D5
330
175
100
AcDbEntity
  8
Mechanical20
100
AcDbText
 10
-6.7999991
 20
0.3499993
 30
0.0
 40
1.39999974
  1
J1
 50
-180.0
 71
     2
100
AcDbText
  0
ENDBLK
  5
177
330
175
100
AcDbEntity
  8
0
100
AcDbBlockEnd
  0
BLOCK
  5
1D8
330
1D7
100
AcDbEntity
  8
0
100
AcDbBlockBegin
  2
PCB_FID_RND_100_300_B_7
 70
     0
 10
0.0
 20
0.0
 30
0.0
  3
PCB_FID_RND_100_300_B_7
  1

  0
ENDBLK
  5
1D9
330
1D7
100
AcDbEntity
  8
0
100
AcDbBlockEnd
  0
BLOCK
  5
1DC
330
1DB
100
AcDbEntity
  8
0
100
AcDbBlockBegin
  2
PCB_FID_RND_100_300_B_8
 70
     0
 10
0.0
 20
0.0
 30
0.0
  3
PCB_FID_RND_100_300_B_8
  1

  0
ENDBLK
  5
1DD
330
1DB
100
AcDbEntity
  8
0
100
AcDbBlockEnd
  0
BLOCK
  5
1E0
330
1DF
100
AcDbEntity
  8
0
100
AcDbBlockBegin
  2
PCB_FID_RND_100_300_B_9
 70
     0
 10
0.0
 20
0.0
 30
0.0
  3
PCB_FID_RND_100_300_B_9
  1

  0
ENDBLK
  5
1E1
330
1DF
100
AcDbEntity
  8
0
100
AcDbBlockEnd
  0
BLOCK
  5
1E4
330
1E3
100
AcDbEntity
  8
0
100
AcDbBlockBegin
  2
RES_0603_R_10
 70
     0
 10
0.0
 20
0.0
 30
0.0
  3
RES_0603_R_10
  1

  0
LWPOLYLINE
  5
1E6
330
1E3
100
AcDbEntity
  8
TopOverlay
100
AcDbPolyline
 90
        2
 70
     0
 43
0.1499997
 10
-0.1499997
 20
0.3999992
 10
0.1499997
 20
0.3999992
  0
LWPOLYLINE
  5
1E7
330
1E3
100
AcDbEntity
  8
TopOverlay
100
AcDbPolyline
 90
        2
 70
     1
 43
0.07499858
 10
-0.18750026
 20
0.3999992
 42
1.0
 10
-0.11249914
 20
0.3999992
 42
1.0
  0
LWPOLYLINE
  5
1E8
330
1E3
100
AcDbEntity
  8
TopOverlay
100
AcDbPolyline
 90
        2
 70
     1
 43
0.07499858
 10
0.11249914
 20
0.3999992
 42
1.0
 10
0.18750026
 20
0.3999992
 42
1.0
  0
LWPOLYLINE
  5
1E9
330
1E3
100
AcDbEntity
  8
TopOverlay
100
AcDbPolyline
 90
        2
 70
     0
 43
0.1499997
 10
-0.1499997
 20
-0.3999992
 10
0.1499997
 20
-0.3999992
  0
LWPOLYLINE
  5
1EA
330
1E3
100
AcDbEntity
  8
TopOverlay
100
AcDbPolyline
 90
        2
 70
     1
 43
0.07499858
 10
-0.18750026
 20
-0.3999992
 42
1.0
 10
-0.11249914
 20
-0.3999992
 42
1.0
  0
LWPOLYLINE
  5
1EB
330
1E3
100
AcDbEntity
  8
TopOverlay
100
AcDbPolyline
 90
        2
 70
     1
 43
0.07499858
 10
0.11249914
 20
-0.3999992
 42
1.0
 10
0.18750026
 20
-0.3999992
 42
1.0
  0
LWPOLYLINE
  5
1EC
330
1E3
100
AcDbEntity
  8
Mechanical19
100
AcDbPolyline
 90
        2
 70
     0
 43
0.0999998
 10
0.79995776
 20
-0.3999992
 10
0.79995776
 20
0.3999992
  0
LWPOLYLINE
  5
1ED
330
1E3
100
AcDbEntity
  8
Mechanical19
100
AcDbPolyline
 90
        2
 70
     1
 43
0.0499999
 10
0.77495908
 20
-0.3999992
 42
1.0
 10
0.82495644
 20
-0.3999992
 42
1.0
  0
LWPOLYLINE
  5
1EE
330
1E3
100
AcDbEntity
  8
Mechanical19
100
AcDbPolyline
 90
        2
 70
     1
 43
0.0499999
 10
0.77495908
 20
0.3999992
 42
1.0
 10
0.82495644
 20
0.3999992
 42
1.0
  0
LWPOLYLINE
  5
1EF
330
1E3
100
AcDbEntity
  8
Mechanical19
100
AcDbPolyline
 90
        2
 70
     0
 43
0.0999998
 10
-0.8000009399999999
 20
-0.3999992
 10
0.79995776
 20
-0.3999992
  0
LWPOLYLINE
  5
1F0
330
1E3
100
AcDbEntity
  8
Mechanical19
100
AcDbPolyline
 90
        2
 70
     1
 43
0.0499999
 10
-0.8249996199999998
 20
-0.3999992
 42
1.0
 10
-0.7750022599999999
 20
-0.3999992
 42
1.0
  0
LWPOLYLINE
  5
1F1
330
1E3
100
AcDbEntity
  8
Mechanical19
100
AcDbPolyline
 90
        2
 70
     1
 43
0.0499999
 10
0.77495908
 20
-0.3999992
 42
1.0
 10
0.82495644
 20
-0.3999992
 42
1.0
  0
LWPOLYLINE
  5
1F2
330
1E3
100
AcDbEntity
  8
Mechanical19
100
AcDbPolyline
 90
        2
 70
     0
 43
0.0999998
 10
-0.8000009399999999
 20
-0.3999992
 10
-0.8000009399999999
 20
0.3999992
  0
LWPOLYLINE
  5
1F3
330
1E3
100
AcDbEntity
  8
Mechanical19
100
AcDbPolyline
 90
        2
 70
     1
 43
0.0499999
 10
-0.8249996199999998
 20
-0.3999992
 42
1.0
 10
-0.7750022599999999
 20
-0.3999992
 42
1.0
  0
LWPOLYLINE
  5
1F4
330
1E3
100
AcDbEntity
  8
Mechanical19
100
AcDbPolyline
 90
        2
 70
     1
 43
0.0499999
 10
-0.8249996199999998
 20
0.3999992
 42
1.0
 10
-0.7750022599999999
 20
0.3999992
 42
1.0
  0
LWPOLYLINE
  5
1F5
330
1E3
100
AcDbEntity
  8
Mechanical19
100
AcDbPolyline
 90
        2
 70
     0
 43
0.0999998
 10
-0.8000009399999999
 20
0.3999992
 10
0.79995776
 20
0.3999992
  0
LWPOLYLINE
  5
1F6
330
1E3
100
AcDbEntity
  8
Mechanical19
100
AcDbPolyline
 90
        2
 70
     1
 43
0.0499999
 10
-0.8249996199999998
 20
0.3999992
 42
1.0
 10
-0.7750022599999999
 20
0.3999992
 42
1.0
  0
LWPOLYLINE
  5
1F7
330
1E3
100
AcDbEntity
  8
Mechanical19
100
AcDbPolyline
 90
        2
 70
     1
 43
0.0499999
 10
0.77495908
 20
0.3999992
 42
1.0
 10
0.82495644
 20
0.3999992
 42
1.0
  0
TEXT
  5
1F8
330
1E3
100
AcDbEntity
  8
Mechanical19
100
AcDbText
 10
-0.5999987999999999
 20
-0.1499997
 30
0.0
 40
0.3999992
  1
R2
100
AcDbText
  0
ENDBLK
  5
1E5
330
1E3
100
AcDbEntity
  8
0
100
AcDbBlockEnd
  0
BLOCK
  5
1FB
330
1FA
100
AcDbEntity
  8
0
100
AcDbBlockBegin
  2
RES_0603_R_11
 70
     0
 10
0.0
 20
0.0
 30
0.0
  3
RES_0603_R_11
  1

  0
LWPOLYLINE
  5
1FD
330
1FA
100
AcDbEntity
  8
TopOverlay
100
AcDbPolyline
 90
        2
 70
     0
 43
0.1499997
 10
-0.1499997
 20
0.3999992
 10
0.1499997
 20
0.3999992
  0
LWPOLYLINE
  5
1FE
330
1FA
100
AcDbEntity
  8
TopOverlay
100
AcDbPolyline
 90
        2
 70
     1
 43
0.07499858
 10
-0.18750026
 20
0.3999992
 42
1.0
 10
-0.11249914
 20
0.3999992
 42
1.0
  0
LWPOLYLINE
  5
1FF
330
1FA
100
AcDbEntity
  8
TopOverlay
100
AcDbPolyline
 90
        2
 70
     1
 43
0.07499858
 10
0.11249914
 20
0.3999992
 42
1.0
 10
0.18750026
 20
0.3999992
 42
1.0
  0
LWPOLYLINE
  5
200
330
1FA
100
AcDbEntity
  8
TopOverlay
100
AcDbPolyline
 90
        2
 70
     0
 43
0.1499997
 10
-0.1499997
 20
-0.3999992
 10
0.1499997
 20
-0.3999992
  0
LWPOLYLINE
  5
201
330
1FA
100
AcDbEntity
  8
TopOverlay
100
AcDbPolyline
 90
        2
 70
     1
 43
0.07499858
 10
-0.18750026
 20
-0.3999992
 42
1.0
 10
-0.11249914
 20
-0.3999992
 42
1.0
  0
LWPOLYLINE
  5
202
330
1FA
100
AcDbEntity
  8
TopOverlay
100
AcDbPolyline
 90
        2
 70
     1
 43
0.07499858
 10
0.11249914
 20
-0.3999992
 42
1.0
 10
0.18750026
 20
-0.3999992
 42
1.0
  0
LWPOLYLINE
  5
203
330
1FA
100
AcDbEntity
  8
Mechanical19
100
AcDbPolyline
 90
        2
 70
     0
 43
0.0999998
 10
0.79995776
 20
-0.3999992
 10
0.79995776
 20
0.3999992
  0
LWPOLYLINE
  5
204
330
1FA
100
AcDbEntity
  8
Mechanical19
100
AcDbPolyline
 90
        2
 70
     1
 43
0.0499999
 10
0.77495908
 20
-0.3999992
 42
1.0
 10
0.82495644
 20
-0.3999992
 42
1.0
  0
LWPOLYLINE
  5
205
330
1FA
100
AcDbEntity
  8
Mechanical19
100
AcDbPolyline
 90
        2
 70
     1
 43
0.0499999
 10
0.77495908
 20
0.3999992
 42
1.0
 10
0.82495644
 20
0.3999992
 42
1.0
  0
LWPOLYLINE
  5
206
330
1FA
100
AcDbEntity
  8
Mechanical19
100
AcDbPolyline
 90
        2
 70
     0
 43
0.0999998
 10
-0.8000009399999999
 20
-0.3999992
 10
0.79995776
 20
-0.3999992
  0
LWPOLYLINE
  5
207
330
1FA
100
AcDbEntity
  8
Mechanical19
100
AcDbPolyline
 90
        2
 70
     1
 43
0.0499999
 10
-0.8249996199999998
 20
-0.3999992
 42
1.0
 10
-0.7750022599999999
 20
-0.3999992
 42
1.0
  0
LWPOLYLINE
  5
208
330
1FA
100
AcDbEntity
  8
Mechanical19
100
AcDbPolyline
 90
        2
 70
     1
 43
0.0499999
 10
0.77495908
 20
-0.3999992
 42
1.0
 10
0.82495644
 20
-0.3999992
 42
1.0
  0
LWPOLYLINE
  5
209
330
1FA
100
AcDbEntity
  8
Mechanical19
100
AcDbPolyline
 90
        2
 70
     0
 43
0.0999998
 10
-0.8000009399999999
 20
-0.3999992
 10
-0.8000009399999999
 20
0.3999992
  0
LWPOLYLINE
  5
20A
330
1FA
100
AcDbEntity
  8
Mechanical19
100
AcDbPolyline
 90
        2
 70
     1
 43
0.0499999
 10
-0.8249996199999998
 20
-0.3999992
 42
1.0
 10
-0.7750022599999999
 20
-0.3999992
 42
1.0
  0
LWPOLYLINE
  5
20B
330
1FA
100
AcDbEntity
  8
Mechanical19
100
AcDbPolyline
 90
        2
 70
     1
 43
0.0499999
 10
-0.8249996199999998
 20
0.3999992
 42
1.0
 10
-0.7750022599999999
 20
0.3999992
 42
1.0
  0
LWPOLYLINE
  5
20C
330
1FA
100
AcDbEntity
  8
Mechanical19
100
AcDbPolyline
 90
        2
 70
     0
 43
0.0999998
 10
-0.8000009399999999
 20
0.3999992
 10
0.79995776
 20
0.3999992
  0
LWPOLYLINE
  5
20D
330
1FA
100
AcDbEntity
  8
Mechanical19
100
AcDbPolyline
 90
        2
 70
     1
 43
0.0499999
 10
-0.8249996199999998
 20
0.3999992
 42
1.0
 10
-0.7750022599999999
 20
0.3999992
 42
1.0
  0
LWPOLYLINE
  5
20E
330
1FA
100
AcDbEntity
  8
Mechanical19
100
AcDbPolyline
 90
        2
 70
     1
 43
0.0499999
 10
0.77495908
 20
0.3999992
 42
1.0
 10
0.82495644
 20
0.3999992
 42
1.0
  0
TEXT
  5
20F
330
1FA
100
AcDbEntity
  8
Mechanical19
100
AcDbText
 10
-0.5999987999999999
 20
-0.1499997
 30
0.0
 40
0.3999992
  1
R1
100
AcDbText
  0
ENDBLK
  5
1FC
330
1FA
100
AcDbEntity
  8
0
100
AcDbBlockEnd
  0
BLOCK
  5
212
330
211
100
AcDbEntity
  8
0
100
AcDbBlockBegin
  2
PCB_FID_RND_100_300_12
 70
     0
 10
0.0
 20
0.0
 30
0.0
  3
PCB_FID_RND_100_300_12
  1

  0
ENDBLK
  5
213
330
211
100
AcDbEntity
  8
0
100
AcDbBlockEnd
  0
BLOCK
  5
216
330
215
100
AcDbEntity
  8
0
100
AcDbBlockBegin
  2
PCB_FID_RND_100_300_13
 70
     0
 10
0.0
 20
0.0
 30
0.0
  3
PCB_FID_RND_100_300_13
  1

  0
ENDBLK
  5
217
330
215
100
AcDbEntity
  8
0
100
AcDbBlockEnd
  0
BLOCK
  5
21A
330
219
100
AcDbEntity
  8
0
100
AcDbBlockBegin
  2
PCB_FID_RND_100_300_14
 70
     0
 10
0.0
 20
0.0
 30
0.0
  3
PCB_FID_RND_100_300_14
  1

  0
ENDBLK
  5
21B
330
219
100
AcDbEntity
  8
0
100
AcDbBlockEnd
  0
BLOCK
  5
21E
330
21D
100
AcDbEntity
  8
0
100
AcDbBlockBegin
  2
PCB_STACKUP_2L_A1_15
 70
     0
 10
0.0
 20
0.0
 30
0.0
  3
PCB_STACKUP_2L_A1_15
  1

  0
ENDBLK
  5
21F
330
21D
100
AcDbEntity
  8
0
100
AcDbBlockEnd
  0
ENDSEC
  0
SECTION
  2
ENTITIES
  0
LWPOLYLINE
  5
75
330
1F
100
AcDbEntity
  8
Mechanical10
100
AcDbPolyline
 90
        2
 70
     0
 43
0.0999998
 10
-1.00000054
 20
0.0
 10
0.0
 20
0.0
  0
LWPOLYLINE
  5
76
330
1F
100
AcDbEntity
  8
Mechanical10
100
AcDbPolyline
 90
        2
 70
     1
 43
0.0499999
 10
-1.02499922
 20
0.0
 42
1.0
 10
-0.97500186
 20
0.0
 42
1.0
  0
LWPOLYLINE
  5
77
330
1F
100
AcDbEntity
  8
Mechanical10
100
AcDbPolyline
 90
        2
 70
     1
 43
0.0499999
 10
-0.02499868
 20
0.0
 42
1.0
 10
0.02499868
 20
0.0
 42
1.0
  0
LWPOLYLINE
  5
78
330
1F
100
AcDbEntity
  8
Mechanical10
100
AcDbPolyline
 90
        2
 70
     0
 43
0.0999998
 10
0.0
 20
0.0
 10
0.0
 20
1.00000054
  0
LWPOLYLINE
  5
79
330
1F
100
AcDbEntity
  8
Mechanical10
100
AcDbPolyline
 90
        2
 70
     1
 43
0.0499999
 10
-0.02499868
 20
0.0
 42
1.0
 10
0.02499868
 20
0.0
 42
1.0
  0
LWPOLYLINE
  5
7A
330
1F
100
AcDbEntity
  8
Mechanical10
100
AcDbPolyline
 90
        2
 70
     1
 43
0.0499999
 10
-0.02499868
 20
1.00000054
 42
1.0
 10
0.02499868
 20
1.00000054
 42
1.0
  0
LWPOLYLINE
  5
7B
330
1F
100
AcDbEntity
  8
Mechanical10
100
AcDbPolyline
 90
        2
 70
     0
 43
0.0999998
 10
0.0
 20
-1.00000054
 10
0.0
 20
0.0
  0
LWPOLYLINE
  5
7C
330
1F
100
AcDbEntity
  8
Mechanical10
100
AcDbPolyline
 90
        2
 70
     1
 43
0.0499999
 10
-0.02499868
 20
-1.00000054
 42
1.0
 10
0.02499868
 20
-1.00000054
 42
1.0
  0
LWPOLYLINE
  5
7D
330
1F
100
AcDbEntity
  8
Mechanical10
100
AcDbPolyline
 90
        2
 70
     1
 43
0.0499999
 10
-0.02499868
 20
0.0
 42
1.0
 10
0.02499868
 20
0.0
 42
1.0
  0
LWPOLYLINE
  5
7E
330
1F
100
AcDbEntity
  8
Mechanical10
100
AcDbPolyline
 90
        2
 70
     0
 43
0.0999998
 10
0.0
 20
0.0
 10
1.00000054
 20
0.0
  0
LWPOLYLINE
  5
7F
330
1F
100
AcDbEntity
  8
Mechanical10
100
AcDbPolyline
 90
        2
 70
     1
 43
0.0499999
 10
-0.02499868
 20
0.0
 42
1.0
 10
0.02499868
 20
0.0
 42
1.0
  0
LWPOLYLINE
  5
80
330
1F
100
AcDbEntity
  8
Mechanical10
100
AcDbPolyline
 90
        2
 70
     1
 43
0.0499999
 10
0.97500186
 20
0.0
 42
1.0
 10
1.02499922
 20
0.0
 42
1.0
  0
LWPOLYLINE
  5
81
330
1F
100
AcDbEntity
  8
Mechanical1
100
AcDbPolyline
 90
        2
 70
     0
 43
0.0999998
 10
15.99999848
 20
41.99999982
 10
16.00000356
 20
5.00000016
  0
LWPOLYLINE
  5
82
330
1F
100
AcDbEntity
  8
Mechanical1
100
AcDbPolyline
 90
        2
 70
     1
 43
0.0499999
 10
15.9749998
 20
41.99999982
 42
1.0
 10
16.02499716
 20
41.99999982
 42
1.0
  0
LWPOLYLINE
  5
83
330
1F
100
AcDbEntity
  8
Mechanical1
100
AcDbPolyline
 90
        2
 70
     1
 43
0.0499999
 10
15.97500488
 20
5.00000016
 42
1.0
 10
16.02500224
 20
5.00000016
 42
1.0
  0
LWPOLYLINE
  5
84
330
1F
100
AcDbEntity
  8
Mechanical1
100
AcDbPolyline
 90
        2
 70
     0
 43
0.0999998
 10
5.00000016
 20
46.99999998
 10
11.00000086
 20
46.99999998
  0
LWPOLYLINE
  5
85
330
1F
100
AcDbEntity
  8
Mechanical1
100
AcDbPolyline
 90
        2
 70
     1
 43
0.0499999
 10
4.97500148
 20
46.99999998
 42
1.0
 10
5.024998839999999
 20
46.99999998
 42
1.0
  0
LWPOLYLINE
  5
86
330
1F
100
AcDbEntity
  8
Mechanical1
100
AcDbPolyline
 90
        2
 70
     1
 43
0.0499999
 10
10.97500218
 20
46.99999998
 42
1.0
 10
11.02499954
 20
46.99999998
 42
1.0
  0
LWPOLYLINE
  5
87
330
1F
100
AcDbEntity
  8
Mechanical1
100
AcDbPolyline
 90
        2
 70
     0
 43
0.0999998
 10
-0.00001524
 20
41.99998712
 10
0.0
 20
5.00000016
  0
LWPOLYLINE
  5
88
330
1F
100
AcDbEntity
  8
Mechanical1
100
AcDbPolyline
 90
        2
 70
     1
 43
0.0499999
 10
-0.02501392
 20
41.99998712
 42
1.0
 10
0.02498344
 20
41.99998712
 42
1.0
  0
LWPOLYLINE
  5
89
330
1F
100
AcDbEntity
  8
Mechanical1
100
AcDbPolyline
 90
        2
 70
     1
 43
0.0499999
 10
-0.02499868
 20
5.00000016
 42
1.0
 10
0.02499868
 20
5.00000016
 42
1.0
  0
LWPOLYLINE
  5
8A
330
1F
100
AcDbEntity
  8
Mechanical1
100
AcDbPolyline
 90
        2
 70
     0
 43
0.0999998
 10
5.00000016
 20
0.0
 10
11.0000034
 20
0.0
  0
LWPOLYLINE
  5
8B
330
1F
100
AcDbEntity
  8
Mechanical1
100
AcDbPolyline
 90
        2
 70
     1
 43
0.0499999
 10
4.97500148
 20
0.0
 42
1.0
 10
5.024998839999999
 20
0.0
 42
1.0
  0
LWPOLYLINE
  5
8C
330
1F
100
AcDbEntity
  8
Mechanical1
100
AcDbPolyline
 90
        2
 70
     1
 43
0.0499999
 10
10.97500472
 20
0.0
 42
1.0
 10
11.02500208
 20
0.0
 42
1.0
  0
LWPOLYLINE
  5
8D
330
1F
100
AcDbEntity
  8
Mechanical1
100
AcDbPolyline
 90
        2
 70
     0
 43
0.0999998
 10
11.00000086
 20
46.99998728
 42
-0.4142135623730951
 10
16.00000102
 20
41.99998712
  0
LWPOLYLINE
  5
8E
330
1F
100
AcDbEntity
  8
Mechanical1
100
AcDbPolyline
 90
        2
 70
     1
 43
0.0499999
 10
10.97500218
 20
46.99998728
 42
1.0
 10
11.02499954
 20
46.99998728
 42
1.0
  0
LWPOLYLINE
  5
8F
330
1F
100
AcDbEntity
  8
Mechanical1
100
AcDbPolyline
 90
        2
 70
     1
 43
0.0499999
 10
15.97500234
 20
41.99998712
 42
1.0
 10
16.0249997
 20
41.99998712
 42
1.0
  0
LWPOLYLINE
  5
90
330
1F
100
AcDbEntity
  8
Mechanical1
100
AcDbPolyline
 90
        2
 70
     0
 43
0.0999998
 10
0.0
 20
41.99998712
 42
-0.4142135623730951
 10
5.00000016
 20
46.99998728
  0
LWPOLYLINE
  5
91
330
1F
100
AcDbEntity
  8
Mechanical1
100
AcDbPolyline
 90
        2
 70
     1
 43
0.0499999
 10
-0.02499868
 20
41.99998712
 42
1.0
 10
0.02499868
 20
41.99998712
 42
1.0
  0
LWPOLYLINE
  5
92
330
1F
100
AcDbEntity
  8
Mechanical1
100
AcDbPolyline
 90
        2
 70
     1
 43
0.0499999
 10
4.97500148
 20
46.99998728
 42
1.0
 10
5.024998839999999
 20
46.99998728
 42
1.0
  0
LWPOLYLINE
  5
93
330
1F
100
AcDbEntity
  8
Mechanical1
100
AcDbPolyline
 90
        2
 70
     0
 43
0.0999998
 10
16.00000356
 20
5.00000016
 42
-0.4142135623730951
 10
11.0000034
 20
0.0
  0
LWPOLYLINE
  5
94
330
1F
100
AcDbEntity
  8
Mechanical1
100
AcDbPolyline
 90
        2
 70
     1
 43
0.0499999
 10
15.97500488
 20
5.00000016
 42
1.0
 10
16.02500224
 20
5.00000016
 42
1.0
  0
LWPOLYLINE
  5
95
330
1F
100
AcDbEntity
  8
Mechanical1
100
AcDbPolyline
 90
        2
 70
     1
 43
0.0499999
 10
10.97500472
 20
0.0
 42
1.0
 10
11.02500208
 20
0.0
 42
1.0
  0
LWPOLYLINE
  5
96
330
1F
100
AcDbEntity
  8
Mechanical1
100
AcDbPolyline
 90
        2
 70
     0
 43
0.0999998
 10
5.00000016
 20
0.0
 42
-0.4142135623730951
 10
0.0
 20
5.00000016
  0
LWPOLYLINE
  5
97
330
1F
100
AcDbEntity
  8
Mechanical1
100
AcDbPolyline
 90
        2
 70
     1
 43
0.0499999
 10
4.97500148
 20
0.0
 42
1.0
 10
5.024998839999999
 20
0.0
 42
1.0
  0
LWPOLYLINE
  5
98
330
1F
100
AcDbEntity
  8
Mechanical1
100
AcDbPolyline
 90
        2
 70
     1
 43
0.0499999
 10
-0.02499868
 20
5.00000016
 42
1.0
 10
0.02499868
 20
5.00000016
 42
1.0
  0
REGION
  5
9A
102
{ACAD_REACTORS
330
9B
102
}
330
1F
100
AcDbEntity
  8
MultiLayer
 62
     9
100
AcDbModelerGeometry
290
     0
  2
{00000000-0000-0000-0000-000000000000}
  0
HATCH
  5
9B
330
1F
100
AcDbEntity
  8
MultiLayer
 62
     9
100
AcDbHatch
 10
0.0
 20
0.0
 30
0.0
210
0.0
220
0.0
230
1.0
  2
SOLID
 70
     1
 71
     1
 91
        1
 92
        1
 93
        1
 72
     2
 10
7.999999239999999
 20
41.9500177
 40
2.99999908
 50
0.0
 51
360.0
 73
     1
 97
        1
330
9A
 75
     0
 76
     1
 98
        0
  0
REGION
  5
9D
102
{ACAD_REACTORS
330
9E
102
}
330
1F
100
AcDbEntity
  8
MultiLayer
 62
     9
100
AcDbModelerGeometry
290
     0
  2
{00000000-0000-0000-0000-000000000000}
  0
HATCH
  5
9E
330
1F
100
AcDbEntity
  8
MultiLayer
 62
     9
100
AcDbHatch
 10
0.0
 20
0.0
 30
0.0
210
0.0
220
0.0
230
1.0
  2
SOLID
 70
     1
 71
     1
 91
        1
 92
        1
 93
        1
 72
     2
 10
7.999999239999999
 20
5.050000059999999
 40
2.99999908
 50
0.0
 51
360.0
 73
     1
 97
        1
330
9D
 75
     0
 76
     1
 98
        0
  0
TEXT
  5
9F
330
1F
100
AcDbEntity
  8
Mechanical20
100
AcDbText
 10
52.19999974
 20
50.30706474
 30
0.0
 40
5.00000016
  1
SMD ASSEMBLY (BOT VIEW)
 50
360.0
  7
Microsoft Sans Serif
 71
     2
100
AcDbText
  0
TEXT
  5
A1
330
1F
100
AcDbEntity
  8
Mechanical19
100
AcDbText
 10
-27.19999894
 20
50.40706453999999
 30
0.0
 40
5.00000016
  1
SMD ASSEMBLY (TOP VIEW)
 50
360.0
  7
Microsoft Sans Serif
100
AcDbText
  0
TEXT
  5
A2
330
1F
100
AcDbEntity
  8
TopOverlay
100
AcDbText
 10
5.499989
 20
15.76667916
 30
0.0
 40
2.00000108
  1
ACT
 50
360.0
  7
Arial Black
100
AcDbText
  0
TEXT
  5
A4
330
1F
100
AcDbEntity
  8
TopOverlay
100
AcDbText
 10
2.89983926
 20
8.186447939999999
 30
0.0
 40
1.00000054
  1
KEY/LED V1R1 2022-03
 50
90.0
  7
Arial
100
AcDbText
  0
TEXT
  5
A6
330
1F
100
AcDbEntity
  8
TopOverlay
100
AcDbText
 10
5.499989
 20
24.5000145
 30
0.0
 40
2.00000108
  1
PWR
 50
360.0
  7
Arial Black
100
AcDbText
  0
TEXT
  5
A7
330
1F
100
AcDbEntity
  8
TopOverlay
100
AcDbText
 10
5.499989
 20
35.26667826
 30
0.0
 40
2.00000108
  1
SWI
 50
360.0
  7
Arial Black
100
AcDbText
  0
LWPOLYLINE
  5
A8
330
1F
100
AcDbEntity
  8
Mechanical10
100
AcDbPolyline
 90
        2
 70
     0
 43
0.1999996
 10
-0.00001524
 20
55.55000065999999
 10
1.99998584
 20
56.21666683999999
  0
LWPOLYLINE
  5
A9
330
1F
100
AcDbEntity
  8
Mechanical10
100
AcDbPolyline
 90
        2
 70
     1
 43
0.0999998
 10
-0.05001514
 20
55.55000065999999
 42
1.0
 10
0.04998466
 20
55.55000065999999
 42
1.0
  0
LWPOLYLINE
  5
AA
330
1F
100
AcDbEntity
  8
Mechanical10
100
AcDbPolyline
 90
        2
 70
     1
 43
0.0999998
 10
1.94998594
 20
56.21666683999999
 42
1.0
 10
2.04998574
 20
56.21666683999999
 42
1.0
  0
LWPOLYLINE
  5
AB
330
1F
100
AcDbEntity
  8
Mechanical10
100
AcDbPolyline
 90
        2
 70
     0
 43
0.1999996
 10
-0.00001524
 20
55.55000065999999
 10
1.99998584
 20
54.88333447999999
  0
LWPOLYLINE
  5
AC
330
1F
100
AcDbEntity
  8
Mechanical10
100
AcDbPolyline
 90
        2
 70
     1
 43
0.0999998
 10
-0.05001514
 20
55.55000065999999
 42
1.0
 10
0.04998466
 20
55.55000065999999
 42
1.0
  0
LWPOLYLINE
  5
AD
330
1F
100
AcDbEntity
  8
Mechanical10
100
AcDbPolyline
 90
        2
 70
     1
 43
0.0999998
 10
1.94998594
 20
54.88333447999999
 42
1.0
 10
2.04998574
 20
54.88333447999999
 42
1.0
  0
LWPOLYLINE
  5
AE
330
1F
100
AcDbEntity
  8
Mechanical10
100
AcDbPolyline
 90
        2
 70
     0
 43
0.1999996
 10
14.00000248
 20
54.88333447999999
 10
16.00000356
 20
55.55000065999999
  0
LWPOLYLINE
  5
AF
330
1F
100
AcDbEntity
  8
Mechanical10
100
AcDbPolyline
 90
        2
 70
     1
 43
0.0999998
 10
13.95000258
 20
54.88333447999999
 42
1.0
 10
14.05000238
 20
54.88333447999999
 42
1.0
  0
LWPOLYLINE
  5
B0
330
1F
100
AcDbEntity
  8
Mechanical10
100
AcDbPolyline
 90
        2
 70
     1
 43
0.0999998
 10
15.95000366
 20
55.55000065999999
 42
1.0
 10
16.05000346
 20
55.55000065999999
 42
1.0
  0
LWPOLYLINE
  5
B1
330
1F
100
AcDbEntity
  8
Mechanical10
100
AcDbPolyline
 90
        2
 70
     0
 43
0.1999996
 10
14.00000248
 20
56.21666683999999
 10
16.00000356
 20
55.55000065999999
  0
LWPOLYLINE
  5
B2
330
1F
100
AcDbEntity
  8
Mechanical10
100
AcDbPolyline
 90
        2
 70
     1
 43
0.0999998
 10
13.95000258
 20
56.21666683999999
 42
1.0
 10
14.05000238
 20
56.21666683999999
 42
1.0
  0
LWPOLYLINE
  5
B3
330
1F
100
AcDbEntity
  8
Mechanical10
100
AcDbPolyline
 90
        2
 70
     1
 43
0.0999998
 10
15.95000366
 20
55.55000065999999
 42
1.0
 10
16.05000346
 20
55.55000065999999
 42
1.0
  0
LWPOLYLINE
  5
B4
330
1F
100
AcDbEntity
  8
Mechanical10
100
AcDbPolyline
 90
        2
 70
     0
 43
0.1999996
 10
-0.00001524
 20
55.55000065999999
 10
0.68928742
 20
55.55000065999999
  0
LWPOLYLINE
  5
B5
330
1F
100
AcDbEntity
  8
Mechanical10
100
AcDbPolyline
 90
        2
 70
     1
 43
0.0999998
 10
-0.05001514
 20
55.55000065999999
 42
1.0
 10
0.04998466
 20
55.55000065999999
 42
1.0
  0
LWPOLYLINE
  5
B6
330
1F
100
AcDbEntity
  8
Mechanical10
100
AcDbPolyline
 90
        2
 70
     1
 43
0.0999998
 10
0.63928752
 20
55.55000065999999
 42
1.0
 10
0.73928732
 20
55.55000065999999
 42
1.0
  0
LWPOLYLINE
  5
B7
330
1F
100
AcDbEntity
  8
Mechanical10
100
AcDbPolyline
 90
        2
 70
     0
 43
0.1999996
 10
14.49789836
 20
55.55000065999999
 10
16.00000356
 20
55.55000065999999
  0
LWPOLYLINE
  5
B8
330
1F
100
AcDbEntity
  8
Mechanical10
100
AcDbPolyline
 90
        2
 70
     1
 43
0.0999998
 10
14.44789846
 20
55.55000065999999
 42
1.0
 10
14.54789826
 20
55.55000065999999
 42
1.0
  0
LWPOLYLINE
  5
B9
330
1F
100
AcDbEntity
  8
Mechanical10
100
AcDbPolyline
 90
        2
 70
     1
 43
0.0999998
 10
15.95000366
 20
55.55000065999999
 42
1.0
 10
16.05000346
 20
55.55000065999999
 42
1.0
  0
LWPOLYLINE
  5
BA
330
1F
100
AcDbEntity
  8
Mechanical10
100
AcDbPolyline
 90
        2
 70
     0
 43
0.1999996
 10
-0.00001524
 20
42.24998662
 10
-0.00001524
 20
55.75000025999999
  0
LWPOLYLINE
  5
BB
330
1F
100
AcDbEntity
  8
Mechanical10
100
AcDbPolyline
 90
        2
 70
     1
 43
0.0999998
 10
-0.05001514
 20
42.24998662
 42
1.0
 10
0.04998466
 20
42.24998662
 42
1.0
  0
LWPOLYLINE
  5
BC
330
1F
100
AcDbEntity
  8
Mechanical10
100
AcDbPolyline
 90
        2
 70
     1
 43
0.0999998
 10
-0.05001514
 20
55.75000025999999
 42
1.0
 10
0.04998466
 20
55.75000025999999
 42
1.0
  0
LWPOLYLINE
  5
BD
330
1F
100
AcDbEntity
  8
Mechanical10
100
AcDbPolyline
 90
        2
 70
     0
 43
0.1999996
 10
16.00000356
 20
5.24999966
 10
16.00000356
 20
55.75000025999999
  0
LWPOLYLINE
  5
BE
330
1F
100
AcDbEntity
  8
Mechanical10
100
AcDbPolyline
 90
        2
 70
     1
 43
0.0999998
 10
15.95000366
 20
5.24999966
 42
1.0
 10
16.05000346
 20
5.24999966
 42
1.0
  0
LWPOLYLINE
  5
BF
330
1F
100
AcDbEntity
  8
Mechanical10
100
AcDbPolyline
 90
        2
 70
     1
 43
0.0999998
 10
15.95000366
 20
55.75000025999999
 42
1.0
 10
16.05000346
 20
55.75000025999999
 42
1.0
  0
LWPOLYLINE
  5
C0
330
1F
100
AcDbEntity
  8
Mechanical10
100
AcDbPolyline
 90
        2
 70
     0
 43
0.1999996
 10
25.38333506
 20
2.00000108
 10
26.05000124
 20
0.0
  0
LWPOLYLINE
  5
C1
330
1F
100
AcDbEntity
  8
Mechanical10
100
AcDbPolyline
 90
        2
 70
     1
 43
0.0999998
 10
25.33333516
 20
2.00000108
 42
1.0
 10
25.43333496
 20
2.00000108
 42
1.0
  0
LWPOLYLINE
  5
C2
330
1F
100
AcDbEntity
  8
Mechanical10
100
AcDbPolyline
 90
        2
 70
     1
 43
0.0999998
 10
26.00000134
 20
0.0
 42
1.0
 10
26.10000114
 20
0.0
 42
1.0
  0
LWPOLYLINE
  5
C3
330
1F
100
AcDbEntity
  8
Mechanical10
100
AcDbPolyline
 90
        2
 70
     0
 43
0.1999996
 10
26.05000124
 20
0.0
 10
26.71666742
 20
2.00000108
  0
LWPOLYLINE
  5
C4
330
1F
100
AcDbEntity
  8
Mechanical10
100
AcDbPolyline
 90
        2
 70
     1
 43
0.0999998
 10
26.00000134
 20
0.0
 42
1.0
 10
26.10000114
 20
0.0
 42
1.0
  0
LWPOLYLINE
  5
C5
330
1F
100
AcDbEntity
  8
Mechanical10
100
AcDbPolyline
 90
        2
 70
     1
 43
0.0999998
 10
26.66666752
 20
2.00000108
 42
1.0
 10
26.76666732
 20
2.00000108
 42
1.0
  0
LWPOLYLINE
  5
C6
330
1F
100
AcDbEntity
  8
Mechanical10
100
AcDbPolyline
 90
        2
 70
     0
 43
0.1999996
 10
26.05000124
 20
46.99999998
 10
26.71666742
 20
44.99999889999999
  0
LWPOLYLINE
  5
C7
330
1F
100
AcDbEntity
  8
Mechanical10
100
AcDbPolyline
 90
        2
 70
     1
 43
0.0999998
 10
26.00000134
 20
46.99999998
 42
1.0
 10
26.10000114
 20
46.99999998
 42
1.0
  0
LWPOLYLINE
  5
C8
330
1F
100
AcDbEntity
  8
Mechanical10
100
AcDbPolyline
 90
        2
 70
     1
 43
0.0999998
 10
26.66666752
 20
44.99999889999999
 42
1.0
 10
26.76666732
 20
44.99999889999999
 42
1.0
  0
LWPOLYLINE
  5
C9
330
1F
100
AcDbEntity
  8
Mechanical10
100
AcDbPolyline
 90
        2
 70
     0
 43
0.1999996
 10
25.38333506
 20
44.99999889999999
 10
26.05000124
 20
46.99999998
  0
LWPOLYLINE
  5
CA
330
1F
100
AcDbEntity
  8
Mechanical10
100
AcDbPolyline
 90
        2
 70
     1
 43
0.0999998
 10
25.33333516
 20
44.99999889999999
 42
1.0
 10
25.43333496
 20
44.99999889999999
 42
1.0
  0
LWPOLYLINE
  5
CB
330
1F
100
AcDbEntity
  8
Mechanical10
100
AcDbPolyline
 90
        2
 70
     1
 43
0.0999998
 10
26.00000134
 20
46.99999998
 42
1.0
 10
26.10000114
 20
46.99999998
 42
1.0
  0
LWPOLYLINE
  5
CC
330
1F
100
AcDbEntity
  8
Mechanical10
100
AcDbPolyline
 90
        2
 70
     0
 43
0.1999996
 10
26.05000124
 20
0.0
 10
26.05000124
 20
16.02268322
  0
LWPOLYLINE
  5
CD
330
1F
100
AcDbEntity
  8
Mechanical10
100
AcDbPolyline
 90
        2
 70
     1
 43
0.0999998
 10
26.00000134
 20
0.0
 42
1.0
 10
26.10000114
 20
0.0
 42
1.0
  0
LWPOLYLINE
  5
CE
330
1F
100
AcDbEntity
  8
Mechanical10
100
AcDbPolyline
 90
        2
 70
     1
 43
0.0999998
 10
26.00000134
 20
16.02268322
 42
1.0
 10
26.10000114
 20
16.02268322
 42
1.0
  0
LWPOLYLINE
  5
CF
330
1F
100
AcDbEntity
  8
Mechanical10
100
AcDbPolyline
 90
        2
 70
     0
 43
0.1999996
 10
26.05000124
 20
30.16452184
 10
26.05000124
 20
46.99999998
  0
LWPOLYLINE
  5
D0
330
1F
100
AcDbEntity
  8
Mechanical10
100
AcDbPolyline
 90
        2
 70
     1
 43
0.0999998
 10
26.00000134
 20
30.16452184
 42
1.0
 10
26.10000114
 20
30.16452184
 42
1.0
  0
LWPOLYLINE
  5
D1
330
1F
100
AcDbEntity
  8
Mechanical10
100
AcDbPolyline
 90
        2
 70
     1
 43
0.0999998
 10
26.00000134
 20
46.99999998
 42
1.0
 10
26.10000114
 20
46.99999998
 42
1.0
  0
LWPOLYLINE
  5
D2
330
1F
100
AcDbEntity
  8
Mechanical10
100
AcDbPolyline
 90
        2
 70
     0
 43
0.1999996
 10
11.2500029
 20
0.0
 10
26.25000084
 20
0.0
  0
LWPOLYLINE
  5
D3
330
1F
100
AcDbEntity
  8
Mechanical10
100
AcDbPolyline
 90
        2
 70
     1
 43
0.0999998
 10
11.200003
 20
0.0
 42
1.0
 10
11.3000028
 20
0.0
 42
1.0
  0
LWPOLYLINE
  5
D4
330
1F
100
AcDbEntity
  8
Mechanical10
100
AcDbPolyline
 90
        2
 70
     1
 43
0.0999998
 10
26.20000094
 20
0.0
 42
1.0
 10
26.30000074
 20
0.0
 42
1.0
  0
LWPOLYLINE
  5
D5
330
1F
100
AcDbEntity
  8
Mechanical10
100
AcDbPolyline
 90
        2
 70
     0
 43
0.1999996
 10
11.25000036
 20
46.99999998
 10
26.25000084
 20
46.99999998
  0
LWPOLYLINE
  5
D6
330
1F
100
AcDbEntity
  8
Mechanical10
100
AcDbPolyline
 90
        2
 70
     1
 43
0.0999998
 10
11.20000046
 20
46.99999998
 42
1.0
 10
11.30000026
 20
46.99999998
 42
1.0
  0
LWPOLYLINE
  5
D7
330
1F
100
AcDbEntity
  8
Mechanical10
100
AcDbPolyline
 90
        2
 70
     1
 43
0.0999998
 10
26.20000094
 20
46.99999998
 42
1.0
 10
26.30000074
 20
46.99999998
 42
1.0
  0
TEXT
  5
D8
330
1F
100
AcDbEntity
  8
Mechanical10
100
AcDbText
 10
1.09568742
 20
54.06469756
 30
0.0
 40
2.00000108
  1
16,00mm
  7
Arial
100
AcDbText
  0
TEXT
  5
D9
330
1F
100
AcDbEntity
  8
Mechanical10
100
AcDbText
 10
27.53530434
 20
16.42908068
 30
0.0
 40
2.00000108
  1
47,00mm
 50
90.0
  7
Arial
100
AcDbText
  0
INSERT
  5
11A
330
1F
100
AcDbEntity
  8
0
100
AcDbBlockReference
  2
SWI_SHR_1301_9319_1
 10
7.99998908
 20
31.5000132
 30
0.0
 50
180.0
  0
INSERT
  5
12A
330
1F
100
AcDbEntity
  8
0
100
AcDbBlockReference
  2
LED_BVR_VLP_400_F_2
 10
7.99998908
 20
12.75001514
 30
0.0
  0
INSERT
  5
13A
330
1F
100
AcDbEntity
  8
0
100
AcDbBlockReference
  2
LED_BVR_VLP_400_F_3
 10
7.99998908
 20
21.50001542
 30
0.0
  0
INSERT
  5
157
330
1F
100
AcDbEntity
  8
0
100
AcDbBlockReference
  2
LED_0805_RED_R_4
 10
7.99998908
 20
21.50001542
 30
0.0
 50
360.0
  0
INSERT
  5
174
330
1F
100
AcDbEntity
  8
0
100
AcDbBlockReference
  2
LED_0805_GRN_R_5
 10
7.99998908
 20
12.75001514
 30
0.0
 50
360.0
  0
INSERT
  5
1D6
330
1F
100
AcDbEntity
  8
0
100
AcDbBlockReference
  2
CON_IDC_SMD_P254_2X04_B_6
 10
9.700000919999999
 20
26.05000124
 30
0.0
 50
270.0
  0
INSERT
  5
1DA
330
1F
100
AcDbEntity
  8
0
100
AcDbBlockReference
  2
PCB_FID_RND_100_300_B_7
 10
2.30000048
 20
5.44999926
 30
0.0
 50
90.0
  0
INSERT
  5
1DE
330
1F
100
AcDbEntity
  8
0
100
AcDbBlockReference
  2
PCB_FID_RND_100_300_B_8
 10
2.45000018
 20
39.99999874
 30
0.0
 50
90.0
  0
INSERT
  5
1E2
330
1F
100
AcDbEntity
  8
0
100
AcDbBlockReference
  2
PCB_FID_RND_100_300_B_9
 10
13.3999986
 20
39.99999874
 30
0.0
 50
90.0
  0
INSERT
  5
1F9
330
1F
100
AcDbEntity
  8
0
100
AcDbBlockReference
  2
RES_0603_R_10
 10
12.74998974
 20
21.50001542
 30
0.0
 50
360.0
  0
INSERT
  5
210
330
1F
100
AcDbEntity
  8
0
100
AcDbBlockReference
  2
RES_0603_R_11
 10
12.74998974
 20
12.75001514
 30
0.0
 50
360.0
  0
INSERT
  5
214
330
1F
100
AcDbEntity
  8
0
100
AcDbBlockReference
  2
PCB_FID_RND_100_300_12
 10
13.3999986
 20
39.99999874
 30
0.0
  0
INSERT
  5
218
330
1F
100
AcDbEntity
  8
0
100
AcDbBlockReference
  2
PCB_FID_RND_100_300_13
 10
2.45000018
 20
39.99999874
 30
0.0
  0
INSERT
  5
21C
330
1F
100
AcDbEntity
  8
0
100
AcDbBlockReference
  2
PCB_FID_RND_100_300_14
 10
2.30000048
 20
5.44999926
 30
0.0
  0
INSERT
  5
220
330
1F
100
AcDbEntity
  8
0
100
AcDbBlockReference
  2
PCB_STACKUP_2L_A1_15
 10
13.99999994
 20
7.20000084
 30
0.0
 50
90.0
  0
ENDSEC
  0
SECTION
  2
OBJECTS
  0
DICTIONARY
  5
C
330
0
100
AcDbDictionary
281
     1
  3
ACAD_DETAILVIEWSTYLE
350
228
  3
ACAD_GROUP
350
D
  3
ACAD_LAYOUT
350
1A
  3
ACAD_MATERIAL
350
43
  3
ACAD_MLEADERSTYLE
350
6B
  3
ACAD_MLINESTYLE
350
17
  3
ACAD_PLOTSETTINGS
350
19
  3
ACAD_PLOTSTYLENAME
350
E
  3
ACAD_SCALELIST
350
47
  3
ACAD_SECTIONVIEWSTYLE
350
229
  3
ACAD_TABLESTYLE
350
69
  3
ACAD_VISUALSTYLE
350
2A
  3
ACDB_RECOMPOSE_DATA
350
225
  3
AcDbVariableDictionary
350
221
  0
SUN
  5
6D
330
29
100
AcDbSun
 90
        1
290
     0
 63
     7
421
 16777215
 40
1.0
291
     1
 91
  2455826
 92
 54000000
292
     0
 70
     2
 71
   256
280
     1
  0
DICTIONARY
  5
228
102
{ACAD_REACTORS
330
C
102
}
330
C
100
AcDbDictionary
281
     1
  0
DICTIONARY
  5
D
102
{ACAD_REACTORS
330
C
102
}
330
C
100
AcDbDictionary
281
     1
  0
DICTIONARY
  5
1A
102
{ACAD_REACTORS
330
C
102
}
330
C
100
AcDbDictionary
281
     1
  3
Layout1
350
1E
  3
Layout2
350
26
  3
Model
350
22
  0
DICTIONARY
  5
43
102
{ACAD_REACTORS
330
C
102
}
330
C
100
AcDbDictionary
281
     1
  3
ByBlock
350
45
  3
ByLayer
350
44
  3
Global
350
46
  0
DICTIONARY
  5
6B
102
{ACAD_REACTORS
330
C
102
}
330
C
100
AcDbDictionary
281
     1
  3
Standard
350
6C
  0
DICTIONARY
  5
17
102
{ACAD_REACTORS
330
C
102
}
330
C
100
AcDbDictionary
281
     1
  3
Standard
350
18
  0
DICTIONARY
  5
19
102
{ACAD_REACTORS
330
C
102
}
330
C
100
AcDbDictionary
281
     1
  0
ACDBDICTIONARYWDFLT
  5
E
102
{ACAD_REACTORS
330
C
102
}
330
C
100
AcDbDictionary
281
     1
  3
Normal
350
F
100
AcDbDictionaryWithDefault
340
F
  0
DICTIONARY
  5
47
102
{ACAD_REACTORS
330
C
102
}
330
C
100
AcDbDictionary
281
     1
  3
A0
350
48
  3
A1
350
49
  3
A2
350
4A
  3
A3
350
4B
  3
A4
350
4C
  3
A5
350
4D
  3
A6
350
4E
  3
A7
350
4F
  3
A8
350
50
  3
A9
350
51
  3
B0
350
52
  3
B1
350
53
  3
B2
350
54
  3
B3
350
55
  3
B4
350
56
  3
B5
350
57
  3
B6
350
58
  3
B7
350
59
  3
B8
350
5A
  3
B9
350
5B
  3
C0
350
5C
  3
C1
350
5D
  3
C2
350
5E
  3
C3
350
5F
  3
C4
350
60
  3
C5
350
61
  3
C6
350
62
  3
C7
350
63
  3
C8
350
64
  3
C9
350
65
  3
D0
350
66
  3
D1
350
67
  3
D2
350
68
  0
DICTIONARY
  5
229
102
{ACAD_REACTORS
330
C
102
}
330
C
100
AcDbDictionary
281
     1
  0
DICTIONARY
  5
69
102
{ACAD_REACTORS
330
C
102
}
330
C
100
AcDbDictionary
281
     1
  3
Standard
350
6A
  0
DICTIONARY
  5
2A
102
{ACAD_REACTORS
330
C
102
}
330
C
100
AcDbDictionary
281
     1
  3
2dWireframe
350
2F
  3
Basic
350
32
  3
Brighten
350
36
  3
ColorChange
350
3A
  3
Conceptual
350
34
  3
Dim
350
35
  3
EdgeColorOff
350
3D
  3
Facepattern
350
39
  3
Flat
350
2B
  3
FlatWithEdges
350
2C
  3
Gouraud
350
2D
  3
GouraudWithEdges
350
2E
  3
Hidden
350
31
  3
JitterOff
350
3B
  3
Linepattern
350
38
  3
OverhangOff
350
3C
  3
Realistic
350
33
  3
Shaded
350
42
  3
Shaded with edges
350
41
  3
Shades of Gray
350
3E
  3
Sketchy
350
3F
  3
Thicken
350
37
  3
Wireframe
350
30
  3
X-Ray
350
40
  0
XRECORD
  5
225
102
{ACAD_REACTORS
330
C
102
}
330
C
100
AcDbXrecord
280
     1
 90
        1
330
6A
  0
DICTIONARY
  5
221
102
{ACAD_REACTORS
330
C
102
}
330
C
100
AcDbDictionary
281
     1
  3
CANNOSCALE
350
222
  3
CMLEADERSTYLE
350
227
  3
CTABLESTYLE
350
226
  0
LAYOUT
  5
1E
102
{ACAD_REACTORS
330
1A
102
}
330
1A
100
AcDbPlotSettings
  1

  2
none_device
  4

  6

 40
0.0
 41
0.0
 42
0.0
 43
0.0
 44
0.0
 45
0.0
 46
0.0
 47
0.0
 48
0.0
 49
0.0
140
0.0
141
0.0
142
1.0
143
1.0
 70
   688
 72
     1
 73
     0
 74
     5
  7

 75
    16
 76
     0
 77
     2
 78
   300
147
1.0
148
0.0
149
0.0
100
AcDbLayout
  1
Layout1
 70
     1
 71
     1
 10
0.0
 20
0.0
 11
420.0
 21
297.0
 12
0.0
 22
0.0
 32
0.0
 14
1.000000000000000E+20
 24
1.000000000000000E+20
 34
1.000000000000000E+20
 15
-1.000000000000000E+20
 25
-1.000000000000000E+20
 35
-1.000000000000000E+20
146
0.0
 13
0.0
 23
0.0
 33
0.0
 16
1.0
 26
0.0
 36
0.0
 17
0.0
 27
1.0
 37
0.0
 76
     0
330
1B
  0
LAYOUT
  5
26
102
{ACAD_REACTORS
330
1A
102
}
330
1A
100
AcDbPlotSettings
  1

  2
none_device
  4

  6

 40
0.0
 41
0.0
 42
0.0
 43
0.0
 44
0.0
 45
0.0
 46
0.0
 47
0.0
 48
0.0
 49
0.0
140
0.0
141
0.0
142
1.0
143
1.0
 70
   688
 72
     1
 73
     0
 74
     5
  7

 75
    16
 76
     0
 77
     2
 78
   300
147
1.0
148
0.0
149
0.0
100
AcDbLayout
  1
Layout2
 70
     1
 71
     2
 10
0.0
 20
0.0
 11
0.0
 21
0.0
 12
0.0
 22
0.0
 32
0.0
 14
0.0
 24
0.0
 34
0.0
 15
0.0
 25
0.0
 35
0.0
146
0.0
 13
0.0
 23
0.0
 33
0.0
 16
1.0
 26
0.0
 36
0.0
 17
0.0
 27
1.0
 37
0.0
 76
     0
330
23
  0
LAYOUT
  5
22
102
{ACAD_REACTORS
330
1A
102
}
330
1A
100
AcDbPlotSettings
  1

  2
none_device
  4
Letter_(8.50_x_11.00_Inches)
  6

 40
6.35
 41
6.35
 42
6.35000508
 43
6.35000508
 44
215.9
 45
279.4
 46
0.0
 47
0.0
 48
0.0
 49
0.0
140
0.0
141
0.0
142
1.0
143
1.0
 70
  1712
 72
     1
 73
     0
 74
     0
  7

 75
     0
 76
     0
 77
     2
 78
   300
147
1.0
148
0.0
149
0.0
100
AcDbLayout
  1
Model
 70
     1
 71
     0
 10
-27.80000028
 20
-1.05000044
 11
117.18742374
 21
56.31666664
 12
0.0
 22
0.0
 32
0.0
 14
1.000000000000000E+20
 24
1.000000000000000E+20
 34
1.000000000000000E+20
 15
-1.000000000000000E+20
 25
-1.000000000000000E+20
 35
-1.000000000000000E+20
146
0.0
 13
0.0
 23
0.0
 33
0.0
 16
1.0
 26
0.0
 36
0.0
 17
0.0
 27
1.0
 37
0.0
 76
     0
330
1F
331
29
  0
MATERIAL
  5
45
102
{ACAD_REACTORS
330
43
102
}
330
43
100
AcDbMaterial
  1
ByBlock
 72
     1
 94
      127
  0
MATERIAL
  5
44
102
{ACAD_REACTORS
330
43
102
}
330
43
100
AcDbMaterial
  1
ByLayer
 72
     1
 94
      127
  0
MATERIAL
  5
46
102
{ACAD_REACTORS
330
43
102
}
330
43
100
AcDbMaterial
  1
Global
 72
     1
 94
      127
  0
MLEADERSTYLE
  5
6C
102
{ACAD_REACTORS
330
6B
102
}
330
6B
100
AcDbMLeaderStyle
179
     2
170
     2
171
     1
172
     0
 90
        2
 40
0.0
 41
0.0
173
     1
 91
-1056964608
340
14
 92
       -2
290
     1
 42
2.0
291
     1
 43
8.0
  3
Standard
341
0
 44
4.0
300

342
11
174
     1
178
     6
175
     1
176
     0
 93
-1056964608
 45
4.0
292
     0
297
     0
 46
4.0
343
0
 94
-1056964608
 47
1.0
 49
1.0
140
1.0
293
     1
141
0.0
294
     1
177
     0
142
1.0
295
     0
296
     0
143
3.75
271
     0
272
     9
273
     9
298
     0
  0
MLINESTYLE
  5
18
102
{ACAD_REACTORS
330
17
102
}
330
17
100
AcDbMlineStyle
  2
Standard
 70
     0
  3

 62
   256
 51
90.0
 52
90.0
 71
     2
 49
0.5
 62
   256
  6
BYLAYER
 49
-0.5
 62
   256
  6
BYLAYER
  0
ACDBPLACEHOLDER
  5
F
102
{ACAD_REACTORS
330
E
102
}
330
E
  0
SCALE
  5
48
102
{ACAD_REACTORS
330
47
102
}
330
47
100
AcDbScale
 70
     0
300
1:1
140
1.0
141
1.0
290
     1
  0
SCALE
  5
49
102
{ACAD_REACTORS
330
47
102
}
330
47
100
AcDbScale
 70
     0
300
1:2
140
1.0
141
2.0
290
     0
  0
SCALE
  5
4A
102
{ACAD_REACTORS
330
47
102
}
330
47
100
AcDbScale
 70
     0
300
1:4
140
1.0
141
4.0
290
     0
  0
SCALE
  5
4B
102
{ACAD_REACTORS
330
47
102
}
330
47
100
AcDbScale
 70
     0
300
1:5
140
1.0
141
5.0
290
     0
  0
SCALE
  5
4C
102
{ACAD_REACTORS
330
47
102
}
330
47
100
AcDbScale
 70
     0
300
1:8
140
1.0
141
8.0
290
     0
  0
SCALE
  5
4D
102
{ACAD_REACTORS
330
47
102
}
330
47
100
AcDbScale
 70
     0
300
1:10
140
1.0
141
10.0
290
     0
  0
SCALE
  5
4E
102
{ACAD_REACTORS
330
47
102
}
330
47
100
AcDbScale
 70
     0
300
1:16
140
1.0
141
16.0
290
     0
  0
SCALE
  5
4F
102
{ACAD_REACTORS
330
47
102
}
330
47
100
AcDbScale
 70
     0
300
1:20
140
1.0
141
20.0
290
     0
  0
SCALE
  5
50
102
{ACAD_REACTORS
330
47
102
}
330
47
100
AcDbScale
 70
     0
300
1:30
140
1.0
141
30.0
290
     0
  0
SCALE
  5
51
102
{ACAD_REACTORS
330
47
102
}
330
47
100
AcDbScale
 70
     0
300
1:40
140
1.0
141
40.0
290
     0
  0
SCALE
  5
52
102
{ACAD_REACTORS
330
47
102
}
330
47
100
AcDbScale
 70
     0
300
1:50
140
1.0
141
50.0
290
     0
  0
SCALE
  5
53
102
{ACAD_REACTORS
330
47
102
}
330
47
100
AcDbScale
 70
     0
300
1:100
140
1.0
141
100.0
290
     0
  0
SCALE
  5
54
102
{ACAD_REACTORS
330
47
102
}
330
47
100
AcDbScale
 70
     0
300
2:1
140
2.0
141
1.0
290
     0
  0
SCALE
  5
55
102
{ACAD_REACTORS
330
47
102
}
330
47
100
AcDbScale
 70
     0
300
4:1
140
4.0
141
1.0
290
     0
  0
SCALE
  5
56
102
{ACAD_REACTORS
330
47
102
}
330
47
100
AcDbScale
 70
     0
300
8:1
140
8.0
141
1.0
290
     0
  0
SCALE
  5
57
102
{ACAD_REACTORS
330
47
102
}
330
47
100
AcDbScale
 70
     0
300
10:1
140
10.0
141
1.0
290
     0
  0
SCALE
  5
58
102
{ACAD_REACTORS
330
47
102
}
330
47
100
AcDbScale
 70
     0
300
100:1
140
100.0
141
1.0
290
     0
  0
SCALE
  5
59
102
{ACAD_REACTORS
330
47
102
}
330
47
100
AcDbScale
 70
     0
300
1/128" = 1'-0"
140
0.0078125
141
12.0
290
     0
  0
SCALE
  5
5A
102
{ACAD_REACTORS
330
47
102
}
330
47
100
AcDbScale
 70
     0
300
1/64" = 1'-0"
140
0.015625
141
12.0
290
     0
  0
SCALE
  5
5B
102
{ACAD_REACTORS
330
47
102
}
330
47
100
AcDbScale
 70
     0
300
1/32" = 1'-0"
140
0.03125
141
12.0
290
     0
  0
SCALE
  5
5C
102
{ACAD_REACTORS
330
47
102
}
330
47
100
AcDbScale
 70
     0
300
1/16" = 1'-0"
140
0.0625
141
12.0
290
     0
  0
SCALE
  5
5D
102
{ACAD_REACTORS
330
47
102
}
330
47
100
AcDbScale
 70
     0
300
3/32" = 1'-0"
140
0.09375
141
12.0
290
     0
  0
SCALE
  5
5E
102
{ACAD_REACTORS
330
47
102
}
330
47
100
AcDbScale
 70
     0
300
1/8" = 1'-0"
140
0.125
141
12.0
290
     0
  0
SCALE
  5
5F
102
{ACAD_REACTORS
330
47
102
}
330
47
100
AcDbScale
 70
     0
300
3/16" = 1'-0"
140
0.1875
141
12.0
290
     0
  0
SCALE
  5
60
102
{ACAD_REACTORS
330
47
102
}
330
47
100
AcDbScale
 70
     0
300
1/4" = 1'-0"
140
0.25
141
12.0
290
     0
  0
SCALE
  5
61
102
{ACAD_REACTORS
330
47
102
}
330
47
100
AcDbScale
 70
     0
300
3/8" = 1'-0"
140
0.375
141
12.0
290
     0
  0
SCALE
  5
62
102
{ACAD_REACTORS
330
47
102
}
330
47
100
AcDbScale
 70
     0
300
1/2" = 1'-0"
140
0.5
141
12.0
290
     0
  0
SCALE
  5
63
102
{ACAD_REACTORS
330
47
102
}
330
47
100
AcDbScale
 70
     0
300
3/4" = 1'-0"
140
0.75
141
12.0
290
     0
  0
SCALE
  5
64
102
{ACAD_REACTORS
330
47
102
}
330
47
100
AcDbScale
 70
     0
300
1" = 1'-0"
140
1.0
141
12.0
290
     0
  0
SCALE
  5
65
102
{ACAD_REACTORS
330
47
102
}
330
47
100
AcDbScale
 70
     0
300
1-1/2" = 1'-0"
140
1.5
141
12.0
290
     0
  0
SCALE
  5
66
102
{ACAD_REACTORS
330
47
102
}
330
47
100
AcDbScale
 70
     0
300
3" = 1'-0"
140
3.0
141
12.0
290
     0
  0
SCALE
  5
67
102
{ACAD_REACTORS
330
47
102
}
330
47
100
AcDbScale
 70
     0
300
6" = 1'-0"
140
6.0
141
12.0
290
     0
  0
SCALE
  5
68
102
{ACAD_REACTORS
330
47
102
}
330
47
100
AcDbScale
 70
     0
300
1'-0" = 1'-0"
140
12.0
141
12.0
290
     0
  0
TABLESTYLE
  5
6A
102
{ACAD_REACTORS
330
69
102
}
102
{ACAD_XDICTIONARY
360
223
102
}
330
69
100
AcDbTableStyle
  3
Standard
 70
     0
 71
     0
 40
0.06
 41
0.06
280
     0
281
     0
  7
Standard
140
4.5
170
     2
 62
     0
 63
   257
283
     0
 90
        4
 91
        0
  1

274
    -2
284
     1
 64
     0
275
    -2
285
     1
 65
     0
276
    -2
286
     1
 66
     0
277
    -2
287
     1
 67
     0
278
    -2
288
     1
 68
     0
279
    -2
289
     1
 69
     0
  7
Standard
140
6.0
170
     5
 62
     0
 63
   257
283
     0
 90
        4
 91
        0
  1

274
    -2
284
     1
 64
     0
275
    -2
285
     1
 65
     0
276
    -2
286
     1
 66
     0
277
    -2
287
     1
 67
     0
278
    -2
288
     1
 68
     0
279
    -2
289
     1
 69
     0
  7
Standard
140
4.5
170
     5
 62
     0
 63
   257
283
     0
 90
        4
 91
        0
  1

274
    -2
284
     1
 64
     0
275
    -2
285
     1
 65
     0
276
    -2
286
     1
 66
     0
277
    -2
287
     1
 67
     0
278
    -2
288
     1
 68
     0
279
    -2
289
     1
 69
     0
  0
VISUALSTYLE
  5
2F
102
{ACAD_REACTORS
330
2A
102
}
330
2A
100
AcDbVisualStyle
  2
2dWireframe
 70
     4
177
     3
291
     0
 70
    58
 90
        0
176
     1
 90
        2
176
     1
 90
        0
176
     1
 90
        0
176
     1
 40
0.6
176
     1
 40
30.0
176
     1
 62
     7
420
 16777215
176
     1
 90
        1
176
     1
 90
        4
176
     1
 62
     7
176
     1
 62
   257
176
     1
 90
        1
176
     1
 90
        1
176
     1
 40
1.0
176
     1
 90
        0
176
     1
 62
   257
176
     1
 40
1.0
176
     1
 90
        1
176
     1
 90
        6
176
     1
 90
        2
176
     1
 62
     7
176
     1
 90
        5
176
     1
 90
        0
176
     1
 90
        0
176
     1
290
     0
176
     1
 90
        1
176
     1
 40
0.0
176
     1
 90
        0
176
     1
290
     1
176
     1
290
     1
176
     1
290
     0
176
     1
290
     0
176
     1
290
     0
176
     1
290
     0
176
     1
290
     0
176
     1
290
     0
176
     1
290
     0
176
     1
 90
       50
176
     1
 40
0.0
176
     1
 40
1.0
176
     1
 90
        0
176
     1
 62
    18
420
        0
176
     1
 90
       50
176
     1
 90
        3
176
     1
 62
     5
420
      255
176
     1
290
     0
176
     1
 90
       50
176
     1
 90
       50
176
     1
 90
       50
176
     1
290
     0
176
     1
 90
       50
176
     1
 62
   256
176
     0
 40
1.0
176
     0
 90
        2
176
     1
  1
strokes_ogs.tif
176
     1
290
     0
176
     1
 40
1.0
176
     1
 40
1.0
176
     1
  0
VISUALSTYLE
  5
32
102
{ACAD_REACTORS
330
2A
102
}
330
2A
100
AcDbVisualStyle
  2
Basic
 70
     7
177
     3
291
     1
 70
    58
 90
        1
176
     1
 90
        0
176
     1
 90
        1
176
     1
 90
        0
176
     1
 40
0.6
176
     1
 40
30.0
176
     1
 62
     7
420
 16777215
176
     1
 90
        0
176
     1
 90
        4
176
     1
 62
     7
176
     1
 62
   257
176
     1
 90
        1
176
     1
 90
        1
176
     1
 40
1.0
176
     1
 90
        8
176
     1
 62
     7
176
     1
 40
1.0
176
     1
 90
        1
176
     1
 90
        6
176
     1
 90
        2
176
     1
 62
     7
176
     1
 90
        5
176
     1
 90
        0
176
     1
 90
        0
176
     1
290
     0
176
     1
 90
        1
176
     1
 40
0.0
176
     1
 90
        0
176
     1
290
     0
176
     1
290
     1
176
     1
290
     1
176
     1
290
     0
176
     1
290
     0
176
     1
290
     0
176
     1
290
     0
176
     1
290
     0
176
     1
290
     0
176
     1
 90
       50
176
     1
 40
0.0
176
     1
 40
1.0
176
     1
 90
        0
176
     1
 62
    18
420
        0
176
     1
 90
       50
176
     1
 90
        3
176
     1
 62
     5
420
      255
176
     1
290
     0
176
     1
 90
       50
176
     1
 90
       50
176
     1
 90
       50
176
     1
290
     0
176
     1
 90
       50
176
     1
 62
   256
176
     0
 40
1.0
176
     0
 90
        2
176
     1
  1
strokes_ogs.tif
176
     1
290
     0
176
     1
 40
1.0
176
     1
 40
1.0
176
     1
  0
VISUALSTYLE
  5
36
102
{ACAD_REACTORS
330
2A
102
}
330
2A
100
AcDbVisualStyle
  2
Brighten
 70
    12
177
     3
291
     1
 70
    58
 90
        2
176
     1
 90
        2
176
     1
 90
        0
176
     1
 90
        0
176
     1
 40
0.6
176
     1
 40
30.0
176
     1
 62
     7
420
 16777215
176
     1
 90
        1
176
     1
 90
        4
176
     1
 62
     7
176
     1
 62
   257
176
     1
 90
        1
176
     1
 90
        1
176
     1
 40
1.0
176
     1
 90
        8
176
     1
 62
     7
176
     1
 40
1.0
176
     1
 90
        1
176
     1
 90
        6
176
     1
 90
        2
176
     1
 62
     7
176
     1
 90
        5
176
     1
 90
        0
176
     1
 90
        0
176
     1
290
     0
176
     1
 90
        1
176
     1
 40
50.0
176
     1
 90
        0
176
     1
290
     0
176
     1
290
     1
176
     1
290
     1
176
     1
290
     0
176
     1
290
     0
176
     1
290
     0
176
     1
290
     0
176
     1
290
     0
176
     1
290
     0
176
     1
 90
       50
176
     1
 40
0.0
176
     1
 40
1.0
176
     1
 90
        0
176
     1
 62
    18
420
        0
176
     1
 90
       50
176
     1
 90
        3
176
     1
 62
     5
420
      255
176
     1
290
     0
176
     1
 90
       50
176
     1
 90
       50
176
     1
 90
       50
176
     1
290
     0
176
     1
 90
       50
176
     1
 62
   256
176
     0
 40
1.0
176
     0
 90
        2
176
     1
  1
strokes_ogs.tif
176
     1
290
     0
176
     1
 40
1.0
176
     1
 40
1.0
176
     1
  0
VISUALSTYLE
  5
3A
102
{ACAD_REACTORS
330
2A
102
}
330
2A
100
AcDbVisualStyle
  2
ColorChange
 70
    16
177
     3
291
     1
 70
    58
 90
        2
176
     1
 90
        2
176
     1
 90
        3
176
     1
 90
        0
176
     1
 40
0.6
176
     1
 40
30.0
176
     1
 62
     8
420
  8421504
176
     1
 90
        1
176
     1
 90
        4
176
     1
 62
     7
176
     1
 62
   257
176
     1
 90
        1
176
     1
 90
        1
176
     1
 40
1.0
176
     1
 90
        8
176
     1
 62
     8
420
  8421504
176
     1
 40
1.0
176
     1
 90
        1
176
     1
 90
        6
176
     1
 90
        2
176
     1
 62
     7
176
     1
 90
        5
176
     1
 90
        0
176
     1
 90
        0
176
     1
290
     0
176
     1
 90
        1
176
     1
 40
0.0
176
     1
 90
        0
176
     1
290
     0
176
     1
290
     1
176
     1
290
     1
176
     1
290
     0
176
     1
290
     0
176
     1
290
     0
176
     1
290
     0
176
     1
290
     0
176
     1
290
     0
176
     1
 90
       50
176
     1
 40
0.0
176
     1
 40
1.0
176
     1
 90
        0
176
     1
 62
    18
420
        0
176
     1
 90
       50
176
     1
 90
        3
176
     1
 62
     5
420
      255
176
     1
290
     0
176
     1
 90
       50
176
     1
 90
       50
176
     1
 90
       50
176
     1
290
     0
176
     1
 90
       50
176
     1
 62
   256
176
     0
 40
1.0
176
     0
 90
        2
176
     1
  1
strokes_ogs.tif
176
     1
290
     0
176
     1
 40
1.0
176
     1
 40
1.0
176
     1
  0
VISUALSTYLE
  5
34
102
{ACAD_REACTORS
330
2A
102
}
330
2A
100
AcDbVisualStyle
  2
Conceptual
 70
     9
177
     3
291
     0
 70
    58
 90
        3
176
     1
 90
        2
176
     1
 90
        0
176
     1
 90
        0
176
     1
 40
0.6
176
     1
 40
30.0
176
     1
 62
     7
420
 16777215
176
     1
 90
        2
176
     1
 90
        2
176
     1
 62
     7
176
     1
 62
   257
176
     1
 90
        1
176
     1
 90
        1
176
     1
 40
179.0
176
     1
 90
        8
176
     1
 62
     7
176
     1
 40
1.0
176
     1
 90
        1
176
     1
 90
        6
176
     1
 90
        2
176
     1
 62
     7
176
     1
 90
        3
176
     1
 90
        0
176
     1
 90
        0
176
     1
290
     0
176
     1
 90
        1
176
     1
 40
0.0
176
     1
 90
        0
176
     1
290
     0
176
     1
290
     1
176
     1
290
     1
176
     1
290
     0
176
     1
290
     0
176
     1
290
     0
176
     1
290
     0
176
     1
290
     0
176
     1
290
     0
176
     1
 90
       50
176
     1
 40
0.0
176
     1
 40
1.0
176
     1
 90
        0
176
     1
 62
    18
420
        0
176
     1
 90
       50
176
     1
 90
        3
176
     1
 62
     5
420
      255
176
     1
290
     0
176
     1
 90
       50
176
     1
 90
       50
176
     1
 90
       50
176
     1
290
     0
176
     1
 90
       50
176
     1
 62
   256
176
     0
 40
1.0
176
     0
 90
        2
176
     1
  1
strokes_ogs.tif
176
     1
290
     0
176
     1
 40
1.0
176
     1
 40
1.0
176
     1
  0
VISUALSTYLE
  5
35
102
{ACAD_REACTORS
330
2A
102
}
330
2A
100
AcDbVisualStyle
  2
Dim
 70
    11
177
     3
291
     1
 70
    58
 90
        2
176
     1
 90
        2
176
     1
 90
        0
176
     1
 90
        0
176
     1
 40
0.6
176
     1
 40
30.0
176
     1
 62
     7
420
 16777215
176
     1
 90
        1
176
     1
 90
        4
176
     1
 62
     7
176
     1
 62
   257
176
     1
 90
        1
176
     1
 90
        1
176
     1
 40
1.0
176
     1
 90
        8
176
     1
 62
     7
176
     1
 40
1.0
176
     1
 90
        1
176
     1
 90
        6
176
     1
 90
        2
176
     1
 62
     7
176
     1
 90
        5
176
     1
 90
        0
176
     1
 90
        0
176
     1
290
     0
176
     1
 90
        1
176
     1
 40
-50.0
176
     1
 90
        0
176
     1
290
     0
176
     1
290
     1
176
     1
290
     1
176
     1
290
     0
176
     1
290
     0
176
     1
290
     0
176
     1
290
     0
176
     1
290
     0
176
     1
290
     0
176
     1
 90
       50
176
     1
 40
0.0
176
     1
 40
1.0
176
     1
 90
        0
176
     1
 62
    18
420
        0
176
     1
 90
       50
176
     1
 90
        3
176
     1
 62
     5
420
      255
176
     1
290
     0
176
     1
 90
       50
176
     1
 90
       50
176
     1
 90
       50
176
     1
290
     0
176
     1
 90
       50
176
     1
 62
   256
176
     0
 40
1.0
176
     0
 90
        2
176
     1
  1
strokes_ogs.tif
176
     1
290
     0
176
     1
 40
1.0
176
     1
 40
1.0
176
     1
  0
VISUALSTYLE
  5
3D
102
{ACAD_REACTORS
330
2A
102
}
330
2A
100
AcDbVisualStyle
  2
EdgeColorOff
 70
    22
177
     3
291
     1
 70
    58
 90
        2
176
     0
 90
        2
176
     0
 90
        0
176
     0
 90
        0
176
     0
 40
0.6
176
     0
 40
30.0
176
     0
 62
     7
420
 16777215
176
     0
 90
        1
176
     0
 90
        4
176
     0
 62
     7
176
     0
 62
   257
176
     0
 90
        1
176
     0
 90
        1
176
     0
 40
1.0
176
     0
 90
        8
176
     2
 62
     7
176
     0
 40
1.0
176
     0
 90
        1
176
     0
 90
        6
176
     0
 90
        2
176
     0
 62
     7
176
     0
 90
        5
176
     0
 90
        0
176
     0
 90
        0
176
     0
290
     0
176
     0
 90
        1
176
     0
 40
0.0
176
     0
 90
        0
176
     0
290
     0
176
     0
290
     1
176
     0
290
     1
176
     0
290
     0
176
     0
290
     0
176
     0
290
     0
176
     0
290
     0
176
     0
290
     0
176
     0
290
     0
176
     0
 90
       50
176
     0
 40
0.0
176
     0
 40
1.0
176
     0
 90
        0
176
     0
 62
    18
420
        0
176
     0
 90
       50
176
     0
 90
        3
176
     0
 62
     5
420
      255
176
     0
290
     0
176
     0
 90
       50
176
     0
 90
       50
176
     0
 90
       50
176
     0
290
     0
176
     0
 90
       50
176
     0
 62
   256
176
     0
 40
1.0
176
     0
 90
        2
176
     0
  1
strokes_ogs.tif
176
     0
290
     0
176
     0
 40
1.0
176
     0
 40
1.0
176
     0
  0
VISUALSTYLE
  5
39
102
{ACAD_REACTORS
330
2A
102
}
330
2A
100
AcDbVisualStyle
  2
Facepattern
 70
    15
177
     3
291
     1
 70
    58
 90
        2
176
     1
 90
        2
176
     1
 90
        0
176
     1
 90
        0
176
     1
 40
0.6
176
     1
 40
30.0
176
     1
 62
     7
420
 16777215
176
     1
 90
        1
176
     1
 90
        4
176
     1
 62
     7
176
     1
 62
   257
176
     1
 90
        1
176
     1
 90
        1
176
     1
 40
1.0
176
     1
 90
        8
176
     1
 62
     7
176
     1
 40
1.0
176
     1
 90
        1
176
     1
 90
        6
176
     1
 90
        2
176
     1
 62
     7
176
     1
 90
        5
176
     1
 90
        0
176
     1
 90
        0
176
     1
290
     0
176
     1
 90
        1
176
     1
 40
0.0
176
     1
 90
        0
176
     1
290
     0
176
     1
290
     1
176
     1
290
     1
176
     1
290
     0
176
     1
290
     0
176
     1
290
     0
176
     1
290
     0
176
     1
290
     0
176
     1
290
     0
176
     1
 90
       50
176
     1
 40
0.0
176
     1
 40
1.0
176
     1
 90
        0
176
     1
 62
    18
420
        0
176
     1
 90
       50
176
     1
 90
        3
176
     1
 62
     5
420
      255
176
     1
290
     0
176
     1
 90
       50
176
     1
 90
       50
176
     1
 90
       50
176
     1
290
     0
176
     1
 90
       50
176
     1
 62
   256
176
     0
 40
1.0
176
     0
 90
        2
176
     1
  1
strokes_ogs.tif
176
     1
290
     0
176
     1
 40
1.0
176
     1
 40
1.0
176
     1
  0
VISUALSTYLE
  5
2B
102
{ACAD_REACTORS
330
2A
102
}
330
2A
100
AcDbVisualStyle
  2
Flat
 70
     0
177
     3
291
     1
 70
    58
 90
        2
176
     1
 90
        1
176
     1
 90
        1
176
     1
 90
        2
176
     1
 40
0.6
176
     1
 40
30.0
176
     1
 62
     7
420
 16777215
176
     1
 90
        0
176
     1
 90
        0
176
     1
 62
     7
176
     1
 62
   257
176
     1
 90
        1
176
     1
 90
        1
176
     1
 40
1.0
176
     1
 90
        8
176
     1
 62
     7
176
     1
 40
1.0
176
     1
 90
        1
176
     1
 90
        6
176
     1
 90
        2
176
     1
 62
     7
176
     1
 90
        5
176
     1
 90
        0
176
     1
 90
        0
176
     1
290
     0
176
     1
 90
       13
176
     1
 40
0.0
176
     1
 90
        0
176
     1
290
     0
176
     1
290
     1
176
     1
290
     1
176
     1
290
     0
176
     1
290
     0
176
     1
290
     0
176
     1
290
     0
176
     1
290
     0
176
     1
290
     0
176
     1
 90
       50
176
     1
 40
0.0
176
     1
 40
1.0
176
     1
 90
        0
176
     1
 62
    18
420
        0
176
     1
 90
       50
176
     1
 90
        3
176
     1
 62
     5
420
      255
176
     1
290
     0
176
     1
 90
       50
176
     1
 90
       50
176
     1
 90
       50
176
     1
290
     0
176
     1
 90
       50
176
     1
 62
   256
176
     0
 40
1.0
176
     0
 90
        2
176
     1
  1
strokes_ogs.tif
176
     1
290
     0
176
     1
 40
1.0
176
     1
 40
1.0
176
     1
  0
VISUALSTYLE
  5
2C
102
{ACAD_REACTORS
330
2A
102
}
330
2A
100
AcDbVisualStyle
  2
FlatWithEdges
 70
     1
177
     3
291
     1
 70
    58
 90
        2
176
     1
 90
        1
176
     1
 90
        1
176
     1
 90
        2
176
     1
 40
0.6
176
     1
 40
30.0
176
     1
 62
     7
420
 16777215
176
     1
 90
        1
176
     1
 90
        0
176
     1
 62
     7
176
     1
 62
   257
176
     1
 90
        1
176
     1
 90
        1
176
     1
 40
1.0
176
     1
 90
        0
176
     1
 62
   257
176
     1
 40
1.0
176
     1
 90
        1
176
     1
 90
        6
176
     1
 90
        2
176
     1
 62
     7
176
     1
 90
        5
176
     1
 90
        0
176
     1
 90
        0
176
     1
290
     0
176
     1
 90
       13
176
     1
 40
0.0
176
     1
 90
        0
176
     1
290
     0
176
     1
290
     1
176
     1
290
     1
176
     1
290
     0
176
     1
290
     0
176
     1
290
     0
176
     1
290
     0
176
     1
290
     0
176
     1
290
     0
176
     1
 90
       50
176
     1
 40
0.0
176
     1
 40
1.0
176
     1
 90
        0
176
     1
 62
    18
420
        0
176
     1
 90
       50
176
     1
 90
        3
176
     1
 62
     5
420
      255
176
     1
290
     0
176
     1
 90
       50
176
     1
 90
       50
176
     1
 90
       50
176
     1
290
     0
176
     1
 90
       50
176
     1
 62
   256
176
     0
 40
1.0
176
     0
 90
        2
176
     1
  1
strokes_ogs.tif
176
     1
290
     0
176
     1
 40
1.0
176
     1
 40
1.0
176
     1
  0
VISUALSTYLE
  5
2D
102
{ACAD_REACTORS
330
2A
102
}
330
2A
100
AcDbVisualStyle
  2
Gouraud
 70
     2
177
     3
291
     1
 70
    58
 90
        2
176
     1
 90
        2
176
     1
 90
        1
176
     1
 90
        2
176
     1
 40
0.6
176
     1
 40
30.0
176
     1
 62
     7
420
 16777215
176
     1
 90
        0
176
     1
 90
        0
176
     1
 62
     7
176
     1
 62
   257
176
     1
 90
        1
176
     1
 90
        1
176
     1
 40
1.0
176
     1
 90
        0
176
     1
 62
     7
176
     1
 40
1.0
176
     1
 90
        1
176
     1
 90
        6
176
     1
 90
        2
176
     1
 62
     7
176
     1
 90
        5
176
     1
 90
        0
176
     1
 90
        0
176
     1
290
     0
176
     1
 90
       13
176
     1
 40
0.0
176
     1
 90
        0
176
     1
290
     0
176
     1
290
     1
176
     1
290
     1
176
     1
290
     0
176
     1
290
     0
176
     1
290
     0
176
     1
290
     0
176
     1
290
     0
176
     1
290
     0
176
     1
 90
       50
176
     1
 40
0.0
176
     1
 40
1.0
176
     1
 90
        0
176
     1
 62
    18
420
        0
176
     1
 90
       50
176
     1
 90
        3
176
     1
 62
     5
420
      255
176
     1
290
     0
176
     1
 90
       50
176
     1
 90
       50
176
     1
 90
       50
176
     1
290
     0
176
     1
 90
       50
176
     1
 62
   256
176
     0
 40
1.0
176
     0
 90
        2
176
     1
  1
strokes_ogs.tif
176
     1
290
     0
176
     1
 40
1.0
176
     1
 40
1.0
176
     1
  0
VISUALSTYLE
  5
2E
102
{ACAD_REACTORS
330
2A
102
}
330
2A
100
AcDbVisualStyle
  2
GouraudWithEdges
 70
     3
177
     3
291
     1
 70
    58
 90
        2
176
     1
 90
        2
176
     1
 90
        1
176
     1
 90
        2
176
     1
 40
0.6
176
     1
 40
30.0
176
     1
 62
     7
420
 16777215
176
     1
 90
        1
176
     1
 90
        0
176
     1
 62
     7
176
     1
 62
   257
176
     1
 90
        1
176
     1
 90
        1
176
     1
 40
1.0
176
     1
 90
        0
176
     1
 62
   257
176
     1
 40
1.0
176
     1
 90
        1
176
     1
 90
        6
176
     1
 90
        2
176
     1
 62
     7
176
     1
 90
        5
176
     1
 90
        0
176
     1
 90
        0
176
     1
290
     0
176
     1
 90
       13
176
     1
 40
0.0
176
     1
 90
        0
176
     1
290
     0
176
     1
290
     1
176
     1
290
     1
176
     1
290
     0
176
     1
290
     0
176
     1
290
     0
176
     1
290
     0
176
     1
290
     0
176
     1
290
     0
176
     1
 90
       50
176
     1
 40
0.0
176
     1
 40
1.0
176
     1
 90
        0
176
     1
 62
    18
420
        0
176
     1
 90
       50
176
     1
 90
        3
176
     1
 62
     5
420
      255
176
     1
290
     0
176
     1
 90
       50
176
     1
 90
       50
176
     1
 90
       50
176
     1
290
     0
176
     1
 90
       50
176
     1
 62
   256
176
     0
 40
1.0
176
     0
 90
        2
176
     1
  1
strokes_ogs.tif
176
     1
290
     0
176
     1
 40
1.0
176
     1
 40
1.0
176
     1
  0
VISUALSTYLE
  5
31
102
{ACAD_REACTORS
330
2A
102
}
330
2A
100
AcDbVisualStyle
  2
Hidden
 70
     6
177
     3
291
     0
 70
    58
 90
        1
176
     1
 90
        2
176
     1
 90
        2
176
     1
 90
        0
176
     1
 40
0.6
176
     1
 40
30.0
176
     1
 62
     7
420
 16777215
176
     1
 90
        2
176
     1
 90
        2
176
     1
 62
     7
176
     1
 62
   257
176
     1
 90
        2
176
     1
 90
        1
176
     1
 40
40.0
176
     1
 90
        0
176
     1
 62
   257
176
     1
 40
1.0
176
     1
 90
        1
176
     1
 90
        6
176
     1
 90
        2
176
     1
 62
     7
176
     1
 90
        3
176
     1
 90
        0
176
     1
 90
        0
176
     1
290
     0
176
     1
 90
        1
176
     1
 40
0.0
176
     1
 90
        0
176
     1
290
     0
176
     1
290
     1
176
     1
290
     1
176
     1
290
     0
176
     1
290
     0
176
     1
290
     0
176
     1
290
     0
176
     1
290
     0
176
     1
290
     0
176
     1
 90
       50
176
     1
 40
0.0
176
     1
 40
1.0
176
     1
 90
        0
176
     1
 62
    18
420
        0
176
     1
 90
       50
176
     1
 90
        3
176
     1
 62
     5
420
      255
176
     1
290
     0
176
     1
 90
       50
176
     1
 90
       50
176
     1
 90
       50
176
     1
290
     0
176
     1
 90
       50
176
     1
 62
   256
176
     0
 40
1.0
176
     0
 90
        2
176
     1
  1
strokes_ogs.tif
176
     1
290
     0
176
     1
 40
1.0
176
     1
 40
1.0
176
     1
  0
VISUALSTYLE
  5
3B
102
{ACAD_REACTORS
330
2A
102
}
330
2A
100
AcDbVisualStyle
  2
JitterOff
 70
    20
177
     3
291
     1
 70
    58
 90
        2
176
     0
 90
        2
176
     0
 90
        0
176
     0
 90
        0
176
     0
 40
0.6
176
     0
 40
30.0
176
     0
 62
     7
420
 16777215
176
     0
 90
        1
176
     0
 90
        4
176
     0
 62
     7
176
     0
 62
   257
176
     0
 90
        1
176
     0
 90
        1
176
     0
 40
1.0
176
     0
 90
       10
176
     2
 62
     7
176
     0
 40
1.0
176
     0
 90
        1
176
     0
 90
        6
176
     0
 90
        2
176
     0
 62
     7
176
     0
 90
        5
176
     0
 90
        0
176
     0
 90
        0
176
     0
290
     0
176
     0
 90
        1
176
     0
 40
0.0
176
     0
 90
        0
176
     0
290
     0
176
     0
290
     1
176
     0
290
     1
176
     0
290
     0
176
     0
290
     0
176
     0
290
     0
176
     0
290
     0
176
     0
290
     0
176
     0
290
     0
176
     0
 90
       50
176
     0
 40
0.0
176
     0
 40
1.0
176
     0
 90
        0
176
     0
 62
    18
420
        0
176
     0
 90
       50
176
     0
 90
        3
176
     0
 62
     5
420
      255
176
     0
290
     0
176
     0
 90
       50
176
     0
 90
       50
176
     0
 90
       50
176
     0
290
     0
176
     0
 90
       50
176
     0
 62
   256
176
     0
 40
1.0
176
     0
 90
        2
176
     0
  1
strokes_ogs.tif
176
     0
290
     0
176
     0
 40
1.0
176
     0
 40
1.0
176
     0
  0
VISUALSTYLE
  5
38
102
{ACAD_REACTORS
330
2A
102
}
330
2A
100
AcDbVisualStyle
  2
Linepattern
 70
    14
177
     3
291
     1
 70
    58
 90
        2
176
     1
 90
        2
176
     1
 90
        0
176
     1
 90
        0
176
     1
 40
0.6
176
     1
 40
30.0
176
     1
 62
     7
420
 16777215
176
     1
 90
        1
176
     1
 90
        4
176
     1
 62
     7
176
     1
 62
   257
176
     1
 90
        7
176
     1
 90
        7
176
     1
 40
1.0
176
     1
 90
        8
176
     1
 62
     7
176
     1
 40
1.0
176
     1
 90
        1
176
     1
 90
        6
176
     1
 90
        2
176
     1
 62
     7
176
     1
 90
        5
176
     1
 90
        0
176
     1
 90
        0
176
     1
290
     0
176
     1
 90
        1
176
     1
 40
0.0
176
     1
 90
        0
176
     1
290
     0
176
     1
290
     1
176
     1
290
     1
176
     1
290
     0
176
     1
290
     0
176
     1
290
     0
176
     1
290
     0
176
     1
290
     0
176
     1
290
     0
176
     1
 90
       50
176
     1
 40
0.0
176
     1
 40
1.0
176
     1
 90
        0
176
     1
 62
    18
420
        0
176
     1
 90
       50
176
     1
 90
        3
176
     1
 62
     5
420
      255
176
     1
290
     0
176
     1
 90
       50
176
     1
 90
       50
176
     1
 90
       50
176
     1
290
     0
176
     1
 90
       50
176
     1
 62
   256
176
     0
 40
1.0
176
     0
 90
        2
176
     1
  1
strokes_ogs.tif
176
     1
290
     0
176
     1
 40
1.0
176
     1
 40
1.0
176
     1
  0
VISUALSTYLE
  5
3C
102
{ACAD_REACTORS
330
2A
102
}
330
2A
100
AcDbVisualStyle
  2
OverhangOff
 70
    21
177
     3
291
     1
 70
    58
 90
        2
176
     0
 90
        2
176
     0
 90
        0
176
     0
 90
        0
176
     0
 40
0.6
176
     0
 40
30.0
176
     0
 62
     7
420
 16777215
176
     0
 90
        1
176
     0
 90
        4
176
     0
 62
     7
176
     0
 62
   257
176
     0
 90
        1
176
     0
 90
        1
176
     0
 40
1.0
176
     0
 90
        9
176
     2
 62
     7
176
     0
 40
1.0
176
     0
 90
        1
176
     0
 90
        6
176
     0
 90
        2
176
     0
 62
     7
176
     0
 90
        5
176
     0
 90
        0
176
     0
 90
        0
176
     0
290
     0
176
     0
 90
        1
176
     0
 40
0.0
176
     0
 90
        0
176
     0
290
     0
176
     0
290
     1
176
     0
290
     1
176
     0
290
     0
176
     0
290
     0
176
     0
290
     0
176
     0
290
     0
176
     0
290
     0
176
     0
290
     0
176
     0
 90
       50
176
     0
 40
0.0
176
     0
 40
1.0
176
     0
 90
        0
176
     0
 62
    18
420
        0
176
     0
 90
       50
176
     0
 90
        3
176
     0
 62
     5
420
      255
176
     0
290
     0
176
     0
 90
       50
176
     0
 90
       50
176
     0
 90
       50
176
     0
290
     0
176
     0
 90
       50
176
     0
 62
   256
176
     0
 40
1.0
176
     0
 90
        2
176
     0
  1
strokes_ogs.tif
176
     0
290
     0
176
     0
 40
1.0
176
     0
 40
1.0
176
     0
  0
VISUALSTYLE
  5
33
102
{ACAD_REACTORS
330
2A
102
}
330
2A
100
AcDbVisualStyle
  2
Realistic
 70
     8
177
     3
291
     0
 70
    58
 90
        2
176
     1
 90
        3
176
     1
 90
        0
176
     1
 90
        2
176
     1
 40
0.6
176
     1
 40
30.0
176
     1
 62
     7
420
 16777215
176
     1
 90
        0
176
     1
 90
        0
176
     1
 62
     7
176
     1
 62
   257
176
     1
 90
        1
176
     1
 90
        1
176
     1
 40
1.0
176
     1
 90
        8
176
     1
 62
   257
176
     1
 40
1.0
176
     1
 90
        1
176
     1
 90
        6
176
     1
 90
        2
176
     1
 62
     7
176
     1
 90
        3
176
     1
 90
        0
176
     1
 90
        0
176
     1
290
     0
176
     1
 90
       13
176
     1
 40
0.0
176
     1
 90
        0
176
     1
290
     0
176
     1
290
     1
176
     1
290
     1
176
     1
290
     0
176
     1
290
     0
176
     1
290
     0
176
     1
290
     0
176
     1
290
     0
176
     1
290
     0
176
     1
 90
       50
176
     1
 40
0.0
176
     1
 40
1.0
176
     1
 90
        0
176
     1
 62
    18
420
        0
176
     1
 90
       50
176
     1
 90
        3
176
     1
 62
     5
420
      255
176
     1
290
     0
176
     1
 90
       50
176
     1
 90
       50
176
     1
 90
       50
176
     1
290
     0
176
     1
 90
       50
176
     1
 62
   256
176
     0
 40
1.0
176
     0
 90
        2
176
     1
  1
strokes_ogs.tif
176
     1
290
     0
176
     1
 40
1.0
176
     1
 40
1.0
176
     1
  0
VISUALSTYLE
  5
42
102
{ACAD_REACTORS
330
2A
102
}
330
2A
100
AcDbVisualStyle
  2
Shaded
 70
    27
177
     3
291
     0
 70
    58
 90
        2
176
     1
 90
        2
176
     1
 90
        1
176
     1
 90
        2
176
     1
 40
0.6
176
     1
 40
30.0
176
     1
 62
     7
420
 16777215
176
     1
 90
        0
176
     1
 90
        4
176
     1
 62
     7
176
     1
 62
   257
176
     1
 90
        1
176
     1
 90
        1
176
     1
 40
1.0
176
     1
 90
        8
176
     1
 62
   257
176
     1
 40
1.0
176
     1
 90
        1
176
     1
 90
        6
176
     1
 90
        2
176
     1
 62
     8
420
  7895160
176
     1
 90
        3
176
     1
 90
        0
176
     1
 90
        0
176
     1
290
     0
176
     1
 90
        5
176
     1
 40
0.0
176
     1
 90
        0
176
     1
290
     0
176
     1
290
     1
176
     1
290
     1
176
     1
290
     0
176
     1
290
     0
176
     1
290
     0
176
     1
290
     0
176
     1
290
     0
176
     1
290
     0
176
     1
 90
       50
176
     1
 40
0.0
176
     1
 40
1.0
176
     1
 90
        0
176
     1
 62
    18
420
        0
176
     1
 90
       50
176
     1
 90
        3
176
     1
 62
     5
420
      255
176
     1
290
     0
176
     1
 90
       50
176
     1
 90
       50
176
     1
 90
       50
176
     1
290
     0
176
     1
 90
       50
176
     1
 62
   256
176
     0
 40
1.0
176
     0
 90
        2
176
     1
  1
strokes_ogs.tif
176
     1
290
     0
176
     1
 40
1.0
176
     1
 40
1.0
176
     1
  0
VISUALSTYLE
  5
41
102
{ACAD_REACTORS
330
2A
102
}
330
2A
100
AcDbVisualStyle
  2
Shaded with edges
 70
    26
177
     3
291
     0
 70
    58
 90
        2
176
     1
 90
        2
176
     1
 90
        1
176
     1
 90
        2
176
     1
 40
0.6
176
     1
 40
30.0
176
     1
 62
     7
420
 16777215
176
     1
 90
        1
176
     1
 90
       10
176
     1
 62
     7
176
     1
 62
   257
176
     1
 90
        2
176
     1
 90
        1
176
     1
 40
1.0
176
     1
 90
        8
176
     1
 62
   257
176
     1
 40
1.0
176
     1
 90
        1
176
     1
 90
        6
176
     1
 90
        2
176
     1
 62
     7
176
     1
 90
        3
176
     1
 90
        0
176
     1
 90
        0
176
     1
290
     0
176
     1
 90
        5
176
     1
 40
0.0
176
     1
 90
        0
176
     1
290
     0
176
     1
290
     1
176
     1
290
     1
176
     1
290
     0
176
     1
290
     0
176
     1
290
     0
176
     1
290
     0
176
     1
290
     0
176
     1
290
     0
176
     1
 90
       50
176
     1
 40
0.0
176
     1
 40
1.0
176
     1
 90
        0
176
     1
 62
    18
420
        0
176
     1
 90
       50
176
     1
 90
        3
176
     1
 62
     5
420
      255
176
     1
290
     0
176
     1
 90
       50
176
     1
 90
       50
176
     1
 90
       50
176
     1
290
     0
176
     1
 90
       50
176
     1
 62
   256
176
     0
 40
1.0
176
     0
 90
        2
176
     1
  1
strokes_ogs.tif
176
     1
290
     0
176
     1
 40
1.0
176
     1
 40
1.0
176
     1
  0
VISUALSTYLE
  5
3E
102
{ACAD_REACTORS
330
2A
102
}
330
2A
100
AcDbVisualStyle
  2
Shades of Gray
 70
    23
177
     3
291
     0
 70
    58
 90
        2
176
     1
 90
        2
176
     1
 90
        3
176
     1
 90
        0
176
     1
 40
0.6
176
     1
 40
30.0
176
     1
 62
     7
420
 16777215
176
     1
 90
        2
176
     1
 90
        2
176
     1
 62
     7
176
     1
 62
     7
176
     1
 90
        1
176
     1
 90
        1
176
     1
 40
40.0
176
     1
 90
        8
176
     1
 62
     7
176
     1
 40
1.0
176
     1
 90
        1
176
     1
 90
        6
176
     1
 90
        2
176
     1
 62
     7
176
     1
 90
        3
176
     1
 90
        0
176
     1
 90
        0
176
     1
290
     0
176
     1
 90
        1
176
     1
 40
0.0
176
     1
 90
        0
176
     1
290
     0
176
     1
290
     1
176
     1
290
     1
176
     1
290
     0
176
     1
290
     0
176
     1
290
     0
176
     1
290
     0
176
     1
290
     0
176
     1
290
     0
176
     1
 90
       50
176
     1
 40
0.0
176
     1
 40
1.0
176
     1
 90
        0
176
     1
 62
    18
420
        0
176
     1
 90
       50
176
     1
 90
        3
176
     1
 62
     5
420
      255
176
     1
290
     0
176
     1
 90
       50
176
     1
 90
       50
176
     1
 90
       50
176
     1
290
     0
176
     1
 90
       50
176
     1
 62
   256
176
     0
 40
1.0
176
     0
 90
        2
176
     1
  1
strokes_ogs.tif
176
     1
290
     0
176
     1
 40
1.0
176
     1
 40
1.0
176
     1
  0
VISUALSTYLE
  5
3F
102
{ACAD_REACTORS
330
2A
102
}
330
2A
100
AcDbVisualStyle
  2
Sketchy
 70
    24
177
     3
291
     0
 70
    58
 90
        1
176
     1
 90
        2
176
     1
 90
        2
176
     1
 90
        0
176
     1
 40
0.6
176
     1
 40
30.0
176
     1
 62
     7
420
 16777215
176
     1
 90
        2
176
     1
 90
        2
176
     1
 62
     7
176
     1
 62
     7
176
     1
 90
        1
176
     1
 90
        1
176
     1
 40
40.0
176
     1
 90
       11
176
     1
 62
     7
176
     1
 40
1.0
176
     1
 90
        1
176
     1
 90
        6
176
     1
 90
        2
176
     1
 62
     7
176
     1
 90
        6
176
     1
 90
        0
176
     1
 90
        0
176
     1
290
     0
176
     1
 90
        1
176
     1
 40
0.0
176
     1
 90
        0
176
     1
290
     0
176
     1
290
     1
176
     1
290
     1
176
     1
290
     0
176
     1
290
     0
176
     1
290
     0
176
     1
290
     0
176
     1
290
     0
176
     1
290
     0
176
     1
 90
       50
176
     1
 40
0.0
176
     1
 40
1.0
176
     1
 90
        0
176
     1
 62
    18
420
        0
176
     1
 90
       50
176
     1
 90
        3
176
     1
 62
     5
420
      255
176
     1
290
     0
176
     1
 90
       50
176
     1
 90
       50
176
     1
 90
       50
176
     1
290
     0
176
     1
 90
       50
176
     1
 62
   256
176
     0
 40
1.0
176
     0
 90
        2
176
     1
  1
strokes_ogs.tif
176
     1
290
     0
176
     1
 40
1.0
176
     1
 40
1.0
176
     1
  0
VISUALSTYLE
  5
37
102
{ACAD_REACTORS
330
2A
102
}
330
2A
100
AcDbVisualStyle
  2
Thicken
 70
    13
177
     3
291
     1
 70
    58
 90
        2
176
     1
 90
        2
176
     1
 90
        0
176
     1
 90
        0
176
     1
 40
0.6
176
     1
 40
30.0
176
     1
 62
     7
420
 16777215
176
     1
 90
        1
176
     1
 90
        4
176
     1
 62
     7
176
     1
 62
   257
176
     1
 90
        1
176
     1
 90
        1
176
     1
 40
1.0
176
     1
 90
       12
176
     1
 62
     7
176
     1
 40
1.0
176
     1
 90
        1
176
     1
 90
        6
176
     1
 90
        2
176
     1
 62
     7
176
     1
 90
        5
176
     1
 90
        0
176
     1
 90
        0
176
     1
290
     0
176
     1
 90
        1
176
     1
 40
0.0
176
     1
 90
        0
176
     1
290
     0
176
     1
290
     1
176
     1
290
     1
176
     1
290
     0
176
     1
290
     0
176
     1
290
     0
176
     1
290
     0
176
     1
290
     0
176
     1
290
     0
176
     1
 90
       50
176
     1
 40
0.0
176
     1
 40
1.0
176
     1
 90
        0
176
     1
 62
    18
420
        0
176
     1
 90
       50
176
     1
 90
        3
176
     1
 62
     5
420
      255
176
     1
290
     0
176
     1
 90
       50
176
     1
 90
       50
176
     1
 90
       50
176
     1
290
     0
176
     1
 90
       50
176
     1
 62
   256
176
     0
 40
1.0
176
     0
 90
        2
176
     1
  1
strokes_ogs.tif
176
     1
290
     0
176
     1
 40
1.0
176
     1
 40
1.0
176
     1
  0
VISUALSTYLE
  5
30
102
{ACAD_REACTORS
330
2A
102
}
330
2A
100
AcDbVisualStyle
  2
Wireframe
 70
     5
177
     3
291
     0
 70
    58
 90
        0
176
     1
 90
        2
176
     1
 90
        0
176
     1
 90
        0
176
     1
 40
0.6
176
     1
 40
30.0
176
     1
 62
     7
420
 16777215
176
     1
 90
        1
176
     1
 90
        4
176
     1
 62
     7
176
     1
 62
   257
176
     1
 90
        1
176
     1
 90
        1
176
     1
 40
1.0
176
     1
 90
        0
176
     1
 62
   257
176
     1
 40
1.0
176
     1
 90
        1
176
     1
 90
        6
176
     1
 90
        2
176
     1
 62
     7
176
     1
 90
        3
176
     1
 90
        0
176
     1
 90
        0
176
     1
290
     0
176
     1
 90
        1
176
     1
 40
0.0
176
     1
 90
        0
176
     1
290
     0
176
     1
290
     1
176
     1
290
     1
176
     1
290
     0
176
     1
290
     0
176
     1
290
     0
176
     1
290
     0
176
     1
290
     0
176
     1
290
     0
176
     1
 90
       50
176
     1
 40
0.0
176
     1
 40
1.0
176
     1
 90
        0
176
     1
 62
    18
420
        0
176
     1
 90
       50
176
     1
 90
        3
176
     1
 62
     5
420
      255
176
     1
290
     0
176
     1
 90
       50
176
     1
 90
       50
176
     1
 90
       50
176
     1
290
     0
176
     1
 90
       50
176
     1
 62
   256
176
     0
 40
1.0
176
     0
 90
        2
176
     1
  1
strokes_ogs.tif
176
     1
290
     0
176
     1
 40
1.0
176
     1
 40
1.0
176
     1
  0
VISUALSTYLE
  5
40
102
{ACAD_REACTORS
330
2A
102
}
330
2A
100
AcDbVisualStyle
  2
X-Ray
 70
    25
177
     3
291
     0
 70
    58
 90
        2
176
     1
 90
        2
176
     1
 90
        1
176
     1
 90
        1
176
     1
 40
0.5
176
     1
 40
30.0
176
     1
 62
     7
420
 16777215
176
     1
 90
        1
176
     1
 90
        0
176
     1
 62
     7
176
     1
 62
   257
176
     1
 90
        1
176
     1
 90
        1
176
     1
 40
1.0
176
     1
 90
        8
176
     1
 62
     7
176
     1
 40
1.0
176
     1
 90
        1
176
     1
 90
        6
176
     1
 90
        2
176
     1
 62
     7
176
     1
 90
        3
176
     1
 90
        0
176
     1
 90
        0
176
     1
290
     0
176
     1
 90
       13
176
     1
 40
0.0
176
     1
 90
        0
176
     1
290
     0
176
     1
290
     1
176
     1
290
     1
176
     1
290
     0
176
     1
290
     0
176
     1
290
     0
176
     1
290
     0
176
     1
290
     0
176
     1
290
     0
176
     1
 90
       50
176
     1
 40
0.0
176
     1
 40
1.0
176
     1
 90
        0
176
     1
 62
    18
420
        0
176
     1
 90
       50
176
     1
 90
        3
176
     1
 62
     5
420
      255
176
     1
290
     0
176
     1
 90
       50
176
     1
 90
       50
176
     1
 90
       50
176
     1
290
     0
176
     1
 90
       50
176
     1
 62
   256
176
     0
 40
1.0
176
     0
 90
        2
176
     1
  1
strokes_ogs.tif
176
     1
290
     0
176
     1
 40
1.0
176
     1
 40
1.0
176
     1
  0
DICTIONARYVAR
  5
222
102
{ACAD_REACTORS
330
221
102
}
330
221
100
DictionaryVariables
280
     0
  1
1:1
  0
DICTIONARYVAR
  5
227
102
{ACAD_REACTORS
330
221
102
}
330
221
100
DictionaryVariables
280
     0
  1
Standard
  0
DICTIONARYVAR
  5
226
102
{ACAD_REACTORS
330
221
102
}
330
221
100
DictionaryVariables
280
     0
  1
Standard
  0
DICTIONARY
  5
223
330
6A
100
AcDbDictionary
280
     1
281
     1
  3
ACAD_ROUNDTRIP_2008_TABLESTYLE_CELLSTYLEMAP
360
224
  0
CELLSTYLEMAP
  5
224
102
{ACAD_REACTORS
330
223
102
}
330
223
100
AcDbCellStyleMap
 90
        3
300
CELLSTYLE
  1
TABLEFORMAT_BEGIN
 90
        5
170
     1
 91
        0
 92
    32768
 62
   257
 93
        1
300
CONTENTFORMAT
  1
CONTENTFORMAT_BEGIN
 90
        0
 91
        0
 92
        4
 93
        0
300

 40
0.0
140
1.0
 94
        5
 62
     0
340
11
144
6.0
309
CONTENTFORMAT_END
171
     1
301
MARGIN
  1
CELLMARGIN_BEGIN
 40
1.5
 40
1.5
 40
1.5
 40
1.5
 40
1.5
 40
1.5
309
CELLMARGIN_END
 94
        6
 95
        1
302
GRIDFORMAT
  1
GRIDFORMAT_BEGIN
 90
        0
 91
        1
 62
     0
 92
       -2
340
14
 93
        0
 40
0.045
309
GRIDFORMAT_END
 95
        2
302
GRIDFORMAT
  1
GRIDFORMAT_BEGIN
 90
        0
 91
        1
 62
     0
 92
       -2
340
14
 93
        0
 40
0.045
309
GRIDFORMAT_END
 95
        4
302
GRIDFORMAT
  1
GRIDFORMAT_BEGIN
 90
        0
 91
        1
 62
     0
 92
       -2
340
14
 93
        0
 40
0.045
309
GRIDFORMAT_END
 95
        8
302
GRIDFORMAT
  1
GRIDFORMAT_BEGIN
 90
        0
 91
        1
 62
     0
 92
       -2
340
14
 93
        0
 40
0.045
309
GRIDFORMAT_END
 95
       16
302
GRIDFORMAT
  1
GRIDFORMAT_BEGIN
 90
        0
 91
        1
 62
     0
 92
       -2
340
14
 93
        0
 40
0.045
309
GRIDFORMAT_END
 95
       32
302
GRIDFORMAT
  1
GRIDFORMAT_BEGIN
 90
        0
 91
        1
 62
     0
 92
       -2
340
14
 93
        0
 40
0.045
309
GRIDFORMAT_END
309
TABLEFORMAT_END
  1
CELLSTYLE_BEGIN
 90
        1
 91
        1
300
_TITLE
309
CELLSTYLE_END
300
CELLSTYLE
  1
TABLEFORMAT_BEGIN
 90
        5
170
     1
 91
        0
 92
        0
 62
   257
 93
        1
300
CONTENTFORMAT
  1
CONTENTFORMAT_BEGIN
 90
        0
 91
        0
 92
        4
 93
        0
300

 40
0.0
140
1.0
 94
        5
 62
     0
340
11
144
4.5
309
CONTENTFORMAT_END
171
     1
301
MARGIN
  1
CELLMARGIN_BEGIN
 40
1.5
 40
1.5
 40
1.5
 40
1.5
 40
1.5
 40
1.5
309
CELLMARGIN_END
 94
        6
 95
        1
302
GRIDFORMAT
  1
GRIDFORMAT_BEGIN
 90
        0
 91
        1
 62
     0
 92
       -2
340
14
 93
        0
 40
0.045
309
GRIDFORMAT_END
 95
        2
302
GRIDFORMAT
  1
GRIDFORMAT_BEGIN
 90
        0
 91
        1
 62
     0
 92
       -2
340
14
 93
        0
 40
0.045
309
GRIDFORMAT_END
 95
        4
302
GRIDFORMAT
  1
GRIDFORMAT_BEGIN
 90
        0
 91
        1
 62
     0
 92
       -2
340
14
 93
        0
 40
0.045
309
GRIDFORMAT_END
 95
        8
302
GRIDFORMAT
  1
GRIDFORMAT_BEGIN
 90
        0
 91
        1
 62
     0
 92
       -2
340
14
 93
        0
 40
0.045
309
GRIDFORMAT_END
 95
       16
302
GRIDFORMAT
  1
GRIDFORMAT_BEGIN
 90
        0
 91
        1
 62
     0
 92
       -2
340
14
 93
        0
 40
0.045
309
GRIDFORMAT_END
 95
       32
302
GRIDFORMAT
  1
GRIDFORMAT_BEGIN
 90
        0
 91
        1
 62
     0
 92
       -2
340
14
 93
        0
 40
0.045
309
GRIDFORMAT_END
309
TABLEFORMAT_END
  1
CELLSTYLE_BEGIN
 90
        2
 91
        1
300
_HEADER
309
CELLSTYLE_END
300
CELLSTYLE
  1
TABLEFORMAT_BEGIN
 90
        5
170
     1
 91
        0
 92
        0
 62
   257
 93
        1
300
CONTENTFORMAT
  1
CONTENTFORMAT_BEGIN
 90
        0
 91
        0
 92
        4
 93
        0
300

 40
0.0
140
1.0
 94
        2
 62
     0
340
11
144
4.5
309
CONTENTFORMAT_END
171
     1
301
MARGIN
  1
CELLMARGIN_BEGIN
 40
1.5
 40
1.5
 40
1.5
 40
1.5
 40
1.5
 40
1.5
309
CELLMARGIN_END
 94
        6
 95
        1
302
GRIDFORMAT
  1
GRIDFORMAT_BEGIN
 90
        0
 91
        1
 62
     0
 92
       -2
340
14
 93
        0
 40
0.045
309
GRIDFORMAT_END
 95
        2
302
GRIDFORMAT
  1
GRIDFORMAT_BEGIN
 90
        0
 91
        1
 62
     0
 92
       -2
340
14
 93
        0
 40
0.045
309
GRIDFORMAT_END
 95
        4
302
GRIDFORMAT
  1
GRIDFORMAT_BEGIN
 90
        0
 91
        1
 62
     0
 92
       -2
340
14
 93
        0
 40
0.045
309
GRIDFORMAT_END
 95
        8
302
GRIDFORMAT
  1
GRIDFORMAT_BEGIN
 90
        0
 91
        1
 62
     0
 92
       -2
340
14
 93
        0
 40
0.045
309
GRIDFORMAT_END
 95
       16
302
GRIDFORMAT
  1
GRIDFORMAT_BEGIN
 90
        0
 91
        1
 62
     0
 92
       -2
340
14
 93
        0
 40
0.045
309
GRIDFORMAT_END
 95
       32
302
GRIDFORMAT
  1
GRIDFORMAT_BEGIN
 90
        0
 91
        1
 62
     0
 92
       -2
340
14
 93
        0
 40
0.045
309
GRIDFORMAT_END
309
TABLEFORMAT_END
  1
CELLSTYLE_BEGIN
 90
        3
 91
        2
300
_DATA
309
CELLSTYLE_END
  0
ENDSEC
  0
SECTION
  2
ACDSDATA
 70
     2
 71
     2
  0
ACDSSCHEMA
 90
        0
  1
AcDb_Thumbnail_Schema
  2
AcDbDs::ID
280
    10
 91
        8
  2
Thumbnail_Data
280
    15
 91
        0
101
ACDSRECORD
 95
        0
 90
        2
  2
AcDbDs::TreatedAsObjectData
280
     1
291
     1
101
ACDSRECORD
 95
        0
 90
        3
  2
AcDbDs::Legacy
280
     1
291
     1
101
ACDSRECORD
  1
AcDbDs::ID
 90
        4
  2
AcDs:Indexable
280
     1
291
     1
101
ACDSRECORD
  1
AcDbDs::ID
 90
        5
  2
AcDbDs::HandleAttribute
280
     7
282
     1
  0
ACDSSCHEMA
 90
        1
  1
AcDb3DSolid_ASM_Data
  2
AcDbDs::ID
280
    10
 91
        8
  2
ASM_Data
280
    15
 91
        0
101
ACDSRECORD
 95
        1
 90
        2
  2
AcDbDs::TreatedAsObjectData
280
     1
291
     1
101
ACDSRECORD
 95
        1
 90
        3
  2
AcDbDs::Legacy
280
     1
291
     1
101
ACDSRECORD
  1
AcDbDs::ID
 90
        4
  2
AcDs:Indexable
280
     1
291
     1
101
ACDSRECORD
  1
AcDbDs::ID
 90
        5
  2
AcDbDs::HandleAttribute
280
     7
282
     1
  0
ACDSSCHEMA
 90
        2
  1
AcDbDs::TreatedAsObjectDataSchema
  2
AcDbDs::TreatedAsObjectData
280
     1
 91
        0
  0
ACDSSCHEMA
 90
        3
  1
AcDbDs::LegacySchema
  2
AcDbDs::Legacy
280
     1
 91
        0
  0
ACDSSCHEMA
 90
        4
  1
AcDbDs::IndexedPropertySchema
  2
AcDs:Indexable
280
     1
 91
        0
  0
ACDSSCHEMA
 90
        5
  1
AcDbDs::HandleAttributeSchema
  2
AcDbDs::HandleAttribute
280
     7
 91
        1
284
     1
  0
ACDSRECORD
 90
        1
  2
AcDbDs::ID
280
    10
320
9A
  2
ASM_Data
280
    15
 94
      811
310
414349532042696E61727946696C652855000000000000010000000C00000007214F70656E2044657369676E20416C6C69616E63652041434953204275696C646572070E41434953203231382E3030204E5407184D6F6E204A756C2030342030383A32383A3237203230323206000000000000F03F0648AFBC9AF2D77A3E06
310
BBBDD7D9DF7CDB3D0D04626F64790CFFFFFFFF04FFFFFFFF0CFFFFFFFF0C0A0000000CFFFFFFFF0CFFFFFFFF110D05706F696E740CFFFFFFFF04FFFFFFFF0CFFFFFFFF13EEE8A0C7FFFF2540810F142E9AF944400000000000000000110D067665727465780CFFFFFFFF04FFFFFFFF0CFFFFFFFF0C0400000004020000000C
310
01000000110E07656C6C697073650D0563757276650CFFFFFFFF04FFFFFFFF0CFFFFFFFF13A64CFFCCFFFF1F40810F142E9AF9444000000000000000001400000000000000000000000000000000000000000000F03F146B0A8584FFFF07400000000000000000000000000000008006000000000000F03F0B0B110D046564
310
67650CFFFFFFFF04FFFFFFFF0CFFFFFFFF0C020000000600000000000000000C0200000006182D4454FB2119400C050000000C030000000B0707756E6B6E6F776E110D06636F656467650CFFFFFFFF04FFFFFFFF0CFFFFFFFF0C050000000C050000000CFFFFFFFF0C040000000B0C0600000004000000000CFFFFFFFF110D
310
046C6F6F700CFFFFFFFF04FFFFFFFF0CFFFFFFFF0CFFFFFFFF0C050000000C08000000110E05706C616E650D07737572666163650CFFFFFFFF04FFFFFFFF0CFFFFFFFF130B0ADEEBFFFF1940810F142E9AF9444000000000000000001400000000000000800000000000000000000000000000F03F14000000000000F03F00
310
0000000000000000000000000000000B0B0B0B0B110D04666163650CFFFFFFFF04FFFFFFFF0CFFFFFFFF0CFFFFFFFF0C060000000C090000000CFFFFFFFF0C070000000B0A0B110D057368656C6C0CFFFFFFFF04FFFFFFFF0CFFFFFFFF0CFFFFFFFF0CFFFFFFFF0C080000000CFFFFFFFF0C0A000000110D046C756D700CFF
310
FFFFFF04FFFFFFFF0CFFFFFFFF0CFFFFFFFF0C090000000C00000000110E03456E640E026F660E0341534D0D0464617461
  0
ACDSRECORD
 90
        1
  2
AcDbDs::ID
280
    10
320
9D
  2
ASM_Data
280
    15
 94
      811
310
414349532042696E61727946696C652855000000000000010000000C00000007214F70656E2044657369676E20416C6C69616E63652041434953204275696C646572070E41434953203231382E3030204E5407184D6F6E204A756C2030342030383A32383A3237203230323206000000000000F03F0648AFBC9AF2D77A3E06
310
BBBDD7D9DF7CDB3D0D04626F64790CFFFFFFFF04FFFFFFFF0CFFFFFFFF0C0A0000000CFFFFFFFF0CFFFFFFFF110D05706F696E740CFFFFFFFF04FFFFFFFF0CFFFFFFFF13EEE8A0C7FFFF2540FDFD3937333314400000000000000000110D067665727465780CFFFFFFFF04FFFFFFFF0CFFFFFFFF0C0400000004020000000C
310
01000000110E07656C6C697073650D0563757276650CFFFFFFFF04FFFFFFFF0CFFFFFFFF13A64CFFCCFFFF1F40FDFD39373333144000000000000000001400000000000000000000000000000000000000000000F03F146B0A8584FFFF07400000000000000000000000000000008006000000000000F03F0B0B110D046564
310
67650CFFFFFFFF04FFFFFFFF0CFFFFFFFF0C020000000600000000000000000C0200000006182D4454FB2119400C050000000C030000000B0707756E6B6E6F776E110D06636F656467650CFFFFFFFF04FFFFFFFF0CFFFFFFFF0C050000000C050000000CFFFFFFFF0C040000000B0C0600000004000000000CFFFFFFFF110D
310
046C6F6F700CFFFFFFFF04FFFFFFFF0CFFFFFFFF0CFFFFFFFF0C050000000C08000000110E05706C616E650D07737572666163650CFFFFFFFF04FFFFFFFF0CFFFFFFFF130B0ADEEBFFFF1940FEFD39373333144000000000000000001400000000000000800000000000000000000000000000F03F14000000000000F03F00
310
0000000000000000000000000000000B0B0B0B0B110D04666163650CFFFFFFFF04FFFFFFFF0CFFFFFFFF0CFFFFFFFF0C060000000C090000000CFFFFFFFF0C070000000B0A0B110D057368656C6C0CFFFFFFFF04FFFFFFFF0CFFFFFFFF0CFFFFFFFF0CFFFFFFFF0C080000000CFFFFFFFF0C0A000000110D046C756D700CFF
310
FFFFFF04FFFFFFFF0CFFFFFFFF0CFFFFFFFF0C090000000C00000000110E03456E640E026F660E0341534D0D0464617461
  0
ENDSEC
  0
EOF
