M48
;Layer_Color=9474304
;FILE_FORMAT=4:4
METRIC
;TYPE=PLATED
T1F00S00C0.3000
T2F00S00C3.2000
%
T01
X00680000Y00010000
X00760000
X00808736Y00034943
X00802500Y00051000
X00809444Y00066763
X00825500Y00073000
X00841264Y00066056
X00847500Y00050000
X00840556Y00034236
X00824500Y00028000
X00890000Y00050000
Y00130000
X00840556Y00131236
X00824500Y00125000
X00808736Y00131944
X00802500Y00148000
X00809444Y00163763
X00825500Y00170000
X00841264Y00163056
X00847500Y00147000
X00890000Y00210000
X00600000Y00010000
X00520000
X00440000
X00360000
X00280000
X00200000
X00120000
X00090556Y00034236
X00074500Y00028000
X00058737Y00034943
X00052500Y00051000
X00059444Y00066763
X00075500Y00073000
X00091264Y00066056
X00097500Y00050000
X00090556Y00131236
X00074500Y00125000
X00058737Y00131944
X00052500Y00148000
X00059444Y00163763
X00075500Y00170000
X00091264Y00163056
X00097500Y00147000
X00010000Y00180000
Y00100000
Y00260000
Y00340000
Y00420000
Y00500000
Y00580000
Y00650000
X00160900Y00616500
X00211700Y00612500
Y00562500
X00338700Y00616500
X00414900Y00612500
Y00562500
X00411900Y00436700
X00437300
X00462700
X00513500
X00500000Y00460000
X00540300Y00447200
X00550800Y00436700
X00565000Y00492500
X00564300Y00313300
X00513500
X00488100
X00462700Y00313300
X00437300Y00313300
X00411900
X00335700
X00335700Y00436700
X00320700Y00458800
X00310200Y00448300
X00695600Y00465600
X00715800Y00440200
Y00414800
X00890000Y00450000
Y00530000
Y00610000
X00847500Y00602000
X00841264Y00618056
X00825500Y00625000
X00809444Y00618764
X00802500Y00603000
X00808736Y00586944
X00824500Y00580000
X00840556Y00586236
X00890000Y00370000
Y00290000
Y00700000
X00847500Y00699000
X00841264Y00715056
X00825500Y00722000
X00809444Y00715764
X00802500Y00700000
X00808736Y00683944
X00824500Y00677000
X00840556Y00683236
X00760000Y00740000
X00680000
X00600000
X00520000
X00440000
X00360000
X00280000
X00262500Y00666500
X00338700Y00666500
X00160900
X00091264Y00683944
X00097500Y00700000
X00090556Y00715764
X00074500Y00722000
X00058737Y00715056
X00052500Y00699000
X00059444Y00683236
X00075500Y00677000
X00120000Y00740000
X00200000
T02
X00825000Y00050500
Y00147500
X00075000
Y00050500
X00825000Y00602500
Y00699500
X00075000
M30
