G04*
G04 #@! TF.GenerationSoftware,Altium Limited,Altium Designer,21.1.1 (26)*
G04*
G04 Layer_Physical_Order=2*
G04 Layer_Color=16711680*
%FSAX44Y44*%
%MOMM*%
G71*
G04*
G04 #@! TF.SameCoordinates,61528D9D-F366-43B7-8DC3-677D280EAED6*
G04*
G04*
G04 #@! TF.FilePolarity,Positive*
G04*
G01*
G75*
%ADD10C,0.5000*%
%ADD13C,0.2000*%
%ADD14C,0.1000*%
%ADD22C,1.0000*%
%ADD27C,6.0000*%
%ADD28C,0.6500*%
G04:AMPARAMS|DCode=29|XSize=1mm|YSize=4.2mm|CornerRadius=0.375mm|HoleSize=0mm|Usage=FLASHONLY|Rotation=270.000|XOffset=0mm|YOffset=0mm|HoleType=Round|Shape=RoundedRectangle|*
%AMROUNDEDRECTD29*
21,1,1.0000,3.4500,0,0,270.0*
21,1,0.2500,4.2000,0,0,270.0*
1,1,0.7500,-1.7250,-0.1250*
1,1,0.7500,-1.7250,0.1250*
1,1,0.7500,1.7250,0.1250*
1,1,0.7500,1.7250,-0.1250*
%
%ADD29ROUNDEDRECTD29*%
G04:AMPARAMS|DCode=30|XSize=1mm|YSize=4.2mm|CornerRadius=0.375mm|HoleSize=0mm|Usage=FLASHONLY|Rotation=0.000|XOffset=0mm|YOffset=0mm|HoleType=Round|Shape=RoundedRectangle|*
%AMROUNDEDRECTD30*
21,1,1.0000,3.4500,0,0,0.0*
21,1,0.2500,4.2000,0,0,0.0*
1,1,0.7500,0.1250,-1.7250*
1,1,0.7500,-0.1250,-1.7250*
1,1,0.7500,-0.1250,1.7250*
1,1,0.7500,0.1250,1.7250*
%
%ADD30ROUNDEDRECTD30*%
G36*
X00859277Y00746639D02*
X00865285Y00745029D01*
X00871032Y00742649D01*
X00876419Y00739539D01*
X00881354Y00735752D01*
X00885752Y00731354D01*
X00889539Y00726419D01*
X00892649Y00721032D01*
X00895029Y00715285D01*
X00896639Y00709277D01*
X00897451Y00703110D01*
X00897451Y00700000D01*
X00897451Y00050000D01*
Y00046890D01*
X00896639Y00040723D01*
X00895029Y00034715D01*
X00892649Y00028968D01*
X00889539Y00023581D01*
X00885752Y00018646D01*
X00881354Y00014248D01*
X00876419Y00010461D01*
X00871032Y00007351D01*
X00865285Y00004971D01*
X00859277Y00003361D01*
X00853110Y00002549D01*
X00046890D01*
X00040723Y00003361D01*
X00034715Y00004971D01*
X00028968Y00007351D01*
X00023581Y00010461D01*
X00018646Y00014248D01*
X00014248Y00018646D01*
X00010461Y00023581D01*
X00007351Y00028968D01*
X00004971Y00034715D01*
X00003361Y00040723D01*
X00002549Y00046890D01*
Y00050000D01*
Y00700000D01*
Y00703110D01*
X00003361Y00709277D01*
X00004971Y00715285D01*
X00007351Y00721032D01*
X00010461Y00726419D01*
X00014248Y00731354D01*
X00018646Y00735752D01*
X00023581Y00739539D01*
X00028968Y00742649D01*
X00034715Y00745029D01*
X00040723Y00746639D01*
X00046890Y00747451D01*
X00853110D01*
X00859277Y00746639D01*
D02*
G37*
%LPC*%
G36*
X00825000Y00736830D02*
X00820127Y00736511D01*
X00815338Y00735558D01*
X00810714Y00733988D01*
X00806335Y00731829D01*
X00802275Y00729116D01*
X00798604Y00725896D01*
X00795384Y00722225D01*
X00792671Y00718165D01*
X00790512Y00713786D01*
X00788942Y00709162D01*
X00787989Y00704373D01*
X00787670Y00699500D01*
X00787989Y00694628D01*
X00788942Y00689838D01*
X00790512Y00685214D01*
X00792671Y00680835D01*
X00795384Y00676775D01*
X00798604Y00673104D01*
X00802275Y00669884D01*
X00806335Y00667171D01*
X00810714Y00665012D01*
X00815338Y00663442D01*
X00820127Y00662489D01*
X00825000Y00662170D01*
X00829873Y00662489D01*
X00834662Y00663442D01*
X00839286Y00665012D01*
X00843665Y00667171D01*
X00847725Y00669884D01*
X00851396Y00673104D01*
X00854616Y00676775D01*
X00857329Y00680835D01*
X00859488Y00685214D01*
X00861058Y00689838D01*
X00862010Y00694628D01*
X00862330Y00699500D01*
X00862010Y00704373D01*
X00861058Y00709162D01*
X00859488Y00713786D01*
X00857329Y00718165D01*
X00854616Y00722225D01*
X00851396Y00725896D01*
X00847725Y00729116D01*
X00843665Y00731829D01*
X00839286Y00733988D01*
X00834662Y00735558D01*
X00829873Y00736511D01*
X00825000Y00736830D01*
D02*
G37*
G36*
X00075000D02*
X00070128Y00736511D01*
X00065338Y00735558D01*
X00060715Y00733988D01*
X00056335Y00731829D01*
X00052275Y00729116D01*
X00048604Y00725896D01*
X00045384Y00722225D01*
X00042671Y00718165D01*
X00040512Y00713786D01*
X00038942Y00709162D01*
X00037989Y00704373D01*
X00037670Y00699500D01*
X00037989Y00694628D01*
X00038942Y00689838D01*
X00040512Y00685214D01*
X00042671Y00680835D01*
X00045384Y00676775D01*
X00048604Y00673104D01*
X00052275Y00669884D01*
X00056335Y00667171D01*
X00060715Y00665012D01*
X00065338Y00663442D01*
X00070128Y00662489D01*
X00075000Y00662170D01*
X00079873Y00662489D01*
X00084662Y00663442D01*
X00089286Y00665012D01*
X00093665Y00667171D01*
X00097725Y00669884D01*
X00101396Y00673104D01*
X00104616Y00676775D01*
X00107329Y00680835D01*
X00109488Y00685214D01*
X00111058Y00689838D01*
X00112011Y00694628D01*
X00112330Y00699500D01*
X00112011Y00704373D01*
X00111058Y00709162D01*
X00109488Y00713786D01*
X00107329Y00718165D01*
X00104616Y00722225D01*
X00101396Y00725896D01*
X00097725Y00729116D01*
X00093665Y00731829D01*
X00089286Y00733988D01*
X00084662Y00735558D01*
X00079873Y00736511D01*
X00075000Y00736830D01*
D02*
G37*
G36*
X00875755Y00692523D02*
X00872325Y00691887D01*
X00869084Y00690595D01*
X00866158Y00688695D01*
X00863659Y00686261D01*
X00861682Y00683385D01*
X00860305Y00680180D01*
X00859579Y00676768D01*
X00859556Y00675023D01*
X00859556Y00675023D01*
X00859577Y00673277D01*
X00860299Y00669859D01*
X00861674Y00666647D01*
X00863649Y00663766D01*
X00866148Y00661325D01*
X00869076Y00659419D01*
X00872319Y00658120D01*
X00875753Y00657479D01*
X00877500Y00657500D01*
X00879180Y00657500D01*
X00882476Y00658156D01*
X00885581Y00659441D01*
X00888375Y00661308D01*
X00890751Y00663685D01*
X00892618Y00666479D01*
X00893904Y00669584D01*
X00894559Y00672879D01*
X00894559Y00674560D01*
X00894603Y00676283D01*
X00894016Y00679681D01*
X00892777Y00682899D01*
X00890934Y00685814D01*
X00888557Y00688313D01*
X00885739Y00690300D01*
X00882588Y00691699D01*
X00879223Y00692457D01*
X00877500Y00692500D01*
X00875755Y00692523D01*
D02*
G37*
G36*
X00024723Y00692500D02*
X00023000Y00692500D01*
X00023000Y00692500D01*
X00021276D01*
X00017895Y00691827D01*
X00014711Y00690508D01*
X00011844Y00688593D01*
X00009407Y00686155D01*
X00007492Y00683289D01*
X00006173Y00680105D01*
X00005500Y00676723D01*
Y00673276D01*
X00006173Y00669895D01*
X00007492Y00666711D01*
X00009407Y00663844D01*
X00011844Y00661407D01*
X00014711Y00659492D01*
X00017895Y00658173D01*
X00021276Y00657500D01*
X00023000Y00657500D01*
X00024723Y00657500D01*
X00028104Y00658172D01*
X00031289Y00659492D01*
X00034155Y00661407D01*
X00036593Y00663844D01*
X00038508Y00666711D01*
X00039827Y00669895D01*
X00040449Y00673021D01*
X00040500Y00673276D01*
X00040500Y00675000D01*
X00040500Y00675000D01*
X00040500Y00676723D01*
X00039827Y00680105D01*
X00038508Y00683289D01*
X00036593Y00686155D01*
X00034155Y00688593D01*
X00031289Y00690508D01*
X00028105Y00691827D01*
X00024723Y00692500D01*
D02*
G37*
G36*
X00825000Y00639830D02*
X00820127Y00639511D01*
X00815338Y00638558D01*
X00810714Y00636988D01*
X00806335Y00634829D01*
X00802275Y00632116D01*
X00798604Y00628896D01*
X00795384Y00625225D01*
X00792671Y00621165D01*
X00790512Y00616786D01*
X00788942Y00612162D01*
X00787989Y00607373D01*
X00787670Y00602500D01*
X00787989Y00597627D01*
X00788942Y00592838D01*
X00790512Y00588214D01*
X00792671Y00583835D01*
X00795384Y00579775D01*
X00798604Y00576104D01*
X00802275Y00572884D01*
X00806335Y00570171D01*
X00810714Y00568012D01*
X00815338Y00566442D01*
X00820127Y00565489D01*
X00825000Y00565170D01*
X00829873Y00565489D01*
X00834662Y00566442D01*
X00839286Y00568012D01*
X00843665Y00570171D01*
X00847725Y00572884D01*
X00851396Y00576104D01*
X00854616Y00579775D01*
X00857329Y00583835D01*
X00859488Y00588214D01*
X00861058Y00592838D01*
X00862010Y00597627D01*
X00862330Y00602500D01*
X00862010Y00607373D01*
X00861058Y00612162D01*
X00859488Y00616786D01*
X00857329Y00621165D01*
X00854616Y00625225D01*
X00851396Y00628896D01*
X00847725Y00632116D01*
X00843665Y00634829D01*
X00839286Y00636988D01*
X00834662Y00638558D01*
X00829873Y00639511D01*
X00825000Y00639830D01*
D02*
G37*
G36*
X00830000Y00520559D02*
X00830000Y00520559D01*
X00657500D01*
X00657500Y00520559D01*
X00656329Y00520326D01*
X00655337Y00519663D01*
X00655337Y00519663D01*
X00577837Y00442163D01*
X00577174Y00441171D01*
X00576941Y00440000D01*
X00576941Y00440000D01*
Y00383767D01*
X00571233Y00378059D01*
X00543767D01*
X00541959Y00379867D01*
Y00382276D01*
X00543050Y00382727D01*
X00544251Y00383649D01*
X00545173Y00384850D01*
X00545752Y00386249D01*
X00545950Y00387750D01*
Y00422250D01*
X00545752Y00423751D01*
X00545173Y00425150D01*
X00544251Y00426351D01*
X00543050Y00427273D01*
X00541651Y00427852D01*
X00540150Y00428050D01*
X00537650D01*
X00536149Y00427852D01*
X00534750Y00427273D01*
X00533549Y00426351D01*
X00532627Y00425150D01*
X00532048Y00423751D01*
X00531850Y00422250D01*
Y00387750D01*
X00532048Y00386249D01*
X00532627Y00384850D01*
X00533549Y00383649D01*
X00534750Y00382727D01*
X00535841Y00382276D01*
Y00378600D01*
X00535841Y00378600D01*
X00536074Y00377430D01*
X00536737Y00376437D01*
X00540337Y00372837D01*
X00540337Y00372837D01*
X00541329Y00372174D01*
X00542500Y00371941D01*
X00542500Y00371941D01*
X00572500D01*
X00572500Y00371941D01*
X00573671Y00372174D01*
X00574663Y00372837D01*
X00582163Y00380337D01*
X00582163Y00380337D01*
X00582826Y00381329D01*
X00583059Y00382500D01*
Y00438733D01*
X00658767Y00514441D01*
X00828733D01*
X00839441Y00503733D01*
Y00498767D01*
X00834733Y00494059D01*
X00830225D01*
X00829772Y00495150D01*
X00828851Y00496351D01*
X00827650Y00497273D01*
X00826251Y00497852D01*
X00824750Y00498050D01*
X00790250D01*
X00788749Y00497852D01*
X00787350Y00497273D01*
X00786149Y00496351D01*
X00785227Y00495150D01*
X00784648Y00493751D01*
X00784450Y00492250D01*
Y00489750D01*
X00784648Y00488249D01*
X00785227Y00486850D01*
X00786149Y00485649D01*
X00787350Y00484727D01*
X00788749Y00484148D01*
X00790250Y00483950D01*
X00824750D01*
X00826251Y00484148D01*
X00827650Y00484727D01*
X00828851Y00485649D01*
X00829772Y00486850D01*
X00830225Y00487941D01*
X00836000D01*
X00836000Y00487941D01*
X00837170Y00488174D01*
X00838163Y00488837D01*
X00844663Y00495337D01*
X00844663Y00495337D01*
X00845326Y00496329D01*
X00845559Y00497500D01*
Y00505000D01*
X00845326Y00506171D01*
X00844663Y00507163D01*
X00844663Y00507163D01*
X00832163Y00519663D01*
X00831171Y00520326D01*
X00830000Y00520559D01*
D02*
G37*
G36*
X00764750Y00498050D02*
X00730250D01*
X00728749Y00497852D01*
X00727350Y00497273D01*
X00726149Y00496351D01*
X00725227Y00495150D01*
X00724775Y00494059D01*
X00698500D01*
X00698500Y00494059D01*
X00697329Y00493826D01*
X00696337Y00493163D01*
X00696337Y00493163D01*
X00672837Y00469663D01*
X00672174Y00468671D01*
X00671941Y00467500D01*
X00671941Y00467500D01*
Y00328767D01*
X00636233Y00293059D01*
X00553359D01*
X00541959Y00304459D01*
Y00322276D01*
X00543050Y00322727D01*
X00544251Y00323649D01*
X00545173Y00324850D01*
X00545752Y00326249D01*
X00545950Y00327750D01*
Y00362250D01*
X00545752Y00363751D01*
X00545173Y00365150D01*
X00544251Y00366351D01*
X00543050Y00367273D01*
X00541651Y00367852D01*
X00540150Y00368050D01*
X00537650D01*
X00536149Y00367852D01*
X00534750Y00367273D01*
X00533549Y00366351D01*
X00532627Y00365150D01*
X00532048Y00363751D01*
X00531850Y00362250D01*
Y00327750D01*
X00532048Y00326249D01*
X00532627Y00324850D01*
X00533549Y00323649D01*
X00534750Y00322727D01*
X00535841Y00322276D01*
Y00303192D01*
X00535841Y00303192D01*
X00536074Y00302021D01*
X00536737Y00301029D01*
X00549929Y00287837D01*
X00549929Y00287837D01*
X00550921Y00287174D01*
X00552092Y00286941D01*
X00637500D01*
X00637500Y00286941D01*
X00638671Y00287174D01*
X00639663Y00287837D01*
X00677163Y00325337D01*
X00677163Y00325337D01*
X00677826Y00326329D01*
X00678059Y00327500D01*
Y00466233D01*
X00699767Y00487941D01*
X00724775D01*
X00725227Y00486850D01*
X00726149Y00485649D01*
X00727350Y00484727D01*
X00728749Y00484148D01*
X00730250Y00483950D01*
X00764750D01*
X00766251Y00484148D01*
X00767650Y00484727D01*
X00768851Y00485649D01*
X00769773Y00486850D01*
X00770352Y00488249D01*
X00770550Y00489750D01*
Y00492250D01*
X00770352Y00493751D01*
X00769773Y00495150D01*
X00768851Y00496351D01*
X00767650Y00497273D01*
X00766251Y00497852D01*
X00764750Y00498050D01*
D02*
G37*
G36*
X00565000Y00497795D02*
X00563629Y00497615D01*
X00562358Y00497088D01*
X00372500D01*
X00370744Y00496739D01*
X00369256Y00495744D01*
X00332456Y00458944D01*
X00331461Y00457456D01*
X00331112Y00455700D01*
Y00439342D01*
X00330585Y00438070D01*
X00330405Y00436700D01*
X00330585Y00435330D01*
X00331112Y00434058D01*
Y00426936D01*
X00330349Y00426351D01*
X00329427Y00425150D01*
X00328848Y00423751D01*
X00328650Y00422250D01*
Y00387750D01*
X00328848Y00386249D01*
X00329427Y00384850D01*
X00330349Y00383649D01*
X00331550Y00382727D01*
X00332949Y00382148D01*
X00334450Y00381950D01*
X00336950D01*
X00338451Y00382148D01*
X00339850Y00382727D01*
X00341051Y00383649D01*
X00341973Y00384850D01*
X00342552Y00386249D01*
X00342750Y00387750D01*
Y00422250D01*
X00342552Y00423751D01*
X00341973Y00425150D01*
X00341051Y00426351D01*
X00340288Y00426936D01*
Y00434058D01*
X00340815Y00435330D01*
X00340995Y00436700D01*
X00340815Y00438070D01*
X00340288Y00439342D01*
Y00453800D01*
X00374400Y00487912D01*
X00562358D01*
X00563629Y00487385D01*
X00565000Y00487205D01*
X00566371Y00487385D01*
X00567648Y00487914D01*
X00568744Y00488756D01*
X00569586Y00489852D01*
X00570115Y00491129D01*
X00570295Y00492500D01*
X00570115Y00493871D01*
X00569586Y00495148D01*
X00568744Y00496244D01*
X00567648Y00497086D01*
X00566371Y00497615D01*
X00565000Y00497795D01*
D02*
G37*
G36*
X00764750Y00472650D02*
X00730250D01*
X00728749Y00472452D01*
X00727350Y00471873D01*
X00726149Y00470951D01*
X00725564Y00470188D01*
X00698242D01*
X00696971Y00470715D01*
X00695600Y00470895D01*
X00694230Y00470715D01*
X00692952Y00470186D01*
X00691856Y00469344D01*
X00691014Y00468248D01*
X00690485Y00466970D01*
X00690305Y00465600D01*
X00690485Y00464230D01*
X00691014Y00462952D01*
X00691856Y00461856D01*
X00692952Y00461014D01*
X00694230Y00460485D01*
X00695600Y00460305D01*
X00696971Y00460485D01*
X00698242Y00461012D01*
X00725564D01*
X00726149Y00460249D01*
X00727350Y00459327D01*
X00728749Y00458748D01*
X00730250Y00458550D01*
X00764750D01*
X00766251Y00458748D01*
X00767650Y00459327D01*
X00768851Y00460249D01*
X00769773Y00461450D01*
X00770352Y00462849D01*
X00770550Y00464350D01*
Y00466850D01*
X00770352Y00468351D01*
X00769773Y00469750D01*
X00768851Y00470951D01*
X00767650Y00471873D01*
X00766251Y00472452D01*
X00764750Y00472650D01*
D02*
G37*
G36*
X00835000Y00530559D02*
X00835000Y00530559D01*
X00650000D01*
X00648829Y00530326D01*
X00647837Y00529663D01*
X00647837Y00529663D01*
X00562137Y00443963D01*
X00561474Y00442971D01*
X00561241Y00441800D01*
X00561241Y00441800D01*
Y00427724D01*
X00560150Y00427273D01*
X00558949Y00426351D01*
X00558027Y00425150D01*
X00557448Y00423751D01*
X00557250Y00422250D01*
Y00387750D01*
X00557448Y00386249D01*
X00558027Y00384850D01*
X00558949Y00383649D01*
X00560150Y00382727D01*
X00561549Y00382148D01*
X00563050Y00381950D01*
X00565550D01*
X00567051Y00382148D01*
X00568450Y00382727D01*
X00569651Y00383649D01*
X00570573Y00384850D01*
X00571152Y00386249D01*
X00571350Y00387750D01*
Y00422250D01*
X00571152Y00423751D01*
X00570573Y00425150D01*
X00569651Y00426351D01*
X00568450Y00427273D01*
X00567359Y00427724D01*
Y00440533D01*
X00651267Y00524441D01*
X00833733D01*
X00856941Y00501233D01*
Y00481267D01*
X00844333Y00468659D01*
X00830225D01*
X00829772Y00469750D01*
X00828851Y00470951D01*
X00827650Y00471873D01*
X00826251Y00472452D01*
X00824750Y00472650D01*
X00790250D01*
X00788749Y00472452D01*
X00787350Y00471873D01*
X00786149Y00470951D01*
X00785227Y00469750D01*
X00784648Y00468351D01*
X00784450Y00466850D01*
Y00464350D01*
X00784648Y00462849D01*
X00785227Y00461450D01*
X00786149Y00460249D01*
X00787350Y00459327D01*
X00788749Y00458748D01*
X00790250Y00458550D01*
X00824750D01*
X00826251Y00458748D01*
X00827650Y00459327D01*
X00828851Y00460249D01*
X00829772Y00461450D01*
X00830225Y00462541D01*
X00845600D01*
X00845600Y00462541D01*
X00846770Y00462774D01*
X00847763Y00463437D01*
X00862163Y00477837D01*
X00862826Y00478829D01*
X00863059Y00480000D01*
Y00502500D01*
X00863059Y00502500D01*
X00862826Y00503671D01*
X00862163Y00504663D01*
X00862163Y00504663D01*
X00837163Y00529663D01*
X00836171Y00530326D01*
X00835000Y00530559D01*
D02*
G37*
G36*
X00764750Y00447250D02*
X00748750D01*
Y00441450D01*
X00770550D01*
X00770352Y00442951D01*
X00769773Y00444350D01*
X00768851Y00445551D01*
X00767650Y00446473D01*
X00766251Y00447052D01*
X00764750Y00447250D01*
D02*
G37*
G36*
X00746250D02*
X00730250D01*
X00728749Y00447052D01*
X00727350Y00446473D01*
X00726149Y00445551D01*
X00725227Y00444350D01*
X00724648Y00442951D01*
X00724450Y00441450D01*
X00746250D01*
Y00447250D01*
D02*
G37*
G36*
X00824750Y00447250D02*
X00790250D01*
X00788749Y00447052D01*
X00787350Y00446473D01*
X00786149Y00445551D01*
X00785227Y00444350D01*
X00784775Y00443259D01*
X00782700D01*
X00781529Y00443026D01*
X00780537Y00442363D01*
X00780537Y00442363D01*
X00774403Y00436229D01*
X00773740Y00435237D01*
X00773507Y00434066D01*
X00773507Y00434066D01*
Y00387833D01*
X00646233Y00260559D01*
X00381267D01*
X00370559Y00271267D01*
Y00316233D01*
X00374663Y00320337D01*
X00375326Y00321329D01*
X00375559Y00322500D01*
X00375559Y00322500D01*
Y00367500D01*
X00375559Y00367500D01*
X00375326Y00368671D01*
X00374663Y00369663D01*
X00374663Y00369663D01*
X00364159Y00380167D01*
Y00382276D01*
X00365250Y00382727D01*
X00366451Y00383649D01*
X00367373Y00384850D01*
X00367952Y00386249D01*
X00368150Y00387750D01*
Y00422250D01*
X00367952Y00423751D01*
X00367373Y00425150D01*
X00366451Y00426351D01*
X00365250Y00427273D01*
X00363851Y00427852D01*
X00362350Y00428050D01*
X00359850D01*
X00358349Y00427852D01*
X00356950Y00427273D01*
X00355749Y00426351D01*
X00354827Y00425150D01*
X00354248Y00423751D01*
X00354050Y00422250D01*
Y00387750D01*
X00354248Y00386249D01*
X00354827Y00384850D01*
X00355749Y00383649D01*
X00356950Y00382727D01*
X00358041Y00382276D01*
Y00378900D01*
X00358041Y00378900D01*
X00358274Y00377729D01*
X00358937Y00376737D01*
X00368450Y00367224D01*
X00368408Y00367085D01*
X00367392Y00366704D01*
X00366163Y00366572D01*
X00365250Y00367273D01*
X00363851Y00367852D01*
X00362350Y00368050D01*
X00359850D01*
X00358349Y00367852D01*
X00356950Y00367273D01*
X00355749Y00366351D01*
X00354827Y00365150D01*
X00354248Y00363751D01*
X00354050Y00362250D01*
Y00327750D01*
X00354248Y00326249D01*
X00354827Y00324850D01*
X00355749Y00323649D01*
X00356950Y00322727D01*
X00358041Y00322276D01*
Y00266400D01*
X00358041Y00266400D01*
X00358274Y00265229D01*
X00358937Y00264237D01*
X00374908Y00248266D01*
X00374908Y00248266D01*
X00375901Y00247603D01*
X00377071Y00247370D01*
X00650429D01*
X00650429Y00247370D01*
X00651600Y00247603D01*
X00652592Y00248266D01*
X00784613Y00380288D01*
X00784613Y00380288D01*
X00785276Y00381280D01*
X00785509Y00382450D01*
X00785509Y00382450D01*
Y00407419D01*
X00786860Y00408232D01*
X00787509Y00408461D01*
X00788749Y00407948D01*
X00790250Y00407750D01*
X00824750D01*
X00826251Y00407948D01*
X00827650Y00408527D01*
X00828851Y00409449D01*
X00829772Y00410650D01*
X00830352Y00412049D01*
X00830549Y00413550D01*
Y00416050D01*
X00830352Y00417551D01*
X00829772Y00418950D01*
X00828851Y00420151D01*
X00827650Y00421073D01*
X00826251Y00421652D01*
X00824750Y00421850D01*
X00790250D01*
X00788749Y00421652D01*
X00787350Y00421073D01*
X00786149Y00420151D01*
X00785227Y00418950D01*
X00784722Y00417730D01*
X00784671D01*
X00783501Y00417497D01*
X00782509Y00416834D01*
X00782509Y00416834D01*
X00781625Y00415951D01*
X00779625Y00416779D01*
Y00432799D01*
X00783008Y00436182D01*
X00784678Y00436083D01*
X00785414Y00435807D01*
X00786149Y00434849D01*
X00787350Y00433927D01*
X00788749Y00433348D01*
X00790250Y00433150D01*
X00824750D01*
X00826251Y00433348D01*
X00827650Y00433927D01*
X00828851Y00434849D01*
X00829772Y00436050D01*
X00830352Y00437449D01*
X00830549Y00438950D01*
Y00441450D01*
X00830352Y00442951D01*
X00829772Y00444350D01*
X00828851Y00445551D01*
X00827650Y00446473D01*
X00826251Y00447052D01*
X00824750Y00447250D01*
D02*
G37*
G36*
X00770550Y00438950D02*
X00748750D01*
Y00433150D01*
X00764750D01*
X00766251Y00433348D01*
X00767650Y00433927D01*
X00768851Y00434849D01*
X00769773Y00436050D01*
X00770352Y00437449D01*
X00770550Y00438950D01*
Y00438950D01*
D02*
G37*
G36*
X00746250D02*
X00724450D01*
Y00438950D01*
X00724648Y00437449D01*
X00725227Y00436050D01*
X00726149Y00434849D01*
X00727350Y00433927D01*
X00728749Y00433348D01*
X00730250Y00433150D01*
X00746250D01*
Y00438950D01*
D02*
G37*
G36*
X00764750Y00421850D02*
X00748750D01*
Y00416050D01*
X00770550D01*
X00770352Y00417551D01*
X00769773Y00418950D01*
X00768851Y00420151D01*
X00767650Y00421073D01*
X00766251Y00421652D01*
X00764750Y00421850D01*
D02*
G37*
G36*
X00746250D02*
X00730250D01*
X00728749Y00421652D01*
X00727350Y00421073D01*
X00726149Y00420151D01*
X00725227Y00418950D01*
X00724648Y00417551D01*
X00724450Y00416050D01*
X00746250D01*
Y00421850D01*
D02*
G37*
G36*
X00770550Y00413550D02*
X00748750D01*
Y00407750D01*
X00764750D01*
X00766251Y00407948D01*
X00767650Y00408527D01*
X00768851Y00409449D01*
X00769773Y00410650D01*
X00770352Y00412049D01*
X00770550Y00413550D01*
Y00413550D01*
D02*
G37*
G36*
X00746250D02*
X00724450D01*
Y00413550D01*
X00724648Y00412049D01*
X00725227Y00410650D01*
X00726149Y00409449D01*
X00727350Y00408527D01*
X00728749Y00407948D01*
X00730250Y00407750D01*
X00746250D01*
Y00413550D01*
D02*
G37*
G36*
X00513500Y00441995D02*
X00512130Y00441815D01*
X00510852Y00441286D01*
X00509756Y00440444D01*
X00508914Y00439348D01*
X00508385Y00438070D01*
X00508205Y00436700D01*
X00508385Y00435330D01*
X00508912Y00434058D01*
Y00426936D01*
X00508149Y00426351D01*
X00507227Y00425150D01*
X00506648Y00423751D01*
X00506450Y00422250D01*
Y00387750D01*
X00506648Y00386249D01*
X00507227Y00384850D01*
X00508149Y00383649D01*
X00509350Y00382727D01*
X00510749Y00382148D01*
X00512250Y00381950D01*
X00514750D01*
X00516251Y00382148D01*
X00517650Y00382727D01*
X00518851Y00383649D01*
X00519773Y00384850D01*
X00520352Y00386249D01*
X00520550Y00387750D01*
Y00422250D01*
X00520352Y00423751D01*
X00519773Y00425150D01*
X00518851Y00426351D01*
X00518088Y00426936D01*
Y00434058D01*
X00518615Y00435330D01*
X00518795Y00436700D01*
X00518615Y00438070D01*
X00518086Y00439348D01*
X00517244Y00440444D01*
X00516148Y00441286D01*
X00514870Y00441815D01*
X00513500Y00441995D01*
D02*
G37*
G36*
X00462700D02*
X00461329Y00441815D01*
X00460052Y00441286D01*
X00458956Y00440444D01*
X00458114Y00439348D01*
X00457585Y00438070D01*
X00457405Y00436700D01*
X00457585Y00435330D01*
X00458114Y00434052D01*
X00458659Y00433343D01*
X00459641Y00431245D01*
Y00427724D01*
X00458550Y00427273D01*
X00457349Y00426351D01*
X00456427Y00425150D01*
X00455848Y00423751D01*
X00455650Y00422250D01*
Y00387750D01*
X00455848Y00386249D01*
X00456427Y00384850D01*
X00457349Y00383649D01*
X00458550Y00382727D01*
X00459949Y00382148D01*
X00461450Y00381950D01*
X00463950D01*
X00465451Y00382148D01*
X00466850Y00382727D01*
X00468051Y00383649D01*
X00468973Y00384850D01*
X00469552Y00386249D01*
X00469750Y00387750D01*
Y00422250D01*
X00469552Y00423751D01*
X00468973Y00425150D01*
X00468051Y00426351D01*
X00466850Y00427273D01*
X00465759Y00427724D01*
Y00431245D01*
X00466741Y00433343D01*
X00467286Y00434052D01*
X00467815Y00435330D01*
X00467995Y00436700D01*
X00467815Y00438070D01*
X00467286Y00439348D01*
X00466444Y00440444D01*
X00465348Y00441286D01*
X00464071Y00441815D01*
X00462700Y00441995D01*
D02*
G37*
G36*
X00437300D02*
X00435929Y00441815D01*
X00434652Y00441286D01*
X00433556Y00440444D01*
X00432714Y00439348D01*
X00432185Y00438070D01*
X00432005Y00436700D01*
X00432185Y00435330D01*
X00432714Y00434052D01*
X00433259Y00433343D01*
X00434241Y00431245D01*
Y00427724D01*
X00433150Y00427273D01*
X00431949Y00426351D01*
X00431027Y00425150D01*
X00430448Y00423751D01*
X00430250Y00422250D01*
Y00387750D01*
X00430448Y00386249D01*
X00431027Y00384850D01*
X00431949Y00383649D01*
X00433150Y00382727D01*
X00434549Y00382148D01*
X00436050Y00381950D01*
X00438550D01*
X00440051Y00382148D01*
X00441450Y00382727D01*
X00442651Y00383649D01*
X00443573Y00384850D01*
X00444152Y00386249D01*
X00444350Y00387750D01*
Y00422250D01*
X00444152Y00423751D01*
X00443573Y00425150D01*
X00442651Y00426351D01*
X00441450Y00427273D01*
X00440359Y00427724D01*
Y00431245D01*
X00441341Y00433343D01*
X00441886Y00434052D01*
X00442415Y00435330D01*
X00442595Y00436700D01*
X00442415Y00438070D01*
X00441886Y00439348D01*
X00441044Y00440444D01*
X00439948Y00441286D01*
X00438671Y00441815D01*
X00437300Y00441995D01*
D02*
G37*
G36*
X00411900D02*
X00410530Y00441815D01*
X00409252Y00441286D01*
X00408156Y00440444D01*
X00407314Y00439348D01*
X00406785Y00438070D01*
X00406605Y00436700D01*
X00406785Y00435330D01*
X00407314Y00434052D01*
X00407859Y00433343D01*
X00408841Y00431245D01*
Y00427724D01*
X00407750Y00427273D01*
X00406549Y00426351D01*
X00405627Y00425150D01*
X00405048Y00423751D01*
X00404850Y00422250D01*
Y00387750D01*
X00405048Y00386249D01*
X00405627Y00384850D01*
X00406549Y00383649D01*
X00407750Y00382727D01*
X00409149Y00382148D01*
X00410650Y00381950D01*
X00413150D01*
X00414651Y00382148D01*
X00416050Y00382727D01*
X00417251Y00383649D01*
X00418173Y00384850D01*
X00418752Y00386249D01*
X00418950Y00387750D01*
Y00422250D01*
X00418752Y00423751D01*
X00418173Y00425150D01*
X00417251Y00426351D01*
X00416050Y00427273D01*
X00414959Y00427724D01*
Y00431245D01*
X00415941Y00433343D01*
X00416486Y00434052D01*
X00417015Y00435330D01*
X00417195Y00436700D01*
X00417015Y00438070D01*
X00416486Y00439348D01*
X00415644Y00440444D01*
X00414548Y00441286D01*
X00413270Y00441815D01*
X00411900Y00441995D01*
D02*
G37*
G36*
X00387750Y00428050D02*
X00385250D01*
X00383749Y00427852D01*
X00382350Y00427273D01*
X00381149Y00426351D01*
X00380227Y00425150D01*
X00379648Y00423751D01*
X00379450Y00422250D01*
Y00387750D01*
X00379648Y00386249D01*
X00380227Y00384850D01*
X00381149Y00383649D01*
X00382350Y00382727D01*
X00383749Y00382148D01*
X00385250Y00381950D01*
X00387750D01*
X00389251Y00382148D01*
X00390650Y00382727D01*
X00391851Y00383649D01*
X00392773Y00384850D01*
X00393352Y00386249D01*
X00393550Y00387750D01*
Y00422250D01*
X00393352Y00423751D01*
X00392773Y00425150D01*
X00391851Y00426351D01*
X00390650Y00427273D01*
X00389251Y00427852D01*
X00387750Y00428050D01*
D02*
G37*
G36*
X00500000Y00465295D02*
X00498629Y00465115D01*
X00497352Y00464586D01*
X00496256Y00463744D01*
X00495414Y00462648D01*
X00494885Y00461371D01*
X00494705Y00460000D01*
X00494885Y00458629D01*
X00495414Y00457352D01*
X00495959Y00456643D01*
X00496941Y00454546D01*
Y00448267D01*
X00485937Y00437263D01*
X00485274Y00436270D01*
X00485041Y00435100D01*
X00485041Y00435100D01*
Y00427724D01*
X00483950Y00427272D01*
X00482749Y00426351D01*
X00481827Y00425150D01*
X00481248Y00423751D01*
X00481050Y00422250D01*
Y00387750D01*
X00481248Y00386249D01*
X00481827Y00384850D01*
X00482749Y00383649D01*
X00483950Y00382727D01*
X00485349Y00382148D01*
X00486850Y00381950D01*
X00489350D01*
X00490851Y00382148D01*
X00492250Y00382727D01*
X00493451Y00383649D01*
X00494373Y00384850D01*
X00494952Y00386249D01*
X00495150Y00387750D01*
Y00422250D01*
X00494952Y00423751D01*
X00494373Y00425150D01*
X00493451Y00426351D01*
X00492250Y00427272D01*
X00491159Y00427724D01*
Y00433833D01*
X00502163Y00444837D01*
X00502163Y00444837D01*
X00502826Y00445830D01*
X00503059Y00447000D01*
X00503059Y00447000D01*
Y00454545D01*
X00504041Y00456643D01*
X00504586Y00457352D01*
X00505115Y00458629D01*
X00505295Y00460000D01*
X00505115Y00461371D01*
X00504586Y00462648D01*
X00503744Y00463744D01*
X00502648Y00464586D01*
X00501371Y00465115D01*
X00500000Y00465295D01*
D02*
G37*
G36*
X00565550Y00368050D02*
Y00346250D01*
X00571350D01*
Y00362250D01*
X00571152Y00363751D01*
X00570573Y00365150D01*
X00569651Y00366351D01*
X00568450Y00367273D01*
X00567051Y00367852D01*
X00565550Y00368050D01*
D02*
G37*
G36*
X00563050D02*
X00561549Y00367852D01*
X00560150Y00367273D01*
X00558949Y00366351D01*
X00558027Y00365150D01*
X00557448Y00363751D01*
X00557250Y00362250D01*
Y00346250D01*
X00563050D01*
Y00368050D01*
D02*
G37*
G36*
X00514750D02*
Y00346250D01*
X00520550D01*
Y00362250D01*
X00520352Y00363751D01*
X00519773Y00365150D01*
X00518851Y00366351D01*
X00517650Y00367273D01*
X00516251Y00367852D01*
X00514750Y00368050D01*
D02*
G37*
G36*
X00512250D02*
X00510749Y00367852D01*
X00509350Y00367273D01*
X00508149Y00366351D01*
X00507227Y00365150D01*
X00506648Y00363751D01*
X00506450Y00362250D01*
Y00346250D01*
X00512250D01*
Y00368050D01*
D02*
G37*
G36*
X00336950D02*
Y00346250D01*
X00342750D01*
Y00362250D01*
X00342552Y00363751D01*
X00341973Y00365150D01*
X00341051Y00366351D01*
X00339850Y00367273D01*
X00338451Y00367852D01*
X00336950Y00368050D01*
D02*
G37*
G36*
X00334450D02*
X00332949Y00367852D01*
X00331550Y00367273D01*
X00330349Y00366351D01*
X00329427Y00365150D01*
X00328848Y00363751D01*
X00328650Y00362250D01*
Y00346250D01*
X00334450D01*
Y00368050D01*
D02*
G37*
G36*
X00571350Y00343750D02*
X00565550D01*
Y00321950D01*
X00567051Y00322148D01*
X00568450Y00322727D01*
X00569651Y00323649D01*
X00570573Y00324850D01*
X00571152Y00326249D01*
X00571350Y00327750D01*
Y00343750D01*
D02*
G37*
G36*
X00563050D02*
X00557250D01*
Y00327750D01*
X00557448Y00326249D01*
X00558027Y00324850D01*
X00558949Y00323649D01*
X00560150Y00322727D01*
X00561549Y00322148D01*
X00563050Y00321950D01*
Y00343750D01*
D02*
G37*
G36*
X00520550D02*
X00514750D01*
Y00321950D01*
X00516251Y00322148D01*
X00517650Y00322727D01*
X00518851Y00323649D01*
X00519773Y00324850D01*
X00520352Y00326249D01*
X00520550Y00327750D01*
Y00343750D01*
D02*
G37*
G36*
X00512250D02*
X00506450D01*
Y00327750D01*
X00506648Y00326249D01*
X00507227Y00324850D01*
X00508149Y00323649D01*
X00509350Y00322727D01*
X00510749Y00322148D01*
X00512250Y00321950D01*
Y00343750D01*
D02*
G37*
G36*
X00387750Y00368050D02*
X00385250D01*
X00383749Y00367852D01*
X00382350Y00367273D01*
X00381149Y00366351D01*
X00380227Y00365150D01*
X00379648Y00363751D01*
X00379450Y00362250D01*
Y00327750D01*
X00379648Y00326249D01*
X00380227Y00324850D01*
X00381149Y00323649D01*
X00382350Y00322727D01*
X00383749Y00322148D01*
X00385250Y00321950D01*
X00387750D01*
X00389251Y00322148D01*
X00390650Y00322727D01*
X00391851Y00323649D01*
X00392773Y00324850D01*
X00393352Y00326249D01*
X00393550Y00327750D01*
Y00362250D01*
X00393352Y00363751D01*
X00392773Y00365150D01*
X00391851Y00366351D01*
X00390650Y00367273D01*
X00389251Y00367852D01*
X00387750Y00368050D01*
D02*
G37*
G36*
X00342750Y00343750D02*
X00336950D01*
Y00321950D01*
X00338451Y00322148D01*
X00339850Y00322727D01*
X00341051Y00323649D01*
X00341973Y00324850D01*
X00342552Y00326249D01*
X00342750Y00327750D01*
Y00343750D01*
D02*
G37*
G36*
X00334450D02*
X00328650D01*
Y00327750D01*
X00328848Y00326249D01*
X00329427Y00324850D01*
X00330349Y00323649D01*
X00331550Y00322727D01*
X00332949Y00322148D01*
X00334450Y00321950D01*
Y00343750D01*
D02*
G37*
G36*
X00463950Y00368050D02*
X00461450D01*
X00459949Y00367852D01*
X00458550Y00367273D01*
X00457349Y00366351D01*
X00456427Y00365150D01*
X00455848Y00363751D01*
X00455650Y00362250D01*
Y00327750D01*
X00455848Y00326249D01*
X00456427Y00324850D01*
X00457349Y00323649D01*
X00458550Y00322727D01*
X00459641Y00322276D01*
Y00318755D01*
X00458659Y00316657D01*
X00458114Y00315948D01*
X00457585Y00314671D01*
X00457405Y00313300D01*
X00457585Y00311929D01*
X00458114Y00310652D01*
X00458956Y00309556D01*
X00460052Y00308714D01*
X00461329Y00308185D01*
X00462700Y00308005D01*
X00464071Y00308185D01*
X00465348Y00308714D01*
X00466444Y00309556D01*
X00467286Y00310652D01*
X00467815Y00311929D01*
X00467995Y00313300D01*
X00467815Y00314671D01*
X00467286Y00315948D01*
X00466741Y00316657D01*
X00465759Y00318755D01*
Y00322276D01*
X00466850Y00322727D01*
X00468051Y00323649D01*
X00468973Y00324850D01*
X00469552Y00326249D01*
X00469750Y00327750D01*
Y00362250D01*
X00469552Y00363751D01*
X00468973Y00365150D01*
X00468051Y00366351D01*
X00466850Y00367273D01*
X00465451Y00367852D01*
X00463950Y00368050D01*
D02*
G37*
G36*
X00489350Y00368050D02*
X00486850D01*
X00485349Y00367852D01*
X00483950Y00367273D01*
X00482749Y00366351D01*
X00481827Y00365150D01*
X00481248Y00363751D01*
X00481050Y00362250D01*
Y00327750D01*
X00481248Y00326249D01*
X00481827Y00324850D01*
X00482749Y00323649D01*
X00483950Y00322727D01*
X00485041Y00322276D01*
Y00318755D01*
X00484059Y00316657D01*
X00483514Y00315948D01*
X00482985Y00314671D01*
X00482805Y00313300D01*
X00482985Y00311929D01*
X00483514Y00310652D01*
X00484356Y00309556D01*
X00485452Y00308714D01*
X00486730Y00308185D01*
X00488100Y00308005D01*
X00489470Y00308185D01*
X00490748Y00308714D01*
X00491844Y00309556D01*
X00492686Y00310652D01*
X00493215Y00311929D01*
X00493395Y00313300D01*
X00493215Y00314671D01*
X00492686Y00315948D01*
X00492141Y00316657D01*
X00491159Y00318755D01*
Y00322276D01*
X00492250Y00322727D01*
X00493451Y00323649D01*
X00494373Y00324850D01*
X00494952Y00326249D01*
X00495150Y00327750D01*
Y00362250D01*
X00494952Y00363751D01*
X00494373Y00365150D01*
X00493451Y00366351D01*
X00492250Y00367273D01*
X00490851Y00367852D01*
X00489350Y00368050D01*
D02*
G37*
G36*
X00438550D02*
X00436050D01*
X00434549Y00367852D01*
X00433150Y00367273D01*
X00431949Y00366351D01*
X00431027Y00365150D01*
X00430448Y00363751D01*
X00430250Y00362250D01*
Y00327750D01*
X00430448Y00326249D01*
X00431027Y00324850D01*
X00431949Y00323649D01*
X00433150Y00322727D01*
X00434241Y00322276D01*
Y00318755D01*
X00433259Y00316657D01*
X00432714Y00315948D01*
X00432185Y00314671D01*
X00432005Y00313300D01*
X00432185Y00311929D01*
X00432714Y00310652D01*
X00433556Y00309556D01*
X00434652Y00308714D01*
X00435929Y00308185D01*
X00437300Y00308005D01*
X00438671Y00308185D01*
X00439948Y00308714D01*
X00441044Y00309556D01*
X00441886Y00310652D01*
X00442415Y00311929D01*
X00442595Y00313300D01*
X00442415Y00314671D01*
X00441886Y00315948D01*
X00441341Y00316657D01*
X00440359Y00318755D01*
Y00322276D01*
X00441450Y00322727D01*
X00442651Y00323649D01*
X00443573Y00324850D01*
X00444152Y00326249D01*
X00444350Y00327750D01*
Y00362250D01*
X00444152Y00363751D01*
X00443573Y00365150D01*
X00442651Y00366351D01*
X00441450Y00367273D01*
X00440051Y00367852D01*
X00438550Y00368050D01*
D02*
G37*
G36*
X00413150D02*
X00410650D01*
X00409149Y00367852D01*
X00407750Y00367273D01*
X00406549Y00366351D01*
X00405627Y00365150D01*
X00405048Y00363751D01*
X00404850Y00362250D01*
Y00327750D01*
X00405048Y00326249D01*
X00405627Y00324850D01*
X00406549Y00323649D01*
X00407750Y00322727D01*
X00408841Y00322276D01*
Y00318755D01*
X00407859Y00316657D01*
X00407314Y00315948D01*
X00406785Y00314671D01*
X00406605Y00313300D01*
X00406785Y00311929D01*
X00407314Y00310652D01*
X00408156Y00309556D01*
X00409252Y00308714D01*
X00410530Y00308185D01*
X00411900Y00308005D01*
X00413270Y00308185D01*
X00414548Y00308714D01*
X00415644Y00309556D01*
X00416486Y00310652D01*
X00417015Y00311929D01*
X00417195Y00313300D01*
X00417015Y00314671D01*
X00416486Y00315948D01*
X00415941Y00316657D01*
X00414959Y00318755D01*
Y00322276D01*
X00416050Y00322727D01*
X00417251Y00323649D01*
X00418173Y00324850D01*
X00418752Y00326249D01*
X00418950Y00327750D01*
Y00362250D01*
X00418752Y00363751D01*
X00418173Y00365150D01*
X00417251Y00366351D01*
X00416050Y00367273D01*
X00414651Y00367852D01*
X00413150Y00368050D01*
D02*
G37*
G36*
X00825000Y00184830D02*
X00820127Y00184510D01*
X00815338Y00183558D01*
X00810714Y00181988D01*
X00806335Y00179828D01*
X00802275Y00177116D01*
X00798604Y00173896D01*
X00795384Y00170225D01*
X00792671Y00166165D01*
X00790512Y00161785D01*
X00788942Y00157162D01*
X00787989Y00152372D01*
X00787670Y00147500D01*
X00787989Y00142627D01*
X00788942Y00137838D01*
X00790512Y00133214D01*
X00792671Y00128835D01*
X00795384Y00124775D01*
X00798604Y00121104D01*
X00802275Y00117884D01*
X00806335Y00115171D01*
X00810714Y00113012D01*
X00815338Y00111442D01*
X00820127Y00110489D01*
X00825000Y00110170D01*
X00829873Y00110489D01*
X00834662Y00111442D01*
X00839286Y00113012D01*
X00843665Y00115171D01*
X00847725Y00117884D01*
X00851396Y00121104D01*
X00854616Y00124775D01*
X00857329Y00128835D01*
X00859488Y00133214D01*
X00861058Y00137838D01*
X00862010Y00142627D01*
X00862330Y00147500D01*
X00862010Y00152372D01*
X00861058Y00157162D01*
X00859488Y00161785D01*
X00857329Y00166165D01*
X00854616Y00170225D01*
X00851396Y00173896D01*
X00847725Y00177116D01*
X00843665Y00179828D01*
X00839286Y00181988D01*
X00834662Y00183558D01*
X00829873Y00184510D01*
X00825000Y00184830D01*
D02*
G37*
G36*
X00075000D02*
X00070128Y00184510D01*
X00065338Y00183558D01*
X00060715Y00181988D01*
X00056335Y00179828D01*
X00052275Y00177116D01*
X00048604Y00173896D01*
X00045384Y00170225D01*
X00042671Y00166165D01*
X00040512Y00161785D01*
X00038942Y00157162D01*
X00037989Y00152372D01*
X00037670Y00147500D01*
X00037989Y00142627D01*
X00038942Y00137838D01*
X00040512Y00133214D01*
X00042671Y00128835D01*
X00045384Y00124775D01*
X00048604Y00121104D01*
X00052275Y00117884D01*
X00056335Y00115171D01*
X00060715Y00113012D01*
X00065338Y00111442D01*
X00070128Y00110489D01*
X00075000Y00110170D01*
X00079873Y00110489D01*
X00084662Y00111442D01*
X00089286Y00113012D01*
X00093665Y00115171D01*
X00097725Y00117884D01*
X00101396Y00121104D01*
X00104616Y00124775D01*
X00107329Y00128835D01*
X00109488Y00133214D01*
X00111058Y00137838D01*
X00112011Y00142627D01*
X00112330Y00147500D01*
X00112011Y00152372D01*
X00111058Y00157162D01*
X00109488Y00161785D01*
X00107329Y00166165D01*
X00104616Y00170225D01*
X00101396Y00173896D01*
X00097725Y00177116D01*
X00093665Y00179828D01*
X00089286Y00181988D01*
X00084662Y00183558D01*
X00079873Y00184510D01*
X00075000Y00184830D01*
D02*
G37*
G36*
X00023000Y00092333D02*
X00019618Y00092000D01*
X00016367Y00091014D01*
X00013370Y00089412D01*
X00010743Y00087257D01*
X00008588Y00084630D01*
X00006986Y00081633D01*
X00006000Y00078382D01*
X00005667Y00075000D01*
X00006000Y00071618D01*
X00006986Y00068367D01*
X00008588Y00065370D01*
X00010743Y00062743D01*
X00013370Y00060588D01*
X00016367Y00058986D01*
X00019618Y00058000D01*
X00023000Y00057667D01*
X00026382Y00058000D01*
X00029633Y00058986D01*
X00032630Y00060588D01*
X00035257Y00062743D01*
X00037412Y00065370D01*
X00039014Y00068367D01*
X00040000Y00071618D01*
X00040333Y00075000D01*
X00040000Y00078382D01*
X00039014Y00081633D01*
X00037412Y00084630D01*
X00035257Y00087257D01*
X00032630Y00089412D01*
X00029633Y00091014D01*
X00026382Y00092000D01*
X00023000Y00092333D01*
D02*
G37*
G36*
X00728000Y00063000D02*
X00728000Y00039000D01*
X00767000Y00039000D01*
X00767000Y00063000D01*
X00728000Y00063000D01*
D02*
G37*
G36*
X00825000Y00087830D02*
X00820127Y00087510D01*
X00815338Y00086558D01*
X00810714Y00084988D01*
X00806335Y00082829D01*
X00802275Y00080116D01*
X00798604Y00076896D01*
X00795384Y00073225D01*
X00792671Y00069165D01*
X00790512Y00064785D01*
X00788942Y00060162D01*
X00787989Y00055372D01*
X00787670Y00050500D01*
X00787989Y00045627D01*
X00788942Y00040838D01*
X00790512Y00036214D01*
X00792671Y00031835D01*
X00795384Y00027775D01*
X00798604Y00024104D01*
X00802275Y00020884D01*
X00806335Y00018171D01*
X00810714Y00016012D01*
X00815338Y00014442D01*
X00820127Y00013489D01*
X00825000Y00013170D01*
X00829873Y00013489D01*
X00834662Y00014442D01*
X00839286Y00016012D01*
X00843665Y00018171D01*
X00847725Y00020884D01*
X00851396Y00024104D01*
X00854616Y00027775D01*
X00857329Y00031835D01*
X00859488Y00036214D01*
X00861058Y00040838D01*
X00862010Y00045627D01*
X00862330Y00050500D01*
X00862010Y00055372D01*
X00861058Y00060162D01*
X00859488Y00064785D01*
X00857329Y00069165D01*
X00854616Y00073225D01*
X00851396Y00076896D01*
X00847725Y00080116D01*
X00843665Y00082829D01*
X00839286Y00084988D01*
X00834662Y00086558D01*
X00829873Y00087510D01*
X00825000Y00087830D01*
D02*
G37*
G36*
X00075000D02*
X00070128Y00087510D01*
X00065338Y00086558D01*
X00060715Y00084988D01*
X00056335Y00082829D01*
X00052275Y00080116D01*
X00048604Y00076896D01*
X00045384Y00073225D01*
X00042671Y00069165D01*
X00040512Y00064785D01*
X00038942Y00060162D01*
X00037989Y00055372D01*
X00037670Y00050500D01*
X00037989Y00045627D01*
X00038942Y00040838D01*
X00040512Y00036214D01*
X00042671Y00031835D01*
X00045384Y00027775D01*
X00048604Y00024104D01*
X00052275Y00020884D01*
X00056335Y00018171D01*
X00060715Y00016012D01*
X00065338Y00014442D01*
X00070128Y00013489D01*
X00075000Y00013170D01*
X00079873Y00013489D01*
X00084662Y00014442D01*
X00089286Y00016012D01*
X00093665Y00018171D01*
X00097725Y00020884D01*
X00101396Y00024104D01*
X00104616Y00027775D01*
X00107329Y00031835D01*
X00109488Y00036214D01*
X00111058Y00040838D01*
X00112011Y00045627D01*
X00112330Y00050500D01*
X00112011Y00055372D01*
X00111058Y00060162D01*
X00109488Y00064785D01*
X00107329Y00069165D01*
X00104616Y00073225D01*
X00101396Y00076896D01*
X00097725Y00080116D01*
X00093665Y00082829D01*
X00089286Y00084988D01*
X00084662Y00086558D01*
X00079873Y00087510D01*
X00075000Y00087830D01*
D02*
G37*
%LPD*%
G36*
X00463700Y00431658D02*
X00461700D01*
X00460425Y00434379D01*
X00464975D01*
X00463700Y00431658D01*
D02*
G37*
G36*
X00438300D02*
X00436300D01*
X00435025Y00434379D01*
X00439575D01*
X00438300Y00431658D01*
D02*
G37*
G36*
X00412900D02*
X00410900D01*
X00409625Y00434379D01*
X00414175D01*
X00412900Y00431658D01*
D02*
G37*
G36*
X00501000Y00454958D02*
X00499000D01*
X00497725Y00457679D01*
X00502275D01*
X00501000Y00454958D01*
D02*
G37*
G36*
X00464975Y00315621D02*
X00460425D01*
X00461700Y00318342D01*
X00463700D01*
X00464975Y00315621D01*
D02*
G37*
G36*
X00490375Y00315621D02*
X00485825D01*
X00487100Y00318342D01*
X00489100D01*
X00490375Y00315621D01*
D02*
G37*
G36*
X00439575D02*
X00435025D01*
X00436300Y00318342D01*
X00438300D01*
X00439575Y00315621D01*
D02*
G37*
G36*
X00414175D02*
X00409625D01*
X00410900Y00318342D01*
X00412900D01*
X00414175Y00315621D01*
D02*
G37*
D10*
X00695600Y00465600D02*
X00747500D01*
X00372500Y00492500D02*
X00565000D01*
X00335700Y00455700D02*
X00372500Y00492500D01*
X00335700Y00436700D02*
Y00455700D01*
X00715800Y00414800D02*
X00747500D01*
X00715800Y00440200D02*
X00747500D01*
X00564300Y00313300D02*
Y00345000D01*
X00335700Y00405000D02*
Y00436700D01*
X00513500Y00313300D02*
Y00345000D01*
X00513500Y00405000D02*
Y00436700D01*
X00335700Y00313300D02*
Y00345000D01*
D13*
X00564300Y00441800D02*
X00650000Y00527500D01*
X00835000D01*
X00564300Y00405000D02*
Y00441800D01*
X00580000Y00382500D02*
Y00440000D01*
X00657500Y00517500D01*
X00830000D01*
X00776566Y00386566D02*
Y00434066D01*
X00647500Y00257500D02*
X00776566Y00386566D01*
Y00434066D02*
X00782700Y00440200D01*
X00650429Y00250429D02*
X00782450Y00382450D01*
Y00412450D02*
X00784671Y00414672D01*
X00782450Y00382450D02*
Y00412450D01*
X00807372Y00414672D02*
X00807500Y00414800D01*
X00784671Y00414672D02*
X00807372D01*
X00782700Y00440200D02*
X00807500D01*
X00377071Y00250429D02*
X00650429D01*
X00380000Y00257500D02*
X00647500D01*
X00367500Y00270000D02*
Y00317500D01*
Y00270000D02*
X00380000Y00257500D01*
X00367500Y00317500D02*
X00372500Y00322500D01*
Y00367500D01*
X00361100Y00378900D02*
X00372500Y00367500D01*
X00361100Y00378900D02*
Y00405000D01*
X00361100Y00266400D02*
X00377071Y00250429D01*
X00361100Y00266400D02*
Y00345000D01*
X00538900Y00378600D02*
X00542500Y00375000D01*
X00538900Y00378600D02*
Y00405000D01*
X00542500Y00375000D02*
X00572500D01*
X00580000Y00382500D01*
X00698500Y00491000D02*
X00747500D01*
X00675000Y00467500D02*
X00698500Y00491000D01*
X00675000Y00327500D02*
Y00467500D01*
X00637500Y00290000D02*
X00675000Y00327500D01*
X00842500Y00497500D02*
Y00505000D01*
X00830000Y00517500D02*
X00842500Y00505000D01*
X00836000Y00491000D02*
X00842500Y00497500D01*
X00807500Y00491000D02*
X00836000D01*
X00807500Y00465600D02*
X00845600D01*
X00860000Y00480000D01*
Y00502500D01*
X00835000Y00527500D02*
X00860000Y00502500D01*
X00538900Y00303192D02*
X00552092Y00290000D01*
X00637500D01*
X00538900Y00303192D02*
Y00345000D01*
X00500000Y00447000D02*
Y00460000D01*
X00488100Y00313300D02*
Y00345000D01*
Y00435100D02*
X00500000Y00447000D01*
X00462700Y00313300D02*
Y00345000D01*
X00437300Y00313300D02*
Y00345000D01*
X00411900Y00313300D02*
Y00345000D01*
Y00405000D02*
Y00436700D01*
X00488100Y00405000D02*
Y00435100D01*
X00462700Y00405000D02*
Y00436700D01*
X00437300Y00405000D02*
Y00436700D01*
X00748500Y00041500D02*
X00764500D01*
X00748500D02*
Y00060500D01*
X00764500D01*
Y00041500D02*
Y00060500D01*
X00760164Y00046000D02*
X00753500D01*
X00760164Y00052664D01*
Y00054331D01*
X00758498Y00055997D01*
X00755166D01*
X00753500Y00054331D01*
D14*
X00900000Y00700000D02*
G03*
X00850000Y00750000I-00050000J00000000D01*
G01*
X00050000D02*
G03*
X00000000Y00700000I00000000J-00050000D01*
G01*
X00850000Y00000000D02*
G03*
X00900000Y00050000I00000000J00050000D01*
G01*
X00000000D02*
G03*
X00050000Y00000000I00050000J00000000D01*
G01*
Y00750000D02*
X00850000D01*
X00900000Y00700000D02*
X00900000Y00050000D01*
X-00000000Y00700000D02*
X00000000Y00050000D01*
X00050000Y00000000D02*
X00850000D01*
D22*
X00877000Y00675000D02*
D03*
X00023000D02*
D03*
Y00075000D02*
D03*
D27*
X00075000Y00699500D02*
D03*
X00825000D02*
D03*
Y00602500D02*
D03*
X00075000Y00147500D02*
D03*
X00825000D02*
D03*
Y00050500D02*
D03*
X00075000D02*
D03*
D28*
X00695600Y00465600D02*
D03*
X00565000Y00492500D02*
D03*
X00715800Y00414800D02*
D03*
Y00440200D02*
D03*
X00564300Y00313300D02*
D03*
X00488100D02*
D03*
X00414900Y00562500D02*
D03*
Y00612500D02*
D03*
X00211700Y00612500D02*
D03*
X00160900Y00616500D02*
D03*
X00338700Y00666500D02*
D03*
Y00616500D02*
D03*
X00262500Y00666500D02*
D03*
X00160900Y00666500D02*
D03*
X00211700Y00562500D02*
D03*
X00540300Y00447200D02*
D03*
X00550800Y00436700D02*
D03*
X00320700Y00458800D02*
D03*
X00310200Y00448300D02*
D03*
X00335700Y00436700D02*
D03*
X00513500Y00313300D02*
D03*
X00513500Y00436700D02*
D03*
X00335700Y00313300D02*
D03*
X00462700Y00313300D02*
D03*
X00437300Y00313300D02*
D03*
X00411900D02*
D03*
Y00436700D02*
D03*
X00500000Y00460000D02*
D03*
X00462700Y00436700D02*
D03*
X00437300D02*
D03*
X00890000Y00290000D02*
D03*
Y00370000D02*
D03*
Y00450000D02*
D03*
Y00130000D02*
D03*
Y00050000D02*
D03*
Y00610000D02*
D03*
Y00530000D02*
D03*
Y00210000D02*
D03*
Y00700000D02*
D03*
X00010000Y00340000D02*
D03*
Y00420000D02*
D03*
Y00500000D02*
D03*
Y00180000D02*
D03*
Y00100000D02*
D03*
Y00650000D02*
D03*
Y00580000D02*
D03*
Y00260000D02*
D03*
X00360000Y00740000D02*
D03*
X00440000D02*
D03*
X00520000D02*
D03*
X00200000D02*
D03*
X00120000D02*
D03*
X00680000D02*
D03*
X00600000D02*
D03*
X00280000D02*
D03*
X00760000D02*
D03*
X00059444Y00683236D02*
D03*
X00058737Y00715056D02*
D03*
X00052500Y00699000D02*
D03*
X00074500Y00722000D02*
D03*
X00091264Y00683944D02*
D03*
X00090556Y00715764D02*
D03*
X00097500Y00700000D02*
D03*
X00075500Y00677000D02*
D03*
X00824500D02*
D03*
X00802500Y00700000D02*
D03*
X00809444Y00715764D02*
D03*
X00808736Y00683944D02*
D03*
X00825500Y00722000D02*
D03*
X00847500Y00699000D02*
D03*
X00841264Y00715056D02*
D03*
X00840556Y00683236D02*
D03*
X00808736Y00586944D02*
D03*
X00809444Y00618764D02*
D03*
X00824500Y00580000D02*
D03*
X00052500Y00148000D02*
D03*
X00058737Y00131944D02*
D03*
X00059444Y00163763D02*
D03*
X00075500Y00170000D02*
D03*
X00091264Y00163056D02*
D03*
X00074500Y00125000D02*
D03*
X00090556Y00131236D02*
D03*
X00097500Y00147000D02*
D03*
X00847500D02*
D03*
X00841264Y00163056D02*
D03*
X00840556Y00131236D02*
D03*
X00841264Y00618056D02*
D03*
X00847500Y00602000D02*
D03*
X00840556Y00586236D02*
D03*
X00802500Y00603000D02*
D03*
X00825500Y00625000D02*
D03*
X00802500Y00148000D02*
D03*
X00808736Y00131944D02*
D03*
X00809444Y00163763D02*
D03*
X00824500Y00125000D02*
D03*
X00825500Y00170000D02*
D03*
X00824500Y00028000D02*
D03*
X00847500Y00050000D02*
D03*
X00802500Y00051000D02*
D03*
X00840556Y00034236D02*
D03*
X00808736Y00034943D02*
D03*
X00841264Y00066056D02*
D03*
X00809444Y00066763D02*
D03*
X00825500Y00073000D02*
D03*
X00090556Y00034236D02*
D03*
X00074500Y00028000D02*
D03*
X00097500Y00050000D02*
D03*
X00091264Y00066056D02*
D03*
X00075500Y00073000D02*
D03*
X00059444Y00066763D02*
D03*
X00058737Y00034943D02*
D03*
X00052500Y00051000D02*
D03*
X00760000Y00010000D02*
D03*
X00280000D02*
D03*
X00600000D02*
D03*
X00680000D02*
D03*
X00120000D02*
D03*
X00200000D02*
D03*
X00520000D02*
D03*
X00440000D02*
D03*
X00360000D02*
D03*
D29*
X00747500Y00414800D02*
D03*
Y00491000D02*
D03*
Y00465600D02*
D03*
Y00440200D02*
D03*
X00807500Y00414800D02*
D03*
Y00440200D02*
D03*
Y00465600D02*
D03*
Y00491000D02*
D03*
D30*
X00538900Y00405000D02*
D03*
X00488100Y00405000D02*
D03*
X00513500Y00405000D02*
D03*
X00564300D02*
D03*
X00462700D02*
D03*
X00335700D02*
D03*
X00361100D02*
D03*
X00386500D02*
D03*
X00411900D02*
D03*
X00437300D02*
D03*
X00462700Y00345000D02*
D03*
X00386500Y00345000D02*
D03*
X00361100Y00345000D02*
D03*
X00335700Y00345000D02*
D03*
X00411900D02*
D03*
X00437300D02*
D03*
X00488100D02*
D03*
X00513500D02*
D03*
X00538900D02*
D03*
X00564300D02*
D03*
M02*
