G04*
G04 #@! TF.GenerationSoftware,Altium Limited,Altium Designer,21.1.1 (26)*
G04*
G04 Layer_Color=10964583*
%FSAX44Y44*%
%MOMM*%
G71*
G04*
G04 #@! TF.SameCoordinates,61528D9D-F366-43B7-8DC3-677D280EAED6*
G04*
G04*
G04 #@! TF.FilePolarity,Negative*
G04*
G01*
G75*
%ADD14C,0.1000*%
%ADD15R,1.8500X2.2000*%
G04:AMPARAMS|DCode=16|XSize=0.85mm|YSize=0.9mm|CornerRadius=0.2375mm|HoleSize=0mm|Usage=FLASHONLY|Rotation=180.000|XOffset=0mm|YOffset=0mm|HoleType=Round|Shape=RoundedRectangle|*
%AMROUNDEDRECTD16*
21,1,0.8500,0.4250,0,0,180.0*
21,1,0.3750,0.9000,0,0,180.0*
1,1,0.4750,-0.1875,0.2125*
1,1,0.4750,0.1875,0.2125*
1,1,0.4750,0.1875,-0.2125*
1,1,0.4750,-0.1875,-0.2125*
%
%ADD16ROUNDEDRECTD16*%
%ADD17C,3.0000*%
G04:AMPARAMS|DCode=18|XSize=0.85mm|YSize=0.9mm|CornerRadius=0.2375mm|HoleSize=0mm|Usage=FLASHONLY|Rotation=90.000|XOffset=0mm|YOffset=0mm|HoleType=Round|Shape=RoundedRectangle|*
%AMROUNDEDRECTD18*
21,1,0.8500,0.4250,0,0,90.0*
21,1,0.3750,0.9000,0,0,90.0*
1,1,0.4750,0.2125,0.1875*
1,1,0.4750,0.2125,-0.1875*
1,1,0.4750,-0.2125,-0.1875*
1,1,0.4750,-0.2125,0.1875*
%
%ADD18ROUNDEDRECTD18*%
G04:AMPARAMS|DCode=19|XSize=1.1mm|YSize=3.2mm|CornerRadius=0.425mm|HoleSize=0mm|Usage=FLASHONLY|Rotation=0.000|XOffset=0mm|YOffset=0mm|HoleType=Round|Shape=RoundedRectangle|*
%AMROUNDEDRECTD19*
21,1,1.1000,2.3500,0,0,0.0*
21,1,0.2500,3.2000,0,0,0.0*
1,1,0.8500,0.1250,-1.1750*
1,1,0.8500,-0.1250,-1.1750*
1,1,0.8500,-0.1250,1.1750*
1,1,0.8500,0.1250,1.1750*
%
%ADD19ROUNDEDRECTD19*%
%ADD20C,6.1000*%
D14*
X00900000Y00700000D02*
G03*
X00850000Y00750000I-00050000J00000000D01*
G01*
X00050000D02*
G03*
X00000000Y00700000I00000000J-00050000D01*
G01*
X00850000Y00000000D02*
G03*
X00900000Y00050000I00000000J00050000D01*
G01*
X00000000D02*
G03*
X00050000Y00000000I00050000J00000000D01*
G01*
Y00750000D02*
X00850000D01*
X00900000Y00700000D02*
X00900000Y00050000D01*
X-00000000Y00700000D02*
X00000000Y00050000D01*
X00050000Y00000000D02*
X00850000D01*
D15*
X00756750Y00051000D02*
D03*
D16*
X00540300Y00436700D02*
D03*
X00525300D02*
D03*
X00335700Y00448300D02*
D03*
X00320700D02*
D03*
D17*
X00877000Y00675000D02*
D03*
X00023000Y00075000D02*
D03*
Y00675000D02*
D03*
D18*
X00374000Y00698500D02*
D03*
Y00683500D02*
D03*
X00358000Y00698500D02*
D03*
Y00683500D02*
D03*
X00406000Y00698500D02*
D03*
Y00683500D02*
D03*
X00390000Y00698500D02*
D03*
Y00683500D02*
D03*
X00379500Y00527500D02*
D03*
Y00542500D02*
D03*
X00363500Y00527500D02*
D03*
Y00542500D02*
D03*
X00347500Y00527500D02*
D03*
Y00542500D02*
D03*
X00331500Y00527500D02*
D03*
Y00542500D02*
D03*
D19*
X00414900Y00641500D02*
D03*
X00389500D02*
D03*
X00414900Y00587500D02*
D03*
X00389500D02*
D03*
X00338700Y00641500D02*
D03*
Y00587500D02*
D03*
X00313300Y00641500D02*
D03*
Y00587500D02*
D03*
X00364100Y00587500D02*
D03*
X00364100Y00641500D02*
D03*
X00287900D02*
D03*
X00262500Y00641500D02*
D03*
X00287900Y00587500D02*
D03*
X00262500D02*
D03*
X00211700Y00641500D02*
D03*
Y00587500D02*
D03*
X00186300Y00641500D02*
D03*
Y00587500D02*
D03*
X00110100D02*
D03*
Y00641500D02*
D03*
X00135500Y00587500D02*
D03*
X00135500Y00641500D02*
D03*
X00160900Y00587500D02*
D03*
X00160900Y00641500D02*
D03*
X00237100Y00587500D02*
D03*
Y00641500D02*
D03*
D20*
X00075000Y00699500D02*
D03*
X00825000D02*
D03*
Y00602500D02*
D03*
X00075000Y00147500D02*
D03*
X00825000D02*
D03*
Y00050500D02*
D03*
X00075000D02*
D03*
M02*
