G04*
G04 #@! TF.GenerationSoftware,Altium Limited,Altium Designer,21.1.1 (26)*
G04*
G04 Layer_Physical_Order=1*
G04 Layer_Color=255*
%FSAX44Y44*%
%MOMM*%
G71*
G04*
G04 #@! TF.SameCoordinates,61528D9D-F366-43B7-8DC3-677D280EAED6*
G04*
G04*
G04 #@! TF.FilePolarity,Positive*
G04*
G01*
G75*
%ADD10C,0.5000*%
%ADD12C,0.2500*%
%ADD13C,0.2000*%
%ADD14C,0.1000*%
G04:AMPARAMS|DCode=21|XSize=0.75mm|YSize=0.8mm|CornerRadius=0.1875mm|HoleSize=0mm|Usage=FLASHONLY|Rotation=180.000|XOffset=0mm|YOffset=0mm|HoleType=Round|Shape=RoundedRectangle|*
%AMROUNDEDRECTD21*
21,1,0.7500,0.4250,0,0,180.0*
21,1,0.3750,0.8000,0,0,180.0*
1,1,0.3750,-0.1875,0.2125*
1,1,0.3750,0.1875,0.2125*
1,1,0.3750,0.1875,-0.2125*
1,1,0.3750,-0.1875,-0.2125*
%
%ADD21ROUNDEDRECTD21*%
%ADD22C,1.0000*%
G04:AMPARAMS|DCode=23|XSize=0.75mm|YSize=0.8mm|CornerRadius=0.1875mm|HoleSize=0mm|Usage=FLASHONLY|Rotation=90.000|XOffset=0mm|YOffset=0mm|HoleType=Round|Shape=RoundedRectangle|*
%AMROUNDEDRECTD23*
21,1,0.7500,0.4250,0,0,90.0*
21,1,0.3750,0.8000,0,0,90.0*
1,1,0.3750,0.2125,0.1875*
1,1,0.3750,0.2125,-0.1875*
1,1,0.3750,-0.2125,-0.1875*
1,1,0.3750,-0.2125,0.1875*
%
%ADD23ROUNDEDRECTD23*%
G04:AMPARAMS|DCode=24|XSize=1mm|YSize=3.1mm|CornerRadius=0.375mm|HoleSize=0mm|Usage=FLASHONLY|Rotation=0.000|XOffset=0mm|YOffset=0mm|HoleType=Round|Shape=RoundedRectangle|*
%AMROUNDEDRECTD24*
21,1,1.0000,2.3500,0,0,0.0*
21,1,0.2500,3.1000,0,0,0.0*
1,1,0.7500,0.1250,-1.1750*
1,1,0.7500,-0.1250,-1.1750*
1,1,0.7500,-0.1250,1.1750*
1,1,0.7500,0.1250,1.1750*
%
%ADD24ROUNDEDRECTD24*%
%ADD25C,0.7500*%
%ADD26C,1.0000*%
%ADD27C,6.0000*%
%ADD28C,0.6500*%
G36*
X00859277Y00746639D02*
X00865285Y00745029D01*
X00871032Y00742649D01*
X00876419Y00739539D01*
X00881354Y00735752D01*
X00885752Y00731354D01*
X00889539Y00726419D01*
X00892649Y00721032D01*
X00895029Y00715285D01*
X00896639Y00709277D01*
X00897451Y00703110D01*
X00897451Y00700000D01*
X00897451Y00050000D01*
Y00046890D01*
X00896639Y00040723D01*
X00895029Y00034715D01*
X00892649Y00028968D01*
X00889539Y00023581D01*
X00885752Y00018646D01*
X00881354Y00014248D01*
X00876419Y00010461D01*
X00871032Y00007351D01*
X00865285Y00004971D01*
X00859277Y00003361D01*
X00853110Y00002549D01*
X00046890D01*
X00040723Y00003361D01*
X00034715Y00004971D01*
X00028968Y00007351D01*
X00023581Y00010461D01*
X00018646Y00014248D01*
X00014248Y00018646D01*
X00010461Y00023581D01*
X00007351Y00028968D01*
X00004971Y00034715D01*
X00003361Y00040723D01*
X00002549Y00046890D01*
Y00050000D01*
Y00700000D01*
Y00703110D01*
X00003361Y00709277D01*
X00004971Y00715285D01*
X00007351Y00721032D01*
X00010461Y00726419D01*
X00014248Y00731354D01*
X00018646Y00735752D01*
X00023581Y00739539D01*
X00028968Y00742649D01*
X00034715Y00745029D01*
X00040723Y00746639D01*
X00046890Y00747451D01*
X00853110D01*
X00859277Y00746639D01*
D02*
G37*
%LPC*%
G36*
X00447652Y00735328D02*
X00447651Y00735328D01*
X00375269D01*
X00375269Y00735328D01*
X00374098Y00735095D01*
X00373106Y00734432D01*
X00373106Y00734432D01*
X00355837Y00717163D01*
X00355174Y00716171D01*
X00354941Y00715000D01*
X00354941Y00715000D01*
Y00704140D01*
X00354363Y00704025D01*
X00353081Y00703169D01*
X00352225Y00701887D01*
X00351924Y00700375D01*
Y00696625D01*
X00352225Y00695113D01*
X00353081Y00693831D01*
X00354363Y00692975D01*
X00355875Y00692674D01*
X00360125D01*
X00361637Y00692975D01*
X00362919Y00693831D01*
X00363775Y00695113D01*
X00364076Y00696625D01*
Y00700375D01*
X00363775Y00701887D01*
X00362919Y00703169D01*
X00361637Y00704025D01*
X00361059Y00704140D01*
Y00713733D01*
X00376536Y00729210D01*
X00446385D01*
X00490441Y00685153D01*
Y00476500D01*
X00490441Y00476500D01*
X00490674Y00475330D01*
X00491337Y00474337D01*
X00496941Y00468733D01*
Y00465455D01*
X00495959Y00463357D01*
X00495414Y00462648D01*
X00494885Y00461371D01*
X00494705Y00460000D01*
X00494885Y00458629D01*
X00495414Y00457352D01*
X00496256Y00456256D01*
X00497352Y00455414D01*
X00498629Y00454885D01*
X00500000Y00454705D01*
X00501371Y00454885D01*
X00502648Y00455414D01*
X00503744Y00456256D01*
X00504586Y00457352D01*
X00505115Y00458629D01*
X00505295Y00460000D01*
X00505115Y00461371D01*
X00504586Y00462648D01*
X00504041Y00463357D01*
X00503059Y00465454D01*
Y00470000D01*
X00502826Y00471171D01*
X00502163Y00472163D01*
X00502163Y00472163D01*
X00496559Y00477767D01*
Y00686420D01*
X00496559Y00686420D01*
X00496326Y00687591D01*
X00495663Y00688583D01*
X00449814Y00734432D01*
X00448822Y00735095D01*
X00447652Y00735328D01*
D02*
G37*
G36*
X00440649Y00726205D02*
X00440649Y00726205D01*
X00383646D01*
X00383646Y00726205D01*
X00382476Y00725972D01*
X00381483Y00725309D01*
X00381483Y00725309D01*
X00371837Y00715663D01*
X00371174Y00714670D01*
X00370941Y00713500D01*
X00370941Y00713500D01*
Y00704140D01*
X00370363Y00704025D01*
X00369081Y00703169D01*
X00368225Y00701887D01*
X00367924Y00700375D01*
Y00696625D01*
X00368225Y00695113D01*
X00369081Y00693831D01*
X00370363Y00692975D01*
X00371875Y00692674D01*
X00376125D01*
X00377637Y00692975D01*
X00378919Y00693831D01*
X00379775Y00695113D01*
X00380076Y00696625D01*
Y00700375D01*
X00379775Y00701887D01*
X00378919Y00703169D01*
X00377637Y00704025D01*
X00377059Y00704140D01*
Y00712233D01*
X00384913Y00720088D01*
X00439382D01*
X00478683Y00680786D01*
Y00457408D01*
X00478683Y00457408D01*
X00478916Y00456237D01*
X00479579Y00455245D01*
X00485041Y00449783D01*
Y00317570D01*
X00484356Y00317044D01*
X00483514Y00315948D01*
X00482985Y00314671D01*
X00482805Y00313300D01*
X00482985Y00311929D01*
X00483514Y00310652D01*
X00484356Y00309556D01*
X00485452Y00308714D01*
X00486730Y00308185D01*
X00488100Y00308005D01*
X00489470Y00308185D01*
X00490748Y00308714D01*
X00491844Y00309556D01*
X00492686Y00310652D01*
X00493215Y00311929D01*
X00493395Y00313300D01*
X00493215Y00314671D01*
X00492686Y00315948D01*
X00491844Y00317044D01*
X00491159Y00317570D01*
Y00451050D01*
X00490926Y00452221D01*
X00490263Y00453213D01*
X00490263Y00453213D01*
X00484801Y00458675D01*
Y00682053D01*
X00484801Y00682053D01*
X00484568Y00683224D01*
X00483905Y00684216D01*
X00442812Y00725309D01*
X00441820Y00725972D01*
X00440649Y00726205D01*
D02*
G37*
G36*
X00432600Y00717367D02*
X00432600Y00717367D01*
X00396262D01*
X00396262Y00717367D01*
X00395091Y00717135D01*
X00394099Y00716472D01*
X00387837Y00710210D01*
X00387174Y00709218D01*
X00386941Y00708047D01*
X00386941Y00708047D01*
Y00704140D01*
X00386363Y00704025D01*
X00385081Y00703169D01*
X00384225Y00701887D01*
X00383924Y00700375D01*
Y00696625D01*
X00384225Y00695113D01*
X00385081Y00693831D01*
X00386363Y00692975D01*
X00387875Y00692674D01*
X00392125D01*
X00393637Y00692975D01*
X00394919Y00693831D01*
X00395775Y00695113D01*
X00396076Y00696625D01*
Y00700375D01*
X00395775Y00701887D01*
X00394919Y00703169D01*
X00393637Y00704025D01*
X00393059Y00704140D01*
Y00706780D01*
X00397529Y00711250D01*
X00431333D01*
X00466512Y00676071D01*
Y00453229D01*
X00466512Y00453229D01*
X00466745Y00452058D01*
X00467408Y00451066D01*
X00472441Y00446033D01*
Y00340200D01*
X00460537Y00328296D01*
X00459874Y00327304D01*
X00459641Y00326133D01*
X00459641Y00326133D01*
Y00318755D01*
X00458659Y00316657D01*
X00458114Y00315948D01*
X00457585Y00314671D01*
X00457405Y00313300D01*
X00457585Y00311929D01*
X00458114Y00310652D01*
X00458956Y00309556D01*
X00460052Y00308714D01*
X00461329Y00308185D01*
X00462700Y00308005D01*
X00464071Y00308185D01*
X00465348Y00308714D01*
X00466444Y00309556D01*
X00467286Y00310652D01*
X00467815Y00311929D01*
X00467995Y00313300D01*
X00467815Y00314671D01*
X00467286Y00315948D01*
X00466741Y00316657D01*
X00465759Y00318755D01*
Y00324866D01*
X00477663Y00336770D01*
X00477663Y00336770D01*
X00478326Y00337763D01*
X00478559Y00338933D01*
X00478559Y00338933D01*
Y00447300D01*
X00478559Y00447300D01*
X00478326Y00448471D01*
X00477663Y00449463D01*
X00477663Y00449463D01*
X00472630Y00454496D01*
Y00677338D01*
X00472397Y00678508D01*
X00471734Y00679501D01*
X00471734Y00679501D01*
X00434763Y00716472D01*
X00433771Y00717135D01*
X00432600Y00717367D01*
D02*
G37*
G36*
X00360125Y00689326D02*
X00355875D01*
X00354363Y00689025D01*
X00353081Y00688169D01*
X00352225Y00686887D01*
X00351924Y00685375D01*
Y00681625D01*
X00352151Y00680486D01*
X00351436Y00679140D01*
X00350906Y00678486D01*
X00320100D01*
X00318930Y00678253D01*
X00317938Y00677590D01*
X00317937Y00677590D01*
X00311137Y00670790D01*
X00310474Y00669798D01*
X00310241Y00668627D01*
X00310241Y00668627D01*
Y00658725D01*
X00309150Y00658273D01*
X00307949Y00657351D01*
X00307027Y00656150D01*
X00306448Y00654751D01*
X00306250Y00653250D01*
Y00629750D01*
X00306448Y00628249D01*
X00307027Y00626850D01*
X00307949Y00625649D01*
X00309150Y00624727D01*
X00310549Y00624148D01*
X00312050Y00623950D01*
X00314550D01*
X00316051Y00624148D01*
X00317450Y00624727D01*
X00318651Y00625649D01*
X00319573Y00626850D01*
X00320152Y00628249D01*
X00320350Y00629750D01*
Y00653250D01*
X00320152Y00654751D01*
X00319573Y00656150D01*
X00318651Y00657351D01*
X00317450Y00658273D01*
X00316359Y00658725D01*
Y00667360D01*
X00321367Y00672369D01*
X00356036D01*
X00356036Y00672369D01*
X00357207Y00672602D01*
X00358199Y00673265D01*
X00360163Y00675228D01*
X00360163Y00675228D01*
X00360826Y00676220D01*
X00361059Y00677391D01*
Y00677860D01*
X00361637Y00677975D01*
X00362919Y00678831D01*
X00363775Y00680113D01*
X00364076Y00681625D01*
Y00685375D01*
X00363775Y00686887D01*
X00362919Y00688169D01*
X00361637Y00689025D01*
X00360125Y00689326D01*
D02*
G37*
G36*
X00825000Y00736830D02*
X00820127Y00736511D01*
X00815338Y00735558D01*
X00810714Y00733988D01*
X00806335Y00731829D01*
X00802275Y00729116D01*
X00798604Y00725896D01*
X00795384Y00722225D01*
X00792671Y00718165D01*
X00790512Y00713786D01*
X00788942Y00709162D01*
X00787989Y00704373D01*
X00787670Y00699500D01*
X00787989Y00694628D01*
X00788942Y00689838D01*
X00790512Y00685214D01*
X00792671Y00680835D01*
X00795384Y00676775D01*
X00798604Y00673104D01*
X00802275Y00669884D01*
X00806335Y00667171D01*
X00810714Y00665012D01*
X00815338Y00663442D01*
X00820127Y00662489D01*
X00825000Y00662170D01*
X00829873Y00662489D01*
X00834662Y00663442D01*
X00839286Y00665012D01*
X00843665Y00667171D01*
X00847725Y00669884D01*
X00851396Y00673104D01*
X00854616Y00676775D01*
X00857329Y00680835D01*
X00859488Y00685214D01*
X00861058Y00689838D01*
X00862010Y00694628D01*
X00862330Y00699500D01*
X00862010Y00704373D01*
X00861058Y00709162D01*
X00859488Y00713786D01*
X00857329Y00718165D01*
X00854616Y00722225D01*
X00851396Y00725896D01*
X00847725Y00729116D01*
X00843665Y00731829D01*
X00839286Y00733988D01*
X00834662Y00735558D01*
X00829873Y00736511D01*
X00825000Y00736830D01*
D02*
G37*
G36*
X00075000D02*
X00070128Y00736511D01*
X00065338Y00735558D01*
X00060715Y00733988D01*
X00056335Y00731829D01*
X00052275Y00729116D01*
X00048604Y00725896D01*
X00045384Y00722225D01*
X00042671Y00718165D01*
X00040512Y00713786D01*
X00038942Y00709162D01*
X00037989Y00704373D01*
X00037670Y00699500D01*
X00037989Y00694628D01*
X00038942Y00689838D01*
X00040512Y00685214D01*
X00042671Y00680835D01*
X00045384Y00676775D01*
X00048604Y00673104D01*
X00052275Y00669884D01*
X00056335Y00667171D01*
X00060715Y00665012D01*
X00065338Y00663442D01*
X00070128Y00662489D01*
X00075000Y00662170D01*
X00079873Y00662489D01*
X00084662Y00663442D01*
X00089286Y00665012D01*
X00093665Y00667171D01*
X00097725Y00669884D01*
X00101396Y00673104D01*
X00104616Y00676775D01*
X00107329Y00680835D01*
X00109488Y00685214D01*
X00111058Y00689838D01*
X00112011Y00694628D01*
X00112330Y00699500D01*
X00112011Y00704373D01*
X00111058Y00709162D01*
X00109488Y00713786D01*
X00107329Y00718165D01*
X00104616Y00722225D01*
X00101396Y00725896D01*
X00097725Y00729116D01*
X00093665Y00731829D01*
X00089286Y00733988D01*
X00084662Y00735558D01*
X00079873Y00736511D01*
X00075000Y00736830D01*
D02*
G37*
G36*
X00877000Y00692333D02*
X00873618Y00692000D01*
X00870367Y00691014D01*
X00867370Y00689412D01*
X00864743Y00687257D01*
X00862588Y00684630D01*
X00860986Y00681633D01*
X00860000Y00678382D01*
X00859667Y00675000D01*
X00860000Y00671618D01*
X00860986Y00668367D01*
X00862588Y00665370D01*
X00864743Y00662743D01*
X00867370Y00660588D01*
X00870367Y00658986D01*
X00873618Y00658000D01*
X00877000Y00657667D01*
X00880382Y00658000D01*
X00883633Y00658986D01*
X00886630Y00660588D01*
X00889257Y00662743D01*
X00891412Y00665370D01*
X00893014Y00668367D01*
X00894000Y00671618D01*
X00894333Y00675000D01*
X00894000Y00678382D01*
X00893014Y00681633D01*
X00891412Y00684630D01*
X00889257Y00687257D01*
X00886630Y00689412D01*
X00883633Y00691014D01*
X00880382Y00692000D01*
X00877000Y00692333D01*
D02*
G37*
G36*
X00023000D02*
X00019618Y00692000D01*
X00016367Y00691014D01*
X00013370Y00689412D01*
X00010743Y00687257D01*
X00008588Y00684630D01*
X00006986Y00681633D01*
X00006000Y00678382D01*
X00005667Y00675000D01*
X00006000Y00671618D01*
X00006986Y00668367D01*
X00008588Y00665370D01*
X00010743Y00662743D01*
X00013370Y00660588D01*
X00016367Y00658986D01*
X00019618Y00658000D01*
X00023000Y00657667D01*
X00026382Y00658000D01*
X00029633Y00658986D01*
X00032630Y00660588D01*
X00035257Y00662743D01*
X00037412Y00665370D01*
X00039014Y00668367D01*
X00040000Y00671618D01*
X00040333Y00675000D01*
X00040000Y00678382D01*
X00039014Y00681633D01*
X00037412Y00684630D01*
X00035257Y00687257D01*
X00032630Y00689412D01*
X00029633Y00691014D01*
X00026382Y00692000D01*
X00023000Y00692333D01*
D02*
G37*
G36*
X00263750Y00659050D02*
Y00642750D01*
X00269550D01*
Y00653250D01*
X00269352Y00654751D01*
X00268773Y00656150D01*
X00267851Y00657351D01*
X00266650Y00658273D01*
X00265251Y00658852D01*
X00263750Y00659050D01*
D02*
G37*
G36*
X00261250D02*
X00259749Y00658852D01*
X00258350Y00658273D01*
X00257149Y00657351D01*
X00256227Y00656150D01*
X00255648Y00654751D01*
X00255450Y00653250D01*
Y00642750D01*
X00261250D01*
Y00659050D01*
D02*
G37*
G36*
X00339950Y00659050D02*
Y00642750D01*
X00345750D01*
Y00653250D01*
X00345552Y00654751D01*
X00344973Y00656150D01*
X00344051Y00657351D01*
X00342850Y00658273D01*
X00341451Y00658852D01*
X00339950Y00659050D01*
D02*
G37*
G36*
X00337450D02*
X00335949Y00658852D01*
X00334550Y00658273D01*
X00333349Y00657351D01*
X00332427Y00656150D01*
X00331848Y00654751D01*
X00331650Y00653250D01*
Y00642750D01*
X00337450D01*
Y00659050D01*
D02*
G37*
G36*
X00162150D02*
Y00642750D01*
X00167950D01*
Y00653250D01*
X00167752Y00654751D01*
X00167173Y00656150D01*
X00166251Y00657351D01*
X00165050Y00658273D01*
X00163651Y00658852D01*
X00162150Y00659050D01*
D02*
G37*
G36*
X00159650D02*
X00158149Y00658852D01*
X00156750Y00658273D01*
X00155549Y00657351D01*
X00154627Y00656150D01*
X00154048Y00654751D01*
X00153850Y00653250D01*
Y00642750D01*
X00159650D01*
Y00659050D01*
D02*
G37*
G36*
X00269550Y00640250D02*
X00263750D01*
Y00623950D01*
X00265251Y00624148D01*
X00266650Y00624727D01*
X00267851Y00625649D01*
X00268773Y00626850D01*
X00269352Y00628249D01*
X00269550Y00629750D01*
Y00640250D01*
D02*
G37*
G36*
X00261250D02*
X00255450D01*
Y00629750D01*
X00255648Y00628249D01*
X00256227Y00626850D01*
X00257149Y00625649D01*
X00258350Y00624727D01*
X00259749Y00624148D01*
X00261250Y00623950D01*
Y00640250D01*
D02*
G37*
G36*
X00408125Y00689326D02*
X00403875D01*
X00402363Y00689025D01*
X00401081Y00688169D01*
X00400225Y00686887D01*
X00399924Y00685375D01*
Y00681625D01*
X00400225Y00680113D01*
X00401081Y00678831D01*
X00402363Y00677975D01*
X00402941Y00677860D01*
Y00671500D01*
X00402941Y00671500D01*
X00403174Y00670329D01*
X00403837Y00669337D01*
X00411841Y00661333D01*
Y00658725D01*
X00410750Y00658273D01*
X00409549Y00657351D01*
X00408627Y00656150D01*
X00408048Y00654751D01*
X00407850Y00653250D01*
Y00629750D01*
X00408048Y00628249D01*
X00408627Y00626850D01*
X00409549Y00625649D01*
X00410750Y00624727D01*
X00412149Y00624148D01*
X00413650Y00623950D01*
X00416150D01*
X00417651Y00624148D01*
X00419050Y00624727D01*
X00420251Y00625649D01*
X00421173Y00626850D01*
X00421752Y00628249D01*
X00421950Y00629750D01*
Y00653250D01*
X00421752Y00654751D01*
X00421173Y00656150D01*
X00420251Y00657351D01*
X00419050Y00658273D01*
X00417959Y00658725D01*
Y00662600D01*
X00417959Y00662600D01*
X00417726Y00663771D01*
X00417063Y00664763D01*
X00409059Y00672767D01*
Y00677860D01*
X00409637Y00677975D01*
X00410919Y00678831D01*
X00411775Y00680113D01*
X00412076Y00681625D01*
Y00685375D01*
X00411775Y00686887D01*
X00410919Y00688169D01*
X00409637Y00689025D01*
X00408125Y00689326D01*
D02*
G37*
G36*
X00392125D02*
X00387875D01*
X00386363Y00689025D01*
X00385081Y00688169D01*
X00384225Y00686887D01*
X00383924Y00685375D01*
Y00681625D01*
X00384225Y00680113D01*
X00385081Y00678831D01*
X00386363Y00677975D01*
X00386941Y00677860D01*
Y00671570D01*
X00386674Y00671171D01*
X00386441Y00670000D01*
X00386441Y00670000D01*
Y00658725D01*
X00385350Y00658273D01*
X00384149Y00657351D01*
X00383227Y00656150D01*
X00382648Y00654751D01*
X00382450Y00653250D01*
Y00629750D01*
X00382648Y00628249D01*
X00383227Y00626850D01*
X00384149Y00625649D01*
X00385350Y00624727D01*
X00386749Y00624148D01*
X00388250Y00623950D01*
X00390750D01*
X00392251Y00624148D01*
X00393650Y00624727D01*
X00394851Y00625649D01*
X00395773Y00626850D01*
X00396352Y00628249D01*
X00396550Y00629750D01*
Y00653250D01*
X00396352Y00654751D01*
X00395773Y00656150D01*
X00394851Y00657351D01*
X00393650Y00658273D01*
X00392559Y00658725D01*
Y00668930D01*
X00392826Y00669330D01*
X00393059Y00670500D01*
X00393059Y00670500D01*
Y00677860D01*
X00393637Y00677975D01*
X00394919Y00678831D01*
X00395775Y00680113D01*
X00396076Y00681625D01*
Y00685375D01*
X00395775Y00686887D01*
X00394919Y00688169D01*
X00393637Y00689025D01*
X00392125Y00689326D01*
D02*
G37*
G36*
X00376125D02*
X00371875D01*
X00370363Y00689025D01*
X00369081Y00688169D01*
X00368225Y00686887D01*
X00367924Y00685375D01*
Y00681625D01*
X00368225Y00680113D01*
X00369081Y00678831D01*
X00370363Y00677975D01*
X00370941Y00677860D01*
Y00674267D01*
X00361937Y00665263D01*
X00361274Y00664271D01*
X00361041Y00663100D01*
X00361041Y00663100D01*
Y00658725D01*
X00359950Y00658273D01*
X00358749Y00657351D01*
X00357827Y00656150D01*
X00357248Y00654751D01*
X00357050Y00653250D01*
Y00629750D01*
X00357248Y00628249D01*
X00357827Y00626850D01*
X00358749Y00625649D01*
X00359950Y00624727D01*
X00361349Y00624148D01*
X00362850Y00623950D01*
X00365350D01*
X00366851Y00624148D01*
X00368250Y00624727D01*
X00369451Y00625649D01*
X00370373Y00626850D01*
X00370952Y00628249D01*
X00371150Y00629750D01*
Y00653250D01*
X00370952Y00654751D01*
X00370373Y00656150D01*
X00369451Y00657351D01*
X00368250Y00658273D01*
X00367159Y00658725D01*
Y00661833D01*
X00376163Y00670837D01*
X00376163Y00670837D01*
X00376826Y00671830D01*
X00377059Y00673000D01*
X00377059Y00673000D01*
Y00677860D01*
X00377637Y00677975D01*
X00378919Y00678831D01*
X00379775Y00680113D01*
X00380076Y00681625D01*
Y00685375D01*
X00379775Y00686887D01*
X00378919Y00688169D01*
X00377637Y00689025D01*
X00376125Y00689326D01*
D02*
G37*
G36*
X00345750Y00640250D02*
X00339950D01*
Y00623950D01*
X00341451Y00624148D01*
X00342850Y00624727D01*
X00344051Y00625649D01*
X00344973Y00626850D01*
X00345552Y00628249D01*
X00345750Y00629750D01*
Y00640250D01*
D02*
G37*
G36*
X00337450D02*
X00331650D01*
Y00629750D01*
X00331848Y00628249D01*
X00332427Y00626850D01*
X00333349Y00625649D01*
X00334550Y00624727D01*
X00335949Y00624148D01*
X00337450Y00623950D01*
Y00640250D01*
D02*
G37*
G36*
X00289150Y00659050D02*
X00286650D01*
X00285149Y00658852D01*
X00283750Y00658273D01*
X00282549Y00657351D01*
X00281627Y00656150D01*
X00281048Y00654751D01*
X00280850Y00653250D01*
Y00629750D01*
X00281048Y00628249D01*
X00281627Y00626850D01*
X00282549Y00625649D01*
X00283750Y00624727D01*
X00285149Y00624148D01*
X00286650Y00623950D01*
X00289150D01*
X00290651Y00624148D01*
X00292050Y00624727D01*
X00293251Y00625649D01*
X00294173Y00626850D01*
X00294752Y00628249D01*
X00294950Y00629750D01*
Y00653250D01*
X00294752Y00654751D01*
X00294173Y00656150D01*
X00293251Y00657351D01*
X00292050Y00658273D01*
X00290651Y00658852D01*
X00289150Y00659050D01*
D02*
G37*
G36*
X00238350D02*
X00235850D01*
X00234349Y00658852D01*
X00232950Y00658273D01*
X00231749Y00657351D01*
X00230827Y00656150D01*
X00230248Y00654751D01*
X00230050Y00653250D01*
Y00629750D01*
X00230248Y00628249D01*
X00230827Y00626850D01*
X00231749Y00625649D01*
X00232950Y00624727D01*
X00234349Y00624148D01*
X00235850Y00623950D01*
X00238350D01*
X00239851Y00624148D01*
X00241250Y00624727D01*
X00242451Y00625649D01*
X00243373Y00626850D01*
X00243952Y00628249D01*
X00244150Y00629750D01*
Y00653250D01*
X00243952Y00654751D01*
X00243373Y00656150D01*
X00242451Y00657351D01*
X00241250Y00658273D01*
X00239851Y00658852D01*
X00238350Y00659050D01*
D02*
G37*
G36*
X00212950D02*
X00210450D01*
X00208949Y00658852D01*
X00207550Y00658273D01*
X00206349Y00657351D01*
X00205427Y00656150D01*
X00204848Y00654751D01*
X00204650Y00653250D01*
Y00629750D01*
X00204848Y00628249D01*
X00205427Y00626850D01*
X00206349Y00625649D01*
X00207550Y00624727D01*
X00208949Y00624148D01*
X00210450Y00623950D01*
X00212950D01*
X00214451Y00624148D01*
X00215850Y00624727D01*
X00217051Y00625649D01*
X00217973Y00626850D01*
X00218552Y00628249D01*
X00218750Y00629750D01*
Y00653250D01*
X00218552Y00654751D01*
X00217973Y00656150D01*
X00217051Y00657351D01*
X00215850Y00658273D01*
X00214451Y00658852D01*
X00212950Y00659050D01*
D02*
G37*
G36*
X00187550D02*
X00185050D01*
X00183549Y00658852D01*
X00182150Y00658273D01*
X00180949Y00657351D01*
X00180027Y00656150D01*
X00179448Y00654751D01*
X00179250Y00653250D01*
Y00629750D01*
X00179448Y00628249D01*
X00180027Y00626850D01*
X00180949Y00625649D01*
X00182150Y00624727D01*
X00183549Y00624148D01*
X00185050Y00623950D01*
X00187550D01*
X00189051Y00624148D01*
X00190450Y00624727D01*
X00191651Y00625649D01*
X00192573Y00626850D01*
X00193152Y00628249D01*
X00193350Y00629750D01*
Y00653250D01*
X00193152Y00654751D01*
X00192573Y00656150D01*
X00191651Y00657351D01*
X00190450Y00658273D01*
X00189051Y00658852D01*
X00187550Y00659050D01*
D02*
G37*
G36*
X00167950Y00640250D02*
X00162150D01*
Y00623950D01*
X00163651Y00624148D01*
X00165050Y00624727D01*
X00166251Y00625649D01*
X00167173Y00626850D01*
X00167752Y00628249D01*
X00167950Y00629750D01*
Y00640250D01*
D02*
G37*
G36*
X00159650D02*
X00153850D01*
Y00629750D01*
X00154048Y00628249D01*
X00154627Y00626850D01*
X00155549Y00625649D01*
X00156750Y00624727D01*
X00158149Y00624148D01*
X00159650Y00623950D01*
Y00640250D01*
D02*
G37*
G36*
X00136750Y00659050D02*
X00134250D01*
X00132749Y00658852D01*
X00131350Y00658273D01*
X00130149Y00657351D01*
X00129228Y00656150D01*
X00128648Y00654751D01*
X00128450Y00653250D01*
Y00629750D01*
X00128648Y00628249D01*
X00129228Y00626850D01*
X00129700Y00626234D01*
Y00623296D01*
X00128704Y00622300D01*
X00115900D01*
Y00626234D01*
X00116373Y00626850D01*
X00116952Y00628249D01*
X00117150Y00629750D01*
Y00653250D01*
X00116952Y00654751D01*
X00116373Y00656150D01*
X00115451Y00657351D01*
X00114250Y00658273D01*
X00112851Y00658852D01*
X00111350Y00659050D01*
X00108850D01*
X00107349Y00658852D01*
X00105950Y00658273D01*
X00104749Y00657351D01*
X00103827Y00656150D01*
X00103248Y00654751D01*
X00103050Y00653250D01*
Y00629750D01*
X00103248Y00628249D01*
X00103827Y00626850D01*
X00104300Y00626234D01*
Y00622300D01*
X00098441D01*
X00098030Y00622615D01*
X00096327Y00623320D01*
X00094500Y00623560D01*
X00080000D01*
X00078173Y00623320D01*
X00076470Y00622615D01*
X00075008Y00621493D01*
X00062007Y00608492D01*
X00060886Y00607030D01*
X00060180Y00605327D01*
X00059940Y00603500D01*
Y00418458D01*
X00060180Y00416630D01*
X00060886Y00414927D01*
X00062007Y00413465D01*
X00218465Y00257008D01*
X00219927Y00255886D01*
X00221630Y00255180D01*
X00223458Y00254940D01*
X00500500D01*
X00502327Y00255180D01*
X00504030Y00255886D01*
X00505493Y00257008D01*
X00538992Y00290508D01*
X00540115Y00291970D01*
X00540820Y00293673D01*
X00541060Y00295500D01*
Y00380500D01*
X00540820Y00382327D01*
X00540115Y00384030D01*
X00538992Y00385492D01*
X00532360Y00392124D01*
Y00424300D01*
X00532120Y00426127D01*
X00531414Y00427830D01*
X00530292Y00429292D01*
X00529888Y00429603D01*
Y00431727D01*
X00529969Y00431781D01*
X00530825Y00433063D01*
X00531126Y00434575D01*
Y00438825D01*
X00530825Y00440337D01*
X00529969Y00441619D01*
X00528687Y00442475D01*
X00527175Y00442776D01*
X00523425D01*
X00521913Y00442475D01*
X00520631Y00441619D01*
X00520410Y00441288D01*
X00516142D01*
X00514870Y00441815D01*
X00513500Y00441995D01*
X00512130Y00441815D01*
X00510852Y00441286D01*
X00509756Y00440444D01*
X00508914Y00439348D01*
X00508385Y00438070D01*
X00508205Y00436700D01*
X00508385Y00435330D01*
X00508914Y00434052D01*
X00509756Y00432956D01*
X00510852Y00432114D01*
X00512130Y00431585D01*
X00513500Y00431405D01*
X00514870Y00431585D01*
X00516142Y00432112D01*
X00520410D01*
X00520631Y00431781D01*
X00520712Y00431727D01*
Y00429603D01*
X00520308Y00429292D01*
X00519185Y00427830D01*
X00518480Y00426127D01*
X00518240Y00424300D01*
Y00389200D01*
X00518480Y00387373D01*
X00519185Y00385670D01*
X00520308Y00384208D01*
X00526940Y00377575D01*
Y00298424D01*
X00497575Y00269060D01*
X00226382D01*
X00074060Y00421382D01*
Y00600575D01*
X00082924Y00609440D01*
X00094500D01*
X00096327Y00609680D01*
X00098030Y00610386D01*
X00098441Y00610700D01*
X00131107D01*
X00132608Y00610898D01*
X00134006Y00611477D01*
X00135208Y00612399D01*
X00139601Y00616792D01*
X00140523Y00617994D01*
X00141102Y00619392D01*
X00141300Y00620893D01*
Y00626234D01*
X00141773Y00626850D01*
X00142352Y00628249D01*
X00142550Y00629750D01*
Y00653250D01*
X00142352Y00654751D01*
X00141773Y00656150D01*
X00140851Y00657351D01*
X00139650Y00658273D01*
X00138251Y00658852D01*
X00136750Y00659050D01*
D02*
G37*
G36*
X00318221Y00617422D02*
X00318221Y00617422D01*
X00242833D01*
X00242832Y00617422D01*
X00241662Y00617189D01*
X00240669Y00616526D01*
X00240669Y00616526D01*
X00234937Y00610794D01*
X00234274Y00609801D01*
X00234041Y00608631D01*
X00234041Y00608631D01*
Y00604725D01*
X00232950Y00604273D01*
X00231749Y00603351D01*
X00230827Y00602150D01*
X00230248Y00600751D01*
X00230050Y00599250D01*
Y00575750D01*
X00230248Y00574249D01*
X00230827Y00572850D01*
X00231749Y00571649D01*
X00232950Y00570727D01*
X00234349Y00570148D01*
X00235850Y00569950D01*
X00238350D01*
X00239851Y00570148D01*
X00241250Y00570727D01*
X00242451Y00571649D01*
X00243373Y00572850D01*
X00243952Y00574249D01*
X00244150Y00575750D01*
Y00599250D01*
X00243952Y00600751D01*
X00243373Y00602150D01*
X00242451Y00603351D01*
X00241250Y00604273D01*
X00240159Y00604725D01*
Y00607364D01*
X00244099Y00611304D01*
X00316954D01*
X00322941Y00605317D01*
Y00558500D01*
X00322941Y00558500D01*
X00323174Y00557329D01*
X00323837Y00556337D01*
X00328441Y00551733D01*
Y00548140D01*
X00327863Y00548025D01*
X00326581Y00547169D01*
X00325725Y00545887D01*
X00325424Y00544375D01*
Y00540625D01*
X00325725Y00539113D01*
X00326581Y00537831D01*
X00327863Y00536975D01*
X00329375Y00536674D01*
X00333625D01*
X00335137Y00536975D01*
X00336419Y00537831D01*
X00337275Y00539113D01*
X00337576Y00540625D01*
Y00544375D01*
X00337275Y00545887D01*
X00336419Y00547169D01*
X00335137Y00548025D01*
X00334559Y00548140D01*
Y00553000D01*
X00334559Y00553000D01*
X00334326Y00554170D01*
X00333663Y00555163D01*
X00333663Y00555163D01*
X00329059Y00559767D01*
Y00606584D01*
X00328826Y00607754D01*
X00328163Y00608747D01*
X00328163Y00608747D01*
X00320384Y00616526D01*
X00319391Y00617189D01*
X00318221Y00617422D01*
D02*
G37*
G36*
X00416150Y00605050D02*
Y00588750D01*
X00421950D01*
Y00599250D01*
X00421752Y00600751D01*
X00421173Y00602150D01*
X00420251Y00603351D01*
X00419050Y00604273D01*
X00417651Y00604852D01*
X00416150Y00605050D01*
D02*
G37*
G36*
X00413650D02*
X00412149Y00604852D01*
X00410750Y00604273D01*
X00409549Y00603351D01*
X00408627Y00602150D01*
X00408048Y00600751D01*
X00407850Y00599250D01*
Y00588750D01*
X00413650D01*
Y00605050D01*
D02*
G37*
G36*
X00212950Y00605050D02*
Y00588750D01*
X00218750D01*
Y00599250D01*
X00218552Y00600751D01*
X00217973Y00602150D01*
X00217051Y00603351D01*
X00215850Y00604273D01*
X00214451Y00604852D01*
X00212950Y00605050D01*
D02*
G37*
G36*
X00210450D02*
X00208949Y00604852D01*
X00207550Y00604273D01*
X00206349Y00603351D01*
X00205427Y00602150D01*
X00204848Y00600751D01*
X00204650Y00599250D01*
Y00588750D01*
X00210450D01*
Y00605050D01*
D02*
G37*
G36*
X00421950Y00586250D02*
X00416150D01*
Y00569950D01*
X00417651Y00570148D01*
X00419050Y00570727D01*
X00420251Y00571649D01*
X00421173Y00572850D01*
X00421752Y00574249D01*
X00421950Y00575750D01*
Y00586250D01*
D02*
G37*
G36*
X00413650D02*
X00407850D01*
Y00575750D01*
X00408048Y00574249D01*
X00408627Y00572850D01*
X00409549Y00571649D01*
X00410750Y00570727D01*
X00412149Y00570148D01*
X00413650Y00569950D01*
Y00586250D01*
D02*
G37*
G36*
X00289150Y00605050D02*
X00286650D01*
X00285149Y00604852D01*
X00283750Y00604273D01*
X00282549Y00603351D01*
X00281627Y00602150D01*
X00281048Y00600751D01*
X00280850Y00599250D01*
Y00575750D01*
X00281048Y00574249D01*
X00281627Y00572850D01*
X00282549Y00571649D01*
X00283750Y00570727D01*
X00285149Y00570148D01*
X00286650Y00569950D01*
X00289150D01*
X00290651Y00570148D01*
X00292050Y00570727D01*
X00293251Y00571649D01*
X00294173Y00572850D01*
X00294752Y00574249D01*
X00294950Y00575750D01*
Y00599250D01*
X00294752Y00600751D01*
X00294173Y00602150D01*
X00293251Y00603351D01*
X00292050Y00604273D01*
X00290651Y00604852D01*
X00289150Y00605050D01*
D02*
G37*
G36*
X00263750D02*
X00261250D01*
X00259749Y00604852D01*
X00258350Y00604273D01*
X00257149Y00603351D01*
X00256227Y00602150D01*
X00255648Y00600751D01*
X00255450Y00599250D01*
Y00575750D01*
X00255648Y00574249D01*
X00256227Y00572850D01*
X00257149Y00571649D01*
X00258350Y00570727D01*
X00259749Y00570148D01*
X00261250Y00569950D01*
X00263750D01*
X00265251Y00570148D01*
X00266650Y00570727D01*
X00267851Y00571649D01*
X00268773Y00572850D01*
X00269352Y00574249D01*
X00269550Y00575750D01*
Y00599250D01*
X00269352Y00600751D01*
X00268773Y00602150D01*
X00267851Y00603351D01*
X00266650Y00604273D01*
X00265251Y00604852D01*
X00263750Y00605050D01*
D02*
G37*
G36*
X00187550D02*
X00185050D01*
X00183549Y00604852D01*
X00182150Y00604273D01*
X00180949Y00603351D01*
X00180027Y00602150D01*
X00179448Y00600751D01*
X00179250Y00599250D01*
Y00575750D01*
X00179448Y00574249D01*
X00180027Y00572850D01*
X00180949Y00571649D01*
X00182150Y00570727D01*
X00183549Y00570148D01*
X00185050Y00569950D01*
X00187550D01*
X00189051Y00570148D01*
X00190450Y00570727D01*
X00191651Y00571649D01*
X00192573Y00572850D01*
X00193152Y00574249D01*
X00193350Y00575750D01*
Y00599250D01*
X00193152Y00600751D01*
X00192573Y00602150D01*
X00191651Y00603351D01*
X00190450Y00604273D01*
X00189051Y00604852D01*
X00187550Y00605050D01*
D02*
G37*
G36*
X00162150D02*
X00159650D01*
X00158149Y00604852D01*
X00156750Y00604273D01*
X00155549Y00603351D01*
X00154627Y00602150D01*
X00154048Y00600751D01*
X00153850Y00599250D01*
Y00575750D01*
X00154048Y00574249D01*
X00154627Y00572850D01*
X00155549Y00571649D01*
X00156750Y00570727D01*
X00158149Y00570148D01*
X00159650Y00569950D01*
X00162150D01*
X00163651Y00570148D01*
X00165050Y00570727D01*
X00166251Y00571649D01*
X00167173Y00572850D01*
X00167752Y00574249D01*
X00167950Y00575750D01*
Y00599250D01*
X00167752Y00600751D01*
X00167173Y00602150D01*
X00166251Y00603351D01*
X00165050Y00604273D01*
X00163651Y00604852D01*
X00162150Y00605050D01*
D02*
G37*
G36*
X00136750D02*
X00134250D01*
X00132749Y00604852D01*
X00131350Y00604273D01*
X00130149Y00603351D01*
X00129227Y00602150D01*
X00128648Y00600751D01*
X00128450Y00599250D01*
Y00575750D01*
X00128648Y00574249D01*
X00129227Y00572850D01*
X00130149Y00571649D01*
X00131350Y00570727D01*
X00132749Y00570148D01*
X00134250Y00569950D01*
X00136750D01*
X00138251Y00570148D01*
X00139650Y00570727D01*
X00140851Y00571649D01*
X00141773Y00572850D01*
X00142352Y00574249D01*
X00142550Y00575750D01*
Y00599250D01*
X00142352Y00600751D01*
X00141773Y00602150D01*
X00140851Y00603351D01*
X00139650Y00604273D01*
X00138251Y00604852D01*
X00136750Y00605050D01*
D02*
G37*
G36*
X00218750Y00586250D02*
X00212950D01*
Y00569950D01*
X00214451Y00570148D01*
X00215850Y00570727D01*
X00217051Y00571649D01*
X00217973Y00572850D01*
X00218552Y00574249D01*
X00218750Y00575750D01*
Y00586250D01*
D02*
G37*
G36*
X00210450D02*
X00204650D01*
Y00575750D01*
X00204848Y00574249D01*
X00205427Y00572850D01*
X00206349Y00571649D01*
X00207550Y00570727D01*
X00208949Y00570148D01*
X00210450Y00569950D01*
Y00586250D01*
D02*
G37*
G36*
X00825000Y00639830D02*
X00820127Y00639511D01*
X00815338Y00638558D01*
X00810714Y00636988D01*
X00806335Y00634829D01*
X00802275Y00632116D01*
X00798604Y00628896D01*
X00795384Y00625225D01*
X00792671Y00621165D01*
X00790512Y00616786D01*
X00788942Y00612162D01*
X00787989Y00607373D01*
X00787670Y00602500D01*
X00787989Y00597627D01*
X00788942Y00592838D01*
X00790512Y00588214D01*
X00792671Y00583835D01*
X00795384Y00579775D01*
X00798604Y00576104D01*
X00802275Y00572884D01*
X00806335Y00570171D01*
X00810714Y00568012D01*
X00815338Y00566442D01*
X00820127Y00565489D01*
X00825000Y00565170D01*
X00829873Y00565489D01*
X00834662Y00566442D01*
X00839286Y00568012D01*
X00843665Y00570171D01*
X00847725Y00572884D01*
X00851396Y00576104D01*
X00854616Y00579775D01*
X00857329Y00583835D01*
X00859488Y00588214D01*
X00861058Y00592838D01*
X00862010Y00597627D01*
X00862330Y00602500D01*
X00862010Y00607373D01*
X00861058Y00612162D01*
X00859488Y00616786D01*
X00857329Y00621165D01*
X00854616Y00625225D01*
X00851396Y00628896D01*
X00847725Y00632116D01*
X00843665Y00634829D01*
X00839286Y00636988D01*
X00834662Y00638558D01*
X00829873Y00639511D01*
X00825000Y00639830D01*
D02*
G37*
G36*
X00365350Y00605050D02*
X00362850D01*
X00361349Y00604852D01*
X00359950Y00604273D01*
X00358749Y00603351D01*
X00357827Y00602150D01*
X00357248Y00600751D01*
X00357050Y00599250D01*
Y00575750D01*
X00357248Y00574249D01*
X00357827Y00572850D01*
X00358749Y00571649D01*
X00359950Y00570727D01*
X00360941Y00570317D01*
Y00558570D01*
X00360674Y00558171D01*
X00360441Y00557000D01*
X00360441Y00557000D01*
Y00548140D01*
X00359863Y00548025D01*
X00358581Y00547169D01*
X00357725Y00545887D01*
X00357424Y00544375D01*
Y00540625D01*
X00357725Y00539113D01*
X00358581Y00537831D01*
X00359863Y00536975D01*
X00361375Y00536674D01*
X00365625D01*
X00367137Y00536975D01*
X00368419Y00537831D01*
X00369275Y00539113D01*
X00369576Y00540625D01*
Y00544375D01*
X00369275Y00545887D01*
X00368419Y00547169D01*
X00367137Y00548025D01*
X00366559Y00548140D01*
Y00555930D01*
X00366826Y00556329D01*
X00367059Y00557500D01*
Y00570234D01*
X00368250Y00570727D01*
X00369451Y00571649D01*
X00370373Y00572850D01*
X00370952Y00574249D01*
X00371150Y00575750D01*
Y00599250D01*
X00370952Y00600751D01*
X00370373Y00602150D01*
X00369451Y00603351D01*
X00368250Y00604273D01*
X00366851Y00604852D01*
X00365350Y00605050D01*
D02*
G37*
G36*
X00339950D02*
X00337450D01*
X00335949Y00604852D01*
X00334550Y00604273D01*
X00333349Y00603351D01*
X00332427Y00602150D01*
X00331848Y00600751D01*
X00331650Y00599250D01*
Y00575750D01*
X00331848Y00574249D01*
X00332427Y00572850D01*
X00333349Y00571649D01*
X00334550Y00570727D01*
X00335641Y00570275D01*
Y00562800D01*
X00335641Y00562800D01*
X00335874Y00561629D01*
X00336537Y00560637D01*
X00344441Y00552733D01*
Y00548140D01*
X00343863Y00548025D01*
X00342581Y00547169D01*
X00341725Y00545887D01*
X00341424Y00544375D01*
Y00540625D01*
X00341725Y00539113D01*
X00342581Y00537831D01*
X00343863Y00536975D01*
X00345375Y00536674D01*
X00349625D01*
X00351137Y00536975D01*
X00352419Y00537831D01*
X00353275Y00539113D01*
X00353576Y00540625D01*
Y00544375D01*
X00353275Y00545887D01*
X00352419Y00547169D01*
X00351137Y00548025D01*
X00350559Y00548140D01*
Y00554000D01*
X00350559Y00554000D01*
X00350326Y00555171D01*
X00349663Y00556163D01*
X00349663Y00556163D01*
X00341759Y00564067D01*
Y00570275D01*
X00342850Y00570727D01*
X00344051Y00571649D01*
X00344973Y00572850D01*
X00345552Y00574249D01*
X00345750Y00575750D01*
Y00599250D01*
X00345552Y00600751D01*
X00344973Y00602150D01*
X00344051Y00603351D01*
X00342850Y00604273D01*
X00341451Y00604852D01*
X00339950Y00605050D01*
D02*
G37*
G36*
X00390750D02*
X00388250D01*
X00386749Y00604852D01*
X00385350Y00604273D01*
X00384149Y00603351D01*
X00383227Y00602150D01*
X00382648Y00600751D01*
X00382450Y00599250D01*
Y00575750D01*
X00382648Y00574249D01*
X00383227Y00572850D01*
X00384149Y00571649D01*
X00385350Y00570727D01*
X00386441Y00570275D01*
Y00566267D01*
X00377337Y00557163D01*
X00376674Y00556171D01*
X00376441Y00555000D01*
X00376441Y00555000D01*
Y00548140D01*
X00375863Y00548025D01*
X00374581Y00547169D01*
X00373725Y00545887D01*
X00373424Y00544375D01*
Y00540625D01*
X00373725Y00539113D01*
X00374581Y00537831D01*
X00375863Y00536975D01*
X00377375Y00536674D01*
X00381625D01*
X00383137Y00536975D01*
X00384419Y00537831D01*
X00385275Y00539113D01*
X00385576Y00540625D01*
Y00544375D01*
X00385275Y00545887D01*
X00384419Y00547169D01*
X00383137Y00548025D01*
X00382559Y00548140D01*
Y00553733D01*
X00391663Y00562837D01*
X00391663Y00562837D01*
X00392326Y00563829D01*
X00392559Y00565000D01*
Y00570275D01*
X00393650Y00570727D01*
X00394851Y00571649D01*
X00395773Y00572850D01*
X00396352Y00574249D01*
X00396550Y00575750D01*
Y00599250D01*
X00396352Y00600751D01*
X00395773Y00602150D01*
X00394851Y00603351D01*
X00393650Y00604273D01*
X00392251Y00604852D01*
X00390750Y00605050D01*
D02*
G37*
G36*
X00565000Y00497795D02*
X00563629Y00497615D01*
X00562352Y00497086D01*
X00561256Y00496244D01*
X00560414Y00495148D01*
X00559885Y00493871D01*
X00559705Y00492500D01*
X00559885Y00491129D01*
X00560414Y00489852D01*
X00561256Y00488756D01*
X00562352Y00487914D01*
X00563629Y00487385D01*
X00565000Y00487205D01*
X00566371Y00487385D01*
X00567642Y00487912D01*
X00620600D01*
X00646156Y00462356D01*
X00647644Y00461361D01*
X00649400Y00461012D01*
X00692958D01*
X00694230Y00460485D01*
X00695600Y00460305D01*
X00696971Y00460485D01*
X00698248Y00461014D01*
X00699344Y00461856D01*
X00700186Y00462952D01*
X00700715Y00464230D01*
X00700895Y00465600D01*
X00700715Y00466970D01*
X00700186Y00468248D01*
X00699344Y00469344D01*
X00698248Y00470186D01*
X00696971Y00470715D01*
X00695600Y00470895D01*
X00694230Y00470715D01*
X00692958Y00470188D01*
X00651300D01*
X00625744Y00495744D01*
X00624256Y00496739D01*
X00622500Y00497088D01*
X00567642D01*
X00566371Y00497615D01*
X00565000Y00497795D01*
D02*
G37*
G36*
X00422684Y00708725D02*
X00422684Y00708725D01*
X00407754D01*
X00406584Y00708492D01*
X00405591Y00707829D01*
X00405591Y00707829D01*
X00404004Y00706241D01*
X00403341Y00705249D01*
X00403128Y00704177D01*
X00402363Y00704025D01*
X00401081Y00703169D01*
X00400225Y00701887D01*
X00399924Y00700375D01*
Y00696625D01*
X00400225Y00695113D01*
X00401081Y00693831D01*
X00402363Y00692975D01*
X00403875Y00692674D01*
X00408125D01*
X00409637Y00692975D01*
X00410919Y00693831D01*
X00411775Y00695113D01*
X00412076Y00696625D01*
Y00700375D01*
X00412030Y00700607D01*
X00413516Y00702607D01*
X00421417D01*
X00452662Y00671362D01*
Y00451382D01*
X00452662Y00451382D01*
X00452895Y00450212D01*
X00453558Y00449219D01*
X00459641Y00443136D01*
Y00442155D01*
X00458659Y00440057D01*
X00458114Y00439348D01*
X00457585Y00438070D01*
X00457405Y00436700D01*
X00457585Y00435330D01*
X00458114Y00434052D01*
X00458956Y00432956D01*
X00460052Y00432114D01*
X00461329Y00431585D01*
X00462700Y00431405D01*
X00464071Y00431585D01*
X00465348Y00432114D01*
X00466444Y00432956D01*
X00467286Y00434052D01*
X00467815Y00435330D01*
X00467995Y00436700D01*
X00467815Y00438070D01*
X00467286Y00439348D01*
X00466741Y00440057D01*
X00465759Y00442155D01*
Y00444403D01*
X00465526Y00445574D01*
X00464863Y00446566D01*
X00464863Y00446566D01*
X00458780Y00452649D01*
Y00672629D01*
X00458547Y00673800D01*
X00457884Y00674792D01*
X00457884Y00674792D01*
X00424847Y00707829D01*
X00423855Y00708492D01*
X00422684Y00708725D01*
D02*
G37*
G36*
X00381625Y00533326D02*
X00377375D01*
X00375863Y00533025D01*
X00374581Y00532169D01*
X00373725Y00530887D01*
X00373424Y00529375D01*
Y00525625D01*
X00373725Y00524113D01*
X00374581Y00522831D01*
X00375863Y00521975D01*
X00376441Y00521860D01*
Y00512000D01*
X00376441Y00512000D01*
X00376674Y00510830D01*
X00377337Y00509837D01*
X00434241Y00452933D01*
Y00442155D01*
X00433259Y00440057D01*
X00432714Y00439348D01*
X00432185Y00438070D01*
X00432005Y00436700D01*
X00432185Y00435330D01*
X00432714Y00434052D01*
X00433556Y00432956D01*
X00434652Y00432114D01*
X00435929Y00431585D01*
X00437300Y00431405D01*
X00438671Y00431585D01*
X00439948Y00432114D01*
X00441044Y00432956D01*
X00441886Y00434052D01*
X00442415Y00435330D01*
X00442595Y00436700D01*
X00442415Y00438070D01*
X00441886Y00439348D01*
X00441341Y00440057D01*
X00440359Y00442155D01*
Y00454200D01*
X00440126Y00455371D01*
X00439463Y00456363D01*
X00439463Y00456363D01*
X00382559Y00513267D01*
Y00521860D01*
X00383137Y00521975D01*
X00384419Y00522831D01*
X00385275Y00524113D01*
X00385576Y00525625D01*
Y00529375D01*
X00385275Y00530887D01*
X00384419Y00532169D01*
X00383137Y00533025D01*
X00381625Y00533326D01*
D02*
G37*
G36*
X00365625D02*
X00361375D01*
X00359863Y00533025D01*
X00358581Y00532169D01*
X00357725Y00530887D01*
X00357424Y00529375D01*
Y00525625D01*
X00357725Y00524113D01*
X00358581Y00522831D01*
X00359863Y00521975D01*
X00360441Y00521860D01*
Y00511500D01*
X00360441Y00511500D01*
X00360674Y00510330D01*
X00361337Y00509337D01*
X00408841Y00461833D01*
Y00442155D01*
X00407859Y00440057D01*
X00407314Y00439348D01*
X00406785Y00438070D01*
X00406605Y00436700D01*
X00406785Y00435330D01*
X00407314Y00434052D01*
X00408156Y00432956D01*
X00409252Y00432114D01*
X00410530Y00431585D01*
X00411900Y00431405D01*
X00413270Y00431585D01*
X00414548Y00432114D01*
X00415644Y00432956D01*
X00416486Y00434052D01*
X00417015Y00435330D01*
X00417195Y00436700D01*
X00417015Y00438070D01*
X00416486Y00439348D01*
X00415941Y00440057D01*
X00414959Y00442155D01*
Y00463100D01*
X00414959Y00463100D01*
X00414726Y00464271D01*
X00414063Y00465263D01*
X00366559Y00512767D01*
Y00521860D01*
X00367137Y00521975D01*
X00368419Y00522831D01*
X00369275Y00524113D01*
X00369576Y00525625D01*
Y00529375D01*
X00369275Y00530887D01*
X00368419Y00532169D01*
X00367137Y00533025D01*
X00365625Y00533326D01*
D02*
G37*
G36*
X00111350Y00605050D02*
X00108850D01*
X00107349Y00604852D01*
X00105950Y00604273D01*
X00104749Y00603351D01*
X00103827Y00602150D01*
X00103248Y00600751D01*
X00103050Y00599250D01*
Y00575750D01*
X00103248Y00574249D01*
X00103827Y00572850D01*
X00104300Y00572234D01*
Y00553900D01*
X00104498Y00552399D01*
X00105077Y00551000D01*
X00105999Y00549799D01*
X00112399Y00543399D01*
X00113600Y00542477D01*
X00114999Y00541898D01*
X00116500Y00541700D01*
X00307500D01*
Y00490200D01*
X00307698Y00488699D01*
X00308277Y00487300D01*
X00309199Y00486099D01*
X00329900Y00465398D01*
Y00458000D01*
X00330098Y00456499D01*
X00330677Y00455100D01*
X00330697Y00455074D01*
X00331031Y00453219D01*
X00330175Y00451937D01*
X00329874Y00450425D01*
Y00446175D01*
X00330175Y00444663D01*
X00331031Y00443381D01*
X00331112Y00443327D01*
Y00439342D01*
X00330585Y00438070D01*
X00330405Y00436700D01*
X00330585Y00435330D01*
X00331114Y00434052D01*
X00331956Y00432956D01*
X00333052Y00432114D01*
X00334329Y00431585D01*
X00335700Y00431405D01*
X00337071Y00431585D01*
X00338348Y00432114D01*
X00339444Y00432956D01*
X00340286Y00434052D01*
X00340815Y00435330D01*
X00340995Y00436700D01*
X00340815Y00438070D01*
X00340288Y00439342D01*
Y00443327D01*
X00340369Y00443381D01*
X00341225Y00444663D01*
X00341526Y00446175D01*
Y00450425D01*
X00341225Y00451937D01*
X00340369Y00453219D01*
X00340703Y00455074D01*
X00340723Y00455100D01*
X00341302Y00456499D01*
X00341500Y00458000D01*
Y00467800D01*
X00341302Y00469301D01*
X00340723Y00470700D01*
X00339801Y00471901D01*
X00319100Y00492602D01*
Y00548674D01*
Y00572234D01*
X00319573Y00572850D01*
X00320152Y00574249D01*
X00320350Y00575750D01*
Y00599250D01*
X00320152Y00600751D01*
X00319573Y00602150D01*
X00318651Y00603351D01*
X00317450Y00604273D01*
X00316051Y00604852D01*
X00314550Y00605050D01*
X00312050D01*
X00310549Y00604852D01*
X00309150Y00604273D01*
X00307949Y00603351D01*
X00307027Y00602150D01*
X00306448Y00600751D01*
X00306250Y00599250D01*
Y00575750D01*
X00306448Y00574249D01*
X00307027Y00572850D01*
X00307500Y00572234D01*
Y00553300D01*
X00118902D01*
X00115900Y00556302D01*
Y00572234D01*
X00116373Y00572850D01*
X00116952Y00574249D01*
X00117150Y00575750D01*
Y00599250D01*
X00116952Y00600751D01*
X00116373Y00602150D01*
X00115451Y00603351D01*
X00114250Y00604273D01*
X00112851Y00604852D01*
X00111350Y00605050D01*
D02*
G37*
G36*
X00349625Y00533326D02*
X00345375D01*
X00343863Y00533025D01*
X00342581Y00532169D01*
X00341725Y00530887D01*
X00341424Y00529375D01*
Y00525625D01*
X00341725Y00524113D01*
X00342581Y00522831D01*
X00343863Y00521975D01*
X00344441Y00521860D01*
Y00502500D01*
X00344441Y00502500D01*
X00344674Y00501329D01*
X00345337Y00500337D01*
X00386441Y00459233D01*
Y00408000D01*
X00386441Y00408000D01*
X00386674Y00406829D01*
X00387337Y00405837D01*
X00408841Y00384333D01*
Y00318755D01*
X00407859Y00316657D01*
X00407314Y00315948D01*
X00406785Y00314671D01*
X00406605Y00313300D01*
X00406785Y00311929D01*
X00407314Y00310652D01*
X00408156Y00309556D01*
X00409252Y00308714D01*
X00410530Y00308185D01*
X00411900Y00308005D01*
X00413270Y00308185D01*
X00414548Y00308714D01*
X00415644Y00309556D01*
X00416486Y00310652D01*
X00417015Y00311929D01*
X00417195Y00313300D01*
X00417015Y00314671D01*
X00416486Y00315948D01*
X00415941Y00316657D01*
X00414959Y00318755D01*
Y00385600D01*
X00414726Y00386771D01*
X00414063Y00387763D01*
X00414063Y00387763D01*
X00392559Y00409267D01*
Y00460500D01*
X00392326Y00461671D01*
X00391663Y00462663D01*
X00391663Y00462663D01*
X00350559Y00503767D01*
Y00521860D01*
X00351137Y00521975D01*
X00352419Y00522831D01*
X00353275Y00524113D01*
X00353576Y00525625D01*
Y00529375D01*
X00353275Y00530887D01*
X00352419Y00532169D01*
X00351137Y00533025D01*
X00349625Y00533326D01*
D02*
G37*
G36*
X00333625Y00533326D02*
X00329375D01*
X00327863Y00533025D01*
X00326581Y00532169D01*
X00325725Y00530887D01*
X00325424Y00529375D01*
Y00525625D01*
X00325725Y00524113D01*
X00326581Y00522831D01*
X00327863Y00521975D01*
X00328441Y00521860D01*
Y00498500D01*
X00328441Y00498500D01*
X00328674Y00497329D01*
X00329337Y00496337D01*
X00369941Y00455733D01*
Y00401000D01*
X00369941Y00401000D01*
X00370174Y00399829D01*
X00370837Y00398837D01*
X00391941Y00377733D01*
Y00308500D01*
X00391941Y00308500D01*
X00392174Y00307330D01*
X00392837Y00306337D01*
X00405337Y00293837D01*
X00405337Y00293837D01*
X00406329Y00293174D01*
X00407500Y00292941D01*
X00430716D01*
X00430716Y00292941D01*
X00431887Y00293174D01*
X00432879Y00293837D01*
X00439463Y00300421D01*
X00439463Y00300421D01*
X00440126Y00301413D01*
X00440359Y00302584D01*
X00440359Y00302584D01*
Y00307845D01*
X00441341Y00309943D01*
X00441886Y00310652D01*
X00442415Y00311929D01*
X00442595Y00313300D01*
X00442415Y00314671D01*
X00441886Y00315948D01*
X00441044Y00317044D01*
X00439948Y00317886D01*
X00438671Y00318415D01*
X00437300Y00318595D01*
X00435929Y00318415D01*
X00434652Y00317886D01*
X00433556Y00317044D01*
X00432714Y00315948D01*
X00432185Y00314671D01*
X00432005Y00313300D01*
X00432185Y00311929D01*
X00432714Y00310652D01*
X00433259Y00309943D01*
X00434241Y00307845D01*
Y00303851D01*
X00429449Y00299059D01*
X00408767D01*
X00398059Y00309767D01*
Y00379000D01*
X00398059Y00379000D01*
X00397826Y00380171D01*
X00397163Y00381163D01*
X00397163Y00381163D01*
X00376059Y00402267D01*
Y00457000D01*
X00375826Y00458171D01*
X00375163Y00459163D01*
X00334559Y00499767D01*
Y00521860D01*
X00335137Y00521975D01*
X00336419Y00522831D01*
X00337275Y00524113D01*
X00337576Y00525625D01*
Y00529375D01*
X00337275Y00530887D01*
X00336419Y00532169D01*
X00335137Y00533025D01*
X00333625Y00533326D01*
D02*
G37*
G36*
X00825000Y00184830D02*
X00820127Y00184510D01*
X00815338Y00183558D01*
X00810714Y00181988D01*
X00806335Y00179828D01*
X00802275Y00177116D01*
X00798604Y00173896D01*
X00795384Y00170225D01*
X00792671Y00166165D01*
X00790512Y00161785D01*
X00788942Y00157162D01*
X00787989Y00152372D01*
X00787670Y00147500D01*
X00787989Y00142627D01*
X00788942Y00137838D01*
X00790512Y00133214D01*
X00792671Y00128835D01*
X00795384Y00124775D01*
X00798604Y00121104D01*
X00802275Y00117884D01*
X00806335Y00115171D01*
X00810714Y00113012D01*
X00815338Y00111442D01*
X00820127Y00110489D01*
X00825000Y00110170D01*
X00829873Y00110489D01*
X00834662Y00111442D01*
X00839286Y00113012D01*
X00843665Y00115171D01*
X00847725Y00117884D01*
X00851396Y00121104D01*
X00854616Y00124775D01*
X00857329Y00128835D01*
X00859488Y00133214D01*
X00861058Y00137838D01*
X00862010Y00142627D01*
X00862330Y00147500D01*
X00862010Y00152372D01*
X00861058Y00157162D01*
X00859488Y00161785D01*
X00857329Y00166165D01*
X00854616Y00170225D01*
X00851396Y00173896D01*
X00847725Y00177116D01*
X00843665Y00179828D01*
X00839286Y00181988D01*
X00834662Y00183558D01*
X00829873Y00184510D01*
X00825000Y00184830D01*
D02*
G37*
G36*
X00075000D02*
X00070128Y00184510D01*
X00065338Y00183558D01*
X00060715Y00181988D01*
X00056335Y00179828D01*
X00052275Y00177116D01*
X00048604Y00173896D01*
X00045384Y00170225D01*
X00042671Y00166165D01*
X00040512Y00161785D01*
X00038942Y00157162D01*
X00037989Y00152372D01*
X00037670Y00147500D01*
X00037989Y00142627D01*
X00038942Y00137838D01*
X00040512Y00133214D01*
X00042671Y00128835D01*
X00045384Y00124775D01*
X00048604Y00121104D01*
X00052275Y00117884D01*
X00056335Y00115171D01*
X00060715Y00113012D01*
X00065338Y00111442D01*
X00070128Y00110489D01*
X00075000Y00110170D01*
X00079873Y00110489D01*
X00084662Y00111442D01*
X00089286Y00113012D01*
X00093665Y00115171D01*
X00097725Y00117884D01*
X00101396Y00121104D01*
X00104616Y00124775D01*
X00107329Y00128835D01*
X00109488Y00133214D01*
X00111058Y00137838D01*
X00112011Y00142627D01*
X00112330Y00147500D01*
X00112011Y00152372D01*
X00111058Y00157162D01*
X00109488Y00161785D01*
X00107329Y00166165D01*
X00104616Y00170225D01*
X00101396Y00173896D01*
X00097725Y00177116D01*
X00093665Y00179828D01*
X00089286Y00181988D01*
X00084662Y00183558D01*
X00079873Y00184510D01*
X00075000Y00184830D01*
D02*
G37*
G36*
X00023000Y00092333D02*
X00019618Y00092000D01*
X00016367Y00091014D01*
X00013370Y00089412D01*
X00010743Y00087257D01*
X00008588Y00084630D01*
X00006986Y00081633D01*
X00006000Y00078382D01*
X00005667Y00075000D01*
X00006000Y00071618D01*
X00006986Y00068367D01*
X00008588Y00065370D01*
X00010743Y00062743D01*
X00013370Y00060588D01*
X00016367Y00058986D01*
X00019618Y00058000D01*
X00023000Y00057667D01*
X00026382Y00058000D01*
X00029633Y00058986D01*
X00032630Y00060588D01*
X00035257Y00062743D01*
X00037412Y00065370D01*
X00039014Y00068367D01*
X00040000Y00071618D01*
X00040333Y00075000D01*
X00040000Y00078382D01*
X00039014Y00081633D01*
X00037412Y00084630D01*
X00035257Y00087257D01*
X00032630Y00089412D01*
X00029633Y00091014D01*
X00026382Y00092000D01*
X00023000Y00092333D01*
D02*
G37*
G36*
X00728000Y00063000D02*
Y00039000D01*
X00767000Y00039000D01*
Y00063000D01*
X00728000Y00063000D01*
D02*
G37*
G36*
X00825000Y00087830D02*
X00820127Y00087510D01*
X00815338Y00086558D01*
X00810714Y00084988D01*
X00806335Y00082829D01*
X00802275Y00080116D01*
X00798604Y00076896D01*
X00795384Y00073225D01*
X00792671Y00069165D01*
X00790512Y00064785D01*
X00788942Y00060162D01*
X00787989Y00055372D01*
X00787670Y00050500D01*
X00787989Y00045627D01*
X00788942Y00040838D01*
X00790512Y00036214D01*
X00792671Y00031835D01*
X00795384Y00027775D01*
X00798604Y00024104D01*
X00802275Y00020884D01*
X00806335Y00018171D01*
X00810714Y00016012D01*
X00815338Y00014442D01*
X00820127Y00013489D01*
X00825000Y00013170D01*
X00829873Y00013489D01*
X00834662Y00014442D01*
X00839286Y00016012D01*
X00843665Y00018171D01*
X00847725Y00020884D01*
X00851396Y00024104D01*
X00854616Y00027775D01*
X00857329Y00031835D01*
X00859488Y00036214D01*
X00861058Y00040838D01*
X00862010Y00045627D01*
X00862330Y00050500D01*
X00862010Y00055372D01*
X00861058Y00060162D01*
X00859488Y00064785D01*
X00857329Y00069165D01*
X00854616Y00073225D01*
X00851396Y00076896D01*
X00847725Y00080116D01*
X00843665Y00082829D01*
X00839286Y00084988D01*
X00834662Y00086558D01*
X00829873Y00087510D01*
X00825000Y00087830D01*
D02*
G37*
G36*
X00075000D02*
X00070128Y00087510D01*
X00065338Y00086558D01*
X00060715Y00084988D01*
X00056335Y00082829D01*
X00052275Y00080116D01*
X00048604Y00076896D01*
X00045384Y00073225D01*
X00042671Y00069165D01*
X00040512Y00064785D01*
X00038942Y00060162D01*
X00037989Y00055372D01*
X00037670Y00050500D01*
X00037989Y00045627D01*
X00038942Y00040838D01*
X00040512Y00036214D01*
X00042671Y00031835D01*
X00045384Y00027775D01*
X00048604Y00024104D01*
X00052275Y00020884D01*
X00056335Y00018171D01*
X00060715Y00016012D01*
X00065338Y00014442D01*
X00070128Y00013489D01*
X00075000Y00013170D01*
X00079873Y00013489D01*
X00084662Y00014442D01*
X00089286Y00016012D01*
X00093665Y00018171D01*
X00097725Y00020884D01*
X00101396Y00024104D01*
X00104616Y00027775D01*
X00107329Y00031835D01*
X00109488Y00036214D01*
X00111058Y00040838D01*
X00112011Y00045627D01*
X00112330Y00050500D01*
X00112011Y00055372D01*
X00111058Y00060162D01*
X00109488Y00064785D01*
X00107329Y00069165D01*
X00104616Y00073225D01*
X00101396Y00076896D01*
X00097725Y00080116D01*
X00093665Y00082829D01*
X00089286Y00084988D01*
X00084662Y00086558D01*
X00079873Y00087510D01*
X00075000Y00087830D01*
D02*
G37*
%LPD*%
G36*
X00502275Y00462321D02*
X00497725D01*
X00499000Y00465042D01*
X00501000D01*
X00502275Y00462321D01*
D02*
G37*
G36*
X00464975Y00315621D02*
X00460425D01*
X00461700Y00318342D01*
X00463700D01*
X00464975Y00315621D01*
D02*
G37*
G36*
Y00439021D02*
X00460425D01*
X00461700Y00441742D01*
X00463700D01*
X00464975Y00439021D01*
D02*
G37*
G36*
X00439575D02*
X00435025D01*
X00436300Y00441742D01*
X00438300D01*
X00439575Y00439021D01*
D02*
G37*
G36*
X00414175D02*
X00409625D01*
X00410900Y00441742D01*
X00412900D01*
X00414175Y00439021D01*
D02*
G37*
G36*
Y00315621D02*
X00409625D01*
X00410900Y00318342D01*
X00412900D01*
X00414175Y00315621D01*
D02*
G37*
G36*
X00438300Y00308258D02*
X00436300D01*
X00435025Y00310979D01*
X00439575D01*
X00438300Y00308258D01*
D02*
G37*
D10*
X00565000Y00492500D02*
X00622500D01*
X00649400Y00465600D01*
X00695600D01*
X00525300Y00424300D02*
Y00436700D01*
X00335700Y00448300D02*
Y00458000D01*
X00414900Y00562500D02*
Y00587500D01*
Y00612500D01*
X00211700Y00587500D02*
Y00612500D01*
X00160900Y00616500D02*
Y00641500D01*
X00338700D02*
Y00666500D01*
Y00616500D02*
Y00641500D01*
X00262500Y00641500D02*
Y00666500D01*
X00160900Y00641500D02*
Y00666500D01*
X00211700Y00562500D02*
Y00587500D01*
X00540300Y00436700D02*
Y00447200D01*
Y00436700D02*
X00550800D01*
X00513500D02*
X00525300D01*
X00320700Y00448300D02*
Y00458800D01*
X00310200Y00448300D02*
X00320700D01*
X00335700Y00436700D02*
Y00448300D01*
D12*
X00737000Y00046000D02*
X00740332D01*
X00738666D01*
Y00055997D01*
X00737000Y00054331D01*
D13*
X00422684Y00705666D02*
X00455721Y00672629D01*
X00406167Y00704078D02*
X00407754Y00705666D01*
X00406167Y00698667D02*
Y00704078D01*
X00407754Y00705666D02*
X00422684D01*
X00406000Y00698500D02*
X00406167Y00698667D01*
X00237100Y00587500D02*
Y00608631D01*
X00242832Y00614363D02*
X00318221D01*
X00237100Y00608631D02*
X00242832Y00614363D01*
X00318221D02*
X00326000Y00606584D01*
Y00558500D02*
Y00606584D01*
X00432600Y00714309D02*
X00469571Y00677338D01*
X00396262Y00714309D02*
X00432600D01*
X00390000Y00708047D02*
X00396262Y00714309D01*
X00390000Y00698500D02*
Y00708047D01*
X00374000Y00713500D02*
X00383646Y00723146D01*
X00440649D01*
X00481742Y00682053D01*
X00455721Y00451382D02*
Y00672629D01*
X00358000Y00715000D02*
X00375269Y00732269D01*
X00447652D02*
X00493500Y00686420D01*
X00375269Y00732269D02*
X00447652D01*
X00481742Y00457408D02*
Y00682053D01*
X00488100Y00313300D02*
Y00451050D01*
X00481742Y00457408D02*
X00488100Y00451050D01*
X00500000Y00460000D02*
Y00470000D01*
X00493500Y00476500D02*
X00500000Y00470000D01*
X00469571Y00453229D02*
Y00677338D01*
X00493500Y00476500D02*
Y00686420D01*
X00462700Y00436700D02*
Y00444403D01*
X00455721Y00451382D02*
X00462700Y00444403D01*
X00313300Y00668627D02*
X00320100Y00675428D01*
X00356036D02*
X00358000Y00677391D01*
X00320100Y00675428D02*
X00356036D01*
X00358000Y00677391D02*
Y00683500D01*
X00313300Y00641500D02*
Y00668627D01*
X00326000Y00558500D02*
X00331500Y00553000D01*
X00475500Y00338933D02*
Y00447300D01*
X00469571Y00453229D02*
X00475500Y00447300D01*
X00462700Y00313300D02*
Y00326133D01*
X00475500Y00338933D01*
X00358000Y00698500D02*
Y00715000D01*
X00374000Y00698500D02*
Y00713500D01*
X00407500Y00296000D02*
X00430716D01*
X00437300Y00302584D01*
Y00313300D01*
X00395000Y00308500D02*
X00407500Y00296000D01*
X00395000Y00308500D02*
Y00379000D01*
X00373000Y00401000D02*
X00395000Y00379000D01*
X00373000Y00401000D02*
Y00457000D01*
X00331500Y00498500D02*
Y00527500D01*
Y00498500D02*
X00373000Y00457000D01*
X00389500Y00408000D02*
X00411900Y00385600D01*
Y00313300D02*
Y00385600D01*
X00389500Y00408000D02*
Y00460500D01*
X00347500Y00502500D02*
X00389500Y00460500D01*
X00347500Y00502500D02*
Y00527500D01*
X00411900Y00436700D02*
Y00463100D01*
X00363500Y00511500D02*
X00411900Y00463100D01*
X00363500Y00511500D02*
Y00527500D01*
X00437300Y00436700D02*
Y00454200D01*
X00379500Y00512000D02*
Y00527500D01*
Y00512000D02*
X00437300Y00454200D01*
X00364100Y00641500D02*
Y00663100D01*
X00374000Y00673000D02*
Y00683500D01*
X00364100Y00663100D02*
X00374000Y00673000D01*
X00406000Y00671500D02*
X00414900Y00662600D01*
Y00641500D02*
Y00662600D01*
X00406000Y00671500D02*
Y00683500D01*
X00389500Y00641500D02*
X00389500Y00641500D01*
Y00670000D01*
X00390000Y00670500D01*
Y00683500D01*
X00331500Y00542500D02*
Y00553000D01*
X00338700Y00562800D02*
Y00587500D01*
Y00562800D02*
X00347500Y00554000D01*
Y00542500D02*
Y00554000D01*
X00379500Y00542500D02*
Y00555000D01*
X00389500Y00565000D02*
Y00587500D01*
X00379500Y00555000D02*
X00389500Y00565000D01*
X00364000Y00557500D02*
Y00587400D01*
X00364100Y00587500D01*
X00363500Y00557000D02*
X00364000Y00557500D01*
X00363500Y00542500D02*
Y00557000D01*
X00730500Y00041500D02*
X00746500D01*
X00730500D02*
Y00060500D01*
X00746500D01*
Y00041500D02*
Y00060500D01*
D14*
X00900000Y00700000D02*
G03*
X00850000Y00750000I-00050000J00000000D01*
G01*
X00050000D02*
G03*
X00000000Y00700000I00000000J-00050000D01*
G01*
X00850000Y00000000D02*
G03*
X00900000Y00050000I00000000J00050000D01*
G01*
X00000000D02*
G03*
X00050000Y00000000I00050000J00000000D01*
G01*
Y00750000D02*
X00850000D01*
X00900000Y00700000D02*
X00900000Y00050000D01*
X-00000000Y00700000D02*
X00000000Y00050000D01*
X00050000Y00000000D02*
X00850000D01*
D21*
X00540300Y00436700D02*
D03*
X00525300D02*
D03*
X00335700Y00448300D02*
D03*
X00320700D02*
D03*
D22*
X00877000Y00675000D02*
D03*
X00023000Y00075000D02*
D03*
Y00675000D02*
D03*
D23*
X00374000Y00698500D02*
D03*
Y00683500D02*
D03*
X00358000Y00698500D02*
D03*
Y00683500D02*
D03*
X00406000Y00698500D02*
D03*
Y00683500D02*
D03*
X00390000Y00698500D02*
D03*
Y00683500D02*
D03*
X00379500Y00527500D02*
D03*
Y00542500D02*
D03*
X00363500Y00527500D02*
D03*
Y00542500D02*
D03*
X00347500Y00527500D02*
D03*
Y00542500D02*
D03*
X00331500Y00527500D02*
D03*
Y00542500D02*
D03*
D24*
X00414900Y00641500D02*
D03*
X00389500D02*
D03*
X00414900Y00587500D02*
D03*
X00389500D02*
D03*
X00338700Y00641500D02*
D03*
Y00587500D02*
D03*
X00313300Y00641500D02*
D03*
Y00587500D02*
D03*
X00364100Y00587500D02*
D03*
X00364100Y00641500D02*
D03*
X00287900D02*
D03*
X00262500Y00641500D02*
D03*
X00287900Y00587500D02*
D03*
X00262500D02*
D03*
X00211700Y00641500D02*
D03*
Y00587500D02*
D03*
X00186300Y00641500D02*
D03*
Y00587500D02*
D03*
X00110100D02*
D03*
Y00641500D02*
D03*
X00135500Y00587500D02*
D03*
X00135500Y00641500D02*
D03*
X00160900Y00587500D02*
D03*
X00160900Y00641500D02*
D03*
X00237100Y00587500D02*
D03*
Y00641500D02*
D03*
D25*
X00110100Y00616500D02*
X00131107D01*
X00094500D02*
X00110100D01*
Y00641500D01*
X00131107Y00616500D02*
X00135500Y00620893D01*
Y00641500D01*
X00110100Y00553900D02*
Y00587500D01*
X00116500Y00547500D02*
X00312126D01*
X00110100Y00553900D02*
X00116500Y00547500D01*
X00312126D02*
X00313300Y00548674D01*
X00335700Y00458000D02*
Y00467800D01*
X00313300Y00490200D02*
X00335700Y00467800D01*
X00313300Y00490200D02*
Y00548674D01*
Y00587500D01*
D26*
X00080000Y00616500D02*
X00094500D01*
X00067000Y00603500D02*
X00080000Y00616500D01*
X00067000Y00418458D02*
X00223458Y00262000D01*
X00500500D01*
X00067000Y00418458D02*
Y00603500D01*
X00500500Y00262000D02*
X00534000Y00295500D01*
Y00380500D01*
X00525300Y00389200D02*
X00534000Y00380500D01*
X00525300Y00389200D02*
Y00424300D01*
D27*
X00075000Y00699500D02*
D03*
X00825000D02*
D03*
Y00602500D02*
D03*
X00075000Y00147500D02*
D03*
X00825000D02*
D03*
Y00050500D02*
D03*
X00075000D02*
D03*
D28*
X00695600Y00465600D02*
D03*
X00565000Y00492500D02*
D03*
X00715800Y00414800D02*
D03*
Y00440200D02*
D03*
X00564300Y00313300D02*
D03*
X00488100D02*
D03*
X00414900Y00562500D02*
D03*
Y00612500D02*
D03*
X00211700Y00612500D02*
D03*
X00160900Y00616500D02*
D03*
X00338700Y00666500D02*
D03*
Y00616500D02*
D03*
X00262500Y00666500D02*
D03*
X00160900Y00666500D02*
D03*
X00211700Y00562500D02*
D03*
X00540300Y00447200D02*
D03*
X00550800Y00436700D02*
D03*
X00320700Y00458800D02*
D03*
X00310200Y00448300D02*
D03*
X00335700Y00436700D02*
D03*
X00513500Y00313300D02*
D03*
X00513500Y00436700D02*
D03*
X00335700Y00313300D02*
D03*
X00462700Y00313300D02*
D03*
X00437300Y00313300D02*
D03*
X00411900D02*
D03*
Y00436700D02*
D03*
X00500000Y00460000D02*
D03*
X00462700Y00436700D02*
D03*
X00437300D02*
D03*
X00890000Y00290000D02*
D03*
Y00370000D02*
D03*
Y00450000D02*
D03*
Y00130000D02*
D03*
Y00050000D02*
D03*
Y00610000D02*
D03*
Y00530000D02*
D03*
Y00210000D02*
D03*
Y00700000D02*
D03*
X00010000Y00340000D02*
D03*
Y00420000D02*
D03*
Y00500000D02*
D03*
Y00180000D02*
D03*
Y00100000D02*
D03*
Y00650000D02*
D03*
Y00580000D02*
D03*
Y00260000D02*
D03*
X00360000Y00740000D02*
D03*
X00440000D02*
D03*
X00520000D02*
D03*
X00200000D02*
D03*
X00120000D02*
D03*
X00680000D02*
D03*
X00600000D02*
D03*
X00280000D02*
D03*
X00760000D02*
D03*
X00059444Y00683236D02*
D03*
X00058737Y00715056D02*
D03*
X00052500Y00699000D02*
D03*
X00074500Y00722000D02*
D03*
X00091264Y00683944D02*
D03*
X00090556Y00715764D02*
D03*
X00097500Y00700000D02*
D03*
X00075500Y00677000D02*
D03*
X00824500D02*
D03*
X00802500Y00700000D02*
D03*
X00809444Y00715764D02*
D03*
X00808736Y00683944D02*
D03*
X00825500Y00722000D02*
D03*
X00847500Y00699000D02*
D03*
X00841264Y00715056D02*
D03*
X00840556Y00683236D02*
D03*
X00808736Y00586944D02*
D03*
X00809444Y00618764D02*
D03*
X00824500Y00580000D02*
D03*
X00052500Y00148000D02*
D03*
X00058737Y00131944D02*
D03*
X00059444Y00163763D02*
D03*
X00075500Y00170000D02*
D03*
X00091264Y00163056D02*
D03*
X00074500Y00125000D02*
D03*
X00090556Y00131236D02*
D03*
X00097500Y00147000D02*
D03*
X00847500D02*
D03*
X00841264Y00163056D02*
D03*
X00840556Y00131236D02*
D03*
X00841264Y00618056D02*
D03*
X00847500Y00602000D02*
D03*
X00840556Y00586236D02*
D03*
X00802500Y00603000D02*
D03*
X00825500Y00625000D02*
D03*
X00802500Y00148000D02*
D03*
X00808736Y00131944D02*
D03*
X00809444Y00163763D02*
D03*
X00824500Y00125000D02*
D03*
X00825500Y00170000D02*
D03*
X00824500Y00028000D02*
D03*
X00847500Y00050000D02*
D03*
X00802500Y00051000D02*
D03*
X00840556Y00034236D02*
D03*
X00808736Y00034943D02*
D03*
X00841264Y00066056D02*
D03*
X00809444Y00066763D02*
D03*
X00825500Y00073000D02*
D03*
X00090556Y00034236D02*
D03*
X00074500Y00028000D02*
D03*
X00097500Y00050000D02*
D03*
X00091264Y00066056D02*
D03*
X00075500Y00073000D02*
D03*
X00059444Y00066763D02*
D03*
X00058737Y00034943D02*
D03*
X00052500Y00051000D02*
D03*
X00760000Y00010000D02*
D03*
X00280000D02*
D03*
X00600000D02*
D03*
X00680000D02*
D03*
X00120000D02*
D03*
X00200000D02*
D03*
X00520000D02*
D03*
X00440000D02*
D03*
X00360000D02*
D03*
M02*
