G04*
G04 #@! TF.GenerationSoftware,Altium Limited,Altium Designer,22.2.1 (43)*
G04*
G04 Layer_Color=16711935*
%FSAX44Y44*%
%MOMM*%
G71*
G04*
G04 #@! TF.SameCoordinates,6FBE58D4-8AA7-4130-90BE-7BA939E9B375*
G04*
G04*
G04 #@! TF.FilePolarity,Negative*
G04*
G01*
G75*
%ADD19C,0.1000*%
%ADD52R,2.2000X5.4500*%
%ADD57C,3.0000*%
G04:AMPARAMS|DCode=66|XSize=0.85mm|YSize=0.9mm|CornerRadius=0.2375mm|HoleSize=0mm|Usage=FLASHONLY|Rotation=270.000|XOffset=0mm|YOffset=0mm|HoleType=Round|Shape=RoundedRectangle|*
%AMROUNDEDRECTD66*
21,1,0.8500,0.4250,0,0,270.0*
21,1,0.3750,0.9000,0,0,270.0*
1,1,0.4750,-0.2125,-0.1875*
1,1,0.4750,-0.2125,0.1875*
1,1,0.4750,0.2125,0.1875*
1,1,0.4750,0.2125,-0.1875*
%
%ADD66ROUNDEDRECTD66*%
%ADD68C,1.1000*%
G04:AMPARAMS|DCode=74|XSize=0.85mm|YSize=0.9mm|CornerRadius=0.2375mm|HoleSize=0mm|Usage=FLASHONLY|Rotation=180.000|XOffset=0mm|YOffset=0mm|HoleType=Round|Shape=RoundedRectangle|*
%AMROUNDEDRECTD74*
21,1,0.8500,0.4250,0,0,180.0*
21,1,0.3750,0.9000,0,0,180.0*
1,1,0.4750,-0.1875,0.2125*
1,1,0.4750,0.1875,0.2125*
1,1,0.4750,0.1875,-0.2125*
1,1,0.4750,-0.1875,-0.2125*
%
%ADD74ROUNDEDRECTD74*%
G04:AMPARAMS|DCode=76|XSize=3.15mm|YSize=2.5mm|CornerRadius=0.35mm|HoleSize=0mm|Usage=FLASHONLY|Rotation=0.000|XOffset=0mm|YOffset=0mm|HoleType=Round|Shape=RoundedRectangle|*
%AMROUNDEDRECTD76*
21,1,3.1500,1.8000,0,0,0.0*
21,1,2.4500,2.5000,0,0,0.0*
1,1,0.7000,1.2250,-0.9000*
1,1,0.7000,-1.2250,-0.9000*
1,1,0.7000,-1.2250,0.9000*
1,1,0.7000,1.2250,0.9000*
%
%ADD76ROUNDEDRECTD76*%
%ADD83C,0.6000*%
G04:AMPARAMS|DCode=88|XSize=0.95mm|YSize=1.35mm|CornerRadius=0.22mm|HoleSize=0mm|Usage=FLASHONLY|Rotation=0.000|XOffset=0mm|YOffset=0mm|HoleType=Round|Shape=RoundedRectangle|*
%AMROUNDEDRECTD88*
21,1,0.9500,0.9100,0,0,0.0*
21,1,0.5100,1.3500,0,0,0.0*
1,1,0.4400,0.2550,-0.4550*
1,1,0.4400,-0.2550,-0.4550*
1,1,0.4400,-0.2550,0.4550*
1,1,0.4400,0.2550,0.4550*
%
%ADD88ROUNDEDRECTD88*%
%ADD89O,2.5000X1.6000*%
%ADD90O,2.5000X1.6500*%
%ADD91O,2.5000X1.7000*%
G04:AMPARAMS|DCode=92|XSize=1.7mm|YSize=2.5mm|CornerRadius=0.45mm|HoleSize=0mm|Usage=FLASHONLY|Rotation=90.000|XOffset=0mm|YOffset=0mm|HoleType=Round|Shape=RoundedRectangle|*
%AMROUNDEDRECTD92*
21,1,1.7000,1.6000,0,0,90.0*
21,1,0.8000,2.5000,0,0,90.0*
1,1,0.9000,0.8000,0.4000*
1,1,0.9000,0.8000,-0.4000*
1,1,0.9000,-0.8000,-0.4000*
1,1,0.9000,-0.8000,0.4000*
%
%ADD92ROUNDEDRECTD92*%
%ADD93O,2.0000X1.6000*%
G04:AMPARAMS|DCode=94|XSize=1.6mm|YSize=2mm|CornerRadius=0.425mm|HoleSize=0mm|Usage=FLASHONLY|Rotation=270.000|XOffset=0mm|YOffset=0mm|HoleType=Round|Shape=RoundedRectangle|*
%AMROUNDEDRECTD94*
21,1,1.6000,1.1500,0,0,270.0*
21,1,0.7500,2.0000,0,0,270.0*
1,1,0.8500,-0.5750,-0.3750*
1,1,0.8500,-0.5750,0.3750*
1,1,0.8500,0.5750,0.3750*
1,1,0.8500,0.5750,-0.3750*
%
%ADD94ROUNDEDRECTD94*%
%ADD95O,1.3000X1.8000*%
%ADD96O,1.3000X2.0000*%
%ADD97C,1.2000*%
G04:AMPARAMS|DCode=98|XSize=1.9mm|YSize=1.1mm|CornerRadius=0.55mm|HoleSize=0mm|Usage=FLASHONLY|Rotation=90.000|XOffset=0mm|YOffset=0mm|HoleType=Round|Shape=RoundedRectangle|*
%AMROUNDEDRECTD98*
21,1,1.9000,0.0000,0,0,90.0*
21,1,0.8000,1.1000,0,0,90.0*
1,1,1.1000,0.0000,0.4000*
1,1,1.1000,0.0000,-0.4000*
1,1,1.1000,0.0000,-0.4000*
1,1,1.1000,0.0000,0.4000*
%
%ADD98ROUNDEDRECTD98*%
G04:AMPARAMS|DCode=99|XSize=2.2mm|YSize=1.1mm|CornerRadius=0.55mm|HoleSize=0mm|Usage=FLASHONLY|Rotation=90.000|XOffset=0mm|YOffset=0mm|HoleType=Round|Shape=RoundedRectangle|*
%AMROUNDEDRECTD99*
21,1,2.2000,0.0000,0,0,90.0*
21,1,1.1000,1.1000,0,0,90.0*
1,1,1.1000,0.0000,0.5500*
1,1,1.1000,0.0000,-0.5500*
1,1,1.1000,0.0000,-0.5500*
1,1,1.1000,0.0000,0.5500*
%
%ADD99ROUNDEDRECTD99*%
%ADD100C,0.8500*%
%ADD101C,1.8000*%
%ADD102C,1.3000*%
%ADD103C,0.1000*%
%ADD104O,1.6000X2.0000*%
G04:AMPARAMS|DCode=105|XSize=1.6mm|YSize=2mm|CornerRadius=0.425mm|HoleSize=0mm|Usage=FLASHONLY|Rotation=0.000|XOffset=0mm|YOffset=0mm|HoleType=Round|Shape=RoundedRectangle|*
%AMROUNDEDRECTD105*
21,1,1.6000,1.1500,0,0,0.0*
21,1,0.7500,2.0000,0,0,0.0*
1,1,0.8500,0.3750,-0.5750*
1,1,0.8500,-0.3750,-0.5750*
1,1,0.8500,-0.3750,0.5750*
1,1,0.8500,0.3750,0.5750*
%
%ADD105ROUNDEDRECTD105*%
%ADD106C,1.5000*%
G04:AMPARAMS|DCode=107|XSize=1.5mm|YSize=1.5mm|CornerRadius=0.4mm|HoleSize=0mm|Usage=FLASHONLY|Rotation=180.000|XOffset=0mm|YOffset=0mm|HoleType=Round|Shape=RoundedRectangle|*
%AMROUNDEDRECTD107*
21,1,1.5000,0.7000,0,0,180.0*
21,1,0.7000,1.5000,0,0,180.0*
1,1,0.8000,-0.3500,0.3500*
1,1,0.8000,0.3500,0.3500*
1,1,0.8000,0.3500,-0.3500*
1,1,0.8000,-0.3500,-0.3500*
%
%ADD107ROUNDEDRECTD107*%
%ADD108C,2.5000*%
%ADD109C,3.4000*%
%ADD110C,1.6000*%
%ADD111O,2.3000X4.8000*%
%ADD112O,4.8000X2.3000*%
G04:AMPARAMS|DCode=113|XSize=4.8mm|YSize=2.3mm|CornerRadius=0.6mm|HoleSize=0mm|Usage=FLASHONLY|Rotation=180.000|XOffset=0mm|YOffset=0mm|HoleType=Round|Shape=RoundedRectangle|*
%AMROUNDEDRECTD113*
21,1,4.8000,1.1000,0,0,180.0*
21,1,3.6000,2.3000,0,0,180.0*
1,1,1.2000,-1.8000,0.5500*
1,1,1.2000,1.8000,0.5500*
1,1,1.2000,1.8000,-0.5500*
1,1,1.2000,-1.8000,-0.5500*
%
%ADD113ROUNDEDRECTD113*%
%ADD114C,1.4500*%
%ADD115C,6.1000*%
G04:AMPARAMS|DCode=167|XSize=0.4mm|YSize=1.65mm|CornerRadius=0.1625mm|HoleSize=0mm|Usage=FLASHONLY|Rotation=270.000|XOffset=0mm|YOffset=0mm|HoleType=Round|Shape=RoundedRectangle|*
%AMROUNDEDRECTD167*
21,1,0.4000,1.3250,0,0,270.0*
21,1,0.0750,1.6500,0,0,270.0*
1,1,0.3250,-0.6625,-0.0375*
1,1,0.3250,-0.6625,0.0375*
1,1,0.3250,0.6625,0.0375*
1,1,0.3250,0.6625,-0.0375*
%
%ADD167ROUNDEDRECTD167*%
G04:AMPARAMS|DCode=168|XSize=1.3mm|YSize=2.85mm|CornerRadius=0.35mm|HoleSize=0mm|Usage=FLASHONLY|Rotation=270.000|XOffset=0mm|YOffset=0mm|HoleType=Round|Shape=RoundedRectangle|*
%AMROUNDEDRECTD168*
21,1,1.3000,2.1500,0,0,270.0*
21,1,0.6000,2.8500,0,0,270.0*
1,1,0.7000,-1.0750,-0.3000*
1,1,0.7000,-1.0750,0.3000*
1,1,0.7000,1.0750,0.3000*
1,1,0.7000,1.0750,-0.3000*
%
%ADD168ROUNDEDRECTD168*%
G04:AMPARAMS|DCode=169|XSize=1.4mm|YSize=0.8mm|CornerRadius=0.225mm|HoleSize=0mm|Usage=FLASHONLY|Rotation=90.000|XOffset=0mm|YOffset=0mm|HoleType=Round|Shape=RoundedRectangle|*
%AMROUNDEDRECTD169*
21,1,1.4000,0.3500,0,0,90.0*
21,1,0.9500,0.8000,0,0,90.0*
1,1,0.4500,0.1750,0.4750*
1,1,0.4500,0.1750,-0.4750*
1,1,0.4500,-0.1750,-0.4750*
1,1,0.4500,-0.1750,0.4750*
%
%ADD169ROUNDEDRECTD169*%
G04:AMPARAMS|DCode=170|XSize=0.9mm|YSize=0.4mm|CornerRadius=0.125mm|HoleSize=0mm|Usage=FLASHONLY|Rotation=180.000|XOffset=0mm|YOffset=0mm|HoleType=Round|Shape=RoundedRectangle|*
%AMROUNDEDRECTD170*
21,1,0.9000,0.1500,0,0,180.0*
21,1,0.6500,0.4000,0,0,180.0*
1,1,0.2500,-0.3250,0.0750*
1,1,0.2500,0.3250,0.0750*
1,1,0.2500,0.3250,-0.0750*
1,1,0.2500,-0.3250,-0.0750*
%
%ADD170ROUNDEDRECTD170*%
G04:AMPARAMS|DCode=171|XSize=0.775mm|YSize=0.3mm|CornerRadius=0.1mm|HoleSize=0mm|Usage=FLASHONLY|Rotation=90.000|XOffset=0mm|YOffset=0mm|HoleType=Round|Shape=RoundedRectangle|*
%AMROUNDEDRECTD171*
21,1,0.7750,0.1000,0,0,90.0*
21,1,0.5750,0.3000,0,0,90.0*
1,1,0.2000,0.0500,0.2875*
1,1,0.2000,0.0500,-0.2875*
1,1,0.2000,-0.0500,-0.2875*
1,1,0.2000,-0.0500,0.2875*
%
%ADD171ROUNDEDRECTD171*%
G04:AMPARAMS|DCode=172|XSize=0.875mm|YSize=0.5mm|CornerRadius=0.15mm|HoleSize=0mm|Usage=FLASHONLY|Rotation=90.000|XOffset=0mm|YOffset=0mm|HoleType=Round|Shape=RoundedRectangle|*
%AMROUNDEDRECTD172*
21,1,0.8750,0.2000,0,0,90.0*
21,1,0.5750,0.5000,0,0,90.0*
1,1,0.3000,0.1000,0.2875*
1,1,0.3000,0.1000,-0.2875*
1,1,0.3000,-0.1000,-0.2875*
1,1,0.3000,-0.1000,0.2875*
%
%ADD172ROUNDEDRECTD172*%
G04:AMPARAMS|DCode=173|XSize=0.5mm|YSize=1.5mm|CornerRadius=0.15mm|HoleSize=0mm|Usage=FLASHONLY|Rotation=180.000|XOffset=0mm|YOffset=0mm|HoleType=Round|Shape=RoundedRectangle|*
%AMROUNDEDRECTD173*
21,1,0.5000,1.2000,0,0,180.0*
21,1,0.2000,1.5000,0,0,180.0*
1,1,0.3000,-0.1000,0.6000*
1,1,0.3000,0.1000,0.6000*
1,1,0.3000,0.1000,-0.6000*
1,1,0.3000,-0.1000,-0.6000*
%
%ADD173ROUNDEDRECTD173*%
G04:AMPARAMS|DCode=174|XSize=2.1mm|YSize=2.7mm|CornerRadius=0.25mm|HoleSize=0mm|Usage=FLASHONLY|Rotation=270.000|XOffset=0mm|YOffset=0mm|HoleType=Round|Shape=RoundedRectangle|*
%AMROUNDEDRECTD174*
21,1,2.1000,2.2000,0,0,270.0*
21,1,1.6000,2.7000,0,0,270.0*
1,1,0.5000,-1.1000,-0.8000*
1,1,0.5000,-1.1000,0.8000*
1,1,0.5000,1.1000,0.8000*
1,1,0.5000,1.1000,-0.8000*
%
%ADD174ROUNDEDRECTD174*%
G04:AMPARAMS|DCode=175|XSize=0.95mm|YSize=1.1mm|CornerRadius=0.101mm|HoleSize=0mm|Usage=FLASHONLY|Rotation=270.000|XOffset=0mm|YOffset=0mm|HoleType=Round|Shape=RoundedRectangle|*
%AMROUNDEDRECTD175*
21,1,0.9500,0.8980,0,0,270.0*
21,1,0.7480,1.1000,0,0,270.0*
1,1,0.2020,-0.4490,-0.3740*
1,1,0.2020,-0.4490,0.3740*
1,1,0.2020,0.4490,0.3740*
1,1,0.2020,0.4490,-0.3740*
%
%ADD175ROUNDEDRECTD175*%
G04:AMPARAMS|DCode=176|XSize=0.85mm|YSize=1.1mm|CornerRadius=0.0988mm|HoleSize=0mm|Usage=FLASHONLY|Rotation=270.000|XOffset=0mm|YOffset=0mm|HoleType=Round|Shape=RoundedRectangle|*
%AMROUNDEDRECTD176*
21,1,0.8500,0.9025,0,0,270.0*
21,1,0.6525,1.1000,0,0,270.0*
1,1,0.1975,-0.4513,-0.3263*
1,1,0.1975,-0.4513,0.3263*
1,1,0.1975,0.4513,0.3263*
1,1,0.1975,0.4513,-0.3263*
%
%ADD176ROUNDEDRECTD176*%
G04:AMPARAMS|DCode=177|XSize=0.7mm|YSize=1.1mm|CornerRadius=0.101mm|HoleSize=0mm|Usage=FLASHONLY|Rotation=90.000|XOffset=0mm|YOffset=0mm|HoleType=Round|Shape=RoundedRectangle|*
%AMROUNDEDRECTD177*
21,1,0.7000,0.8980,0,0,90.0*
21,1,0.4980,1.1000,0,0,90.0*
1,1,0.2020,0.4490,0.2490*
1,1,0.2020,0.4490,-0.2490*
1,1,0.2020,-0.4490,-0.2490*
1,1,0.2020,-0.4490,0.2490*
%
%ADD177ROUNDEDRECTD177*%
G04:AMPARAMS|DCode=178|XSize=1.2mm|YSize=1.8mm|CornerRadius=0.325mm|HoleSize=0mm|Usage=FLASHONLY|Rotation=0.000|XOffset=0mm|YOffset=0mm|HoleType=Round|Shape=RoundedRectangle|*
%AMROUNDEDRECTD178*
21,1,1.2000,1.1500,0,0,0.0*
21,1,0.5500,1.8000,0,0,0.0*
1,1,0.6500,0.2750,-0.5750*
1,1,0.6500,-0.2750,-0.5750*
1,1,0.6500,-0.2750,0.5750*
1,1,0.6500,0.2750,0.5750*
%
%ADD178ROUNDEDRECTD178*%
G04:AMPARAMS|DCode=179|XSize=0.8mm|YSize=1.7mm|CornerRadius=0.225mm|HoleSize=0mm|Usage=FLASHONLY|Rotation=180.000|XOffset=0mm|YOffset=0mm|HoleType=Round|Shape=RoundedRectangle|*
%AMROUNDEDRECTD179*
21,1,0.8000,1.2500,0,0,180.0*
21,1,0.3500,1.7000,0,0,180.0*
1,1,0.4500,-0.1750,0.6250*
1,1,0.4500,0.1750,0.6250*
1,1,0.4500,0.1750,-0.6250*
1,1,0.4500,-0.1750,-0.6250*
%
%ADD179ROUNDEDRECTD179*%
G04:AMPARAMS|DCode=180|XSize=1.3mm|YSize=1.5mm|CornerRadius=0.35mm|HoleSize=0mm|Usage=FLASHONLY|Rotation=180.000|XOffset=0mm|YOffset=0mm|HoleType=Round|Shape=RoundedRectangle|*
%AMROUNDEDRECTD180*
21,1,1.3000,0.8000,0,0,180.0*
21,1,0.6000,1.5000,0,0,180.0*
1,1,0.7000,-0.3000,0.4000*
1,1,0.7000,0.3000,0.4000*
1,1,0.7000,0.3000,-0.4000*
1,1,0.7000,-0.3000,-0.4000*
%
%ADD180ROUNDEDRECTD180*%
G04:AMPARAMS|DCode=181|XSize=1.3mm|YSize=2.3mm|CornerRadius=0.35mm|HoleSize=0mm|Usage=FLASHONLY|Rotation=180.000|XOffset=0mm|YOffset=0mm|HoleType=Round|Shape=RoundedRectangle|*
%AMROUNDEDRECTD181*
21,1,1.3000,1.6000,0,0,180.0*
21,1,0.6000,2.3000,0,0,180.0*
1,1,0.7000,-0.3000,0.8000*
1,1,0.7000,0.3000,0.8000*
1,1,0.7000,0.3000,-0.8000*
1,1,0.7000,-0.3000,-0.8000*
%
%ADD181ROUNDEDRECTD181*%
G04:AMPARAMS|DCode=182|XSize=1.7mm|YSize=1.5mm|CornerRadius=0.4mm|HoleSize=0mm|Usage=FLASHONLY|Rotation=180.000|XOffset=0mm|YOffset=0mm|HoleType=Round|Shape=RoundedRectangle|*
%AMROUNDEDRECTD182*
21,1,1.7000,0.7000,0,0,180.0*
21,1,0.9000,1.5000,0,0,180.0*
1,1,0.8000,-0.4500,0.3500*
1,1,0.8000,0.4500,0.3500*
1,1,0.8000,0.4500,-0.3500*
1,1,0.8000,-0.4500,-0.3500*
%
%ADD182ROUNDEDRECTD182*%
G04:AMPARAMS|DCode=183|XSize=0.67mm|YSize=0.67mm|CornerRadius=0.145mm|HoleSize=0mm|Usage=FLASHONLY|Rotation=180.000|XOffset=0mm|YOffset=0mm|HoleType=Round|Shape=RoundedRectangle|*
%AMROUNDEDRECTD183*
21,1,0.6700,0.3800,0,0,180.0*
21,1,0.3800,0.6700,0,0,180.0*
1,1,0.2900,-0.1900,0.1900*
1,1,0.2900,0.1900,0.1900*
1,1,0.2900,0.1900,-0.1900*
1,1,0.2900,-0.1900,-0.1900*
%
%ADD183ROUNDEDRECTD183*%
G04:AMPARAMS|DCode=184|XSize=0.95mm|YSize=1.35mm|CornerRadius=0.22mm|HoleSize=0mm|Usage=FLASHONLY|Rotation=90.000|XOffset=0mm|YOffset=0mm|HoleType=Round|Shape=RoundedRectangle|*
%AMROUNDEDRECTD184*
21,1,0.9500,0.9100,0,0,90.0*
21,1,0.5100,1.3500,0,0,90.0*
1,1,0.4400,0.4550,0.2550*
1,1,0.4400,0.4550,-0.2550*
1,1,0.4400,-0.4550,-0.2550*
1,1,0.4400,-0.4550,0.2550*
%
%ADD184ROUNDEDRECTD184*%
G36*
X00700000Y00318350D02*
X00709000D01*
X00709269D01*
X00709765Y00318144D01*
X00710145Y00317765D01*
X00710350Y00317269D01*
Y00317000D01*
D01*
Y00312000D01*
Y00311731D01*
X00710145Y00311235D01*
X00709765Y00310856D01*
X00709269Y00310650D01*
X00709000D01*
D01*
X00700000D01*
X00699732D01*
X00699235Y00310856D01*
X00698856Y00311235D01*
X00698650Y00311731D01*
Y00312000D01*
Y00317000D01*
Y00317269D01*
X00698856Y00317765D01*
X00699235Y00318144D01*
X00699732Y00318350D01*
X00700000D01*
D01*
D02*
G37*
D19*
X01160000Y00000000D02*
G03*
X01200000Y00040000I00000000J00040000D01*
G01*
X01200000Y00510000D02*
G03*
X01160000Y00550000I-00040000J00000000D01*
G01*
X00000000Y00040000D02*
G03*
X00040000Y-00000000I00040000J00000000D01*
G01*
Y00550000D02*
G03*
X00000000Y00510000I00000000J-00040000D01*
G01*
X01200000Y00040000D02*
X01200000Y00510000D01*
X00040000Y-00000000D02*
X01160000Y00000000D01*
X00040000Y00550000D02*
X01160000Y00550000D01*
X-00000000Y00510000D02*
X00000000Y00040000D01*
X01160000Y00000000D02*
G03*
X01200000Y00040000I00000000J00040000D01*
G01*
X01200000Y00510000D02*
G03*
X01160000Y00550000I-00040000J00000000D01*
G01*
X00000000Y00040000D02*
G03*
X00040000Y-00000000I00040000J00000000D01*
G01*
Y00550000D02*
G03*
X00000000Y00510000I00000000J-00040000D01*
G01*
X01200000Y00040000D02*
X01200000Y00510000D01*
X00040000Y-00000000D02*
X01160000Y00000000D01*
X00040000Y00550000D02*
X01160000Y00550000D01*
X-00000000Y00510000D02*
X00000000Y00040000D01*
D52*
X01133001Y00086251D02*
D03*
D57*
X00027500Y00072500D02*
D03*
X01173000Y00095500D02*
D03*
X01156500Y00471500D02*
D03*
D66*
X00721750Y00462250D02*
D03*
Y00447250D02*
D03*
X00735000Y00462250D02*
D03*
Y00447250D02*
D03*
X00760250Y00462250D02*
D03*
Y00447250D02*
D03*
X00774000Y00447250D02*
D03*
Y00462250D02*
D03*
X00688000Y00324750D02*
D03*
Y00309750D02*
D03*
X00193000Y00076000D02*
D03*
Y00091000D02*
D03*
X00595000Y00323500D02*
D03*
Y00338500D02*
D03*
X00746000Y00308750D02*
D03*
Y00323750D02*
D03*
D68*
X00213500Y00445000D02*
D03*
X00923500Y00524500D02*
D03*
X00151500Y00292000D02*
D03*
X00495000Y00176000D02*
D03*
X00939000Y00343000D02*
D03*
X00335500Y00401500D02*
D03*
X00619999Y00027500D02*
D03*
X00656999Y00025000D02*
D03*
X00020500Y00179500D02*
D03*
Y00149500D02*
D03*
D74*
X00697000Y00381250D02*
D03*
X00712000D02*
D03*
Y00368500D02*
D03*
X00697000D02*
D03*
X00144750Y00415000D02*
D03*
X00159750D02*
D03*
X00144750Y00367500D02*
D03*
X00159750D02*
D03*
X00143500Y00239000D02*
D03*
X00158500D02*
D03*
X00101000Y00069500D02*
D03*
X00086000D02*
D03*
X00101000Y00097500D02*
D03*
X00086000D02*
D03*
X00101000Y00083500D02*
D03*
X00086000D02*
D03*
X00144750Y00400500D02*
D03*
X00159750D02*
D03*
X00202500Y00195000D02*
D03*
X00217500D02*
D03*
X00187500D02*
D03*
X00172500D02*
D03*
X00144750Y00382500D02*
D03*
X00159750D02*
D03*
X00143500Y00225000D02*
D03*
X00158500D02*
D03*
X00202500Y00175500D02*
D03*
X00217500D02*
D03*
X00202500Y00161000D02*
D03*
X00217500D02*
D03*
X00785500Y00223000D02*
D03*
X00800500D02*
D03*
X00827000Y00400000D02*
D03*
X00812000D02*
D03*
X00827000Y00413000D02*
D03*
X00812000D02*
D03*
Y00387000D02*
D03*
X00827000D02*
D03*
X00812000Y00426000D02*
D03*
X00827000D02*
D03*
X00614500Y00310750D02*
D03*
X00629500D02*
D03*
D76*
X00967500Y00485750D02*
D03*
Y00428250D02*
D03*
X00147500Y00133500D02*
D03*
Y00076000D02*
D03*
D83*
X00272500Y00449711D02*
D03*
X00163500Y00482500D02*
D03*
X00380500Y00126000D02*
D03*
X00182500Y00063000D02*
D03*
X00410500Y00120000D02*
D03*
X00388500Y00132000D02*
D03*
X00272000Y00412000D02*
D03*
X00390500Y00401000D02*
D03*
D88*
X00665750Y00126500D02*
D03*
X00684750D02*
D03*
D89*
X01093000Y00124200D02*
D03*
D90*
Y00098800D02*
D03*
D91*
Y00073400D02*
D03*
Y00048000D02*
D03*
Y00454400D02*
D03*
Y00149600D02*
D03*
Y00479800D02*
D03*
Y00505200D02*
D03*
Y00530600D02*
D03*
D92*
Y00022600D02*
D03*
D93*
X00911500Y00392600D02*
D03*
Y00418000D02*
D03*
X00645000Y00248900D02*
D03*
Y00299700D02*
D03*
Y00274300D02*
D03*
D94*
X00911500Y00443400D02*
D03*
X00645000Y00325100D02*
D03*
D95*
X00546250Y00015000D02*
D03*
X00437750D02*
D03*
D96*
X00546250Y00060000D02*
D03*
X00437750D02*
D03*
D97*
X00454500Y00052000D02*
D03*
X00529500D02*
D03*
X00374500Y00280000D02*
D03*
X00294500D02*
D03*
D98*
X00684700Y00020750D02*
D03*
X00598300D02*
D03*
D99*
X00684700Y00062250D02*
D03*
X00598300D02*
D03*
D100*
X00612600Y00057250D02*
D03*
X00670400D02*
D03*
D101*
X00100000Y00225000D02*
D03*
D102*
Y00425000D02*
D03*
D103*
X00565000Y00130000D02*
D03*
X00085000D02*
D03*
X00565000Y00460000D02*
D03*
X00085000D02*
D03*
D104*
X00783200Y00520700D02*
D03*
Y00495200D02*
D03*
X00707000D02*
D03*
X00681600D02*
D03*
X00707000Y00520700D02*
D03*
X00656200D02*
D03*
X00757800Y00495200D02*
D03*
Y00520700D02*
D03*
X00732400D02*
D03*
Y00495200D02*
D03*
X00681600Y00520700D02*
D03*
X00834000D02*
D03*
Y00495200D02*
D03*
X00808600D02*
D03*
Y00520700D02*
D03*
X00859400Y00495250D02*
D03*
Y00520700D02*
D03*
X00884800Y00495200D02*
D03*
Y00520700D02*
D03*
X00789700Y00283000D02*
D03*
X00107300Y00518000D02*
D03*
X00703300Y00283000D02*
D03*
D105*
X00656200Y00495200D02*
D03*
X00764300Y00283000D02*
D03*
X00132700Y00518000D02*
D03*
X00728700Y00283000D02*
D03*
D106*
X00823500Y00128600D02*
D03*
X00760000D02*
D03*
X00810800Y00191900D02*
D03*
X00785400D02*
D03*
X00760000D02*
D03*
X00747300Y00166500D02*
D03*
X00772700D02*
D03*
X00798100D02*
D03*
X00823500D02*
D03*
X00734600Y00141300D02*
D03*
X00848900D02*
D03*
X00836200Y00191900D02*
D03*
X00848900Y00166500D02*
D03*
D107*
X00734600Y00191900D02*
D03*
D108*
X00713000Y00133500D02*
D03*
X00870500D02*
D03*
D109*
X00734600Y00103000D02*
D03*
X00848900D02*
D03*
X01172000Y00033000D02*
D03*
X00028000Y00517000D02*
D03*
X01172000D02*
D03*
X00028000Y00033000D02*
D03*
D110*
X00725450Y00062400D02*
D03*
X00750850D02*
D03*
X00832650D02*
D03*
X00858050D02*
D03*
D111*
X00983000Y00101500D02*
D03*
D112*
X00936000Y00072500D02*
D03*
D113*
Y00131500D02*
D03*
D114*
X00666600Y00274300D02*
D03*
D115*
X00882274Y00325118D02*
D03*
D167*
X00122750Y00275000D02*
D03*
X00047250Y00277500D02*
D03*
X00122750Y00280000D02*
D03*
X00047250Y00282500D02*
D03*
X00122750Y00285000D02*
D03*
X00047250Y00287500D02*
D03*
X00122750Y00290000D02*
D03*
X00047250Y00292500D02*
D03*
X00122750Y00295000D02*
D03*
X00047250Y00297500D02*
D03*
X00122750Y00300000D02*
D03*
X00047250Y00302500D02*
D03*
X00122750Y00305000D02*
D03*
X00047250Y00307500D02*
D03*
X00122750Y00310000D02*
D03*
X00047250Y00312500D02*
D03*
X00122750Y00315000D02*
D03*
X00047250Y00317500D02*
D03*
X00122750Y00320000D02*
D03*
X00047250Y00322500D02*
D03*
X00122750Y00325000D02*
D03*
X00047250Y00327500D02*
D03*
X00122750Y00330000D02*
D03*
X00047250Y00332500D02*
D03*
X00122750Y00335000D02*
D03*
X00047250Y00337500D02*
D03*
X00122750Y00340000D02*
D03*
X00047250Y00342500D02*
D03*
X00122750Y00345000D02*
D03*
X00047250Y00347500D02*
D03*
X00122750Y00350000D02*
D03*
X00047250Y00352500D02*
D03*
X00122750Y00355000D02*
D03*
X00047250Y00357500D02*
D03*
X00122750Y00360000D02*
D03*
X00047250Y00362500D02*
D03*
X00122750Y00365000D02*
D03*
X00047250Y00367500D02*
D03*
X00122750Y00370000D02*
D03*
X00047250Y00372500D02*
D03*
X00122750Y00375000D02*
D03*
X00047250Y00377500D02*
D03*
X00122750Y00380000D02*
D03*
X00047250Y00382500D02*
D03*
X00122750Y00385000D02*
D03*
X00047250Y00387500D02*
D03*
X00122750Y00390000D02*
D03*
X00047250Y00232500D02*
D03*
X00122750Y00235000D02*
D03*
X00047250Y00237500D02*
D03*
X00122750Y00240000D02*
D03*
X00047250Y00242500D02*
D03*
X00122750Y00245000D02*
D03*
X00047250Y00247500D02*
D03*
X00122750Y00250000D02*
D03*
X00047250Y00252500D02*
D03*
Y00392500D02*
D03*
X00122750Y00395000D02*
D03*
X00047250Y00397500D02*
D03*
X00122750Y00400000D02*
D03*
X00047250Y00402500D02*
D03*
X00122750Y00405000D02*
D03*
X00047250Y00407500D02*
D03*
X00122750Y00410000D02*
D03*
X00047250Y00412500D02*
D03*
X00122750Y00415000D02*
D03*
X00047250Y00417500D02*
D03*
D168*
X00055000Y00221500D02*
D03*
Y00428500D02*
D03*
D169*
X00175500Y00163500D02*
D03*
D170*
X00165500Y00171000D02*
D03*
Y00166000D02*
D03*
Y00161000D02*
D03*
Y00156000D02*
D03*
X00185500D02*
D03*
Y00161000D02*
D03*
Y00166000D02*
D03*
Y00171000D02*
D03*
D171*
X00508000Y00038375D02*
D03*
X00503000D02*
D03*
X00493000Y00038375D02*
D03*
X00488000D02*
D03*
X00488000Y00029625D02*
D03*
X00493000D02*
D03*
X00503000Y00029625D02*
D03*
X00508000D02*
D03*
X00644999Y00100375D02*
D03*
X00639999D02*
D03*
X00629999Y00100375D02*
D03*
X00624999D02*
D03*
X00624999Y00091625D02*
D03*
X00629999D02*
D03*
X00639999Y00091625D02*
D03*
X00644999D02*
D03*
X00520000Y00107000D02*
D03*
X00515000D02*
D03*
X00505000Y00107000D02*
D03*
X00500000D02*
D03*
X00500000Y00115750D02*
D03*
X00505000D02*
D03*
X00515000Y00115750D02*
D03*
X00520000D02*
D03*
D172*
X00498000Y00037875D02*
D03*
Y00030125D02*
D03*
X00634999Y00099875D02*
D03*
Y00092125D02*
D03*
X00510000Y00107500D02*
D03*
Y00115250D02*
D03*
D173*
X00573750Y00299000D02*
D03*
X00580250Y00299000D02*
D03*
X00586750Y00299000D02*
D03*
X00593250Y00299000D02*
D03*
X00573750Y00255000D02*
D03*
X00580250Y00255000D02*
D03*
X00586750Y00255000D02*
D03*
X00593250Y00255000D02*
D03*
D174*
X01025500Y00318500D02*
D03*
Y00274500D02*
D03*
Y00403500D02*
D03*
Y00359500D02*
D03*
D175*
X00728000Y00324000D02*
D03*
Y00305000D02*
D03*
D176*
X00704500Y00324750D02*
D03*
Y00304250D02*
D03*
D177*
Y00314500D02*
D03*
D178*
X00729750Y00258000D02*
D03*
X00702750D02*
D03*
D179*
X00302500Y00385000D02*
D03*
X00313500D02*
D03*
X00324500D02*
D03*
X00335500D02*
D03*
X00346500D02*
D03*
X00357500D02*
D03*
X00368500D02*
D03*
X00379500D02*
D03*
X00390500D02*
D03*
D180*
X00402500Y00379000D02*
D03*
D181*
Y00284000D02*
D03*
X00247500Y00284000D02*
D03*
D182*
X00256500Y00380000D02*
D03*
D183*
X00395500Y00065000D02*
D03*
X00386500D02*
D03*
X00331500Y00029000D02*
D03*
X00340500D02*
D03*
X00359500Y00093000D02*
D03*
X00368500D02*
D03*
X00386500Y00075000D02*
D03*
X00395500D02*
D03*
X00359500Y00083000D02*
D03*
X00368500D02*
D03*
X00331500Y00039000D02*
D03*
X00340500D02*
D03*
X00359500Y00047000D02*
D03*
X00368500D02*
D03*
X00359500Y00057000D02*
D03*
X00368500D02*
D03*
D184*
X00968000Y00383500D02*
D03*
Y00402500D02*
D03*
M02*
