G04*
G04 #@! TF.GenerationSoftware,Altium Limited,Altium Designer,22.2.1 (43)*
G04*
G04 Layer_Color=39423*
%FSAX44Y44*%
%MOMM*%
G71*
G04*
G04 #@! TF.SameCoordinates,6FBE58D4-8AA7-4130-90BE-7BA939E9B375*
G04*
G04*
G04 #@! TF.FilePolarity,Positive*
G04*
G01*
G75*
%ADD19C,0.1000*%
D19*
X01160000Y00000000D02*
G03*
X01200000Y00040000I00000000J00040000D01*
G01*
X01200000Y00510000D02*
G03*
X01160000Y00550000I-00040000J00000000D01*
G01*
X00000000Y00040000D02*
G03*
X00040000Y-00000000I00040000J00000000D01*
G01*
Y00550000D02*
G03*
X00000000Y00510000I00000000J-00040000D01*
G01*
X01200000Y00040000D02*
X01200000Y00510000D01*
X00040000Y-00000000D02*
X01160000Y00000000D01*
X00040000Y00550000D02*
X01160000Y00550000D01*
X-00000000Y00510000D02*
X00000000Y00040000D01*
X01160000Y00000000D02*
G03*
X01200000Y00040000I00000000J00040000D01*
G01*
X01200000Y00510000D02*
G03*
X01160000Y00550000I-00040000J00000000D01*
G01*
X00000000Y00040000D02*
G03*
X00040000Y-00000000I00040000J00000000D01*
G01*
Y00550000D02*
G03*
X00000000Y00510000I00000000J-00040000D01*
G01*
X01200000Y00040000D02*
X01200000Y00510000D01*
X00040000Y-00000000D02*
X01160000Y00000000D01*
X00040000Y00550000D02*
X01160000Y00550000D01*
X-00000000Y00510000D02*
X00000000Y00040000D01*
X01160000Y00000000D02*
G03*
X01200000Y00040000I00000000J00040000D01*
G01*
X01200000Y00510000D02*
G03*
X01160000Y00550000I-00040000J00000000D01*
G01*
X00000000Y00040000D02*
G03*
X00040000Y-00000000I00040000J00000000D01*
G01*
Y00550000D02*
G03*
X00000000Y00510000I00000000J-00040000D01*
G01*
X01200000Y00040000D02*
X01200000Y00510000D01*
X00040000Y-00000000D02*
X01160000Y00000000D01*
X00040000Y00550000D02*
X01160000Y00550000D01*
X-00000000Y00510000D02*
X00000000Y00040000D01*
M02*
