G04*
G04 #@! TF.GenerationSoftware,Altium Limited,Altium Designer,22.2.1 (43)*
G04*
G04 Layer_Color=8388736*
%FSAX44Y44*%
%MOMM*%
G71*
G04*
G04 #@! TF.SameCoordinates,6FBE58D4-8AA7-4130-90BE-7BA939E9B375*
G04*
G04*
G04 #@! TF.FilePolarity,Negative*
G04*
G01*
G75*
%ADD19C,0.1000*%
%ADD52R,2.2000X5.4500*%
G04:AMPARAMS|DCode=53|XSize=1.4mm|YSize=2.6mm|CornerRadius=0.102mm|HoleSize=0mm|Usage=FLASHONLY|Rotation=180.000|XOffset=0mm|YOffset=0mm|HoleType=Round|Shape=RoundedRectangle|*
%AMROUNDEDRECTD53*
21,1,1.4000,2.3960,0,0,180.0*
21,1,1.1960,2.6000,0,0,180.0*
1,1,0.2040,-0.5980,1.1980*
1,1,0.2040,0.5980,1.1980*
1,1,0.2040,0.5980,-1.1980*
1,1,0.2040,-0.5980,-1.1980*
%
%ADD53ROUNDEDRECTD53*%
G04:AMPARAMS|DCode=54|XSize=0.33mm|YSize=1.3mm|CornerRadius=0.1363mm|HoleSize=0mm|Usage=FLASHONLY|Rotation=0.000|XOffset=0mm|YOffset=0mm|HoleType=Round|Shape=RoundedRectangle|*
%AMROUNDEDRECTD54*
21,1,0.3300,1.0275,0,0,0.0*
21,1,0.0575,1.3000,0,0,0.0*
1,1,0.2725,0.0288,-0.5138*
1,1,0.2725,-0.0288,-0.5138*
1,1,0.2725,-0.0288,0.5138*
1,1,0.2725,0.0288,0.5138*
%
%ADD54ROUNDEDRECTD54*%
G04:AMPARAMS|DCode=55|XSize=0.35mm|YSize=1.1mm|CornerRadius=0.1438mm|HoleSize=0mm|Usage=FLASHONLY|Rotation=0.000|XOffset=0mm|YOffset=0mm|HoleType=Round|Shape=RoundedRectangle|*
%AMROUNDEDRECTD55*
21,1,0.3500,0.8125,0,0,0.0*
21,1,0.0625,1.1000,0,0,0.0*
1,1,0.2875,0.0313,-0.4063*
1,1,0.2875,-0.0313,-0.4063*
1,1,0.2875,-0.0313,0.4063*
1,1,0.2875,0.0313,0.4063*
%
%ADD55ROUNDEDRECTD55*%
G04:AMPARAMS|DCode=56|XSize=0.7mm|YSize=0.6mm|CornerRadius=0.175mm|HoleSize=0mm|Usage=FLASHONLY|Rotation=0.000|XOffset=0mm|YOffset=0mm|HoleType=Round|Shape=RoundedRectangle|*
%AMROUNDEDRECTD56*
21,1,0.7000,0.2500,0,0,0.0*
21,1,0.3500,0.6000,0,0,0.0*
1,1,0.3500,0.1750,-0.1250*
1,1,0.3500,-0.1750,-0.1250*
1,1,0.3500,-0.1750,0.1250*
1,1,0.3500,0.1750,0.1250*
%
%ADD56ROUNDEDRECTD56*%
%ADD57C,3.0000*%
G04:AMPARAMS|DCode=58|XSize=1.3mm|YSize=1.7mm|CornerRadius=0.29mm|HoleSize=0mm|Usage=FLASHONLY|Rotation=90.000|XOffset=0mm|YOffset=0mm|HoleType=Round|Shape=RoundedRectangle|*
%AMROUNDEDRECTD58*
21,1,1.3000,1.1200,0,0,90.0*
21,1,0.7200,1.7000,0,0,90.0*
1,1,0.5800,0.5600,0.3600*
1,1,0.5800,0.5600,-0.3600*
1,1,0.5800,-0.5600,-0.3600*
1,1,0.5800,-0.5600,0.3600*
%
%ADD58ROUNDEDRECTD58*%
G04:AMPARAMS|DCode=59|XSize=2.1mm|YSize=2.7mm|CornerRadius=0.25mm|HoleSize=0mm|Usage=FLASHONLY|Rotation=0.000|XOffset=0mm|YOffset=0mm|HoleType=Round|Shape=RoundedRectangle|*
%AMROUNDEDRECTD59*
21,1,2.1000,2.2000,0,0,0.0*
21,1,1.6000,2.7000,0,0,0.0*
1,1,0.5000,0.8000,-1.1000*
1,1,0.5000,-0.8000,-1.1000*
1,1,0.5000,-0.8000,1.1000*
1,1,0.5000,0.8000,1.1000*
%
%ADD59ROUNDEDRECTD59*%
G04:AMPARAMS|DCode=60|XSize=0.3mm|YSize=0.6mm|CornerRadius=0.125mm|HoleSize=0mm|Usage=FLASHONLY|Rotation=180.000|XOffset=0mm|YOffset=0mm|HoleType=Round|Shape=RoundedRectangle|*
%AMROUNDEDRECTD60*
21,1,0.3000,0.3500,0,0,180.0*
21,1,0.0500,0.6000,0,0,180.0*
1,1,0.2500,-0.0250,0.1750*
1,1,0.2500,0.0250,0.1750*
1,1,0.2500,0.0250,-0.1750*
1,1,0.2500,-0.0250,-0.1750*
%
%ADD60ROUNDEDRECTD60*%
G04:AMPARAMS|DCode=61|XSize=1mm|YSize=0.9mm|CornerRadius=0.25mm|HoleSize=0mm|Usage=FLASHONLY|Rotation=180.000|XOffset=0mm|YOffset=0mm|HoleType=Round|Shape=RoundedRectangle|*
%AMROUNDEDRECTD61*
21,1,1.0000,0.4000,0,0,180.0*
21,1,0.5000,0.9000,0,0,180.0*
1,1,0.5000,-0.2500,0.2000*
1,1,0.5000,0.2500,0.2000*
1,1,0.5000,0.2500,-0.2000*
1,1,0.5000,-0.2500,-0.2000*
%
%ADD61ROUNDEDRECTD61*%
G04:AMPARAMS|DCode=62|XSize=1mm|YSize=1.3mm|CornerRadius=0.275mm|HoleSize=0mm|Usage=FLASHONLY|Rotation=270.000|XOffset=0mm|YOffset=0mm|HoleType=Round|Shape=RoundedRectangle|*
%AMROUNDEDRECTD62*
21,1,1.0000,0.7500,0,0,270.0*
21,1,0.4500,1.3000,0,0,270.0*
1,1,0.5500,-0.3750,-0.2250*
1,1,0.5500,-0.3750,0.2250*
1,1,0.5500,0.3750,0.2250*
1,1,0.5500,0.3750,-0.2250*
%
%ADD62ROUNDEDRECTD62*%
G04:AMPARAMS|DCode=63|XSize=2.3mm|YSize=3.3mm|CornerRadius=0.6mm|HoleSize=0mm|Usage=FLASHONLY|Rotation=180.000|XOffset=0mm|YOffset=0mm|HoleType=Round|Shape=RoundedRectangle|*
%AMROUNDEDRECTD63*
21,1,2.3000,2.1000,0,0,180.0*
21,1,1.1000,3.3000,0,0,180.0*
1,1,1.2000,-0.5500,1.0500*
1,1,1.2000,0.5500,1.0500*
1,1,1.2000,0.5500,-1.0500*
1,1,1.2000,-0.5500,-1.0500*
%
%ADD63ROUNDEDRECTD63*%
G04:AMPARAMS|DCode=64|XSize=1.4mm|YSize=1.7mm|CornerRadius=0.102mm|HoleSize=0mm|Usage=FLASHONLY|Rotation=90.000|XOffset=0mm|YOffset=0mm|HoleType=Round|Shape=RoundedRectangle|*
%AMROUNDEDRECTD64*
21,1,1.4000,1.4960,0,0,90.0*
21,1,1.1960,1.7000,0,0,90.0*
1,1,0.2040,0.7480,0.5980*
1,1,0.2040,0.7480,-0.5980*
1,1,0.2040,-0.7480,-0.5980*
1,1,0.2040,-0.7480,0.5980*
%
%ADD64ROUNDEDRECTD64*%
G04:AMPARAMS|DCode=65|XSize=1.1mm|YSize=1.4mm|CornerRadius=0.3mm|HoleSize=0mm|Usage=FLASHONLY|Rotation=270.000|XOffset=0mm|YOffset=0mm|HoleType=Round|Shape=RoundedRectangle|*
%AMROUNDEDRECTD65*
21,1,1.1000,0.8000,0,0,270.0*
21,1,0.5000,1.4000,0,0,270.0*
1,1,0.6000,-0.4000,-0.2500*
1,1,0.6000,-0.4000,0.2500*
1,1,0.6000,0.4000,0.2500*
1,1,0.6000,0.4000,-0.2500*
%
%ADD65ROUNDEDRECTD65*%
G04:AMPARAMS|DCode=66|XSize=0.85mm|YSize=0.9mm|CornerRadius=0.2375mm|HoleSize=0mm|Usage=FLASHONLY|Rotation=270.000|XOffset=0mm|YOffset=0mm|HoleType=Round|Shape=RoundedRectangle|*
%AMROUNDEDRECTD66*
21,1,0.8500,0.4250,0,0,270.0*
21,1,0.3750,0.9000,0,0,270.0*
1,1,0.4750,-0.2125,-0.1875*
1,1,0.4750,-0.2125,0.1875*
1,1,0.4750,0.2125,0.1875*
1,1,0.4750,0.2125,-0.1875*
%
%ADD66ROUNDEDRECTD66*%
G04:AMPARAMS|DCode=67|XSize=0.9mm|YSize=1mm|CornerRadius=0.25mm|HoleSize=0mm|Usage=FLASHONLY|Rotation=90.000|XOffset=0mm|YOffset=0mm|HoleType=Round|Shape=RoundedRectangle|*
%AMROUNDEDRECTD67*
21,1,0.9000,0.5000,0,0,90.0*
21,1,0.4000,1.0000,0,0,90.0*
1,1,0.5000,0.2500,0.2000*
1,1,0.5000,0.2500,-0.2000*
1,1,0.5000,-0.2500,-0.2000*
1,1,0.5000,-0.2500,0.2000*
%
%ADD67ROUNDEDRECTD67*%
%ADD68C,1.1000*%
G04:AMPARAMS|DCode=69|XSize=1.8mm|YSize=1.8mm|CornerRadius=0.135mm|HoleSize=0mm|Usage=FLASHONLY|Rotation=90.000|XOffset=0mm|YOffset=0mm|HoleType=Round|Shape=RoundedRectangle|*
%AMROUNDEDRECTD69*
21,1,1.8000,1.5300,0,0,90.0*
21,1,1.5300,1.8000,0,0,90.0*
1,1,0.2700,0.7650,0.7650*
1,1,0.2700,0.7650,-0.7650*
1,1,0.2700,-0.7650,-0.7650*
1,1,0.2700,-0.7650,0.7650*
%
%ADD69ROUNDEDRECTD69*%
G04:AMPARAMS|DCode=70|XSize=0.8mm|YSize=0.3mm|CornerRadius=0.125mm|HoleSize=0mm|Usage=FLASHONLY|Rotation=0.000|XOffset=0mm|YOffset=0mm|HoleType=Round|Shape=RoundedRectangle|*
%AMROUNDEDRECTD70*
21,1,0.8000,0.0500,0,0,0.0*
21,1,0.5500,0.3000,0,0,0.0*
1,1,0.2500,0.2750,-0.0250*
1,1,0.2500,-0.2750,-0.0250*
1,1,0.2500,-0.2750,0.0250*
1,1,0.2500,0.2750,0.0250*
%
%ADD70ROUNDEDRECTD70*%
G04:AMPARAMS|DCode=71|XSize=0.8mm|YSize=0.3mm|CornerRadius=0.125mm|HoleSize=0mm|Usage=FLASHONLY|Rotation=90.000|XOffset=0mm|YOffset=0mm|HoleType=Round|Shape=RoundedRectangle|*
%AMROUNDEDRECTD71*
21,1,0.8000,0.0500,0,0,90.0*
21,1,0.5500,0.3000,0,0,90.0*
1,1,0.2500,0.0250,0.2750*
1,1,0.2500,0.0250,-0.2750*
1,1,0.2500,-0.0250,-0.2750*
1,1,0.2500,-0.0250,0.2750*
%
%ADD71ROUNDEDRECTD71*%
G04:AMPARAMS|DCode=72|XSize=1mm|YSize=1.5mm|CornerRadius=0.275mm|HoleSize=0mm|Usage=FLASHONLY|Rotation=270.000|XOffset=0mm|YOffset=0mm|HoleType=Round|Shape=RoundedRectangle|*
%AMROUNDEDRECTD72*
21,1,1.0000,0.9500,0,0,270.0*
21,1,0.4500,1.5000,0,0,270.0*
1,1,0.5500,-0.4750,-0.2250*
1,1,0.5500,-0.4750,0.2250*
1,1,0.5500,0.4750,0.2250*
1,1,0.5500,0.4750,-0.2250*
%
%ADD72ROUNDEDRECTD72*%
G04:AMPARAMS|DCode=73|XSize=1mm|YSize=1.5mm|CornerRadius=0.275mm|HoleSize=0mm|Usage=FLASHONLY|Rotation=270.000|XOffset=0mm|YOffset=0mm|HoleType=Round|Shape=RoundedRectangle|*
%AMROUNDEDRECTD73*
21,1,1.0000,0.9500,0,0,270.0*
21,1,0.4500,1.5000,0,0,270.0*
1,1,0.5500,-0.4750,-0.2250*
1,1,0.5500,-0.4750,0.2250*
1,1,0.5500,0.4750,0.2250*
1,1,0.5500,0.4750,-0.2250*
%
%ADD73ROUNDEDRECTD73*%
G04:AMPARAMS|DCode=74|XSize=0.85mm|YSize=0.9mm|CornerRadius=0.2375mm|HoleSize=0mm|Usage=FLASHONLY|Rotation=180.000|XOffset=0mm|YOffset=0mm|HoleType=Round|Shape=RoundedRectangle|*
%AMROUNDEDRECTD74*
21,1,0.8500,0.4250,0,0,180.0*
21,1,0.3750,0.9000,0,0,180.0*
1,1,0.4750,-0.1875,0.2125*
1,1,0.4750,0.1875,0.2125*
1,1,0.4750,0.1875,-0.2125*
1,1,0.4750,-0.1875,-0.2125*
%
%ADD74ROUNDEDRECTD74*%
G04:AMPARAMS|DCode=75|XSize=3.3mm|YSize=3.9mm|CornerRadius=0.37mm|HoleSize=0mm|Usage=FLASHONLY|Rotation=0.000|XOffset=0mm|YOffset=0mm|HoleType=Round|Shape=RoundedRectangle|*
%AMROUNDEDRECTD75*
21,1,3.3000,3.1600,0,0,0.0*
21,1,2.5600,3.9000,0,0,0.0*
1,1,0.7400,1.2800,-1.5800*
1,1,0.7400,-1.2800,-1.5800*
1,1,0.7400,-1.2800,1.5800*
1,1,0.7400,1.2800,1.5800*
%
%ADD75ROUNDEDRECTD75*%
G04:AMPARAMS|DCode=76|XSize=3.15mm|YSize=2.5mm|CornerRadius=0.35mm|HoleSize=0mm|Usage=FLASHONLY|Rotation=0.000|XOffset=0mm|YOffset=0mm|HoleType=Round|Shape=RoundedRectangle|*
%AMROUNDEDRECTD76*
21,1,3.1500,1.8000,0,0,0.0*
21,1,2.4500,2.5000,0,0,0.0*
1,1,0.7000,1.2250,-0.9000*
1,1,0.7000,-1.2250,-0.9000*
1,1,0.7000,-1.2250,0.9000*
1,1,0.7000,1.2250,0.9000*
%
%ADD76ROUNDEDRECTD76*%
G04:AMPARAMS|DCode=77|XSize=1.7mm|YSize=0.7mm|CornerRadius=0.2mm|HoleSize=0mm|Usage=FLASHONLY|Rotation=0.000|XOffset=0mm|YOffset=0mm|HoleType=Round|Shape=RoundedRectangle|*
%AMROUNDEDRECTD77*
21,1,1.7000,0.3000,0,0,0.0*
21,1,1.3000,0.7000,0,0,0.0*
1,1,0.4000,0.6500,-0.1500*
1,1,0.4000,-0.6500,-0.1500*
1,1,0.4000,-0.6500,0.1500*
1,1,0.4000,0.6500,0.1500*
%
%ADD77ROUNDEDRECTD77*%
G04:AMPARAMS|DCode=78|XSize=0.7mm|YSize=0.6mm|CornerRadius=0.175mm|HoleSize=0mm|Usage=FLASHONLY|Rotation=270.000|XOffset=0mm|YOffset=0mm|HoleType=Round|Shape=RoundedRectangle|*
%AMROUNDEDRECTD78*
21,1,0.7000,0.2500,0,0,270.0*
21,1,0.3500,0.6000,0,0,270.0*
1,1,0.3500,-0.1250,-0.1750*
1,1,0.3500,-0.1250,0.1750*
1,1,0.3500,0.1250,0.1750*
1,1,0.3500,0.1250,-0.1750*
%
%ADD78ROUNDEDRECTD78*%
G04:AMPARAMS|DCode=79|XSize=0.97mm|YSize=0.97mm|CornerRadius=0.097mm|HoleSize=0mm|Usage=FLASHONLY|Rotation=180.000|XOffset=0mm|YOffset=0mm|HoleType=Round|Shape=RoundedRectangle|*
%AMROUNDEDRECTD79*
21,1,0.9700,0.7760,0,0,180.0*
21,1,0.7760,0.9700,0,0,180.0*
1,1,0.1940,-0.3880,0.3880*
1,1,0.1940,0.3880,0.3880*
1,1,0.1940,0.3880,-0.3880*
1,1,0.1940,-0.3880,-0.3880*
%
%ADD79ROUNDEDRECTD79*%
%ADD80R,2.5000X1.6000*%
G04:AMPARAMS|DCode=81|XSize=0.85mm|YSize=1.1mm|CornerRadius=0.0988mm|HoleSize=0mm|Usage=FLASHONLY|Rotation=0.000|XOffset=0mm|YOffset=0mm|HoleType=Round|Shape=RoundedRectangle|*
%AMROUNDEDRECTD81*
21,1,0.8500,0.9025,0,0,0.0*
21,1,0.6525,1.1000,0,0,0.0*
1,1,0.1975,0.3263,-0.4513*
1,1,0.1975,-0.3263,-0.4513*
1,1,0.1975,-0.3263,0.4513*
1,1,0.1975,0.3263,0.4513*
%
%ADD81ROUNDEDRECTD81*%
G04:AMPARAMS|DCode=82|XSize=0.7mm|YSize=1.1mm|CornerRadius=0.101mm|HoleSize=0mm|Usage=FLASHONLY|Rotation=0.000|XOffset=0mm|YOffset=0mm|HoleType=Round|Shape=RoundedRectangle|*
%AMROUNDEDRECTD82*
21,1,0.7000,0.8980,0,0,0.0*
21,1,0.4980,1.1000,0,0,0.0*
1,1,0.2020,0.2490,-0.4490*
1,1,0.2020,-0.2490,-0.4490*
1,1,0.2020,-0.2490,0.4490*
1,1,0.2020,0.2490,0.4490*
%
%ADD82ROUNDEDRECTD82*%
%ADD83C,0.6000*%
G04:AMPARAMS|DCode=84|XSize=1.1mm|YSize=1.4mm|CornerRadius=0.3mm|HoleSize=0mm|Usage=FLASHONLY|Rotation=180.000|XOffset=0mm|YOffset=0mm|HoleType=Round|Shape=RoundedRectangle|*
%AMROUNDEDRECTD84*
21,1,1.1000,0.8000,0,0,180.0*
21,1,0.5000,1.4000,0,0,180.0*
1,1,0.6000,-0.2500,0.4000*
1,1,0.6000,0.2500,0.4000*
1,1,0.6000,0.2500,-0.4000*
1,1,0.6000,-0.2500,-0.4000*
%
%ADD84ROUNDEDRECTD84*%
G04:AMPARAMS|DCode=85|XSize=0.775mm|YSize=0.3mm|CornerRadius=0.1mm|HoleSize=0mm|Usage=FLASHONLY|Rotation=180.000|XOffset=0mm|YOffset=0mm|HoleType=Round|Shape=RoundedRectangle|*
%AMROUNDEDRECTD85*
21,1,0.7750,0.1000,0,0,180.0*
21,1,0.5750,0.3000,0,0,180.0*
1,1,0.2000,-0.2875,0.0500*
1,1,0.2000,0.2875,0.0500*
1,1,0.2000,0.2875,-0.0500*
1,1,0.2000,-0.2875,-0.0500*
%
%ADD85ROUNDEDRECTD85*%
G04:AMPARAMS|DCode=86|XSize=0.875mm|YSize=0.5mm|CornerRadius=0.15mm|HoleSize=0mm|Usage=FLASHONLY|Rotation=180.000|XOffset=0mm|YOffset=0mm|HoleType=Round|Shape=RoundedRectangle|*
%AMROUNDEDRECTD86*
21,1,0.8750,0.2000,0,0,180.0*
21,1,0.5750,0.5000,0,0,180.0*
1,1,0.3000,-0.2875,0.1000*
1,1,0.3000,0.2875,0.1000*
1,1,0.3000,0.2875,-0.1000*
1,1,0.3000,-0.2875,-0.1000*
%
%ADD86ROUNDEDRECTD86*%
G04:AMPARAMS|DCode=87|XSize=1.4mm|YSize=1.7mm|CornerRadius=0.102mm|HoleSize=0mm|Usage=FLASHONLY|Rotation=0.000|XOffset=0mm|YOffset=0mm|HoleType=Round|Shape=RoundedRectangle|*
%AMROUNDEDRECTD87*
21,1,1.4000,1.4960,0,0,0.0*
21,1,1.1960,1.7000,0,0,0.0*
1,1,0.2040,0.5980,-0.7480*
1,1,0.2040,-0.5980,-0.7480*
1,1,0.2040,-0.5980,0.7480*
1,1,0.2040,0.5980,0.7480*
%
%ADD87ROUNDEDRECTD87*%
G04:AMPARAMS|DCode=88|XSize=0.95mm|YSize=1.35mm|CornerRadius=0.22mm|HoleSize=0mm|Usage=FLASHONLY|Rotation=0.000|XOffset=0mm|YOffset=0mm|HoleType=Round|Shape=RoundedRectangle|*
%AMROUNDEDRECTD88*
21,1,0.9500,0.9100,0,0,0.0*
21,1,0.5100,1.3500,0,0,0.0*
1,1,0.4400,0.2550,-0.4550*
1,1,0.4400,-0.2550,-0.4550*
1,1,0.4400,-0.2550,0.4550*
1,1,0.4400,0.2550,0.4550*
%
%ADD88ROUNDEDRECTD88*%
%ADD89O,2.5000X1.6000*%
%ADD90O,2.5000X1.6500*%
%ADD91O,2.5000X1.7000*%
G04:AMPARAMS|DCode=92|XSize=1.7mm|YSize=2.5mm|CornerRadius=0.45mm|HoleSize=0mm|Usage=FLASHONLY|Rotation=90.000|XOffset=0mm|YOffset=0mm|HoleType=Round|Shape=RoundedRectangle|*
%AMROUNDEDRECTD92*
21,1,1.7000,1.6000,0,0,90.0*
21,1,0.8000,2.5000,0,0,90.0*
1,1,0.9000,0.8000,0.4000*
1,1,0.9000,0.8000,-0.4000*
1,1,0.9000,-0.8000,-0.4000*
1,1,0.9000,-0.8000,0.4000*
%
%ADD92ROUNDEDRECTD92*%
%ADD93O,2.0000X1.6000*%
G04:AMPARAMS|DCode=94|XSize=1.6mm|YSize=2mm|CornerRadius=0.425mm|HoleSize=0mm|Usage=FLASHONLY|Rotation=270.000|XOffset=0mm|YOffset=0mm|HoleType=Round|Shape=RoundedRectangle|*
%AMROUNDEDRECTD94*
21,1,1.6000,1.1500,0,0,270.0*
21,1,0.7500,2.0000,0,0,270.0*
1,1,0.8500,-0.5750,-0.3750*
1,1,0.8500,-0.5750,0.3750*
1,1,0.8500,0.5750,0.3750*
1,1,0.8500,0.5750,-0.3750*
%
%ADD94ROUNDEDRECTD94*%
%ADD95O,1.3000X1.8000*%
%ADD96O,1.3000X2.0000*%
%ADD97C,1.2000*%
G04:AMPARAMS|DCode=98|XSize=1.9mm|YSize=1.1mm|CornerRadius=0.55mm|HoleSize=0mm|Usage=FLASHONLY|Rotation=90.000|XOffset=0mm|YOffset=0mm|HoleType=Round|Shape=RoundedRectangle|*
%AMROUNDEDRECTD98*
21,1,1.9000,0.0000,0,0,90.0*
21,1,0.8000,1.1000,0,0,90.0*
1,1,1.1000,0.0000,0.4000*
1,1,1.1000,0.0000,-0.4000*
1,1,1.1000,0.0000,-0.4000*
1,1,1.1000,0.0000,0.4000*
%
%ADD98ROUNDEDRECTD98*%
G04:AMPARAMS|DCode=99|XSize=2.2mm|YSize=1.1mm|CornerRadius=0.55mm|HoleSize=0mm|Usage=FLASHONLY|Rotation=90.000|XOffset=0mm|YOffset=0mm|HoleType=Round|Shape=RoundedRectangle|*
%AMROUNDEDRECTD99*
21,1,2.2000,0.0000,0,0,90.0*
21,1,1.1000,1.1000,0,0,90.0*
1,1,1.1000,0.0000,0.5500*
1,1,1.1000,0.0000,-0.5500*
1,1,1.1000,0.0000,-0.5500*
1,1,1.1000,0.0000,0.5500*
%
%ADD99ROUNDEDRECTD99*%
%ADD100C,0.8500*%
%ADD101C,1.8000*%
%ADD102C,1.3000*%
%ADD103C,0.1000*%
%ADD104O,1.6000X2.0000*%
G04:AMPARAMS|DCode=105|XSize=1.6mm|YSize=2mm|CornerRadius=0.425mm|HoleSize=0mm|Usage=FLASHONLY|Rotation=0.000|XOffset=0mm|YOffset=0mm|HoleType=Round|Shape=RoundedRectangle|*
%AMROUNDEDRECTD105*
21,1,1.6000,1.1500,0,0,0.0*
21,1,0.7500,2.0000,0,0,0.0*
1,1,0.8500,0.3750,-0.5750*
1,1,0.8500,-0.3750,-0.5750*
1,1,0.8500,-0.3750,0.5750*
1,1,0.8500,0.3750,0.5750*
%
%ADD105ROUNDEDRECTD105*%
%ADD106C,1.5000*%
G04:AMPARAMS|DCode=107|XSize=1.5mm|YSize=1.5mm|CornerRadius=0.4mm|HoleSize=0mm|Usage=FLASHONLY|Rotation=180.000|XOffset=0mm|YOffset=0mm|HoleType=Round|Shape=RoundedRectangle|*
%AMROUNDEDRECTD107*
21,1,1.5000,0.7000,0,0,180.0*
21,1,0.7000,1.5000,0,0,180.0*
1,1,0.8000,-0.3500,0.3500*
1,1,0.8000,0.3500,0.3500*
1,1,0.8000,0.3500,-0.3500*
1,1,0.8000,-0.3500,-0.3500*
%
%ADD107ROUNDEDRECTD107*%
%ADD108C,2.5000*%
%ADD109C,3.4000*%
%ADD110C,1.6000*%
%ADD111O,2.3000X4.8000*%
%ADD112O,4.8000X2.3000*%
G04:AMPARAMS|DCode=113|XSize=4.8mm|YSize=2.3mm|CornerRadius=0.6mm|HoleSize=0mm|Usage=FLASHONLY|Rotation=180.000|XOffset=0mm|YOffset=0mm|HoleType=Round|Shape=RoundedRectangle|*
%AMROUNDEDRECTD113*
21,1,4.8000,1.1000,0,0,180.0*
21,1,3.6000,2.3000,0,0,180.0*
1,1,1.2000,-1.8000,0.5500*
1,1,1.2000,1.8000,0.5500*
1,1,1.2000,1.8000,-0.5500*
1,1,1.2000,-1.8000,-0.5500*
%
%ADD113ROUNDEDRECTD113*%
%ADD114C,1.4500*%
%ADD115C,6.1000*%
D19*
X01160000Y00000000D02*
G03*
X01200000Y00040000I00000000J00040000D01*
G01*
X01200000Y00510000D02*
G03*
X01160000Y00550000I-00040000J00000000D01*
G01*
X00000000Y00040000D02*
G03*
X00040000Y-00000000I00040000J00000000D01*
G01*
Y00550000D02*
G03*
X00000000Y00510000I00000000J-00040000D01*
G01*
X01200000Y00040000D02*
X01200000Y00510000D01*
X00040000Y-00000000D02*
X01160000Y00000000D01*
X00040000Y00550000D02*
X01160000Y00550000D01*
X-00000000Y00510000D02*
X00000000Y00040000D01*
X01160000Y00000000D02*
G03*
X01200000Y00040000I00000000J00040000D01*
G01*
X01200000Y00510000D02*
G03*
X01160000Y00550000I-00040000J00000000D01*
G01*
X00000000Y00040000D02*
G03*
X00040000Y-00000000I00040000J00000000D01*
G01*
Y00550000D02*
G03*
X00000000Y00510000I00000000J-00040000D01*
G01*
X01200000Y00040000D02*
X01200000Y00510000D01*
X00040000Y-00000000D02*
X01160000Y00000000D01*
X00040000Y00550000D02*
X01160000Y00550000D01*
X-00000000Y00510000D02*
X00000000Y00040000D01*
D52*
X01133001Y00104751D02*
D03*
D53*
X00982250Y00487000D02*
D03*
X00951750D02*
D03*
X00982250Y00450000D02*
D03*
X00951750D02*
D03*
X00982250Y00404000D02*
D03*
X00951750D02*
D03*
X00981948Y00523757D02*
D03*
X00951448D02*
D03*
D54*
X00528000Y00070500D02*
D03*
X00524000D02*
D03*
X00520000D02*
D03*
X00516000D02*
D03*
X00512000D02*
D03*
X00508000D02*
D03*
X00504000D02*
D03*
X00500000D02*
D03*
X00496000D02*
D03*
X00492000D02*
D03*
X00488000D02*
D03*
X00484000D02*
D03*
X00480000D02*
D03*
X00476000D02*
D03*
X00472000D02*
D03*
X00468000D02*
D03*
X00464000D02*
D03*
X00460000D02*
D03*
X00456000D02*
D03*
D55*
X00672000Y00067500D02*
D03*
X00611000Y00067500D02*
D03*
X00619000Y00067500D02*
D03*
X00624000Y00067500D02*
D03*
X00634000D02*
D03*
X00649000Y00067500D02*
D03*
X00659000Y00067500D02*
D03*
X00664000D02*
D03*
X00675000Y00067500D02*
D03*
X00667000D02*
D03*
X00654000D02*
D03*
X00644000Y00067500D02*
D03*
X00639000D02*
D03*
X00629000D02*
D03*
X00616000D02*
D03*
X00608000D02*
D03*
D56*
X00155500Y00488000D02*
D03*
Y00478000D02*
D03*
X00168500Y00483000D02*
D03*
X00736250Y00308000D02*
D03*
Y00318000D02*
D03*
X00723250Y00313000D02*
D03*
X00155500Y00439000D02*
D03*
X00168500Y00444000D02*
D03*
Y00434000D02*
D03*
X00155500Y00461000D02*
D03*
X00168500Y00466000D02*
D03*
Y00456000D02*
D03*
D57*
X00065000Y00020500D02*
D03*
X01173000Y00095500D02*
D03*
X01156500Y00456000D02*
D03*
D58*
X00238500Y00358940D02*
D03*
Y00388940D02*
D03*
D59*
X00832000Y00371000D02*
D03*
X00876000D02*
D03*
D60*
X00202000Y00110000D02*
D03*
Y00140800D02*
D03*
X00206000Y00110000D02*
D03*
Y00140800D02*
D03*
X00210000Y00110000D02*
D03*
Y00140800D02*
D03*
X00214000Y00110000D02*
D03*
Y00140800D02*
D03*
X00218000Y00110000D02*
D03*
Y00140800D02*
D03*
X00222000Y00110000D02*
D03*
Y00140800D02*
D03*
X00226000Y00110000D02*
D03*
Y00140800D02*
D03*
X00230000Y00110000D02*
D03*
Y00140800D02*
D03*
X00234000Y00110000D02*
D03*
Y00140800D02*
D03*
X00238000Y00110000D02*
D03*
Y00140800D02*
D03*
X00242000Y00110000D02*
D03*
Y00140800D02*
D03*
X00246000Y00110000D02*
D03*
Y00140800D02*
D03*
X00250000Y00110000D02*
D03*
Y00140800D02*
D03*
X00254000Y00110000D02*
D03*
Y00140800D02*
D03*
X00258000Y00110000D02*
D03*
Y00140800D02*
D03*
X00262000Y00110000D02*
D03*
Y00140800D02*
D03*
X00266000Y00110000D02*
D03*
Y00140800D02*
D03*
X00270000Y00110000D02*
D03*
Y00140800D02*
D03*
X00274000Y00110000D02*
D03*
Y00140800D02*
D03*
X00278000Y00110000D02*
D03*
Y00140800D02*
D03*
X00282000Y00110000D02*
D03*
Y00140800D02*
D03*
X00286000Y00110000D02*
D03*
Y00140800D02*
D03*
X00290000Y00110000D02*
D03*
Y00140800D02*
D03*
X00294000Y00110000D02*
D03*
Y00140800D02*
D03*
X00298000Y00110000D02*
D03*
Y00140800D02*
D03*
X00302000Y00110000D02*
D03*
Y00140800D02*
D03*
X00306000Y00110000D02*
D03*
Y00140800D02*
D03*
X00310000Y00110000D02*
D03*
Y00140800D02*
D03*
X00314000Y00110000D02*
D03*
Y00140800D02*
D03*
X00318000Y00110000D02*
D03*
Y00140800D02*
D03*
X00322000Y00110000D02*
D03*
Y00140800D02*
D03*
X00326000Y00110000D02*
D03*
Y00140800D02*
D03*
X00330000Y00110000D02*
D03*
Y00140800D02*
D03*
X00334000Y00110000D02*
D03*
Y00140800D02*
D03*
X00338000Y00110000D02*
D03*
Y00140800D02*
D03*
X00342000Y00110000D02*
D03*
Y00140800D02*
D03*
X00346000Y00110000D02*
D03*
Y00140800D02*
D03*
X00350000Y00110000D02*
D03*
Y00140800D02*
D03*
X00354000Y00110000D02*
D03*
Y00140800D02*
D03*
X00358000Y00110000D02*
D03*
Y00140800D02*
D03*
X00362000Y00110000D02*
D03*
Y00140800D02*
D03*
X00366000Y00110000D02*
D03*
Y00140800D02*
D03*
X00370000Y00110000D02*
D03*
Y00140800D02*
D03*
X00374000Y00110000D02*
D03*
Y00140800D02*
D03*
X00378000Y00110000D02*
D03*
Y00140800D02*
D03*
X00382000Y00110000D02*
D03*
Y00140800D02*
D03*
X00386000Y00110000D02*
D03*
Y00140800D02*
D03*
X00390000Y00110000D02*
D03*
Y00140800D02*
D03*
X00394000Y00110000D02*
D03*
Y00140800D02*
D03*
X00398000Y00110000D02*
D03*
Y00140800D02*
D03*
X00202000Y00449200D02*
D03*
Y00480000D02*
D03*
X00206000Y00449200D02*
D03*
Y00480000D02*
D03*
X00210000Y00449200D02*
D03*
Y00480000D02*
D03*
X00214000Y00449200D02*
D03*
Y00480000D02*
D03*
X00218000Y00449200D02*
D03*
Y00480000D02*
D03*
X00222000Y00449200D02*
D03*
Y00480000D02*
D03*
X00226000Y00449200D02*
D03*
Y00480000D02*
D03*
X00230000Y00449200D02*
D03*
Y00480000D02*
D03*
X00234000Y00449200D02*
D03*
Y00480000D02*
D03*
X00238000Y00449200D02*
D03*
Y00480000D02*
D03*
X00242000Y00449200D02*
D03*
Y00480000D02*
D03*
X00246000Y00449200D02*
D03*
Y00480000D02*
D03*
X00250000Y00449200D02*
D03*
Y00480000D02*
D03*
X00254000Y00449200D02*
D03*
Y00480000D02*
D03*
X00258000Y00449200D02*
D03*
Y00480000D02*
D03*
X00262000Y00449200D02*
D03*
Y00480000D02*
D03*
X00266000Y00449200D02*
D03*
Y00480000D02*
D03*
X00270000Y00449200D02*
D03*
Y00480000D02*
D03*
X00274000Y00449200D02*
D03*
Y00480000D02*
D03*
X00278000Y00449200D02*
D03*
Y00480000D02*
D03*
X00282000Y00449200D02*
D03*
Y00480000D02*
D03*
X00286000Y00449200D02*
D03*
Y00480000D02*
D03*
X00290000Y00449200D02*
D03*
Y00480000D02*
D03*
X00294000Y00449200D02*
D03*
Y00480000D02*
D03*
X00298000Y00449200D02*
D03*
Y00480000D02*
D03*
X00302000Y00449200D02*
D03*
Y00480000D02*
D03*
X00306000Y00449200D02*
D03*
Y00480000D02*
D03*
X00310000Y00449200D02*
D03*
Y00480000D02*
D03*
X00314000Y00449200D02*
D03*
Y00480000D02*
D03*
X00318000Y00449200D02*
D03*
Y00480000D02*
D03*
X00322000Y00449200D02*
D03*
Y00480000D02*
D03*
X00326000Y00449200D02*
D03*
Y00480000D02*
D03*
X00330000Y00449200D02*
D03*
Y00480000D02*
D03*
X00334000Y00449200D02*
D03*
Y00480000D02*
D03*
X00338000Y00449200D02*
D03*
Y00480000D02*
D03*
X00342000Y00449200D02*
D03*
Y00480000D02*
D03*
X00346000Y00449200D02*
D03*
Y00480000D02*
D03*
X00350000Y00449200D02*
D03*
Y00480000D02*
D03*
X00354000Y00449200D02*
D03*
Y00480000D02*
D03*
X00358000Y00449200D02*
D03*
Y00480000D02*
D03*
X00362000Y00449200D02*
D03*
Y00480000D02*
D03*
X00366000Y00449200D02*
D03*
Y00480000D02*
D03*
X00370000Y00449200D02*
D03*
Y00480000D02*
D03*
X00374000Y00449200D02*
D03*
Y00480000D02*
D03*
X00378000Y00449200D02*
D03*
Y00480000D02*
D03*
X00382000Y00449200D02*
D03*
Y00480000D02*
D03*
X00386000Y00449200D02*
D03*
Y00480000D02*
D03*
X00390000Y00449200D02*
D03*
Y00480000D02*
D03*
X00394000Y00449200D02*
D03*
Y00480000D02*
D03*
X00398000Y00449200D02*
D03*
Y00480000D02*
D03*
D61*
X00009500Y00126500D02*
D03*
X00031500D02*
D03*
X00009500Y00202500D02*
D03*
X00031500D02*
D03*
D62*
X00041000Y00142000D02*
D03*
Y00157000D02*
D03*
Y00187000D02*
D03*
D63*
X00827000Y00409000D02*
D03*
X00877000D02*
D03*
D64*
X00843000Y00315750D02*
D03*
Y00346250D02*
D03*
X00820000Y00315750D02*
D03*
Y00346250D02*
D03*
X00700750Y00353500D02*
D03*
Y00384000D02*
D03*
D65*
X00034500Y00350500D02*
D03*
Y00334500D02*
D03*
X00014000Y00350500D02*
D03*
Y00334500D02*
D03*
X00034500Y00417000D02*
D03*
Y00433000D02*
D03*
X00014000Y00417000D02*
D03*
Y00433000D02*
D03*
D66*
X00324000Y00340750D02*
D03*
Y00355750D02*
D03*
X00556500Y00367500D02*
D03*
Y00352500D02*
D03*
X00753387Y00331475D02*
D03*
Y00346475D02*
D03*
X00337250Y00355750D02*
D03*
Y00340750D02*
D03*
X00738750Y00429750D02*
D03*
Y00444750D02*
D03*
X00796000Y00450000D02*
D03*
Y00435000D02*
D03*
X00900000Y00225000D02*
D03*
Y00210000D02*
D03*
X00886000Y00225000D02*
D03*
Y00210000D02*
D03*
X00071500Y00407250D02*
D03*
Y00392250D02*
D03*
X00642999Y00088000D02*
D03*
Y00103000D02*
D03*
X00626999Y00088000D02*
D03*
Y00103000D02*
D03*
X00217500Y00377940D02*
D03*
Y00362940D02*
D03*
X00590000Y00252000D02*
D03*
Y00267000D02*
D03*
X00507000Y00521500D02*
D03*
Y00506500D02*
D03*
X00491000Y00521500D02*
D03*
Y00506500D02*
D03*
X00936500Y00375000D02*
D03*
Y00360000D02*
D03*
D67*
X00776500Y00403000D02*
D03*
X00797500Y00412500D02*
D03*
Y00393500D02*
D03*
X00758000D02*
D03*
Y00412500D02*
D03*
X00737000Y00403000D02*
D03*
D68*
X00889000Y00438000D02*
D03*
X00707500Y00314750D02*
D03*
X00636500Y00504750D02*
D03*
X00020500Y00179500D02*
D03*
Y00149500D02*
D03*
D69*
X00862500Y00455000D02*
D03*
D70*
X00848500Y00463000D02*
D03*
Y00447000D02*
D03*
Y00451000D02*
D03*
Y00455000D02*
D03*
Y00459000D02*
D03*
X00876500Y00447000D02*
D03*
Y00459000D02*
D03*
Y00451000D02*
D03*
Y00463000D02*
D03*
Y00455000D02*
D03*
D71*
X00862500Y00441000D02*
D03*
X00858500D02*
D03*
X00854500D02*
D03*
X00870500D02*
D03*
X00866500D02*
D03*
X00870500Y00469000D02*
D03*
X00866500D02*
D03*
X00862500D02*
D03*
X00858500D02*
D03*
X00854500Y00469000D02*
D03*
D72*
X00757250Y00440500D02*
D03*
X00778750Y00431000D02*
D03*
D73*
Y00450000D02*
D03*
D74*
X00987000Y00196000D02*
D03*
X00972000D02*
D03*
X00906500Y00367500D02*
D03*
X00921500D02*
D03*
X00707500Y00330250D02*
D03*
X00692500D02*
D03*
X00764750Y00315500D02*
D03*
X00749750D02*
D03*
X00792750D02*
D03*
X00777750D02*
D03*
X00141000Y00155500D02*
D03*
X00156000D02*
D03*
X00798750Y00377500D02*
D03*
X00783750D02*
D03*
X00829500Y00451000D02*
D03*
X00814500D02*
D03*
X00923500Y00517000D02*
D03*
X00908500D02*
D03*
X00829500Y00437500D02*
D03*
X00814500D02*
D03*
X00085500Y00253000D02*
D03*
X00070500D02*
D03*
X00070500Y00267000D02*
D03*
X00085500D02*
D03*
X00156000Y00169500D02*
D03*
X00141000D02*
D03*
X00171000Y00138000D02*
D03*
X00156000D02*
D03*
X00127500Y00447500D02*
D03*
X00142500D02*
D03*
X00142000Y00400500D02*
D03*
X00127000D02*
D03*
X00142000Y00386500D02*
D03*
X00127000D02*
D03*
X00783750Y00363500D02*
D03*
X00798750D02*
D03*
X00923500Y00490000D02*
D03*
X00908500D02*
D03*
X00163000Y00523500D02*
D03*
X00178000D02*
D03*
X00908500Y00503500D02*
D03*
X00923500D02*
D03*
Y00530500D02*
D03*
X00908500D02*
D03*
Y00476500D02*
D03*
X00923500D02*
D03*
X00208000Y00523500D02*
D03*
X00193000D02*
D03*
X00524250Y00513750D02*
D03*
X00539250D02*
D03*
X00987000Y00182000D02*
D03*
X00972000D02*
D03*
X00987000Y00168000D02*
D03*
X00972000D02*
D03*
X00448500Y00263000D02*
D03*
X00433500D02*
D03*
X00736750Y00330250D02*
D03*
X00721750D02*
D03*
D75*
X00827500Y00270500D02*
D03*
X00897500D02*
D03*
D76*
X00962000Y00280250D02*
D03*
Y00222750D02*
D03*
D77*
X00989500Y00346050D02*
D03*
Y00333350D02*
D03*
Y00320650D02*
D03*
Y00307950D02*
D03*
X00935500D02*
D03*
Y00320650D02*
D03*
Y00333350D02*
D03*
Y00346050D02*
D03*
D78*
X00731750Y00343500D02*
D03*
X00726750Y00356500D02*
D03*
X00736750D02*
D03*
X00765500Y00378000D02*
D03*
X00770500Y00365000D02*
D03*
X00760500D02*
D03*
D79*
X00682500Y00356750D02*
D03*
X00660000D02*
D03*
D80*
X00629500Y00358250D02*
D03*
Y00395250D02*
D03*
D81*
X00660750Y00377750D02*
D03*
X00681250D02*
D03*
X00681250Y00401250D02*
D03*
X00660750D02*
D03*
D82*
X00671000D02*
D03*
Y00377750D02*
D03*
D83*
X00760250Y00355500D02*
D03*
X00649499Y00078000D02*
D03*
X00626999Y00079000D02*
D03*
X00041000Y00170398D02*
D03*
X00251615Y00500000D02*
D03*
X00097000Y00033500D02*
D03*
X00034500Y00475500D02*
D03*
X00810750Y00377500D02*
D03*
X00718500Y00415250D02*
D03*
X00819000Y00461500D02*
D03*
X00887000Y00477000D02*
D03*
X00909053Y00466013D02*
D03*
X00773500Y00393500D02*
D03*
X00853242Y00431024D02*
D03*
X00861750Y00432000D02*
D03*
X00838088Y00468191D02*
D03*
X00178000Y00534000D02*
D03*
X00507000Y00533000D02*
D03*
X00483000D02*
D03*
X00552750Y00522000D02*
D03*
D84*
X00776750Y00332250D02*
D03*
X00792750D02*
D03*
D85*
X00664375Y00191500D02*
D03*
Y00196500D02*
D03*
X00664375Y00206500D02*
D03*
Y00211500D02*
D03*
X00655625Y00211500D02*
D03*
Y00206500D02*
D03*
X00655625Y00196500D02*
D03*
Y00191500D02*
D03*
X00664375Y00158500D02*
D03*
Y00163500D02*
D03*
X00664375Y00173500D02*
D03*
Y00178500D02*
D03*
X00655625Y00178500D02*
D03*
Y00173500D02*
D03*
X00655625Y00163500D02*
D03*
Y00158500D02*
D03*
D86*
X00663875Y00201500D02*
D03*
X00656125D02*
D03*
X00663875Y00168500D02*
D03*
X00656125D02*
D03*
D87*
X00661750Y00424000D02*
D03*
X00692250D02*
D03*
D88*
X00930500Y00177500D02*
D03*
X00949500D02*
D03*
X00930500Y00196000D02*
D03*
X00949500D02*
D03*
D89*
X01093000Y00124200D02*
D03*
D90*
Y00098800D02*
D03*
D91*
Y00073400D02*
D03*
Y00048000D02*
D03*
Y00454400D02*
D03*
Y00149600D02*
D03*
Y00479800D02*
D03*
Y00505200D02*
D03*
Y00530600D02*
D03*
D92*
Y00022600D02*
D03*
D93*
X00911500Y00392600D02*
D03*
Y00418000D02*
D03*
X00645000Y00248900D02*
D03*
Y00299700D02*
D03*
Y00274300D02*
D03*
D94*
X00911500Y00443400D02*
D03*
X00645000Y00325100D02*
D03*
D95*
X00546250Y00015000D02*
D03*
X00437750D02*
D03*
D96*
X00546250Y00060000D02*
D03*
X00437750D02*
D03*
D97*
X00454500Y00052000D02*
D03*
X00529500D02*
D03*
X00374500Y00280000D02*
D03*
X00294500D02*
D03*
D98*
X00684700Y00020750D02*
D03*
X00598300D02*
D03*
D99*
X00684700Y00062250D02*
D03*
X00598300D02*
D03*
D100*
X00612600Y00057250D02*
D03*
X00670400D02*
D03*
D101*
X00100000Y00225000D02*
D03*
D102*
Y00425000D02*
D03*
D103*
X00882274Y00325118D02*
D03*
D104*
X00783200Y00520700D02*
D03*
Y00495200D02*
D03*
X00707000D02*
D03*
X00681600D02*
D03*
X00707000Y00520700D02*
D03*
X00656200D02*
D03*
X00757800Y00495200D02*
D03*
Y00520700D02*
D03*
X00732400D02*
D03*
Y00495200D02*
D03*
X00681600Y00520700D02*
D03*
X00834000D02*
D03*
Y00495200D02*
D03*
X00808600D02*
D03*
Y00520700D02*
D03*
X00859400Y00495250D02*
D03*
Y00520700D02*
D03*
X00884800Y00495200D02*
D03*
Y00520700D02*
D03*
X00789700Y00283000D02*
D03*
X00107300Y00518000D02*
D03*
X00703300Y00283000D02*
D03*
D105*
X00656200Y00495200D02*
D03*
X00764300Y00283000D02*
D03*
X00132700Y00518000D02*
D03*
X00728700Y00283000D02*
D03*
D106*
X00823500Y00128600D02*
D03*
X00760000D02*
D03*
X00810800Y00191900D02*
D03*
X00785400D02*
D03*
X00760000D02*
D03*
X00747300Y00166500D02*
D03*
X00772700D02*
D03*
X00798100D02*
D03*
X00823500D02*
D03*
X00734600Y00141300D02*
D03*
X00848900D02*
D03*
X00836200Y00191900D02*
D03*
X00848900Y00166500D02*
D03*
D107*
X00734600Y00191900D02*
D03*
D108*
X00713000Y00133500D02*
D03*
X00870500D02*
D03*
D109*
X00734600Y00103000D02*
D03*
X00848900D02*
D03*
X01172000Y00033000D02*
D03*
X00028000Y00517000D02*
D03*
X01172000D02*
D03*
X00028000Y00033000D02*
D03*
D110*
X00725450Y00062400D02*
D03*
X00750850D02*
D03*
X00832650D02*
D03*
X00858050D02*
D03*
D111*
X00983000Y00101500D02*
D03*
D112*
X00936000Y00072500D02*
D03*
D113*
Y00131500D02*
D03*
D114*
X00666600Y00274300D02*
D03*
D115*
X00565000Y00130000D02*
D03*
X00085000D02*
D03*
X00565000Y00460000D02*
D03*
X00085000D02*
D03*
M02*
