M48
;Layer_Color=9474304
;FILE_FORMAT=4:4
METRIC
;TYPE=PLATED
T4F00S00C0.6000
T7F00S00C1.0000
%
G90
G05
T04
G00X00437750Y00012500
M15
G01Y00017500
M16
G00X00437750Y00056500
M15
G01Y00063500
M16
G00X00546250Y00056500
M15
G01Y00063500
M16
G00X00546250Y00012500
M15
G01Y00017500
M16
G00X00598300Y00016750
M15
G01Y00024750
M16
G00X00598300Y00056750
M15
G01Y00067750
M16
G00X00684700Y00056750
M15
G01Y00067750
M16
G00X00684700Y00016750
M15
G01Y00024750
M16
T07
G00X00948500Y00072500
M15
G01X00923500
M16
G00X00948500Y00131500
M15
G01X00923500
M16
G00X00983000Y00089000
M15
G01Y00114000
M16
M17
M30
