M48
;Layer_Color=9474304
;FILE_FORMAT=4:4
METRIC
;TYPE=PLATED
T1F00S00C0.2000
T2F00S00C0.2500
T3F00S00C0.3000
T5F00S00C0.9000
T6F00S00C1.0000
T8F00S00C1.7000
%
T01
X00095000Y00264000
X00111825Y00264375
X00102250Y00274500
Y00281500
X00222250Y00276750
X00333500Y00274500
X00416184Y00254388
X00444500Y00247250
X00454250Y00220000
X00481000Y00224000
X00516000Y00224250
X00509411Y00191325
X00547000Y00194750
X00545500Y00164750
X00574500Y00167750
X00620727Y00144964
X00640750Y00148750
X00646000Y00168500
X00674000
Y00201500
X00646000
X00634999Y00111000
Y00081000
X00607999Y00080000
X00602750Y00118500
X00567750Y00089500
X00534500Y00104750
X00471500Y00183000
X00730172Y00170690
X00692250Y00100750
X00640032Y00044789
X00633032
X00753090Y00261019
X00568000Y00338750
X00567672Y00358190
X00546064Y00359181
X00544859Y00343632
X00534500Y00353000
X00527500
X00515500
X00508500Y00353000
X00496500Y00353000
X00489500Y00353000
X00477500Y00353000
X00470500Y00353000
X00459000Y00359000
X00460664Y00343812
X00411500Y00319000
X00430500Y00440500
X00436370Y00446370
X00448995Y00443701
X00461630Y00440630
X00467500Y00446500
X00467000Y00459000
X00480742Y00444068
X00493528Y00438432
X00501828
X00512083Y00442394
X00640172Y00516440
X00384150Y00438553
X00375849
X00363000Y00438000
X00366500Y00300250
X00322090Y00299038
X00337302Y00321616
X00184000Y00312750
X00175000Y00321500
X00102250Y00318500
Y00311500
X00093470Y00328806
X00080000Y00327000
X00066621Y00318500
Y00311500
X00107466Y00333964
X00097000Y00346000
X00201000Y00511000
X00238000Y00512750
T02
X00110500Y00074500
Y00082500
X00118500
Y00074500
X00126500
Y00082500
Y00090500
X00118500
X00110500
X00168500
Y00082500
Y00074500
X00176500
Y00082500
Y00090500
X00208000Y00089000
Y00081500
X00215622Y00065944
X00220925Y00071248
X00237137Y00085929
X00242441Y00091232
X00205375Y00102718
X00198500Y00125500
X00220000Y00149500
X00217500Y00185500
X00202500
X00185500Y00177500
X00175500Y00178000
X00165500
X00157500Y00182000
X00154500Y00196000
X00162750Y00196250
X00168000Y00225000
Y00239000
X00168750Y00249250
X00184250Y00233750
X00220000Y00220000
X00258000Y00220500
X00246500Y00200500
X00302750Y00220000
X00337500
X00372500
X00392750Y00204250
X00395468Y00182141
X00400772Y00176838
X00381691Y00184341
X00357553Y00176447
X00343197Y00159197
X00294000Y00149500
X00302000Y00131500
X00325969Y00100141
X00331272Y00094838
X00342652Y00088375
X00393500Y00126000
X00398000Y00132000
X00401000Y00120000
X00175500Y00148500
X00167000
X00128500Y00158500
X00120500
X00112500
Y00166500
X00120500
X00128500
Y00174500
X00120500
X00112500
X00134157Y00180157
X00133495Y00206434
X00131500Y00228000
X00119500Y00228000
Y00220000
X00107250Y00246750
X00124500Y00264750
X00132750Y00258500
X00140500Y00258000
X00061194Y00267000
X00270000Y00272000
X00260650Y00284000
X00415650Y00284000
X00465500Y00168000
X00478722Y00160278
Y00152500
X00486500Y00152500
X00495000Y00164000
X00510000Y00125875
X00510000Y00098000
Y00083000
X00518000Y00088000
X00526000
X00536299Y00079386
X00536611Y00096519
X00502000Y00088000
X00494000
X00486000Y00083000
X00494306Y00100960
X00498000Y00058000
Y00048000
X00506000Y00053000
X00514000
X00520196Y00040661
X00498000Y00021000
X00490000Y00053000
X00482000
X00470490Y00044468
X00605999Y00046000
X00602499Y00037000
X00622074Y00037756
X00623830Y00054184
X00636163Y00031911
X00650676Y00036009
X00652942Y00048643
X00664418Y00044544
X00676043Y00079648
X00685499Y00080000
X00686999Y00087500
X00679499
X00675999Y00095000
X00683999Y00097000
X00694499Y00092500
X00665250Y00097750
Y00106250
X00664500Y00114250
X00657500Y00109000
X00657750Y00101500
X00659000Y00093250
X00606999Y00090500
X00600000Y00095000
X00595499Y00087500
X00598999Y00080000
X00590499Y00079500
X00632500Y00141500
X00605500Y00277000
X00801799Y00207151
X00920000Y00210000
X00935500Y00214250
X00940907Y00221294
X00941000Y00229000
X00934000Y00225500
X00936000Y00234500
X00940000Y00393243
Y00402243
Y00411000
Y00419000
Y00447000
Y00456000
Y00464000
Y00472000
Y00480000
Y00489000
Y00497000
Y00505000
Y00513000
Y00522000
Y00530000
Y00538000
X00931000Y00541000
X00920000Y00540500
X00894000Y00467500
X00892000Y00459500
X00881000Y00472500
X00866500Y00478000
X00862500Y00460500
X00868000Y00455000
X00857000
X00836500Y00459000
X00831000Y00470500
X00805500Y00459000
Y00451000
Y00440000
X00840500
X00846250Y00429250
X00850500Y00422000
X00856907Y00412794
X00861907Y00406794
X00856407Y00401794
X00857000Y00392000
X01016912Y00433309
X01005000Y00470000
X00997000
Y00480000
X01005000
Y00490000
X00997000
Y00500000
X01005000
Y00510000
X00997000
X01040500Y00533250
X01071500Y00461250
X01071250Y00450000
X01079750Y00437500
X01097750Y00437000
X00796000Y00426000
X00719600Y00488700
X00616246Y00498611
X00610000Y00492750
X00628734Y00529915
X00532659Y00530482
X00524000Y00530000
X00516000Y00529250
X00499000Y00533000
X00491000
X00478000Y00490000
X00486000Y00477500
X00444750Y00480500
X00426000Y00481500
X00413780Y00443664
X00410664Y00435742
X00406257Y00534435
X00523000Y00494500
X00511904Y00430749
X00586404Y00377592
X00608939Y00378781
X00607644Y00397375
X00607500Y00338500
X00565750Y00325000
X00553250Y00317250
X00559000Y00311000
X00642250Y00430500
X00377532Y00462186
X00366218Y00459475
X00357750Y00460250
X00351000Y00457000
X00350750Y00469750
X00337750Y00472250
X00322000Y00469500
X00310000
X00304500Y00464000
X00310500Y00458000
X00303500Y00438500
X00301000Y00415500
X00294000Y00420500
X00314000Y00420500
X00272000Y00426500
X00272500Y00462500
X00270500Y00470500
X00255000Y00466500
X00246000Y00458450
X00237500Y00458500
X00222000Y00458200
X00226000Y00471000
X00234000
X00242000
X00238000Y00489250
X00230000
X00246000
X00264000Y00500000
X00259000Y00508500
X00255500Y00533000
X00193000
X00163500Y00499500
X00134500Y00477060
X00122500Y00486000
X00134500Y00433000
X00177500Y00450500
X00230000Y00439950
X00294000Y00470290
X00298000Y00490500
X00308000Y00490500
X00318000
X00326000Y00490500
X00334000Y00489110
X00352500Y00501750
X00312358Y00506565
X00290000Y00502560
X00282000Y00488500
X00217500Y00350250
X00218000Y00289250
X00105000Y00362000
X00033000Y00365750
X00012750Y00366000
X00081000Y00419500
T03
X00010000Y00095000
X00051000Y00105750
X00062000Y00095000
X00066500Y00085000
X00074500Y00090500
X00075000Y00079500
X00089000Y00057000
X00100483Y00053740
X00110000Y00015000
X00154000Y00019500
X00183500Y00018500
X00225000Y00029000
X00208000Y00053000
X00203186Y00069439
X00193000Y00102000
X00209000Y00120000
X00217000Y00123000
X00218000Y00131550
X00206000Y00131550
X00230000
X00229875Y00122867
X00241951Y00122589
X00242000Y00131550
X00254000
X00254028Y00122496
X00267631Y00122172
X00266000Y00131550
X00278000Y00131550
X00290000
Y00119250
X00302000
X00314000
X00326000
X00338000
Y00131550
X00350000
X00348023Y00122103
X00362000Y00124000
Y00131550
X00374000
X00372253Y00123491
X00392404Y00117857
X00382500Y00150050
X00320078Y00157808
X00326000Y00131550
X00314000
X00278000Y00119250
X00277338Y00072119
X00285365Y00064680
X00254571Y00058403
X00258663Y00047650
X00282500Y00014500
X00350500
X00399000Y00015000
X00152500Y00051500
X00171000Y00127000
X00227500Y00161000
X00234000Y00168500
X00227500Y00175500
X00236500Y00180000
X00237500Y00156500
X00092000Y00172000
X00093500Y00207000
X00070500Y00232500
X00070500Y00242500
X00065500Y00185500
X00020418Y00192500
Y00136500
X00043750Y00125500
X00029000Y00277000
X00461500Y00271500
X00496264Y00256497
X00581419Y00279151
X00600000Y00234500
X00623500Y00222000
X00626750Y00258250
X00679000Y00247000
X00683000Y00270000
X00750250Y00276000
X00695500Y00143250
X00684750Y00116000
Y00108000
X00675000Y00040000
X00699000Y00044500
X00701999Y00008500
X00638000Y00019000
X00610500Y00013000
X00565000Y00010000
X00523000Y00012000
X00530000Y00027500
X00552250Y00041750
X00565750Y00064000
X00583250Y00060000
X00588250Y00043000
X00547250Y00078500
X00526150Y00147393
X00508150Y00154393
X00469500Y00057250
X00448750Y00071750
X00425150Y00063393
X00449500Y00008500
X00775750Y00011000
X00886552Y00149095
X00909000Y00172000
X00905000Y00180000
X00909500Y00186500
X00906000Y00196000
X00917500Y00196000
X00912000Y00205000
X00914000Y00218000
X00908935Y00232588
X00873302Y00223095
X00848000Y00225000
X00851000Y00270000
X00859000
Y00280000
X00851000
X00805000Y00278000
X00803000Y00269000
X00866000Y00174000
X00917500Y00177500
X00978000Y00155500
X01045600Y00098800
X01055100
X01064600
X01064500Y00022500
X01055000
X01045500
X00990302Y00270345
X00990552Y00298095
X00972500Y00328500
X00977000Y00359500
X00987500Y00360000
X00992500Y00367500
X00982000Y00367000
X00946000Y00375000
X00918831Y00316157
X00917830Y00307980
X00913000Y00302000
X00848750Y00304250
X00851000Y00289000
X00859000
X00805000
X00812750Y00304136
X00806750Y00311000
X00807000Y00321250
X00862000Y00355000
Y00367000
X00918500Y00461500
X00783641Y00464359
X00747000Y00451000
X00726000Y00437500
X00765250Y00429000
X00766750Y00387250
X00774750Y00377500
Y00358500
X00781000Y00345000
X00777750Y00305750
X00787000Y00305500
X00749000Y00292000
X00740000Y00340000
X00718000Y00340750
X00692500Y00339250
X00689750Y00356750
X00688000Y00368750
X00680250Y00366500
X00671000
Y00358250
X00671000Y00388750
X00664000
X00655750
X00678250
X00686500
X00692250Y00406250
X00698250Y00402250
X00699250Y00411000
X00705750Y00404750
X00705000Y00397250
X00713000Y00398250
X00718750Y00391500
X00722250Y00384250
X00730844Y00376104
X00738750Y00381500
X00739000Y00366250
X00726750
X00791250Y00385250
X00671250Y00411500
X00679500Y00429250
X00644000Y00496772
X00620250Y00488000
X00516594Y00485104
X00512594Y00495354
X00475000Y00540000
X00408750Y00481250
X00426500Y00379000
Y00357500
X00438000Y00352500
X00417052Y00345345
X00458014Y00333747
X00436052Y00303845
X00474014Y00293497
X00545344Y00329354
X00595014Y00315247
X00606264Y00300747
X00614250Y00295000
X00626844Y00295104
X00625500Y00323750
X00637014Y00343497
X00663000Y00331250
X00678000Y00320250
X00676750Y00309750
X00603250Y00385500
X00596750Y00379000
X00569750Y00417500
X00561500Y00412500
X00398786Y00436464
X00386000Y00459065
X00382708Y00493701
X00371805Y00491825
X00361500Y00489000
X00354000Y00438000
X00338000Y00439950
X00318000Y00461700
X00298000Y00458450
X00257828Y00458422
X00251000Y00439000
X00258000Y00489250
X00270000
X00268000Y00540000
X00226500Y00539500
X00208000Y00534500
X00200500Y00540500
X00161500Y00540000
X00125500
X00084500
X00050000
X00051500Y00486000
X00043250Y00459750
X00034500Y00449500
X00010000Y00455000
Y00475000
Y00495000
X00075000Y00500750
X00098000Y00498500
X00147000Y00478000
X00145250Y00461000
X00177500Y00469500
X00173500Y00503500
X00217500
X00212500Y00462000
X00176500Y00427000
X00180500Y00420000
X00172000Y00415000
X00171250Y00406500
X00178750Y00390250
X00172000Y00382500
Y00367500
Y00358000
X00159750
X00197150Y00380540
Y00389040
Y00397540
X00205650
Y00389040
Y00380540
X00243000Y00347500
X00266000Y00359500
X00284052Y00347595
X00275535Y00318166
X00293500Y00312000
X00302250
X00311000
X00305500Y00324750
X00348250Y00340500
X00369802Y00331345
X00360500Y00368000
X00323500
X00397302Y00359845
X00385000Y00540000
X00327000Y00541000
X00106750Y00397000
X00091000Y00373500
X00070500Y00367500
X00060750Y00367500
X00062500Y00356500
X00060750Y00337500
X00070500Y00337500
X00071250Y00382000
X00060750Y00382500
X00060750Y00391500
X00061000Y00400750
X00060750Y00412500
X00027000Y00316000
X00028000Y00307000
Y00292000
T05
X00734600Y00141300
X00747300Y00166500
X00772700
X00798100
X00785400Y00191900
X00760000
X00734600
X00760000Y00128600
X00823500
Y00166500
X00848900
Y00141300
X00836200Y00191900
X00810800
T06
X00725450Y00062400
X00750850
X00764300Y00283000
X00789700
X00728700
X00703300
X00645000Y00274300
Y00248900
X00832650Y00062400
X00858050
X01093000Y00073400
Y00098800
Y00124200
Y00149600
Y00048000
Y00022600
Y00454400
Y00479800
Y00505200
Y00530600
X00884800Y00520700
X00859400
X00834000
X00808600
Y00495200
X00834000
X00859400Y00495250
X00884800Y00495200
X00911500Y00443400
Y00418000
Y00392600
X00783200Y00495200
X00757800
X00732400
X00707000
X00681600
X00656200
Y00520700
X00681600
X00707000
X00732400
X00757800
X00783200
X00645000Y00325100
Y00299700
X00132700Y00518000
X00107300
T08
X00713000Y00133500
X00870500
M30
