M48
;Layer_Color=9474304
;FILE_FORMAT=4:4
METRIC
;TYPE=NON_PLATED
T9F00S00C0.6500
T10F00S00C0.9000
T11F00S00C1.0000
T12F00S00C1.1000
T13F00S00C1.2500
T14F00S00C1.6000
T15F00S00C3.2000
T16F00S00C3.7000
%
T09
X00612600Y00057250
X00670400
T10
X00020500Y00149500
Y00179500
T11
X00294500Y00280000
X00374500
X00454500Y00052000
X00529500
T12
X00100000Y00425000
T13
X00666600Y00274300
T14
X00100000Y00225000
T15
X00028000Y00033000
X00734600Y00103000
X00848900
X01172000Y00033000
X01172000Y00517000
X00028000
T16
X00085000Y00130000
X00565000
X00882274Y00325118
X00565000Y00460000
X00085000
M30
